<svg width="21" height="21" viewBox="0 0 21 21" fill="none" xmlns="http://www.w3.org/2000/svg">
<path d="M1.24994 10.535C1.24666 12.2926 1.74418 14.0148 2.68427 15.4998C3.62442 16.985 4.96827 18.1715 6.55843 18.9205C8.1486 19.6695 9.91925 19.9499 11.663 19.7289C13.4068 19.5079 15.0515 18.7946 16.4045 17.6726L16.6146 17.4983L16.4227 17.3043L3.80766 4.55431L3.61591 4.36051L3.43941 4.56829C2.02432 6.23416 1.2482 8.34923 1.24994 10.535ZM1.24994 10.535C1.24994 10.5349 1.24994 10.5348 1.24995 10.5347L1.49994 10.5351L1.24994 10.5353C1.24994 10.5352 1.24994 10.5351 1.24994 10.535ZM16.2449 17.4801L16.0672 17.656L16.0493 17.6378C16.1152 17.5862 16.1804 17.5336 16.2449 17.4801ZM16.2449 17.4801L16.0854 17.2877C16.0797 17.2924 16.0741 17.297 16.0684 17.3017L16.2449 17.4801ZM3.62994 4.73014L3.82048 4.89199C3.8158 4.8975 3.81112 4.90302 3.80646 4.90854L3.62994 4.73014ZM3.62994 4.73014L3.45223 4.90597L3.46997 4.92391C3.52232 4.85865 3.57565 4.79406 3.62994 4.73014ZM20.7499 10.5343L20.7499 10.5359C20.7544 11.8993 20.4852 13.2496 19.9583 14.5071C19.4445 15.7333 18.6959 16.8468 17.7548 17.7851H17.7111L17.6383 17.8557C15.9402 19.5036 13.7243 20.5133 11.3665 20.7133C9.00867 20.9133 6.65428 20.2914 4.70284 18.9531C2.75139 17.6148 1.32308 15.6425 0.660297 13.371C-0.00248947 11.0995 0.141069 8.66856 1.06661 6.49082C1.99215 4.31307 3.64267 2.52263 5.73807 1.42331C7.83347 0.323997 10.2447 -0.0164727 12.5626 0.459678C14.8804 0.935829 16.9622 2.19927 18.4545 4.0356C19.9468 5.87194 20.7579 8.16805 20.7499 10.5343ZM19.7499 10.5357L19.7499 10.5347C19.747 8.77298 19.241 7.04873 18.2914 5.56478C17.3419 4.08083 15.9884 2.8989 14.39 2.15801C12.7916 1.41712 11.0149 1.14809 9.26884 1.38257C7.52277 1.61705 5.87998 2.34527 4.53369 3.4816L4.32673 3.65628L4.51738 3.84863L17.1324 16.5761L17.3225 16.7679L17.4991 16.5636C18.9466 14.8884 19.7452 12.7496 19.7499 10.5357Z" fill="#001423" stroke="white" stroke-width="0.5"/>
</svg>
