<svg width="21" height="26" viewBox="0 0 21 26" fill="none" xmlns="http://www.w3.org/2000/svg">
<path d="M8.98469 15.2692L8.98475 15.2693C9.06513 15.3581 9.16563 15.3999 9.26367 15.3999C9.36319 15.3999 9.46531 15.3565 9.5462 15.2651L9.54623 15.265L16.373 7.56218L16.373 7.56217C16.5421 7.3715 16.5471 7.0523 16.3833 6.85434C16.2253 6.66331 15.9709 6.65877 15.8077 6.84245L8.98469 15.2692ZM8.98469 15.2692L5.73404 11.689C5.73404 11.689 5.73404 11.689 5.73404 11.689C5.56332 11.501 5.55471 11.1819 5.71652 10.9815L5.71656 10.9814M8.98469 15.2692L5.71656 10.9814M5.71656 10.9814C5.87272 10.7877 6.12729 10.7799 6.29201 10.961L5.71656 10.9814ZM9.31562 14.1676L15.8077 6.8425L6.29204 10.9611L9.20397 14.1683L9.26017 14.2302L9.31562 14.1676Z" fill="#001423" stroke="white" stroke-width="0.15"/>
<path d="M10.1659 0.263933L10.1658 0.26392C7.97413 2.03005 4.86568 2.90229 0.657459 2.98724C0.369056 3.01203 0.15 3.23838 0.15 3.4819C0.15 8.53493 0.151746 13.2984 1.35302 16.8569C2.03992 18.8674 3.05333 20.4773 4.50554 21.7999C5.95878 23.1234 7.85817 24.1653 10.3258 25.0296C10.3894 25.0495 10.4283 25.05 10.5148 25.05C10.6111 25.05 10.6342 25.0474 10.6572 25.0365L10.6644 25.033L10.6719 25.0304C13.1407 24.166 15.0408 23.1238 16.4945 21.7999C17.9466 20.4773 18.96 18.8675 19.6469 16.8571L10.1659 0.263933ZM10.1659 0.263933L10.1675 0.262534M10.1659 0.263933L10.1675 0.262534M10.1675 0.262534C10.3483 0.112489 10.6517 0.112489 10.8325 0.262534L10.8324 0.262546M10.1675 0.262534L10.8324 0.262546M10.8324 0.262546L10.8342 0.26392M10.8324 0.262546L10.8342 0.26392M10.8342 0.26392C13.0267 2.0307 16.1366 2.90293 20.3472 2.98733V2.98736M10.8342 0.26392L20.3472 2.98736M20.3472 2.98736H20.3502M20.3472 2.98736H20.3502M20.3502 2.98736C20.6249 2.98736 20.85 3.20351 20.85 3.4819M20.3502 2.98736L20.85 3.4819M20.85 3.4819C20.85 8.56278 20.8483 13.2982 19.6471 16.8566L20.85 3.4819ZM1.35219 3.92053L1.20865 3.92672V4.07039C1.20865 8.79924 1.26614 13.2539 2.36837 16.5325L2.36843 16.5327C2.98106 18.3474 3.90211 19.8268 5.2257 21.0506C6.54801 22.2732 8.26579 23.2349 10.4641 24.0241L10.5152 24.0424L10.5662 24.0238C12.764 23.2207 14.4815 22.2592 15.8037 21.0402C17.1272 19.8201 18.0483 18.3478 18.661 16.5331C19.7931 13.2535 19.8209 8.79764 19.8209 4.07039V3.92667L19.6773 3.92053C15.765 3.75307 12.7857 2.91637 10.6035 1.31526L10.5161 1.25114L10.4278 1.31398C8.21452 2.88893 5.2334 3.75315 1.35219 3.92053Z" fill="#001423" stroke="white" stroke-width="0.3"/>
</svg>
