<?xml version="1.0" encoding="UTF-8" standalone="no"?>
<svg
   width="30"
   height="30"
   viewBox="0 0 30 30"
   fill="none"
   version="1.1"
   id="svg6"
   sodipodi:docname="Block trackers 16px.svg"
   inkscape:version="1.1.1 (3bf5ae0d25, 2021-09-20)"
   xmlns:inkscape="http://www.inkscape.org/namespaces/inkscape"
   xmlns:sodipodi="http://sodipodi.sourceforge.net/DTD/sodipodi-0.dtd"
   xmlns="http://www.w3.org/2000/svg"
   xmlns:svg="http://www.w3.org/2000/svg">
  <defs
     id="defs10" />
  <sodipodi:namedview
     id="namedview8"
     pagecolor="#ffffff"
     bordercolor="#666666"
     borderopacity="1.0"
     inkscape:pageshadow="2"
     inkscape:pageopacity="0.0"
     inkscape:pagecheckerboard="0"
     showgrid="true"
     inkscape:snap-global="false"
     inkscape:zoom="16"
     inkscape:cx="7.65625"
     inkscape:cy="21.15625"
     inkscape:window-width="1920"
     inkscape:window-height="1001"
     inkscape:window-x="-9"
     inkscape:window-y="-9"
     inkscape:window-maximized="1"
     inkscape:current-layer="svg6"
     showguides="true"
     inkscape:guide-bbox="true">
    <inkscape:grid
       type="xygrid"
       id="grid2921" />
    <sodipodi:guide
       position="15.65625,26.03125"
       orientation="0,-1"
       id="guide3366" />
    <sodipodi:guide
       position="3.9375,23.5"
       orientation="1,0"
       id="guide3368" />
    <sodipodi:guide
       position="26,22.53125"
       orientation="1,0"
       id="guide3370" />
    <sodipodi:guide
       position="21.5625,3.9687499"
       orientation="0,-1"
       id="guide3452" />
  </sodipodi:namedview>
  <path
     d="m 8.5983928,9.2154904 -0.1002873,0.00377 v 0.087553 c 0,2.8817616 0.040167,5.5964336 0.8102602,7.5944156 l 4.21e-5,1.22e-4 c 0.4280254,1.105877 1.0715342,2.007426 1.9962852,2.753209 0.923858,0.745052 2.124015,1.331113 3.659907,1.812055 l 0.03569,0.01115 0.03563,-0.01133 c 1.535533,-0.489409 2.735496,-1.075349 3.659276,-1.818208 0.924691,-0.74353 1.568233,-1.640749 1.996306,-2.746627 0.790963,-1.998591 0.810387,-4.713995 0.810387,-7.5947827 v -0.08758 l -0.100326,-0.00374 C 18.668173,9.1134401 16.586628,8.6035549 15.061994,7.6278375 l -0.06107,-0.039076 -0.06171,0.038295 C 13.392885,8.5868327 11.310071,9.1134888 8.5983909,9.2154904 Z"
     id="path893"
     style="stroke:#001423;stroke-width:0.996211;stroke-miterlimit:4;stroke-dasharray:none;stroke-opacity:1" />
  <path
     style="fill:none;stroke:#000000;stroke-width:1;stroke-linecap:round;stroke-linejoin:round;stroke-miterlimit:4;stroke-dasharray:none;stroke-opacity:1"
     d="m 11.448276,13.671933 2.709564,2.879824 4.393886,-5.103481"
     id="path2962"
     sodipodi:nodetypes="ccc" />
</svg>
