<svg width="22" height="21" viewBox="0 0 22 21" fill="none" xmlns="http://www.w3.org/2000/svg">
<path d="M11.2423 17.5262L11.3478 17.5843L17.0403 20.7198C17.1157 20.7612 17.1968 20.7812 17.2772 20.7812C17.3817 20.7812 17.4867 20.7474 17.5768 20.6789L11.2423 17.5262ZM11.2423 17.5262L11.1368 17.5843M11.2423 17.5262L11.1368 17.5843M11.1368 17.5843L5.44424 20.7199C5.44421 20.7199 5.44418 20.7199 5.44415 20.7199C5.27237 20.8141 5.06539 20.7991 4.90769 20.6791C4.74807 20.5576 4.66396 20.3473 4.69864 20.1354L5.78557 13.4938L5.80345 13.3845M11.1368 17.5843L5.80345 13.3845M5.80345 13.3845L5.72599 13.3054M5.80345 13.3845L5.72599 13.3054M5.72599 13.3054L1.12052 8.60148L1.12048 8.60144M5.72599 13.3054L1.12048 8.60144M1.12048 8.60144C0.97765 8.45562 0.923925 8.23361 0.987102 8.02987L0.987118 8.02981M1.12048 8.60144L0.987118 8.02981M0.987118 8.02981C1.05003 7.82676 1.21473 7.68599 1.40442 7.65707L7.76971 6.6881L7.885 6.67055M0.987118 8.02981L7.885 6.67055M7.885 6.67055L7.93469 6.56506M7.885 6.67055L7.93469 6.56506M7.93469 6.56506L10.781 0.522401C10.8705 0.332465 11.0512 0.21875 11.2423 0.21875C11.4334 0.21875 11.6141 0.332465 11.7036 0.5224L14.5499 6.56506L14.5996 6.67055M7.93469 6.56506L14.5996 6.67055M14.5996 6.67055L14.7149 6.6881M14.5996 6.67055L14.7149 6.6881M14.7149 6.6881L21.08 7.65707C21.08 7.65708 21.08 7.65708 21.08 7.65708C21.2695 7.68599 21.4341 7.82664 21.4973 8.02987C21.5604 8.23361 21.5067 8.45562 21.3639 8.60144L21.3639 8.60147M14.7149 6.6881L21.3639 8.60147M21.3639 8.60147L16.7584 13.3049L16.6809 13.384M21.3639 8.60147L16.6809 13.384M16.6809 13.384L16.6988 13.4933M16.6809 13.384L16.6988 13.4933M16.6988 13.4933L17.786 20.1349M16.6988 13.4933L17.786 20.1349M2.60182 8.58885L3.02388 8.52459L8.29729 7.72176C8.46179 7.69663 8.60849 7.58781 8.68591 7.42347L11.0444 2.41682L11.2423 1.99672L11.4402 2.41682L13.7985 7.42322C13.7985 7.42323 13.7985 7.42323 13.7985 7.42323C13.8759 7.58752 14.0228 7.69639 14.1871 7.72152L19.4603 8.52435L19.8823 8.58861L19.5836 8.89365L15.7681 12.7905L2.60182 8.58885ZM2.60182 8.58885L2.9005 8.89389L6.71617 12.7908L6.71619 12.7908C6.83947 12.9167 6.89801 13.1014 6.86803 13.2839L6.86801 13.284L5.96736 18.7869L5.89469 19.2309L6.28878 19.0138L11.0054 16.4158M2.60182 8.58885L11.0054 16.4158M11.0054 16.4158C11.154 16.3341 11.3304 16.3341 11.4789 16.4158M11.0054 16.4158H11.4789M11.4789 16.4158L16.1954 19.0138L16.5895 19.2309L16.5168 18.7869L15.6161 13.284L15.6161 13.284C15.5861 13.1012 15.6446 12.9167 15.768 12.7906L11.4789 16.4158ZM17.786 20.1349C17.786 20.1349 17.786 20.1349 17.786 20.1349M17.786 20.1349L17.786 20.1349M17.786 20.1349C17.8206 20.3469 17.7366 20.557 17.577 20.6788L17.786 20.1349Z" fill="#001423" stroke="#FEFEFE" stroke-width="0.4375"/>
</svg>
