<?xml version="1.0" encoding="UTF-8" standalone="no"?>
<!-- Created with Inkscape (http://www.inkscape.org/) -->

<svg
   width="30"
   height="30"
   version="1.1"
   viewBox="0 0 30 30"
   id="svg6"
   xmlns="http://www.w3.org/2000/svg"
   xmlns:svg="http://www.w3.org/2000/svg">
  <defs
     id="defs10" />
  <path
     style="color:#000000;fill:#000000;stroke-linejoin:round;-inkscape-stroke:none;paint-order:markers fill stroke"
     d="M 15.037109,7 A 0.50005,0.50005 0 0 0 14.583984,7.2851562 L 12.349609,11.96875 7.4257812,12.701172 A 0.50005,0.50005 0 0 0 7.140625,13.542969 l 3.550781,3.669922 -0.8769529,5.169921 a 0.50005,0.50005 0 0 0 0.7343749,0.521485 l 4.408203,-2.410156 4.378906,2.443359 a 0.50005,0.50005 0 0 0 0.736329,-0.515625 l -0.8125,-5.173828 3.595703,-3.646484 a 0.50005,0.50005 0 0 0 -0.277344,-0.84375 L 17.664062,11.988281 15.488281,7.2890625 A 0.50005,0.50005 0 0 0 15.037109,7 Z m -0.0078,1.6757813 1.839844,3.9746097 a 0.50005,0.50005 0 0 0 0.376953,0.285156 l 4.214843,0.658203 -3.089843,3.130859 a 0.50005,0.50005 0 0 0 -0.138672,0.429688 l 0.691406,4.408203 -3.720703,-2.076172 a 0.50005,0.50005 0 0 0 -0.484375,-0.002 l -3.746094,2.048828 0.746094,-4.402344 A 0.50005,0.50005 0 0 0 11.585938,16.701172 L 8.5351563,13.546875 12.759766,12.917969 a 0.50005,0.50005 0 0 0 0.378906,-0.279297 z"
     id="path2" />
</svg>
