<svg width="22" height="19" viewBox="0 0 22 19" fill="none" xmlns="http://www.w3.org/2000/svg">
<path d="M19.1898 18.6162H9.36643C9.17449 18.6162 9.00476 18.4451 9.00476 18.221C9.00476 17.9969 9.17449 17.8258 9.36643 17.8258H19.1898C19.7445 17.8258 20.1814 17.3467 20.1814 16.7705V2.69088C20.1814 2.11469 19.7445 1.63556 19.1898 1.63556H1.82977C1.27504 1.63556 0.838099 2.11469 0.838099 2.69088V8.86792C0.838099 9.092 0.668372 9.26309 0.476432 9.26309C0.284493 9.26309 0.114766 9.092 0.114766 8.86792V2.69088C0.114766 1.66654 0.891159 0.845234 1.82977 0.845234H19.1898C20.1284 0.845234 20.9048 1.66654 20.9048 2.69088V16.7705C20.9048 17.7949 20.1284 18.6162 19.1898 18.6162ZM2.80977 18.5662C2.61783 18.5662 2.4481 18.3951 2.4481 18.171C2.4481 17.0196 1.56783 16.0653 0.476432 16.0653C0.284493 16.0653 0.114766 15.8942 0.114766 15.6702C0.114766 15.4461 0.284493 15.275 0.476432 15.275C1.95171 15.275 3.17143 16.5715 3.17143 18.171C3.17143 18.3951 3.00171 18.5662 2.80977 18.5662ZM5.1431 18.5662C4.95116 18.5662 4.78143 18.3951 4.78143 18.171C4.78143 15.6442 2.85116 13.5645 0.476432 13.5645C0.284493 13.5645 0.114766 13.3934 0.114766 13.1693C0.114766 12.9453 0.284493 12.7742 0.476432 12.7742C3.23504 12.7742 5.50477 15.196 5.50477 18.171C5.50477 18.3951 5.33504 18.5662 5.1431 18.5662Z" fill="#001423" stroke="white" stroke-width="0.21"/>
<path d="M7.47643 17.5717C7.28449 17.5717 7.11477 17.4006 7.11477 17.1765C7.11477 13.2742 4.13449 10.0692 0.476432 10.0692C0.284493 10.0692 0.114766 9.89807 0.114766 9.67399C0.114766 9.44992 0.284493 9.27883 0.476432 9.27883C4.51837 9.27883 7.8381 12.826 7.8381 17.1765C7.8381 17.4006 7.66837 17.5717 7.47643 17.5717Z" fill="#001423" stroke="white" stroke-width="0.21"/>
<path d="M1.8381 17.2326C1.8381 17.4578 1.66944 17.6278 1.47643 17.6278C1.28343 17.6278 1.11477 17.4578 1.11477 17.2326C1.11477 17.0074 1.28343 16.8374 1.47643 16.8374C1.66944 16.8374 1.8381 17.0074 1.8381 17.2326Z" fill="#001423" stroke="white" stroke-width="0.21"/>
</svg>
