<?xml version="1.0" encoding="UTF-8" standalone="no"?>
<!-- Created with Inkscape (http://www.inkscape.org/) -->

<svg
   width="30"
   height="30"
   viewBox="0 0 30 30"
   version="1.1"
   id="svg14380"
   sodipodi:docname="Cast 16 px_v.2.svg"
   inkscape:version="1.1.1 (3bf5ae0d25, 2021-09-20)"
   xmlns:inkscape="http://www.inkscape.org/namespaces/inkscape"
   xmlns:sodipodi="http://sodipodi.sourceforge.net/DTD/sodipodi-0.dtd"
   xmlns="http://www.w3.org/2000/svg"
   xmlns:svg="http://www.w3.org/2000/svg">
  <sodipodi:namedview
     id="namedview14382"
     pagecolor="#ffffff"
     bordercolor="#666666"
     borderopacity="1.0"
     inkscape:pageshadow="2"
     inkscape:pageopacity="0.0"
     inkscape:pagecheckerboard="0"
     inkscape:document-units="px"
     showgrid="true"
     inkscape:zoom="22.627417"
     inkscape:cx="3.2482718"
     inkscape:cy="16.152971"
     inkscape:window-width="1920"
     inkscape:window-height="1017"
     inkscape:window-x="-8"
     inkscape:window-y="-8"
     inkscape:window-maximized="1"
     inkscape:current-layer="svg14380"
     units="px"
     height="16px"
     inkscape:snap-grids="false"
     inkscape:snap-to-guides="false"
     inkscape:snap-global="false"
     inkscape:snap-others="false"
     inkscape:snap-nodes="false"
     width="15px"
     scale-x="1">
    <inkscape:grid
       type="xygrid"
       id="grid828" />
    <inkscape:grid
       type="xygrid"
       id="grid4559" />
  </sodipodi:namedview>
  <defs
     id="defs14377">
    <clipPath
       id="clip0_1179:2925">
      <rect
         width="22"
         height="22"
         fill="#ffffff"
         transform="translate(0.742188)"
         id="rect14794"
         x="0"
         y="0" />
    </clipPath>
    <clipPath
       id="clip0_1179:2925-8">
      <rect
         width="22"
         height="22"
         fill="#ffffff"
         transform="translate(0.742188)"
         id="rect14794-5"
         x="0"
         y="0" />
    </clipPath>
    <clipPath
       id="clip0_1179:2925-84">
      <rect
         width="22"
         height="22"
         fill="#ffffff"
         transform="translate(0.742188)"
         id="rect14794-3"
         x="0"
         y="0" />
    </clipPath>
    <clipPath
       id="clip0_1179:2925-8-1">
      <rect
         width="22"
         height="22"
         fill="#ffffff"
         transform="translate(0.742188)"
         id="rect14794-5-2"
         x="0"
         y="0" />
    </clipPath>
    <clipPath
       id="clip0_1179:2925-3">
      <rect
         width="22"
         height="22"
         fill="#ffffff"
         transform="translate(0.742188)"
         id="rect14794-57"
         x="0"
         y="0" />
    </clipPath>
    <clipPath
       id="clip0_1179:2925-8-6">
      <rect
         width="22"
         height="22"
         fill="#ffffff"
         transform="translate(0.742188)"
         id="rect14794-5-1"
         x="0"
         y="0" />
    </clipPath>
    <clipPath
       id="clip0_1179:2925-86">
      <rect
         width="22"
         height="22"
         fill="#ffffff"
         transform="translate(0.742188)"
         id="rect14794-59"
         x="0"
         y="0" />
    </clipPath>
    <clipPath
       id="clip0_1179:2925-8-0">
      <rect
         width="22"
         height="22"
         fill="#ffffff"
         transform="translate(0.742188)"
         id="rect14794-5-7"
         x="0"
         y="0" />
    </clipPath>
  </defs>
  <path
     d="m 12.47681,22 c -0.288879,0 -0.523028,-0.234154 -0.523028,-0.523041 0,-1.183497 -0.460851,-2.296219 -1.297726,-3.133115 C 9.8191818,17.506946 8.7064898,17.046081 7.5230259,17.046081 7.2341462,17.046081 7,16.811929 7,16.52304 7,16.234154 7.2341462,16 7.5230259,16 8.9859438,16 10.361223,16.569673 11.395866,17.604179 12.430344,18.638684 13,20.014 13,21.476959 12.999837,21.765846 12.765689,22 12.47681,22 Z"
     id="path15997"
     style="display:none;fill:#000000;fill-opacity:1;stroke:none;stroke-width:0.052728;stroke-miterlimit:4;stroke-dasharray:none" />
  <path
     d="m 10.406336,22 c -0.327997,0 -0.5938502,-0.265866 -0.5938502,-0.59388 0,-0.592565 -0.230745,-1.149642 -0.649801,-1.568719 C 8.7436278,19.418512 8.1865748,19.187759 7.5940383,19.187759 7.265853,19.187759 7,18.921891 7,18.59388 7,18.265866 7.265853,18 7.593851,18 8.5034968,18 9.3588818,18.354297 10.002299,18.997558 10.645717,19.641006 11,20.496432 11,21.406308 11,21.734134 10.734146,22 10.406336,22 Z"
     id="path15993"
     style="display:none;fill:#000000;fill-opacity:1;stroke:none;stroke-width:1;stroke-miterlimit:4;stroke-dasharray:none" />
  <circle
     style="fill:#000000;fill-opacity:1;stroke:#000000;stroke-width:1;stroke-linecap:round;stroke-linejoin:round;stroke-miterlimit:4;stroke-dasharray:none;stroke-opacity:1"
     id="path1111"
     cx="8.25"
     cy="20.75"
     r="0.75" />
  <path
     id="rect985"
     style="fill:none;stroke:#000000;stroke-width:0.999998;stroke-linecap:butt;stroke-linejoin:bevel"
     d="m 7.5,12.999443 v -2.49969 C 7.5,9.9458211 7.723,9.445883 8.0845,9.0844277 8.446,8.7229724 8.946,8.5 9.5,8.5 h 11 c 1.108,0 2,0.8918897 2,1.999753 v 8.998887 c 0,1.107862 -0.892007,1.99574 -2,1.999752 -1.816879,0.0066 -2.691534,-0.0099 -4.5,0"
     sodipodi:nodetypes="csssssssc" />
  <path
     style="fill:none;stroke:#000000;stroke-width:0.999998;stroke-linecap:square;stroke-miterlimit:4;stroke-dasharray:none"
     id="path1061"
     sodipodi:type="arc"
     sodipodi:cx="7.5"
     sodipodi:cy="21.5"
     sodipodi:rx="5"
     sodipodi:ry="5"
     sodipodi:start="4.712389"
     sodipodi:end="0"
     sodipodi:open="true"
     sodipodi:arc-type="arc"
     d="m 7.5,16.5 a 5,5 0 0 1 5,5" />
  <path
     style="fill:none;stroke:#000000;stroke-width:0.999998;stroke-linecap:square;stroke-miterlimit:4;stroke-dasharray:none"
     id="path2053"
     sodipodi:type="arc"
     sodipodi:cx="7.4999995"
     sodipodi:cy="21.499384"
     sodipodi:rx="7.9999995"
     sodipodi:ry="8"
     sodipodi:start="4.712389"
     sodipodi:end="0"
     sodipodi:open="true"
     sodipodi:arc-type="arc"
     d="m 7.4999995,13.499384 a 7.9999995,8 0 0 1 7.9999995,8" />
</svg>
