<?xml version="1.0" encoding="UTF-8" standalone="no"?>
<!-- Created with Inkscape (http://www.inkscape.org/) -->

<svg
   width="30"
   height="30"
   viewBox="0 0 30 30"
   version="1.1"
   id="svg14380"
   sodipodi:docname="Cast 16 px.svg"
   inkscape:version="1.1.1 (3bf5ae0d25, 2021-09-20)"
   xmlns:inkscape="http://www.inkscape.org/namespaces/inkscape"
   xmlns:sodipodi="http://sodipodi.sourceforge.net/DTD/sodipodi-0.dtd"
   xmlns="http://www.w3.org/2000/svg"
   xmlns:svg="http://www.w3.org/2000/svg">
  <sodipodi:namedview
     id="namedview14382"
     pagecolor="#ffffff"
     bordercolor="#666666"
     borderopacity="1.0"
     inkscape:pageshadow="2"
     inkscape:pageopacity="0.0"
     inkscape:pagecheckerboard="0"
     inkscape:document-units="px"
     showgrid="true"
     inkscape:zoom="22.627417"
     inkscape:cx="2.80633"
     inkscape:cy="13.412932"
     inkscape:window-width="1920"
     inkscape:window-height="1001"
     inkscape:window-x="-9"
     inkscape:window-y="-9"
     inkscape:window-maximized="1"
     inkscape:current-layer="svg14380"
     units="px"
     height="16px"
     inkscape:snap-grids="false"
     inkscape:snap-to-guides="false"
     inkscape:snap-global="false"
     inkscape:snap-others="false"
     inkscape:snap-nodes="false"
     width="15px"
     scale-x="1">
    <inkscape:grid
       type="xygrid"
       id="grid828" />
    <inkscape:grid
       type="xygrid"
       id="grid4559" />
  </sodipodi:namedview>
  <defs
     id="defs14377">
    <clipPath
       id="clip0_1179:2925">
      <rect
         width="22"
         height="22"
         fill="#ffffff"
         transform="translate(0.742188)"
         id="rect14794"
         x="0"
         y="0" />
    </clipPath>
    <clipPath
       id="clip0_1179:2925-8">
      <rect
         width="22"
         height="22"
         fill="#ffffff"
         transform="translate(0.742188)"
         id="rect14794-5"
         x="0"
         y="0" />
    </clipPath>
    <clipPath
       id="clip0_1179:2925-84">
      <rect
         width="22"
         height="22"
         fill="#ffffff"
         transform="translate(0.742188)"
         id="rect14794-3"
         x="0"
         y="0" />
    </clipPath>
    <clipPath
       id="clip0_1179:2925-8-1">
      <rect
         width="22"
         height="22"
         fill="#ffffff"
         transform="translate(0.742188)"
         id="rect14794-5-2"
         x="0"
         y="0" />
    </clipPath>
    <clipPath
       id="clip0_1179:2925-3">
      <rect
         width="22"
         height="22"
         fill="#ffffff"
         transform="translate(0.742188)"
         id="rect14794-57"
         x="0"
         y="0" />
    </clipPath>
    <clipPath
       id="clip0_1179:2925-8-6">
      <rect
         width="22"
         height="22"
         fill="#ffffff"
         transform="translate(0.742188)"
         id="rect14794-5-1"
         x="0"
         y="0" />
    </clipPath>
    <clipPath
       id="clip0_1179:2925-86">
      <rect
         width="22"
         height="22"
         fill="#ffffff"
         transform="translate(0.742188)"
         id="rect14794-59"
         x="0"
         y="0" />
    </clipPath>
    <clipPath
       id="clip0_1179:2925-8-0">
      <rect
         width="22"
         height="22"
         fill="#ffffff"
         transform="translate(0.742188)"
         id="rect14794-5-7"
         x="0"
         y="0" />
    </clipPath>
  </defs>
  <path
     d="m 12.47681,19 c -0.288879,0 -0.523028,-0.234154 -0.523028,-0.523041 0,-1.183497 -0.460851,-2.296219 -1.297726,-3.133115 C 9.8191822,14.506946 8.7064899,14.046081 7.5230259,14.046081 7.2341462,14.046081 7,13.811929 7,13.52304 7,13.234154 7.2341462,13 7.5230259,13 8.9859442,13 10.361223,13.569673 11.395866,14.604179 12.430344,15.638684 13,17.014 13,18.476959 12.999837,18.765846 12.765689,19 12.47681,19 Z"
     id="path15997"
     style="fill:#000000;fill-opacity:1;stroke:none;stroke-width:0.052728;stroke-miterlimit:4;stroke-dasharray:none" />
  <path
     d="m 10.406336,19 c -0.327997,0 -0.5938507,-0.265866 -0.5938507,-0.59388 0,-0.592565 -0.2307445,-1.149642 -0.6498009,-1.568719 C 8.7436279,16.418512 8.1865752,16.187759 7.5940383,16.187759 7.265853,16.187759 7,15.921891 7,15.59388 7,15.265866 7.265853,15 7.593851,15 8.5034964,15 9.3588822,15.354297 10.002299,15.997558 10.645717,16.641006 11,17.496432 11,18.406308 11,18.734134 10.734146,19 10.406336,19 Z"
     id="path15993"
     style="fill:#000000;fill-opacity:1;stroke:none;stroke-width:0.0598685;stroke-miterlimit:4;stroke-dasharray:none" />
  <path
     style="color:#000000;fill:#000000;fill-opacity:1;stroke:none;stroke-width:1;stroke-linejoin:round;stroke-miterlimit:4;stroke-dasharray:none"
     d="m 9.1543995,7 c -1.1655655,6e-7 -2.1246262,1.0016213 -2.1293402,2.2132783 l -0.015773,3.2434577 1.0488974,0.008 0.015774,-3.2515063 C 8.0764557,8.5709202 8.5753369,8.0704222 9.1543995,8.0704216 H 19.887853 c 0.579064,6e-7 1.072555,0.5001908 1.072555,1.1428567 v 7.5492897 c 0,0.642665 -0.493491,1.142855 -1.072555,1.142856 a 0.52328427,0.53402259 0 0 0 -0.0079,0 l -2.988962,0.02416 -3.564675,-0.03219 -0.01578,1.07042 3.572557,0.03217 a 0.52328427,0.53402259 0 0 0 0.0079,0 l 2.996841,-0.02416 c 1.165562,2.2e-5 2.121452,-1.001895 2.121452,-2.213258 V 9.2132783 C 22.009292,8.0019142 21.053401,7.0000006 19.887838,7 Z"
     id="path7355" />
  <ellipse
     style="fill:none;stroke:#212500;stroke-width:1.35238;stroke-linecap:round;stroke-linejoin:round;stroke-miterlimit:4;stroke-dasharray:none"
     id="path1111"
     cx="8.0000019"
     cy="18.000004"
     rx="0.32381207"
     ry="0.32381383" />
</svg>
