<?xml version="1.0" encoding="UTF-8" standalone="no"?>
<!-- Created with Inkscape (http://www.inkscape.org/) -->

<svg
   width="30"
   height="30"
   viewBox="0 0 30 30"
   version="1.1"
   id="svg5"
   inkscape:version="1.1.1 (3bf5ae0d25, 2021-09-20)"
   sodipodi:docname="Clear browsing data 16x.svg"
   xmlns:inkscape="http://www.inkscape.org/namespaces/inkscape"
   xmlns:sodipodi="http://sodipodi.sourceforge.net/DTD/sodipodi-0.dtd"
   xmlns="http://www.w3.org/2000/svg"
   xmlns:svg="http://www.w3.org/2000/svg">
  <sodipodi:namedview
     id="namedview7"
     pagecolor="#ffffff"
     bordercolor="#666666"
     borderopacity="1.0"
     inkscape:pageshadow="2"
     inkscape:pageopacity="0.0"
     inkscape:pagecheckerboard="0"
     inkscape:document-units="px"
     showgrid="true"
     units="px"
     inkscape:zoom="16"
     inkscape:cx="17.09375"
     inkscape:cy="21.28125"
     inkscape:window-width="1920"
     inkscape:window-height="1001"
     inkscape:window-x="-9"
     inkscape:window-y="-9"
     inkscape:window-maximized="1"
     inkscape:current-layer="svg5"
     inkscape:snap-global="false"
     showguides="true"
     inkscape:guide-bbox="true">
    <inkscape:grid
       type="xygrid"
       id="grid824" />
    <sodipodi:guide
       position="21.699339,25.97833"
       orientation="0,-1"
       id="guide1085" />
    <sodipodi:guide
       position="23.997436,4.0138257"
       orientation="0,-1"
       id="guide1087" />
    <sodipodi:guide
       position="25.94198,16.87433"
       orientation="1,0"
       id="guide1089" />
    <sodipodi:guide
       position="3.9774757,18.730486"
       orientation="1,0"
       id="guide1091" />
  </sodipodi:namedview>
  <defs
     id="defs2" />
  <path
     id="path12103"
     style="fill:none;stroke:#000000;stroke-width:0.740623;stroke-linecap:round;stroke-linejoin:round;stroke-miterlimit:4;stroke-dasharray:none;stroke-opacity:1"
     d="m 22.604054,16.914537 c -0.0057,2.70566 -0.0047,3.803192 -0.0029,3.670383 m 5.97e-4,0.07087 a 3.3637826,1.8954028 0 0 1 -1.614244,1.695362 3.3637826,1.8954028 0 0 1 -3.414128,0.02641 3.3637826,1.8954028 0 0 1 -1.696258,-1.669744 m 6.72463,-2.033595 a 3.3637826,1.8954028 0 0 1 -1.614244,1.695363 3.3637826,1.8954028 0 0 1 -3.414128,0.02641 3.3637826,1.8954028 0 0 1 -1.696258,-1.669744 m 6.752767,-1.644841 a 3.3794478,1.7111139 0 0 1 -3.379447,1.711114 3.3794478,1.7111139 0 0 1 -3.379448,-1.711114 3.3794478,1.7111139 0 0 1 3.379448,-1.711114 3.3794478,1.7111139 0 0 1 3.379447,1.711114 z m -6.75512,-0.03142 c -0.0057,2.705662 -0.0047,3.803193 -0.0029,3.670383" />
  <path
     style="fill:none;stroke:#000000;stroke-width:0.957689;stroke-linecap:butt;stroke-linejoin:miter;stroke-miterlimit:4;stroke-dasharray:none;stroke-opacity:1"
     d="m 8,12 h 12.5 v 0"
     id="path1268" />
  <path
     style="fill:none;stroke:#000000;stroke-width:0.962233;stroke-linecap:butt;stroke-linejoin:miter;stroke-miterlimit:4;stroke-dasharray:none;stroke-opacity:1"
     d="m 7.5024221,16.481111 7.4951549,0.03778"
     id="path1270"
     sodipodi:nodetypes="cc" />
  <path
     id="path848"
     style="display:inline;fill:none;stroke:#000000;stroke-width:0.968325;stroke-miterlimit:4;stroke-dasharray:none"
     d="m 14.25,21.51584 c -3.736671,0 -6.7658374,-3.141097 -6.7658374,-7.015835 0,-3.874741 3.0291664,-7.0158408 6.7658374,-7.0158398 3.736668,0 6.765838,3.1410988 6.765838,7.0158398"
     sodipodi:nodetypes="cssc" />
  <path
     id="path974"
     style="fill:none;stroke:#000000;stroke-width:0.950055;stroke-miterlimit:4;stroke-dasharray:none"
     d="m 14.499998,21.53978 c -1.670676,-0.426093 -3.024971,-3.1485 -3.024971,-7.032375 0,-3.883873 1.354325,-7.0323774 3.024971,-7.0323774 1.670649,0 3.024975,3.1485044 3.024975,7.0323774"
     sodipodi:nodetypes="cssc" />
</svg>
