<svg width="21" height="21" viewBox="0 0 21 21" fill="none" xmlns="http://www.w3.org/2000/svg">
<mask id="path-1-inside-1_869:2387" fill="white">
<path d="M9.58696 0C4.29225 0 0 4.29219 0 9.58696C0 14.8817 4.29225 19.1739 9.58696 19.1739C14.8817 19.1739 19.1739 14.8817 19.1739 9.58696C19.1739 4.29219 14.8817 0 9.58696 0ZM9.58696 18.2152C8.82809 18.2152 7.8495 16.8012 7.25154 14.3804H11.9224C11.3244 16.8012 10.3458 18.2152 9.58696 18.2152ZM7.04598 13.4217C6.86307 12.4295 6.74545 11.3046 6.72052 10.0663H12.4534C12.4285 11.3046 12.3108 12.4295 12.1279 13.4217H7.04598ZM0.982979 10.0663H5.76183C5.78541 11.2543 5.89232 12.3862 6.07342 13.4217H1.86912C1.35958 12.4006 1.04939 11.2667 0.982979 10.0663ZM9.58696 0.958696C10.3458 0.958696 11.3244 2.37275 11.9224 4.79348H7.25154C7.8495 2.37275 8.82809 0.958696 9.58696 0.958696ZM12.1279 5.75217C12.3108 6.7444 12.4285 7.86927 12.4534 9.10761H6.72052C6.74545 7.86927 6.86307 6.7444 7.04598 5.75217H12.1279ZM5.76183 9.10761H0.982979C1.04939 7.90725 1.35958 6.77336 1.86912 5.75217H6.07342C5.89232 6.78776 5.78541 7.91966 5.76183 9.10761ZM13.4121 10.0663H18.1909C18.1245 11.2667 17.8143 12.4006 17.3048 13.4217H13.1005C13.2816 12.3862 13.3885 11.2543 13.4121 10.0663ZM13.4121 9.10761C13.3885 7.91966 13.2816 6.78776 13.1005 5.75217H17.3048C17.8143 6.77336 18.1245 7.90725 18.1909 9.10761H13.4121ZM16.7563 4.79348H12.9045C12.5508 3.26679 12.0365 2.00165 11.4155 1.15794C13.631 1.63828 15.5324 2.96901 16.7563 4.79348ZM7.75845 1.15794C7.13744 2.00165 6.6231 3.26679 6.26938 4.79348H2.41763C3.64151 2.96901 5.54293 1.63828 7.75845 1.15794ZM2.41763 14.3804H6.26938C6.6231 15.9071 7.1375 17.1722 7.75851 18.016C5.54299 17.5356 3.64151 16.205 2.41763 14.3804ZM11.4154 18.016C12.0364 17.1722 12.5508 15.9071 12.9045 14.3804H16.7563C15.5324 16.205 13.6309 17.5356 11.4154 18.016Z"/>
</mask>
<path d="M9.58696 0C4.29225 0 0 4.29219 0 9.58696C0 14.8817 4.29225 19.1739 9.58696 19.1739C14.8817 19.1739 19.1739 14.8817 19.1739 9.58696C19.1739 4.29219 14.8817 0 9.58696 0ZM9.58696 18.2152C8.82809 18.2152 7.8495 16.8012 7.25154 14.3804H11.9224C11.3244 16.8012 10.3458 18.2152 9.58696 18.2152ZM7.04598 13.4217C6.86307 12.4295 6.74545 11.3046 6.72052 10.0663H12.4534C12.4285 11.3046 12.3108 12.4295 12.1279 13.4217H7.04598ZM0.982979 10.0663H5.76183C5.78541 11.2543 5.89232 12.3862 6.07342 13.4217H1.86912C1.35958 12.4006 1.04939 11.2667 0.982979 10.0663ZM9.58696 0.958696C10.3458 0.958696 11.3244 2.37275 11.9224 4.79348H7.25154C7.8495 2.37275 8.82809 0.958696 9.58696 0.958696ZM12.1279 5.75217C12.3108 6.7444 12.4285 7.86927 12.4534 9.10761H6.72052C6.74545 7.86927 6.86307 6.7444 7.04598 5.75217H12.1279ZM5.76183 9.10761H0.982979C1.04939 7.90725 1.35958 6.77336 1.86912 5.75217H6.07342C5.89232 6.78776 5.78541 7.91966 5.76183 9.10761ZM13.4121 10.0663H18.1909C18.1245 11.2667 17.8143 12.4006 17.3048 13.4217H13.1005C13.2816 12.3862 13.3885 11.2543 13.4121 10.0663ZM13.4121 9.10761C13.3885 7.91966 13.2816 6.78776 13.1005 5.75217H17.3048C17.8143 6.77336 18.1245 7.90725 18.1909 9.10761H13.4121ZM16.7563 4.79348H12.9045C12.5508 3.26679 12.0365 2.00165 11.4155 1.15794C13.631 1.63828 15.5324 2.96901 16.7563 4.79348ZM7.75845 1.15794C7.13744 2.00165 6.6231 3.26679 6.26938 4.79348H2.41763C3.64151 2.96901 5.54293 1.63828 7.75845 1.15794ZM2.41763 14.3804H6.26938C6.6231 15.9071 7.1375 17.1722 7.75851 18.016C5.54299 17.5356 3.64151 16.205 2.41763 14.3804ZM11.4154 18.016C12.0364 17.1722 12.5508 15.9071 12.9045 14.3804H16.7563C15.5324 16.205 13.6309 17.5356 11.4154 18.016Z" fill="#001423" stroke="white" stroke-width="0.5" mask="url(#path-1-inside-1_869:2387)"/>
<path d="M18.5539 11.0081L17.0414 10.5039H16.0331H15.5289H15.0247H14.5206L13.5122 11.0081L13.0081 11.5122L12.5039 12.0164V13.0247V15.5456V17.5623V19.0748L13.0081 19.5789L14.5206 20.0831L15.5289 20.5873H17.0414L18.0498 20.0831H19.0581L20.0664 19.0748V17.0581V12.5206V12.0164L19.5623 11.5122L19.0581 11.0081H18.5539Z" fill="white"/>
<path d="M12.5039 15.5456V17.5623V19.0748L13.0081 19.5789L14.5206 20.0831L15.5289 20.5873H17.0414L18.0498 20.0831H19.0581L20.0664 19.0748V17.0581V12.5206V12.0164L19.5623 11.5122L19.0581 11.0081H18.5539L17.0414 10.5039H16.0331H15.5289H15.0247H14.5206L13.5122 11.0081L13.0081 11.5122L12.5039 12.0164M12.5039 15.5456V13.0247V12.0164M12.5039 15.5456V12.0164" stroke="white" stroke-width="0.5"/>
<path d="M20.5527 12.3571C20.5527 11.6326 20.009 11.0404 19.2354 10.6384C18.4619 10.2364 17.4218 10 16.2764 10C15.131 10 14.0909 10.2364 13.3173 10.6384C12.5437 11.0404 12 11.6326 12 12.3571C12.0012 14.1636 12 16.815 12 18.6429C12 19.3674 12.5437 19.9555 13.3173 20.3575C14.0908 20.7595 15.131 21 16.2764 21C17.4218 21 18.4619 20.7595 19.2355 20.3575C20.009 19.9555 20.5528 19.3674 20.5528 18.6429L20.5527 12.3571ZM16.2764 10.5238C17.3578 10.5238 18.3359 10.7527 19.0217 11.109C19.7074 11.4654 20.064 11.9245 20.064 12.3571C20.064 12.7898 19.7074 13.2448 19.0217 13.6012C18.3359 13.9575 17.3578 14.1905 16.2764 14.1905C15.195 14.1905 14.2169 13.9575 13.5311 13.6012C12.8453 13.2448 12.4887 12.7898 12.4887 12.3571C12.4887 11.9245 12.8454 11.4654 13.5311 11.109C14.2169 10.7527 15.195 10.5238 16.2764 10.5238ZM12.4887 13.4702C12.7094 13.7013 12.9921 13.9028 13.3173 14.0718C14.0908 14.4738 15.131 14.7143 16.2764 14.7143C17.4218 14.7143 18.4619 14.4738 19.2355 14.0718C19.5606 13.9028 19.8434 13.7013 20.064 13.4702C20.064 13.7103 20.064 14.2123 20.064 14.4524C20.064 14.885 19.7074 15.3401 19.0217 15.6964C18.3359 16.0528 17.3578 16.2857 16.2764 16.2857C15.195 16.2857 14.2169 16.0528 13.5311 15.6964C12.8453 15.3401 12.4887 14.885 12.4887 14.4524C12.4887 14.2123 12.4887 13.7103 12.4887 13.4702ZM12.4887 15.5655C12.7094 15.7965 12.9921 15.9981 13.3173 16.167C14.0908 16.569 15.131 16.8095 16.2764 16.8095C17.4218 16.8095 18.4619 16.569 19.2355 16.167C19.5606 15.9981 19.8434 15.7965 20.064 15.5655C20.064 15.8056 20.064 16.3075 20.064 16.5476C20.064 16.9802 19.7074 17.4353 19.0217 17.7917C18.3359 18.148 17.3578 18.381 16.2764 18.381C15.195 18.381 14.2169 18.148 13.5311 17.7917C12.8453 17.4353 12.4887 16.9802 12.4887 16.5476C12.4887 16.3075 12.4887 15.8056 12.4887 15.5655ZM12.4887 17.6607C12.7094 17.8918 12.9921 18.0933 13.3173 18.2623C14.0908 18.6643 15.131 18.9048 16.2764 18.9048C17.4218 18.9048 18.4619 18.6643 19.2355 18.2623C19.5606 18.0933 19.8434 17.8918 20.064 17.6607V18.6429C20.064 19.0755 19.7074 19.5306 19.0217 19.8869C18.3359 20.2433 17.3578 20.4762 16.2764 20.4762C15.195 20.4762 14.2169 20.2433 13.5311 19.8869C12.8454 19.5306 12.4887 19.0755 12.4887 18.6429V17.6607Z" fill="#001423"/>
</svg>
