<svg width="17" height="16" viewBox="0 0 17 16" fill="none" xmlns="http://www.w3.org/2000/svg">
<path d="M8.10176 13.1793L8.12996 13.2879H8.2421H15.7518C15.9875 13.2879 16.1782 13.4787 16.1782 13.7143C16.1782 13.9499 15.9875 14.1407 15.7518 14.1407H8.2421H8.12998L8.10177 14.2492C7.86208 15.171 7.03091 15.855 6.03753 15.855C5.04413 15.855 4.2128 15.171 3.9733 14.2492L3.9451 14.1407H3.83296H0.894671C0.658974 14.1407 0.468242 13.9499 0.468242 13.7143C0.468242 13.4787 0.658974 13.2879 0.894671 13.2879H3.83296H3.94507L3.97329 13.1793C4.21298 12.2576 5.04415 11.5736 6.03753 11.5736C7.03093 11.5736 7.86226 12.2576 8.10176 13.1793ZM12.6732 7.46504L12.7014 7.57357H12.8135H15.7518C15.9875 7.57357 16.1782 7.76443 16.1782 8C16.1782 8.23557 15.9875 8.42643 15.7518 8.42643H12.8135H12.7014L12.6732 8.53494C12.4335 9.45672 11.6023 10.1407 10.609 10.1407C9.61555 10.1407 8.78422 9.4567 8.54472 8.53496L8.51652 8.42643H8.40438H0.894671C0.658974 8.42643 0.468242 8.23557 0.468242 8C0.468242 7.76443 0.658974 7.57357 0.894671 7.57357H8.40438H8.5165L8.54472 7.46506C8.78441 6.54328 9.61557 5.85929 10.609 5.85929C11.6024 5.85929 12.4337 6.5433 12.6732 7.46504ZM3.9733 2.82068L3.9451 2.71214H3.83296H0.894671C0.658974 2.71214 0.468242 2.52128 0.468242 2.28571C0.468242 2.05015 0.658974 1.85929 0.894671 1.85929H3.83296H3.94507L3.97329 1.75078C4.21298 0.828994 5.04415 0.145 6.03753 0.145C7.03091 0.145 7.86208 0.828994 8.10177 1.75078L8.12998 1.85929H8.2421H15.7518C15.9875 1.85929 16.1782 2.05015 16.1782 2.28571C16.1782 2.52128 15.9875 2.71214 15.7518 2.71214H8.2421H8.12998L8.10177 2.82065C7.86208 3.74243 7.03091 4.42643 6.03753 4.42643C5.04413 4.42643 4.2128 3.74242 3.9733 2.82068ZM4.74967 13.7143C4.74967 14.4247 5.32737 15.0021 6.03753 15.0021C6.74769 15.0021 7.32539 14.4247 7.32539 13.7143C7.32539 13.0039 6.74769 12.4264 6.03753 12.4264C5.32737 12.4264 4.74967 13.0039 4.74967 13.7143ZM9.3211 8C9.3211 8.71038 9.8988 9.28786 10.609 9.28786C11.3191 9.28786 11.8968 8.71038 11.8968 8C11.8968 7.28962 11.3191 6.71214 10.609 6.71214C9.8988 6.71214 9.3211 7.28962 9.3211 8ZM7.32539 2.28571C7.32539 1.57533 6.74769 0.997857 6.03753 0.997857C5.32737 0.997857 4.74967 1.57533 4.74967 2.28571C4.74967 2.9961 5.32737 3.57357 6.03753 3.57357C6.74769 3.57357 7.32539 2.9961 7.32539 2.28571Z" fill="black" stroke="white" stroke-width="0.29"/>
</svg>
