<?xml version="1.0" encoding="UTF-8" standalone="no"?>
<!-- Created with Inkscape (http://www.inkscape.org/) -->

<svg
   width="16"
   height="16"
   viewBox="0 0 4.2333332 4.2333335"
   version="1.1"
   id="svg14380"
   sodipodi:docname="Download 16px for the browser.svg"
   inkscape:version="1.1.1 (3bf5ae0d25, 2021-09-20)"
   xmlns:inkscape="http://www.inkscape.org/namespaces/inkscape"
   xmlns:sodipodi="http://sodipodi.sourceforge.net/DTD/sodipodi-0.dtd"
   xmlns="http://www.w3.org/2000/svg"
   xmlns:svg="http://www.w3.org/2000/svg">
  <sodipodi:namedview
     id="namedview14382"
     pagecolor="#ffffff"
     bordercolor="#666666"
     borderopacity="1.0"
     inkscape:pageshadow="2"
     inkscape:pageopacity="0.0"
     inkscape:pagecheckerboard="0"
     inkscape:document-units="px"
     showgrid="true"
     inkscape:zoom="16"
     inkscape:cx="8.3125"
     inkscape:cy="12.21875"
     inkscape:window-width="1920"
     inkscape:window-height="1001"
     inkscape:window-x="-9"
     inkscape:window-y="-9"
     inkscape:window-maximized="1"
     inkscape:current-layer="g4360"
     units="px"
     height="16px"
     showguides="false">
    <inkscape:grid
       type="xygrid"
       id="grid3347" />
  </sodipodi:namedview>
  <defs
     id="defs14377">
    <clipPath
       id="clip0_1179:2925">
      <rect
         width="22"
         height="22"
         fill="white"
         transform="translate(0.742188)"
         id="rect14794" />
    </clipPath>
    <clipPath
       id="clip0_1179:2925-8">
      <rect
         width="22"
         height="22"
         fill="white"
         transform="translate(0.742188)"
         id="rect14794-5" />
    </clipPath>
  </defs>
  <g
     inkscape:label="Слой 1"
     inkscape:groupmode="layer"
     id="layer1">
    <g
       style="fill:none;stroke:none;stroke-width:1.36599"
       id="g4360"
       transform="matrix(0.19056303,0,0,0.19687517,-4.8169899,0.50311591)">
      <path
         style="fill:#000000;fill-opacity:1;stroke:none;stroke-width:0;stroke-miterlimit:4;stroke-dasharray:none;stroke-opacity:1"
         d="m 25.556747,12.298774 v 4.273632 c 0,1.180235 0.969624,2.136817 2.165952,2.136817 h 17.327604 c 1.196326,0 2.165944,-0.956582 2.165944,-2.136817 v -1.106613 -3.167019 c 0,-0.393174 -0.323442,-0.712272 -0.721982,-0.712272 -0.398534,0 -0.721981,0.319098 -0.721981,0.712272 v 4.273632 c 0,0.393174 -0.323447,0.712272 -0.721981,0.712272 H 27.722699 c -0.398537,0 -0.721983,-0.319098 -0.721983,-0.712272 v -4.273632 c 0,-0.393174 -0.32345,-0.712272 -0.721984,-0.712272 -0.398532,0 -0.721985,0.319098 -0.721985,0.712272 z"
         id="path4345" />
      <path
         style="fill:#000000;fill-opacity:1;stroke:none;stroke-width:0;stroke-miterlimit:4;stroke-dasharray:none;stroke-opacity:1"
         d="M 35.672739,11.253507 32.61641,8.3685672 c -0.27778,-0.2624502 -0.728629,-0.2631197 -1.007834,-0.0027 -0.278493,0.2611112 -0.279216,0.6855834 -0.0021,0.9473646 l 4.273576,4.0344962 c 0.277781,0.261782 0.728639,0.262453 1.007845,0.0021 l 4.273576,-3.9997399 c 0.278492,-0.2611108 0.279203,-0.6855841 0.0021,-0.9473646 -0.277782,-0.2617801 -0.728641,-0.2624498 -1.007845,-0.00197 l -3.05851,2.8628295 V -0.51519912 c 0,-0.36957278 -0.319093,-0.66951558 -0.712259,-0.66951558 -0.393166,0 -0.712256,0.2999428 -0.712256,0.66951558 z"
         id="path4350" />
    </g>
  </g>
</svg>
