<svg width="22" height="22" viewBox="0 0 22 22" fill="none" xmlns="http://www.w3.org/2000/svg">
<mask id="path-1-inside-1_1179:2734" fill="white">
<path fill-rule="evenodd" clip-rule="evenodd" d="M0.742188 14.7039V18.9039C0.742188 20.0638 1.68229 21.0039 2.84219 21.0039H19.6422C20.8021 21.0039 21.7422 20.0638 21.7422 18.9039V14.7039C21.7422 14.3175 21.4286 14.0039 21.0422 14.0039C20.6558 14.0039 20.3422 14.3175 20.3422 14.7039V18.9039C20.3422 19.2903 20.0286 19.6039 19.6422 19.6039C16.0344 19.6039 6.44999 19.6039 2.84219 19.6039C2.45579 19.6039 2.14219 19.2903 2.14219 18.9039V14.7039C2.14219 14.3175 1.82859 14.0039 1.44219 14.0039C1.05579 14.0039 0.742188 14.3175 0.742188 14.7039Z"/>
</mask>
<path fill-rule="evenodd" clip-rule="evenodd" d="M0.742188 14.7039V18.9039C0.742188 20.0638 1.68229 21.0039 2.84219 21.0039H19.6422C20.8021 21.0039 21.7422 20.0638 21.7422 18.9039V14.7039C21.7422 14.3175 21.4286 14.0039 21.0422 14.0039C20.6558 14.0039 20.3422 14.3175 20.3422 14.7039V18.9039C20.3422 19.2903 20.0286 19.6039 19.6422 19.6039C16.0344 19.6039 6.44999 19.6039 2.84219 19.6039C2.45579 19.6039 2.14219 19.2903 2.14219 18.9039V14.7039C2.14219 14.3175 1.82859 14.0039 1.44219 14.0039C1.05579 14.0039 0.742188 14.3175 0.742188 14.7039Z" fill="#001423" stroke="white" stroke-width="0.4" mask="url(#path-1-inside-1_1179:2734)"/>
<mask id="path-2-inside-2_1179:2734" fill="white">
<path fill-rule="evenodd" clip-rule="evenodd" d="M10.5428 13.0046L7.53907 9.9883C7.26607 9.7139 6.82298 9.7132 6.54858 9.9855C6.27488 10.2585 6.27417 10.7023 6.54647 10.976L10.7465 15.1942C11.0195 15.4679 11.4626 15.4686 11.737 15.1963L15.937 11.0145C16.2107 10.7415 16.2114 10.2977 15.9391 10.024C15.6661 9.7503 15.223 9.7496 14.9486 10.0219L11.9428 13.0151V0.7C11.9428 0.3136 11.6292 0 11.2428 0C10.8564 0 10.5428 0.3136 10.5428 0.7V13.0046Z"/>
</mask>
<path fill-rule="evenodd" clip-rule="evenodd" d="M10.5428 13.0046L7.53907 9.9883C7.26607 9.7139 6.82298 9.7132 6.54858 9.9855C6.27488 10.2585 6.27417 10.7023 6.54647 10.976L10.7465 15.1942C11.0195 15.4679 11.4626 15.4686 11.737 15.1963L15.937 11.0145C16.2107 10.7415 16.2114 10.2977 15.9391 10.024C15.6661 9.7503 15.223 9.7496 14.9486 10.0219L11.9428 13.0151V0.7C11.9428 0.3136 11.6292 0 11.2428 0C10.8564 0 10.5428 0.3136 10.5428 0.7V13.0046Z" fill="#001423" stroke="white" stroke-width="0.4" mask="url(#path-2-inside-2_1179:2734)"/>
</svg>
