<?xml version="1.0" encoding="UTF-8" standalone="no"?>
<!-- Created with Inkscape (http://www.inkscape.org/) -->

<svg
   width="30"
   height="30"
   version="1.1"
   viewBox="0 0 30 30"
   id="svg8"
   sodipodi:docname="Downloads 16px.svg"
   inkscape:version="1.1.1 (3bf5ae0d25, 2021-09-20)"
   xmlns:inkscape="http://www.inkscape.org/namespaces/inkscape"
   xmlns:sodipodi="http://sodipodi.sourceforge.net/DTD/sodipodi-0.dtd"
   xmlns="http://www.w3.org/2000/svg"
   xmlns:svg="http://www.w3.org/2000/svg">
  <defs
     id="defs12" />
  <sodipodi:namedview
     id="namedview10"
     pagecolor="#ffffff"
     bordercolor="#666666"
     borderopacity="1.0"
     inkscape:pageshadow="2"
     inkscape:pageopacity="0.0"
     inkscape:pagecheckerboard="0"
     showgrid="true"
     inkscape:snap-global="false"
     inkscape:zoom="19.139024"
     inkscape:cx="12.5137"
     inkscape:cy="23.015803"
     inkscape:window-width="1920"
     inkscape:window-height="1001"
     inkscape:window-x="-9"
     inkscape:window-y="-9"
     inkscape:window-maximized="1"
     inkscape:current-layer="svg8">
    <inkscape:grid
       type="xygrid"
       id="grid913" />
  </sodipodi:namedview>
  <path
     d="m 7.6201934,16.500151 c 0.070564,0 0.1200447,0.05551 0.1200447,0.134645 v 3.547787 c 0,0.573627 0.4229089,1.047969 0.9343241,1.047969 H 21.326882 c 0.511415,0 0.934325,-0.474342 0.934325,-1.047969 v -3.547787 c 0,-0.07915 0.04804,-0.134645 0.118596,-0.134645 0.07055,0 0.120046,0.05551 0.120046,0.134645 v 3.547787 c 0,0.732845 -0.519604,1.317262 -1.172973,1.317262 H 8.6745547 c -0.6533697,0 -1.1744044,-0.584417 -1.1744044,-1.317262 v -3.547787 c 0,-0.07914 0.049484,-0.134645 0.1200454,-0.134645 z"
     color="#000000"
     stroke-width="1.30339"
     id="path2"
     style="fill:none;stroke:#000000;stroke-width:1.00031;stroke-miterlimit:4;stroke-dasharray:none;stroke-opacity:1" />
  <path
     d="m 14.998971,7.4994046 c 0.06492,0 0.109979,0.043627 0.109979,0.1090573 v 9.5115591 l 2.721745,-2.732238 c 0.0467,-0.04671 0.110735,-0.04665 0.156907,0 0.04557,0.04617 0.04464,0.111383 -0.0015,0.157692 l -2.909396,2.920918 c -0.0467,0.04671 -0.110733,0.04522 -0.156906,-0.0016 l -2.909397,-2.945974 c -0.04557,-0.04616 -0.04606,-0.109909 0,-0.156219 0.04658,-0.04552 0.110939,-0.04655 0.156908,0 l 2.721743,2.754342 V 7.6083845 c 0,-0.065433 0.04505,-0.1090573 0.109981,-0.1090573 z"
     color="#000000"
     stroke-linejoin="round"
     stroke-width="1.25734"
     id="path4"
     style="fill:none;stroke:#000000;stroke-width:0.998654;stroke-miterlimit:4;stroke-dasharray:none;stroke-opacity:1" />
</svg>
