<?xml version="1.0" encoding="UTF-8" standalone="no"?>
<!-- Created with Inkscape (http://www.inkscape.org/) -->

<svg
   width="16"
   height="16"
   viewBox="0 0 4.2333332 4.2333335"
   version="1.1"
   id="svg14380"
   sodipodi:docname="Download 16px original.svg"
   inkscape:version="1.1.1 (3bf5ae0d25, 2021-09-20)"
   xmlns:inkscape="http://www.inkscape.org/namespaces/inkscape"
   xmlns:sodipodi="http://sodipodi.sourceforge.net/DTD/sodipodi-0.dtd"
   xmlns="http://www.w3.org/2000/svg"
   xmlns:svg="http://www.w3.org/2000/svg">
  <sodipodi:namedview
     id="namedview14382"
     pagecolor="#ffffff"
     bordercolor="#666666"
     borderopacity="1.0"
     inkscape:pageshadow="2"
     inkscape:pageopacity="0.0"
     inkscape:pagecheckerboard="0"
     inkscape:document-units="px"
     showgrid="false"
     inkscape:zoom="16"
     inkscape:cx="-2.0625"
     inkscape:cy="16.65625"
     inkscape:window-width="1920"
     inkscape:window-height="1001"
     inkscape:window-x="-9"
     inkscape:window-y="-9"
     inkscape:window-maximized="1"
     inkscape:current-layer="g4360"
     units="px"
     height="16px"
     showguides="false" />
  <defs
     id="defs14377">
    <clipPath
       id="clip0_1179:2925">
      <rect
         width="22"
         height="22"
         fill="white"
         transform="translate(0.742188)"
         id="rect14794" />
    </clipPath>
    <clipPath
       id="clip0_1179:2925-8">
      <rect
         width="22"
         height="22"
         fill="white"
         transform="translate(0.742188)"
         id="rect14794-5" />
    </clipPath>
  </defs>
  <g
     inkscape:label="Слой 1"
     inkscape:groupmode="layer"
     id="layer1">
    <g
       style="fill:none;stroke:none;stroke-width:1.36599"
       id="g4360"
       transform="matrix(0.19056303,0,0,0.19687517,-4.8169899,0.50311591)">
      <path
         style="fill:#000000;fill-opacity:1;stroke:none;stroke-width:0;stroke-miterlimit:4;stroke-dasharray:none;stroke-opacity:1"
         d="m 25.278979,12.702303 v 4.273632 c 0,1.180235 0.994488,2.136817 2.221488,2.136817 h 17.771899 c 1.227001,0 2.221485,-0.956582 2.221485,-2.136817 v -1.106613 -3.167019 c 0,-0.393174 -0.33174,-0.712272 -0.740494,-0.712272 -0.408754,0 -0.740496,0.319098 -0.740496,0.712272 v 4.273632 c 0,0.393174 -0.331742,0.712272 -0.740495,0.712272 H 27.500467 c -0.408753,0 -0.740495,-0.319098 -0.740495,-0.712272 v -4.273632 c 0,-0.393174 -0.331742,-0.712272 -0.740496,-0.712272 -0.408752,0 -0.740497,0.319098 -0.740497,0.712272 z"
         id="path4345" />
      <path
         style="fill:#000000;fill-opacity:1;stroke:none;stroke-width:0;stroke-miterlimit:4;stroke-dasharray:none;stroke-opacity:1"
         d="M 35.672826,10.973211 32.616435,7.9040304 C 32.338649,7.6248198 31.887791,7.6241075 31.60858,7.9011813 31.330082,8.1789677 31.329359,8.6305477 31.60648,8.9090467 l 4.273664,4.2921513 c 0.277786,0.278499 0.728654,0.279211 1.007865,0.0021 l 4.273632,-4.2551133 c 0.278499,-0.277786 0.279211,-0.729367 0.0021,-1.0078652 -0.277786,-0.2784986 -0.728654,-0.2792109 -1.007865,-0.0021 L 37.097333,10.983895 V -1.5471079 c 0,-0.3931742 -0.319098,-0.7122721 -0.712272,-0.7122721 -0.393175,0 -0.712272,0.3190979 -0.712272,0.7122721 z"
         id="path4350" />
    </g>
  </g>
</svg>
