<svg width="19" height="20" viewBox="0 0 19 20" fill="none" xmlns="http://www.w3.org/2000/svg">
<path d="M0.199111 9.99876H0.199128L0.199093 9.99613C0.196446 9.79501 0.268892 9.6033 0.396916 9.46268C0.524541 9.3225 0.69622 9.24488 0.873237 9.24207C0.962838 9.24065 1.05211 9.2584 1.13592 9.29464C1.21978 9.33091 1.29687 9.38516 1.36226 9.45488C1.42768 9.52464 1.47998 9.6084 1.51543 9.70154C1.5509 9.79469 1.56862 9.89491 1.56729 9.99613L1.56727 9.99613V9.99876V18.1122V18.3122H1.76727H9.37038V18.3122L9.37351 18.3122C9.46229 18.3108 9.55078 18.3282 9.63396 18.3638C9.71718 18.3995 9.79381 18.4528 9.85903 18.5214C9.9243 18.59 9.97677 18.6725 10.0128 18.7643C10.0488 18.8562 10.0675 18.9553 10.0675 19.0556C10.0675 19.1559 10.0488 19.255 10.0128 19.3468C9.97676 19.4387 9.92428 19.5212 9.85903 19.5898C9.79381 19.6584 9.71718 19.7117 9.63396 19.7474C9.55078 19.783 9.46229 19.8005 9.37351 19.7991V19.799H9.37038H0.883214C0.883207 19.799 0.8832 19.799 0.883193 19.799C0.70612 19.799 0.533457 19.7241 0.404021 19.5859C0.274173 19.4474 0.199141 19.2568 0.199111 19.0556C0.199111 19.0556 0.199111 19.0556 0.199111 19.0556V9.99876Z" fill="#001423" stroke="white" stroke-width="0.4"/>
<path d="M9.3703 1.68696V1.68693L9.36728 1.68698C9.27852 1.68832 9.19007 1.67085 9.10695 1.6352C9.02379 1.59954 8.9472 1.5462 8.882 1.4776C8.81678 1.40898 8.76435 1.32652 8.72834 1.23468C8.69232 1.14281 8.67363 1.04382 8.67363 0.943537C8.67363 0.843254 8.69233 0.744237 8.72834 0.652375C8.76435 0.56053 8.81678 0.47807 8.882 0.40945C8.94719 0.340865 9.02377 0.287541 9.10695 0.251875C9.1901 0.216218 9.27855 0.198733 9.36728 0.200071L9.3703 9.41972e-05V0.200094H17.8575C17.8575 0.200094 17.8575 0.200094 17.8575 0.200094C18.0346 0.200119 18.2072 0.275083 18.3367 0.413214C18.4665 0.551779 18.5415 0.742335 18.5416 0.943537C18.5416 0.943543 18.5416 0.94355 18.5416 0.943556V9.99964H18.5416L18.5416 10.0023C18.5429 10.1026 18.5255 10.2019 18.4907 10.2943C18.4559 10.3867 18.4046 10.47 18.3402 10.5397C18.2759 10.6093 18.1999 10.6638 18.1172 10.7008C18.0345 10.7377 17.9463 10.7565 17.8575 10.7565C17.7687 10.7565 17.6805 10.7377 17.5978 10.7008C17.515 10.6638 17.4391 10.6093 17.3748 10.5397C17.3104 10.47 17.2591 10.3867 17.2243 10.2943C17.1894 10.2019 17.1721 10.1026 17.1734 10.0023H17.1734V9.99964V1.88696V1.68696H16.9734H9.3703Z" fill="#001423" stroke="white" stroke-width="0.4"/>
<path d="M11.7197 6.45173L11.7197 6.45174L11.7215 6.4497C11.8467 6.31236 12.0143 6.23507 12.1878 6.22962L12.1815 6.02972L12.1879 6.22962C12.3227 6.22531 12.4567 6.26446 12.5724 6.34366C12.6883 6.423 12.781 6.5393 12.8363 6.67887C12.8917 6.81852 12.9064 6.97347 12.878 7.12289C12.8497 7.27228 12.7799 7.40727 12.68 7.51086L12.6799 7.51084L12.6779 7.51299L7.01982 13.5502L7.01979 13.5501L7.01702 13.5532C6.95327 13.6241 6.87762 13.68 6.79492 13.7181C6.71226 13.7563 6.62382 13.7762 6.53468 13.7772C6.44553 13.7782 6.35678 13.7602 6.27347 13.7239C6.19012 13.6876 6.1135 13.6335 6.04846 13.5641C5.9834 13.4947 5.93134 13.4114 5.89592 13.3188C5.8605 13.2262 5.84262 13.1266 5.84359 13.0259C5.84457 12.9252 5.86438 12.826 5.90157 12.7343C5.93874 12.6426 5.99237 12.5605 6.05868 12.4926L6.05871 12.4927L6.06154 12.4896L11.7197 6.45173Z" fill="#001423" stroke="white" stroke-width="0.4"/>
</svg>
