<svg width="19" height="20" viewBox="0 0 19 20" fill="none" xmlns="http://www.w3.org/2000/svg">
<path d="M0.149111 9.99876H0.149124L0.149098 9.99678C0.14629 9.78343 0.223096 9.57933 0.359944 9.42902C0.496491 9.27904 0.681095 9.19511 0.872446 9.19208C0.969208 9.19054 1.06551 9.20971 1.15577 9.24875C1.24606 9.2878 1.32878 9.34609 1.39873 9.42068C1.46871 9.49529 1.52444 9.58467 1.56216 9.68375C1.59989 9.78285 1.6187 9.88933 1.61729 9.99678L1.61727 9.99678V9.99876V18.1122V18.2622H1.76727H9.37038V18.2622L9.37273 18.2622C9.46861 18.2607 9.56407 18.2795 9.65365 18.3179C9.74326 18.3563 9.82548 18.4135 9.89526 18.4869C9.96508 18.5603 10.021 18.6483 10.0593 18.7461C10.0977 18.8438 10.1175 18.9491 10.1175 19.0556C10.1175 19.1621 10.0977 19.2673 10.0593 19.3651C10.021 19.4629 9.96507 19.5509 9.89526 19.6243C9.82548 19.6977 9.74326 19.755 9.65365 19.7933C9.56407 19.8317 9.46861 19.8506 9.37273 19.8491V19.849H9.37038H0.883209C0.883203 19.849 0.883198 19.849 0.883193 19.849C0.691773 19.849 0.506063 19.7679 0.367538 19.6201C0.228704 19.472 0.149141 19.2691 0.149111 19.0556C0.149111 19.0556 0.149111 19.0556 0.149111 19.0556V9.99876Z" fill="#001423" stroke="white" stroke-width="0.3"/>
<path d="M9.36804 0.150077L9.36804 0.150094H9.3703H17.8575C17.8575 0.150094 17.8575 0.150094 17.8575 0.150094C18.0489 0.150119 18.2346 0.231197 18.3732 0.379025C18.512 0.527182 18.5916 0.730093 18.5916 0.943537L18.5916 9.99964L18.5916 10.0016C18.593 10.1081 18.5746 10.2136 18.5375 10.3119C18.5005 10.4102 18.4458 10.4991 18.3769 10.5736C18.3081 10.6481 18.2267 10.7066 18.1376 10.7464C18.0485 10.7862 17.9534 10.8065 17.8575 10.8065C17.7616 10.8065 17.6664 10.7862 17.5774 10.7464C17.4883 10.7066 17.4069 10.6481 17.3381 10.5736C17.2692 10.4991 17.2145 10.4102 17.1775 10.3119C17.1404 10.2136 17.122 10.1081 17.1234 10.0016H17.1234V9.99964V1.88696V1.73696H16.9734H9.3703V1.73694L9.36804 1.73697C9.27218 1.73842 9.17676 1.71954 9.08724 1.68115C8.9977 1.64275 8.91552 1.58544 8.84576 1.51205C8.77599 1.43864 8.7201 1.35064 8.68179 1.25293C8.64347 1.15519 8.62363 1.05 8.62363 0.943537C8.62363 0.837068 8.64347 0.731857 8.68179 0.634125C8.7201 0.536407 8.77599 0.448414 8.84576 0.375004C8.91551 0.30162 8.99768 0.244326 9.08724 0.205921C9.17678 0.167525 9.2722 0.148631 9.36804 0.150077Z" fill="#001423" stroke="white" stroke-width="0.3"/>
<path d="M12.1862 6.17965L12.1863 6.17964C12.3319 6.17499 12.4763 6.21733 12.6006 6.3024C12.725 6.38758 12.8239 6.51197 12.8828 6.66044C12.9417 6.80897 12.9573 6.97355 12.9272 7.13222C12.897 7.29086 12.8229 7.43477 12.7159 7.54558L12.7159 7.54557L12.7144 7.54718L7.0563 13.5843L7.05628 13.5843L7.0542 13.5866C6.98602 13.6625 6.9049 13.7224 6.81588 13.7635C6.72688 13.8046 6.6315 13.8261 6.53523 13.8272C6.43896 13.8283 6.34322 13.8088 6.25351 13.7698C6.16376 13.7307 6.08155 13.6726 6.01198 13.5983C5.94239 13.5241 5.8869 13.4352 5.84922 13.3367C5.81154 13.2382 5.79256 13.1323 5.7936 13.0254C5.79463 12.9185 5.81566 12.8131 5.85523 12.7155C5.89479 12.6179 5.95195 12.5303 6.02291 12.4577L6.02293 12.4577L6.02506 12.4554L11.6832 6.41754L11.6832 6.41755L11.6846 6.41602C11.8185 6.26908 11.9987 6.18553 12.1862 6.17965Z" fill="#001423" stroke="white" stroke-width="0.3"/>
</svg>
