<?xml version="1.0" encoding="UTF-8" standalone="no"?>
<svg
   width="30"
   height="30"
   viewBox="0 0 30 30"
   fill="none"
   version="1.1"
   id="svg11"
   sodipodi:docname="Extensions 16px.svg"
   inkscape:version="1.1.1 (3bf5ae0d25, 2021-09-20)"
   xmlns:inkscape="http://www.inkscape.org/namespaces/inkscape"
   xmlns:sodipodi="http://sodipodi.sourceforge.net/DTD/sodipodi-0.dtd"
   xmlns="http://www.w3.org/2000/svg"
   xmlns:svg="http://www.w3.org/2000/svg">
  <sodipodi:namedview
     id="namedview13"
     pagecolor="#ffffff"
     bordercolor="#666666"
     borderopacity="1.0"
     inkscape:pageshadow="2"
     inkscape:pageopacity="0.0"
     inkscape:pagecheckerboard="0"
     showgrid="true"
     width="30px"
     inkscape:object-nodes="false"
     inkscape:snap-nodes="false"
     inkscape:snap-others="false"
     inkscape:snap-grids="false"
     inkscape:snap-to-guides="false"
     inkscape:snap-global="false"
     inkscape:zoom="18.454545"
     inkscape:cx="5.039409"
     inkscape:cy="18.884237"
     inkscape:window-width="1920"
     inkscape:window-height="1017"
     inkscape:window-x="-8"
     inkscape:window-y="-8"
     inkscape:window-maximized="1"
     inkscape:current-layer="svg11">
    <inkscape:grid
       type="xygrid"
       id="grid830" />
  </sodipodi:namedview>
  <path
     d="m 13.347219,7.4999995 c -0.960774,-2.42e-5 -1.74353,0.7823998 -1.74353,1.74313 0,0.3569586 0.146848,0.5876244 0.266932,0.7581245 0.120083,0.170496 0.206714,0.276502 0.206714,0.502922 0,0.113206 -0.02398,0.174802 -0.04919,0.210603 -0.02521,0.03586 -0.05663,0.05555 -0.110669,0.07244 -0.108123,0.03417 -0.290318,0.02295 -0.461281,0.02295 H 8.4603848 c -0.5261579,0 -0.9547721,0.428606 -0.9547721,0.954726 v 2.996085 c 0,0.144283 -0.027177,0.354902 0.038092,0.562171 0.032631,0.103519 0.096204,0.209458 0.2005249,0.282871 0.1043039,0.07338 0.2399388,0.109356 0.4010505,0.109356 0.3222169,0 0.5297094,-0.15055 0.6950022,-0.266976 0.1652856,-0.116361 0.2924298,-0.20537 0.5660927,-0.20537 0.780602,0 1.409864,0.629239 1.409864,1.409764 0,0.780595 -0.62927,1.408894 -1.409864,1.408894 -0.2736629,0 -0.4008071,-0.08894 -0.5660927,-0.205452 C 8.6749894,17.739904 8.4674969,17.589359 8.14528,17.589359 c -0.1611117,0 -0.2967464,0.03601 -0.4010505,0.109357 -0.1043188,0.07338 -0.167894,0.179271 -0.2005249,0.282943 -0.065269,0.207115 -0.038092,0.418114 -0.038092,0.562391 v 2.995747 c 0,0.526156 0.4286142,0.954691 0.9547721,0.954691 H 11.45622 c 0.144303,1.47e-4 0.355521,0.02682 0.562191,-0.03851 0.103596,-0.03277 0.209522,-0.09621 0.282879,-0.200561 0.07335,-0.104327 0.109708,-0.239858 0.109708,-0.401051 0,-0.322168 -0.150858,-0.530972 -0.26726,-0.696243 -0.116411,-0.165208 -0.206715,-0.291187 -0.206715,-0.564725 0,-0.780601 0.629571,-1.409842 1.410194,-1.409842 0.780583,0 1.409907,0.629241 1.409907,1.409842 0,0.273538 -0.08899,0.399517 -0.205463,0.564725 -0.116418,0.165268 -0.266925,0.374074 -0.266925,0.696239 0,0.161196 0.03471,0.296729 0.108058,0.401054 0.0734,0.104323 0.180954,0.167901 0.284504,0.200562 0.207252,0.0653 0.41793,0.0385 0.562222,0.0385 h 2.994546 c 0.526128,0 0.956064,-0.428533 0.956064,-0.954692 v -2.995699 c -6.6e-5,-0.0047 -4.96e-4,-0.01293 -0.0011,-0.01927 -7.15e-4,-0.165277 -0.0096,-0.339593 0.02345,-0.443701 0.01697,-0.05401 0.03805,-0.08544 0.07393,-0.110596 0.03582,-0.02531 0.09569,-0.04792 0.208891,-0.04792 0.226546,0 0.3341,0.08533 0.504695,0.205371 0.170442,0.120078 0.400774,0.26698 0.757745,0.26698 0.960783,0 1.742257,-0.781473 1.742257,-1.742215 0,-0.960678 -0.781474,-1.743094 -1.742257,-1.743094 -0.356971,0 -0.587303,0.146833 -0.757745,0.26691 -0.170595,0.120071 -0.278149,0.205376 -0.504695,0.205376 -0.113201,0 -0.173088,-0.02259 -0.208891,-0.04782 -0.03588,-0.0253 -0.05695,-0.05674 -0.07393,-0.110742 -0.03276,-0.10418 -0.02406,-0.278499 -0.02345,-0.443995 7.14e-4,-0.0045 0.0011,-0.01228 0.0011,-0.01839 v -2.996005 c 0,-0.526116 -0.429936,-0.954728 -0.956064,-0.954728 H 15.23952 c -0.171017,0 -0.354469,0.01083 -0.462524,-0.02297 -0.0541,-0.01689 -0.08586,-0.03678 -0.111129,-0.07243 -0.02518,-0.03586 -0.04776,-0.0974 -0.04776,-0.210604 0,-0.22643 0.08528,-0.332424 0.205316,-0.502921 0.120063,-0.1705038 0.266927,-0.4011751 0.266927,-0.7581264 0,-0.9607078 -0.782405,-1.7431158 -1.743153,-1.7431295 z"
     stroke="#001423"
     stroke-width="0.593051"
     id="path2"
     inkscape:label="Extensions"
     style="stroke-width:1;stroke-miterlimit:4;stroke-dasharray:none" />
  <defs
     id="defs9">
    <clipPath
       id="clip0_1179:2925">
      <rect
         width="22"
         height="22"
         fill="#ffffff"
         transform="translate(0.742188)"
         id="rect6"
         x="0"
         y="0" />
    </clipPath>
  </defs>
</svg>
