<?xml version="1.0" encoding="UTF-8" standalone="no"?>
<!-- Created with Inkscape (http://www.inkscape.org/) -->

<svg
   width="16"
   height="16"
   viewBox="0 0 4.2333332 4.2333335"
   version="1.1"
   id="svg14380"
   sodipodi:docname="Extensions 16px.svg"
   inkscape:version="1.1.1 (3bf5ae0d25, 2021-09-20)"
   xmlns:inkscape="http://www.inkscape.org/namespaces/inkscape"
   xmlns:sodipodi="http://sodipodi.sourceforge.net/DTD/sodipodi-0.dtd"
   xmlns="http://www.w3.org/2000/svg"
   xmlns:svg="http://www.w3.org/2000/svg">
  <sodipodi:namedview
     id="namedview14382"
     pagecolor="#ffffff"
     bordercolor="#666666"
     borderopacity="1.0"
     inkscape:pageshadow="2"
     inkscape:pageopacity="0.0"
     inkscape:pagecheckerboard="0"
     inkscape:document-units="px"
     showgrid="false"
     inkscape:zoom="11.313709"
     inkscape:cx="11.75565"
     inkscape:cy="-13.12567"
     inkscape:window-width="1920"
     inkscape:window-height="1001"
     inkscape:window-x="-9"
     inkscape:window-y="-9"
     inkscape:window-maximized="1"
     inkscape:current-layer="layer1"
     units="px"
     height="16px" />
  <defs
     id="defs14377">
    <clipPath
       id="clip0_1179:2925">
      <rect
         width="22"
         height="22"
         fill="white"
         transform="translate(0.742188)"
         id="rect14794" />
    </clipPath>
  </defs>
  <g
     inkscape:label="Слой 1"
     inkscape:groupmode="layer"
     id="layer1">
    <g
       style="fill:none"
       id="g14807"
       transform="matrix(0.26458333,0,0,0.26458333,-0.17812518,0.03784821)">
      <path
         d="M 7.1000721,0.34279635 C 6.122479,0.34277187 5.3260227,1.138822 5.3260227,2.1162838 c 0,0.3631751 0.1494178,0.5978571 0.2716033,0.7713299 0.1221855,0.1734654 0.2103324,0.2813156 0.2103324,0.5116806 0,0.1151788 -0.024396,0.1778417 -0.050022,0.214269 -0.025618,0.036435 -0.057606,0.056536 -0.1126087,0.073856 -0.1100127,0.034654 -0.295396,0.023513 -0.4693557,0.023513 H 2.1276971 c -0.5353678,0 -0.9714848,0.4360742 -0.9714848,0.9713573 v 3.0482615 c 0,0.1467919 -0.027654,0.3610837 0.038758,0.5719629 0.033202,0.1053283 0.097891,0.2131039 0.2040352,0.2877982 0.1061297,0.07462 0.2441383,0.1112627 0.4080703,0.1112627 0.3278568,0 0.5389819,-0.153171 0.7071679,-0.2716288 C 2.6824219,8.3115638 2.8117918,8.220996 3.090245,8.220996 c 0.7942676,0 1.4345435,0.6402037 1.4345435,1.43432 0,0.79419 -0.6402832,1.43343 -1.4345435,1.43343 -0.2784532,0 -0.4078231,-0.09057 -0.5760018,-0.209025 -0.1681857,-0.118383 -0.3793108,-0.271554 -0.7071675,-0.271554 -0.1639321,0 -0.3019407,0.03665 -0.4080704,0.111261 -0.1061443,0.07462 -0.1708329,0.182397 -0.2040352,0.287874 -0.066412,0.21073 -0.038758,0.425392 -0.038758,0.572184 v 3.047921 c 0,0.53532 0.436117,0.97132 0.9714848,0.97132 H 5.175972 c 0.1468291,1.48e-4 0.3617427,0.02722 0.5720315,-0.03902 0.1054098,-0.03323 0.2131902,-0.09791 0.2878337,-0.204055 0.074636,-0.106144 0.111627,-0.244035 0.111627,-0.408036 0,-0.327779 -0.1534972,-0.540215 -0.2719378,-0.70837 -0.1184479,-0.16808 -0.2103325,-0.296254 -0.2103325,-0.574559 0,-0.79419 0.6405886,-1.434394 1.434878,-1.434394 0.7942459,0 1.4345872,0.640204 1.4345872,1.434394 0,0.278305 -0.090604,0.406479 -0.2090598,0.574559 -0.1184552,0.168155 -0.2715961,0.380591 -0.2715961,0.70837 0,0.164001 0.03534,0.301892 0.1099473,0.408036 0.07468,0.106144 0.1841182,0.170825 0.2894843,0.204055 0.2108778,0.06638 0.425246,0.03902 0.5720606,0.03902 h 3.0469666 c 0.535339,0 0.972801,-0.436 0.972801,-0.97132 v -3.047921 c -7.3e-5,-0.0066 -5.09e-4,-0.01298 -0.0012,-0.01951 -7.27e-4,-0.168155 -0.0096,-0.345507 0.02377,-0.451428 0.0173,-0.05496 0.03876,-0.08693 0.07526,-0.112524 0.03643,-0.02567 0.09736,-0.04873 0.212551,-0.04873 0.230511,0 0.33995,0.08678 0.513523,0.208951 0.173429,0.122166 0.407794,0.271628 0.771014,0.271628 0.9776,0 1.772754,-0.79508 1.772754,-1.7725565 0,-0.9774029 -0.795154,-1.773448 -1.772754,-1.773448 -0.36322,0 -0.597586,0.1493886 -0.771014,0.2715544 -0.173573,0.1221665 -0.283012,0.2089511 -0.513523,0.2089511 -0.115183,0 -0.176119,-0.022992 -0.212551,-0.048583 -0.0365,-0.025665 -0.05795,-0.057635 -0.07526,-0.1126715 -0.03331,-0.1059956 -0.0245,-0.2833479 -0.02377,-0.4517251 7.27e-4,-0.00633 0.0012,-0.012608 0.0012,-0.018838 v -3.048259 c 0,-0.5352831 -0.437462,-0.9713573 -0.972801,-0.9713573 H 9.0254956 c -0.1740105,0 -0.3606737,0.011134 -0.470621,-0.023513 -0.055047,-0.017327 -0.087406,-0.037436 -0.1130742,-0.073863 -0.025597,-0.036427 -0.048575,-0.09909 -0.048575,-0.214269 0,-0.2303724 0.086751,-0.3382153 0.2089144,-0.5116807 0.122164,-0.1734734 0.2715964,-0.4081628 0.2715964,-0.7713304 0,-0.9774397 -0.7961,-1.77347267 -1.7736641,-1.77348765 z"
         stroke="#001423"
         stroke-width="0.8"
         id="path14790"
         style="stroke-width:0.73442;stroke-miterlimit:4;stroke-dasharray:none" />
    </g>
  </g>
</svg>
