<?xml version="1.0" encoding="UTF-8" standalone="no"?>
<svg
   width="30"
   height="30"
   viewBox="0 0 30 30"
   fill="none"
   version="1.1"
   id="svg11"
   sodipodi:docname="Extensions 16px.svg"
   inkscape:version="1.1.1 (3bf5ae0d25, 2021-09-20)"
   xmlns:inkscape="http://www.inkscape.org/namespaces/inkscape"
   xmlns:sodipodi="http://sodipodi.sourceforge.net/DTD/sodipodi-0.dtd"
   xmlns="http://www.w3.org/2000/svg"
   xmlns:svg="http://www.w3.org/2000/svg">
  <sodipodi:namedview
     id="namedview13"
     pagecolor="#ffffff"
     bordercolor="#666666"
     borderopacity="1.0"
     inkscape:pageshadow="2"
     inkscape:pageopacity="0.0"
     inkscape:pagecheckerboard="0"
     showgrid="true"
     width="30px"
     inkscape:object-nodes="false"
     inkscape:snap-nodes="false"
     inkscape:snap-others="false"
     inkscape:snap-grids="false"
     inkscape:snap-to-guides="false"
     inkscape:snap-global="false"
     inkscape:zoom="18.454545"
     inkscape:cx="5.8251233"
     inkscape:cy="26.091133"
     inkscape:window-width="1920"
     inkscape:window-height="1001"
     inkscape:window-x="-9"
     inkscape:window-y="-9"
     inkscape:window-maximized="1"
     inkscape:current-layer="svg11">
    <inkscape:grid
       type="xygrid"
       id="grid830" />
  </sodipodi:namedview>
  <path
     d="m 13.349674,6.999491 c -0.960583,-2.3e-5 -1.743182,0.7561655 -1.743182,1.6846821 0,0.3449896 0.146817,0.5679199 0.266877,0.7327062 0.120059,0.164779 0.206673,0.2672289 0.206673,0.4860593 0,0.1094094 -0.02398,0.1689354 -0.04915,0.2035394 -0.02517,0.03461 -0.05659,0.0537 -0.110649,0.07016 -0.108099,0.03291 -0.290257,0.02234 -0.461188,0.02234 H 8.4638134 c -0.526053,0 -0.9545818,0.414237 -0.9545818,0.922717 v 2.895623 c 0,0.139441 -0.027173,0.343003 0.038083,0.543322 0.032625,0.100049 0.096187,0.202433 0.2004851,0.273387 0.104283,0.07088 0.2398907,0.10569 0.4009703,0.10569 0.3221525,0 0.5296039,-0.145502 0.6948637,-0.258027 0.1652526,-0.112456 0.2923714,-0.198487 0.5659797,-0.198487 0.7804486,0 1.4095836,0.608145 1.4095836,1.362498 0,0.754421 -0.629143,1.361652 -1.4095836,1.361652 -0.2736083,0 -0.4007271,-0.08603 -0.5659797,-0.198559 C 8.6783739,16.896339 8.4709225,16.750838 8.14877,16.750838 c -0.1610796,0 -0.2966871,0.0348 -0.4009703,0.105689 -0.1042981,0.07089 -0.1678606,0.173265 -0.2004851,0.273459 -0.065257,0.200178 -0.038083,0.404092 -0.038083,0.543535 v 2.8953 c 0,0.508512 0.4285288,0.922681 0.9545818,0.922681 h 2.9952386 c 0.144273,1.42e-4 0.355449,0.02586 0.562079,-0.03705 0.103576,-0.03158 0.209481,-0.093 0.282823,-0.193837 0.07333,-0.100835 0.109686,-0.231816 0.109686,-0.387605 0,-0.311367 -0.150828,-0.513166 -0.267207,-0.672899 -0.116387,-0.159666 -0.206674,-0.281419 -0.206674,-0.545787 0,-0.754425 0.629445,-1.36257 1.409913,-1.36257 0.780427,0 1.409627,0.608145 1.409627,1.36257 0,0.264368 -0.08902,0.386121 -0.205423,0.545786 -0.116394,0.159733 -0.266871,0.361532 -0.266871,0.672899 0,0.155789 0.03472,0.286776 0.108036,0.387605 0.07338,0.100825 0.180916,0.16227 0.284447,0.193837 0.207209,0.06306 0.417846,0.03705 0.562107,0.03705 h 2.993951 c 0.526025,0 0.955875,-0.414168 0.955875,-0.92268 v -2.895299 c -7e-5,-0.0062 -4.98e-4,-0.01233 -0.0012,-0.01854 -7.14e-4,-0.159733 -0.0094,-0.328206 0.02339,-0.428823 0.01701,-0.0522 0.03809,-0.08257 0.07395,-0.106887 0.03579,-0.02438 0.09566,-0.04629 0.208852,-0.04629 0.2265,0 0.334035,0.08242 0.504591,0.198487 0.170409,0.116049 0.400697,0.258026 0.757595,0.258026 0.960591,0 1.741911,-0.755267 1.741911,-1.683797 0,-0.928462 -0.78132,-1.684645 -1.741911,-1.684645 -0.356898,0 -0.587186,0.141908 -0.757595,0.257957 -0.170556,0.116047 -0.278091,0.198489 -0.504591,0.198489 -0.113181,0 -0.173053,-0.02186 -0.208852,-0.04615 -0.03586,-0.02437 -0.05694,-0.05474 -0.07395,-0.107028 -0.03273,-0.100691 -0.02407,-0.269163 -0.02339,-0.429109 7.17e-4,-0.0059 0.0012,-0.01197 0.0012,-0.0179 v -2.895604 c 0,-0.50848 -0.42985,-0.922717 -0.955875,-0.922717 h -2.993951 c -0.170982,0 -0.354397,0.01058 -0.462432,-0.02234 -0.0541,-0.01646 -0.08587,-0.03556 -0.111106,-0.07016 -0.02514,-0.0346 -0.04773,-0.09413 -0.04773,-0.2035394 0,-0.2188374 0.08524,-0.3212793 0.205278,-0.4860593 0.120037,-0.1647859 0.266872,-0.3877232 0.266872,-0.732706 0,-0.9284953 -0.78225,-1.6846678 -1.742806,-1.6846814 z"
     stroke="#001423"
     stroke-width="0.593051"
     id="path2"
     inkscape:label="Extensions"
     style="stroke-width:0.998976;stroke-miterlimit:4;stroke-dasharray:none" />
  <defs
     id="defs9">
    <clipPath
       id="clip0_1179:2925">
      <rect
         width="22"
         height="22"
         fill="#ffffff"
         transform="translate(0.742188)"
         id="rect6"
         x="0"
         y="0" />
    </clipPath>
  </defs>
</svg>
