<?xml version="1.0" encoding="UTF-8" standalone="no"?>
<svg
   version="1.1"
   x="0px"
   y="0px"
   viewBox="0 0 30 30"
   xml:space="preserve"
   id="svg8"
   sodipodi:docname="Extensions 16px.svg"
   width="30"
   height="30"
   inkscape:version="1.1.1 (3bf5ae0d25, 2021-09-20)"
   xmlns:inkscape="http://www.inkscape.org/namespaces/inkscape"
   xmlns:sodipodi="http://sodipodi.sourceforge.net/DTD/sodipodi-0.dtd"
   xmlns="http://www.w3.org/2000/svg"
   xmlns:svg="http://www.w3.org/2000/svg"><defs
     id="defs12" /><sodipodi:namedview
     id="namedview10"
     pagecolor="#ffffff"
     bordercolor="#666666"
     borderopacity="1.0"
     inkscape:pageshadow="2"
     inkscape:pageopacity="0.0"
     inkscape:pagecheckerboard="0"
     showgrid="true"
     width="30px"
     inkscape:zoom="20.8"
     inkscape:cx="12.019231"
     inkscape:cy="23.485577"
     inkscape:window-width="1920"
     inkscape:window-height="1017"
     inkscape:window-x="-8"
     inkscape:window-y="-8"
     inkscape:window-maximized="1"
     inkscape:current-layer="svg8"><inkscape:grid
       type="xygrid"
       id="grid1182" /></sodipodi:namedview><path
     d="m 21.339286,15 h -1.660714 v -3.214286 c 0,-0.591428 -0.496,-1.071428 -1.107144,-1.071428 H 15.25 V 9.1071429 C 15.25,8.22 14.506,7.5 13.589285,7.5 12.672571,7.5 11.928571,8.22 11.928571,9.1071429 V 10.714286 H 8.6071426 c -0.6111429,0 -1.1071429,0.48 -1.1071429,1.071428 V 15 H 9.160714 c 0.916714,0 1.660715,0.72 1.660715,1.607143 0,0.887143 -0.744001,1.607143 -1.660715,1.607143 H 7.4999997 v 3.214286 c 0,0.591428 0.496,1.071428 1.1071429,1.071428 h 3.3214284 v -1.607142 c 0,-0.887143 0.744,-1.607143 1.660714,-1.607143 0.916715,0 1.660715,0.72 1.660715,1.607143 V 22.5 h 3.321428 c 0.611144,0 1.107144,-0.48 1.107144,-1.071428 v -3.214286 h 1.660714 c 0.916713,0 1.660713,-0.72 1.660713,-1.607143 C 22.999999,15.72 22.255999,15 21.339286,15 Z"
     id="path2"
     style="fill:none;stroke:#000000;stroke-width:1;stroke-opacity:1" /></svg>
