<?xml version="1.0" encoding="UTF-8" standalone="no"?>
<!-- Created with Inkscape (http://www.inkscape.org/) -->

<svg
   width="16"
   height="16"
   viewBox="0 0 4.2333332 4.2333335"
   version="1.1"
   id="svg14380"
   sodipodi:docname="Extensions 16 px for the browser.svg"
   inkscape:version="1.1.1 (3bf5ae0d25, 2021-09-20)"
   xmlns:inkscape="http://www.inkscape.org/namespaces/inkscape"
   xmlns:sodipodi="http://sodipodi.sourceforge.net/DTD/sodipodi-0.dtd"
   xmlns="http://www.w3.org/2000/svg"
   xmlns:svg="http://www.w3.org/2000/svg">
  <sodipodi:namedview
     id="namedview14382"
     pagecolor="#ffffff"
     bordercolor="#666666"
     borderopacity="1.0"
     inkscape:pageshadow="2"
     inkscape:pageopacity="0.0"
     inkscape:pagecheckerboard="0"
     inkscape:document-units="px"
     showgrid="true"
     inkscape:zoom="16"
     inkscape:cx="-0.375"
     inkscape:cy="12.40625"
     inkscape:window-width="1920"
     inkscape:window-height="1001"
     inkscape:window-x="-9"
     inkscape:window-y="-9"
     inkscape:window-maximized="1"
     inkscape:current-layer="layer1"
     units="px"
     height="16px"
     inkscape:snap-grids="false"
     inkscape:snap-to-guides="false"
     inkscape:snap-global="true"
     inkscape:snap-others="false"
     inkscape:snap-nodes="false">
    <inkscape:grid
       type="xygrid"
       id="grid828" />
    <inkscape:grid
       type="xygrid"
       id="grid4559" />
  </sodipodi:namedview>
  <defs
     id="defs14377">
    <clipPath
       id="clip0_1179:2925">
      <rect
         width="22"
         height="22"
         fill="white"
         transform="translate(0.742188)"
         id="rect14794" />
    </clipPath>
    <clipPath
       id="clip0_1179:2925-8">
      <rect
         width="22"
         height="22"
         fill="white"
         transform="translate(0.742188)"
         id="rect14794-5" />
    </clipPath>
    <clipPath
       id="clip0_1179:2925-84">
      <rect
         width="22"
         height="22"
         fill="white"
         transform="translate(0.742188)"
         id="rect14794-3" />
    </clipPath>
    <clipPath
       id="clip0_1179:2925-8-1">
      <rect
         width="22"
         height="22"
         fill="white"
         transform="translate(0.742188)"
         id="rect14794-5-2" />
    </clipPath>
    <clipPath
       id="clip0_1179:2925-3">
      <rect
         width="22"
         height="22"
         fill="white"
         transform="translate(0.742188)"
         id="rect14794-57" />
    </clipPath>
    <clipPath
       id="clip0_1179:2925-8-6">
      <rect
         width="22"
         height="22"
         fill="white"
         transform="translate(0.742188)"
         id="rect14794-5-1" />
    </clipPath>
    <clipPath
       id="clip0_1179:2925-86">
      <rect
         width="22"
         height="22"
         fill="white"
         transform="translate(0.742188)"
         id="rect14794-59" />
    </clipPath>
    <clipPath
       id="clip0_1179:2925-8-0">
      <rect
         width="22"
         height="22"
         fill="white"
         transform="translate(0.742188)"
         id="rect14794-5-7" />
    </clipPath>
    <clipPath
       id="clip0_1179:2925-0">
      <rect
         width="22"
         height="22"
         fill="white"
         transform="translate(0.742188)"
         id="rect14794-7" />
    </clipPath>
    <clipPath
       id="clip0_1179:2925-8-8">
      <rect
         width="22"
         height="22"
         fill="white"
         transform="translate(0.742188)"
         id="rect14794-5-28" />
    </clipPath>
    <clipPath
       id="clip0_1179:2925-08">
      <rect
         width="22"
         height="22"
         fill="white"
         transform="translate(0.742188)"
         id="rect14794-2" />
    </clipPath>
    <clipPath
       id="clip0_1179:2925-8-7">
      <rect
         width="22"
         height="22"
         fill="white"
         transform="translate(0.742188)"
         id="rect14794-5-8" />
    </clipPath>
    <clipPath
       id="clip0_1179:2925-9">
      <rect
         width="22"
         height="22"
         fill="white"
         transform="translate(0.742188)"
         id="rect14794-4" />
    </clipPath>
    <clipPath
       id="clip0_1179:2925-8-2">
      <rect
         width="22"
         height="22"
         fill="white"
         transform="translate(0.742188)"
         id="rect14794-5-23" />
    </clipPath>
    <clipPath
       id="clip0_1179:2925-82">
      <rect
         width="22"
         height="22"
         fill="white"
         transform="translate(0.742188)"
         id="rect14794-6" />
    </clipPath>
    <clipPath
       id="clip0_1179:2925-8-02">
      <rect
         width="22"
         height="22"
         fill="white"
         transform="translate(0.742188)"
         id="rect14794-5-81" />
    </clipPath>
    <clipPath
       id="clip0_1179:2925-86-7">
      <rect
         width="22"
         height="22"
         fill="white"
         transform="translate(0.742188)"
         id="rect14794-59-6" />
    </clipPath>
    <clipPath
       id="clip0_1179:2925-8-0-5">
      <rect
         width="22"
         height="22"
         fill="white"
         transform="translate(0.742188)"
         id="rect14794-5-7-8" />
    </clipPath>
    <clipPath
       id="clip0_1179:2925-93">
      <rect
         width="22"
         height="22"
         fill="white"
         transform="translate(0.742188)"
         id="rect14794-8" />
    </clipPath>
    <clipPath
       id="clip0_1179:2925-8-06">
      <rect
         width="22"
         height="22"
         fill="white"
         transform="translate(0.742188)"
         id="rect14794-5-5" />
    </clipPath>
    <clipPath
       id="clip0_1179:2925-86-8">
      <rect
         width="22"
         height="22"
         fill="white"
         transform="translate(0.742188)"
         id="rect14794-59-8" />
    </clipPath>
    <clipPath
       id="clip0_1179:2925-8-0-1">
      <rect
         width="22"
         height="22"
         fill="white"
         transform="translate(0.742188)"
         id="rect14794-5-7-3" />
    </clipPath>
    <clipPath
       id="clip0_1179:2925-97">
      <rect
         width="22"
         height="22"
         fill="white"
         transform="translate(0.742188)"
         id="rect14794-83" />
    </clipPath>
  </defs>
  <g
     inkscape:label="Слой 1"
     inkscape:groupmode="layer"
     id="layer1">
    <path
       style="color:#000000;display:none;fill:#000000;fill-opacity:1;stroke:none;stroke-linejoin:round;-inkscape-stroke:none"
       d="M 0.7890625,0.80273438 C 0.50040331,0.80273451 0.2628862,1.0458038 0.26171875,1.3398437 l -0.003906,0.7871094 0.25976562,0.00195 0.003906,-0.7890626 C 0.5221033,1.183959 0.64565419,1.0625001 0.7890625,1.0625 h 2.6582031 c 0.143409,1e-7 0.265625,0.1213843 0.265625,0.2773437 V 3.171875 c 0,0.1559591 -0.1222163,0.2773437 -0.265625,0.2773438 a 0.12959445,0.12959445 0 0 0 -0.00195,0 l -0.7402344,0.00586 -0.8828125,-0.00781 -0.00391,0.2597657 0.8847656,0.00781 a 0.12959445,0.12959445 0 0 0 0.00195,0 l 0.7421875,-0.00586 c 0.2886587,0 0.5253907,-0.2431407 0.5253907,-0.5371094 V 1.3398437 c 0,-0.2939688 -0.2367322,-0.53710919 -0.5253907,-0.53710932 z"
       id="path7355" />
    <g
       id="g16029"
       transform="matrix(0.26458333,0,0,0.26458333,-3.8103718,-11.915347)"
       style="display:none;fill:#000000;fill-opacity:1;stroke:none">
      <g
         id="g15995"
         transform="matrix(0.13511003,0,0,0.13612467,14.759855,47.427478)"
         style="fill:#000000;fill-opacity:1;stroke:none">
        <path
           d="m 23.143,84.85 c -1.747,0 -3.163,-1.416 -3.163,-3.163 0,-3.156 -1.229,-6.123 -3.461,-8.355 C 14.287,71.101 11.32,69.872 8.164,69.872 6.416,69.872 5,68.456 5,66.709 c 0,-1.747 1.416,-3.163 3.163,-3.163 4.845,0 9.401,1.887 12.828,5.313 3.427,3.427 5.314,7.983 5.314,12.829 0,1.746 -1.416,3.162 -3.162,3.162 z"
           id="path15993"
           style="fill:#000000;fill-opacity:1;stroke:none" />
      </g>
      <g
         id="g15999"
         transform="matrix(0.13234119,0,0,0.13511003,14.826812,47.501629)"
         style="fill:#000000;fill-opacity:1;stroke:none">
        <path
           d="m 38.121,84.85 c -1.747,0 -3.163,-1.416 -3.163,-3.163 C 34.958,74.53 32.171,67.801 27.11,62.74 22.049,57.679 15.32,54.892 8.163,54.892 6.416,54.892 5,53.476 5,51.729 c 0,-1.747 1.416,-3.163 3.163,-3.163 8.847,0 17.164,3.445 23.421,9.701 6.256,6.256 9.701,14.573 9.701,23.42 -10e-4,1.747 -1.417,3.163 -3.164,3.163 z"
           id="path15997"
           style="fill:#000000;fill-opacity:1;stroke:none" />
      </g>
      <g
         id="g16003"
         transform="matrix(0.12648622,0,0,0.12634239,14.756318,48.275763)"
         style="fill:#000000;fill-opacity:1;stroke:none">
        <path
           d="M 8.974,84.838 C 7.93,84.838 6.918,84.411 6.175,83.676 5.44,82.94 5.021,81.92 5.021,80.884 5.021,79.84 5.44,78.82 6.175,78.085 6.918,77.35 7.93,76.923 8.974,76.923 c 1.036,0 2.056,0.427 2.791,1.162 0.735,0.735 1.162,1.755 1.162,2.799 0,1.036 -0.427,2.056 -1.162,2.792 -0.735,0.735 -1.755,1.162 -2.791,1.162 z"
           id="path16001"
           style="fill:#000000;fill-opacity:1;stroke:none" />
      </g>
    </g>
    <path
       style="color:#000000;fill:#001423;stroke-width:0.980848;-inkscape-stroke:none"
       d="m 1.667742,0.07617187 c -0.3131358,-7.82e-6 -0.5708821,0.25773863 -0.5708821,0.57088638 0,0.12563137 0.056581,0.21878734 0.090038,0.26628594 8.817e-4,0.001252 -8.297e-4,7.5453e-4 0,0.001917 H 0.42827639 C 0.2253093,0.91525991 0.05854398,1.0820296 0.05854398,1.284995 v 0.7605434 c 0,0.020482 -0.01175334,0.094093 0.0153257,0.1800781 0.01508438,0.047854 0.04576749,0.1000391 0.09961702,0.1379324 0.0530531,0.037302 0.11439441,0.051724 0.1743298,0.051724 0.12159366,0 0.21029118,-0.061397 0.25095827,-0.090039 0.0417691,-0.029399 0.0273663,-0.028737 0.0689656,-0.028737 0.12905826,0 0.22988544,0.098973 0.22988544,0.2279713 0,0.1290221 -0.10072601,0.2298872 -0.22988544,0.2298872 -0.0415996,0 -0.0272155,6.713e-4 -0.0689656,-0.028736 C 0.5581374,2.6970166 0.4694114,2.6336653 0.3478165,2.6336653 c -0.0599418,0 -0.12128485,0.014434 -0.1743298,0.051724 -0.053893,0.037887 -0.08453837,0.09003 -0.09961702,0.1379323 -0.0271099,0.086022 -0.0153257,0.1615116 -0.0153257,0.1819945 v 0.7586275 c 0,0.2029696 0.16677705,0.3697351 0.36973241,0.3697351 H 1.1868984 c 0.020998,2.13e-5 0.096232,0.011661 0.1819926,-0.015326 0.04792,-0.015086 0.1000477,-0.045744 0.1379312,-0.099618 0.037176,-0.052865 0.051724,-0.1142049 0.051724,-0.174331 0,-0.1216693 -0.063195,-0.2101316 -0.091955,-0.2509603 -0.029819,-0.042316 -0.028736,-0.027826 -0.028736,-0.068966 0,-0.1289887 0.1008203,-0.229887 0.2298855,-0.229887 0.1290509,0 0.2279697,0.1008717 0.2279697,0.229887 0,0.041537 8.319e-4,0.02701 -0.028736,0.068966 -0.028838,0.040933 -0.090038,0.1293839 -0.090038,0.2509603 0,0.059254 0.012108,0.1207241 0.049808,0.174331 0.03841,0.054592 0.090474,0.084648 0.1379314,0.099618 0.085889,0.027041 0.1613399,0.015326 0.1819926,0.015326 h 0.7586237 c 0.2029519,0 0.3716483,-0.1665506 0.3716483,-0.3697351 V 3.0034014 c 0.00117,8.415e-4 6.427e-4,-8.961e-4 0.00192,0 0.04742,0.033403 0.1406358,0.091955 0.2662838,0.091955 0.3130505,0 0.5708823,-0.2578499 0.5708823,-0.5708865 0,-0.3130235 -0.2577474,-0.5689706 -0.5708823,-0.5689706 -0.1256307,0 -0.2188447,0.056622 -0.2662838,0.090039 -0.00127,8.958e-4 -7.374e-4,-8.416e-4 -0.00192,0 V 1.284995 C 3.2769402,1.0818148 3.1082557,0.91525992 2.905292,0.91525992 H 2.1466701 c 8.465e-4,-0.001183 -9.015e-4,-6.3558e-4 0,-0.001917 0.033443,-0.0474878 0.090038,-0.14065189 0.090038,-0.26628593 0,-0.31311259 -0.2558407,-0.57088087 -0.5689661,-0.57088512 z m 0,0.25670731 c 0.1740219,3.06e-6 0.3122612,0.14020414 0.3122612,0.31417907 0,0.0553433 -0.016626,0.0798158 -0.044062,0.11877502 -0.028389,0.0403117 -0.074713,0.11158342 -0.074713,0.20115124 0,0.0457505 0.0091,0.0903227 0.034482,0.12643789 0.02278,0.032326 0.068595,0.058515 0.095786,0.06705 0.07455,0.023491 0.1172838,0.011494 0.1551727,0.011494 h 0.7586219 c 0.063812,0 0.1149428,0.049461 0.1149428,0.1130278 v 0.7509647 0.00574 0.00384 0.00384 c -1.595e-4,0.037878 -0.010948,0.079832 0.011494,0.1513424 0.00914,0.029078 0.036346,0.072275 0.06705,0.09387 0.03464,0.024373 0.080719,0.036399 0.1264371,0.036399 0.089593,0 0.1605275,-0.046121 0.2011496,-0.074713 0.038986,-0.027462 0.0634,-0.045977 0.1187742,-0.045977 0.1740331,0 0.3141769,0.140133 0.3141769,0.3141791 0,0.1740696 -0.1400595,0.3141792 -0.3141769,0.3141792 -0.055355,0 -0.07977,-0.016586 -0.1187742,-0.044062 -0.040625,-0.028596 -0.1115589,-0.07663 -0.2011496,-0.07663 -0.045805,-10e-8 -0.091881,0.012042 -0.1264371,0.036399 -0.030862,0.021624 -0.057908,0.064796 -0.06705,0.09387 -0.022552,0.071647 -0.011657,0.113546 -0.011494,0.1513423 v 0.00766 0.00574 0.7509646 c 0,0.063582 -0.051119,0.113028 -0.1149428,0.113028 H 2.1466701 c -0.05251,0 -0.084251,0.00223 -0.1034484,-0.00384 -0.00506,-0.00159 -0.00694,-0.00362 -0.00574,-0.00192 5.028e-4,7.15e-4 -0.00574,-0.00434 -0.00574,-0.02682 0,-0.041766 0.015782,-0.060587 0.045976,-0.1034493 0.02946,-0.041804 0.074713,-0.1193258 0.074713,-0.216477 0,-0.2667535 -0.2179289,-0.4865945 -0.4846753,-0.4865945 -0.2667531,0 -0.4865908,0.2198145 -0.4865908,0.4865945 0,0.097547 0.047426,0.1750349 0.076629,0.216477 0.030266,0.042968 0.044062,0.061776 0.044062,0.1034493 0,0.021596 -0.00572,0.026791 -0.00574,0.02682 6.88e-4,-9.784e-4 7.797e-4,4.641e-4 -0.00384,0.00192 -0.019033,0.00599 -0.053191,0.00387 -0.1053641,0.00384 H 0.42827639 c -0.0638351,0 -0.11494271,-0.049232 -0.11494271,-0.113028 v -0.758631 c 0,-0.052669 -0.002154,-0.086374 0.003831,-0.105365 0.001465,-0.00466 0.004831,-0.00645 0.003831,-0.00574 -1.5714e-4,1.105e-4 0.005069,-0.00385 0.02682,-0.00385 0.0417867,0 0.0602734,0.013672 0.10344843,0.044062 0.0420586,0.029625 0.1193136,0.07663 0.21647547,0.07663 0.26664495,0 0.48467492,-0.2198472 0.48467492,-0.4865944 0,-0.2667344 -0.21792514,-0.4846787 -0.48467492,-0.4846787 -0.0971635,0 -0.17443628,0.045123 -0.21647547,0.074713 -0.0431453,0.030389 -0.0616614,0.044062 -0.10344843,0.044062 -0.021757,0 -0.0269854,-0.00393 -0.02682,-0.00384 9.5477e-4,6.718e-4 -0.002372,-0.00111 -0.003831,-0.00574 -0.006017,-0.019104 -0.003831,-0.05078 -0.003831,-0.1034491 V 1.284995 c 0,-0.063782 0.0511194,-0.1130278 0.11494271,-0.1130278 H 1.1868984 c 0.037855,0 0.080875,0.011926 0.1551726,-0.011494 0.027244,-0.00857 0.073311,-0.035116 0.095786,-0.06705 0.024225,-0.0344 0.034483,-0.079669 0.034483,-0.12643809 0,-0.0900823 -0.046576,-0.16120677 -0.074713,-0.20115124 C 1.370193,0.72688558 1.353565,0.702408 1.353565,0.64705875 c 0,-0.17395108 0.140148,-0.31418343 0.314177,-0.31417957 z"
       id="path14790" />
  </g>
</svg>
