<svg width="23" height="23" viewBox="0 0 23 23" fill="none" xmlns="http://www.w3.org/2000/svg">
<path d="M9.18623 1C7.84112 0.999966 6.74525 2.09534 6.74525 3.44033C6.74525 3.94006 6.95084 4.26299 7.11896 4.50169C7.28708 4.74038 7.40836 4.88878 7.40836 5.20576C7.40836 5.36425 7.3748 5.45048 7.33954 5.5006C7.30429 5.55073 7.26027 5.57839 7.18459 5.60223C7.03322 5.64991 6.77815 5.63458 6.53879 5.63458H2.34456C1.60792 5.63458 1.00786 6.23462 1.00786 6.97118V11.1656C1.00786 11.3676 0.969803 11.6625 1.06118 11.9526C1.10687 12.0976 1.19588 12.2459 1.34192 12.3486C1.48795 12.4513 1.67784 12.5017 1.9034 12.5017C2.35451 12.5017 2.64501 12.291 2.87642 12.128C3.10782 11.9651 3.28583 11.8405 3.66896 11.8405C4.76182 11.8405 5.6428 12.7214 5.6428 13.8141C5.6428 14.9069 4.76181 15.7865 3.66896 15.7865C3.28583 15.7865 3.10782 15.6619 2.87642 15.4989C2.64501 15.336 2.35451 15.1252 1.9034 15.1252C1.67784 15.1252 1.48795 15.1757 1.34192 15.2783C1.19588 15.381 1.10687 15.5293 1.06118 15.6744C0.969803 15.9644 1.00786 16.2598 1.00786 16.4618V20.6557C1.00786 21.3923 1.60792 21.9923 2.34456 21.9923H6.53879C6.74082 21.9925 7.03653 22.0297 7.32587 21.9386C7.47091 21.8929 7.61921 21.8039 7.72191 21.6578C7.82461 21.5118 7.8755 21.322 7.8755 21.0964C7.8755 20.6453 7.6643 20.353 7.50133 20.1216C7.33836 19.8903 7.21193 19.714 7.21193 19.331C7.21193 18.2382 8.09334 17.3573 9.18623 17.3573C10.2791 17.3573 11.1601 18.2382 11.1601 19.331C11.1601 19.714 11.0355 19.8903 10.8725 20.1216C10.7095 20.353 10.4988 20.6453 10.4988 21.0964C10.4988 21.322 10.5474 21.5118 10.6501 21.6578C10.7528 21.8039 10.9034 21.8929 11.0484 21.9386C11.3385 22.0299 11.6335 21.9923 11.8355 21.9923H16.0279C16.7645 21.9923 17.3664 21.3923 17.3664 20.6557V16.4618C17.3663 16.4528 17.3657 16.4439 17.3646 16.4349C17.3636 16.2035 17.3515 15.9595 17.3974 15.8138C17.4212 15.7381 17.4507 15.6941 17.5009 15.6589C17.551 15.6236 17.6349 15.5919 17.7934 15.5919C18.1105 15.5919 18.2611 15.7113 18.4999 15.8794C18.7386 16.0475 19.061 16.2531 19.5608 16.2531C20.9059 16.2531 22 15.1591 22 13.8141C22 12.4692 20.9059 11.3738 19.5608 11.3738C19.061 11.3738 18.7386 11.5794 18.4999 11.7475C18.2611 11.9156 18.1105 12.035 17.7934 12.035C17.6349 12.035 17.551 12.0033 17.5009 11.9681C17.4507 11.9328 17.4212 11.8888 17.3974 11.8131C17.3515 11.6673 17.3636 11.4232 17.3646 11.1915C17.3657 11.1829 17.3663 11.1742 17.3664 11.1656V6.97118C17.3664 6.23462 16.7645 5.63458 16.0279 5.63458H11.8355C11.5961 5.63458 11.3392 5.6499 11.1879 5.60223C11.1122 5.57839 11.0677 5.55073 11.0324 5.5006C10.9972 5.45048 10.9655 5.36425 10.9655 5.20576C10.9655 4.88877 11.0849 4.74038 11.253 4.50169C11.4211 4.26299 11.6267 3.94005 11.6267 3.44033C11.6267 2.09537 10.5313 1.00002 9.18623 1ZM9.18623 1.46665C10.2791 1.46666 11.1601 2.34757 11.1601 3.44033C11.1601 3.8234 11.0354 4.00143 10.8725 4.23282C10.7095 4.4642 10.4988 4.75469 10.4988 5.20576C10.4988 5.43129 10.5474 5.62117 10.6501 5.7672C10.7528 5.91322 10.9034 6.00269 11.0484 6.04837C11.3385 6.13974 11.6334 6.10169 11.8355 6.10169H16.0279C16.514 6.10169 16.8997 6.48506 16.8997 6.97118V11.1519V11.1656C16.8997 11.3676 16.8617 11.6625 16.953 11.9526C16.9987 12.0976 17.0859 12.2459 17.232 12.3486C17.378 12.4513 17.5679 12.5017 17.7934 12.5017C18.2446 12.5017 18.5369 12.291 18.7683 12.128C18.9997 11.9651 19.1777 11.8405 19.5608 11.8405C20.6537 11.8405 21.5328 12.7214 21.5328 13.8141C21.5328 14.9069 20.6537 15.7865 19.5608 15.7865C19.1777 15.7865 18.9997 15.6619 18.7683 15.4989C18.5369 15.336 18.2446 15.1252 17.7934 15.1252C17.5679 15.1252 17.378 15.1757 17.232 15.2783C17.0859 15.381 16.9987 15.5293 16.953 15.6744C16.8617 15.9644 16.8997 16.2598 16.8997 16.4618V20.6557C16.8997 21.1419 16.514 21.5252 16.0279 21.5252H11.8355C11.5961 21.5252 11.3392 21.5406 11.1879 21.4929C11.1122 21.469 11.0677 21.4396 11.0324 21.3894C10.9972 21.3393 10.9655 21.2549 10.9655 21.0964C10.9655 20.7794 11.0849 20.6292 11.253 20.3905C11.4211 20.1518 11.6267 19.8307 11.6267 19.331C11.6267 17.986 10.5313 16.8907 9.18623 16.8907C7.84112 16.8906 6.74525 17.986 6.74525 19.331C6.74525 19.8307 6.95084 20.1518 7.11896 20.3905C7.28708 20.6292 7.40836 20.7794 7.40836 21.0964C7.40836 21.2549 7.3748 21.3393 7.33954 21.3894C7.30429 21.4396 7.26028 21.469 7.18459 21.4929C7.03369 21.5404 6.77754 21.5253 6.53879 21.5252H2.34456C1.85839 21.5252 1.47454 21.1419 1.47454 20.6557V16.4618C1.47454 16.2225 1.45785 15.9652 1.50553 15.8138C1.52937 15.7381 1.55885 15.6941 1.60899 15.6589C1.65912 15.6236 1.74489 15.5919 1.9034 15.5919C2.22041 15.5919 2.36927 15.7113 2.60798 15.8794C2.84669 16.0475 3.16917 16.2531 3.66896 16.2531C5.01403 16.2531 6.10994 15.1591 6.10994 13.8141C6.10994 12.4692 5.01403 11.3738 3.66896 11.3738C3.16917 11.3738 2.84669 11.5794 2.60798 11.7475C2.36927 11.9156 2.22041 12.035 1.9034 12.035C1.74489 12.035 1.65912 12.0033 1.60899 11.9681C1.55885 11.9328 1.52937 11.8888 1.50553 11.8131C1.45785 11.6618 1.47454 11.4049 1.47454 11.1656V6.97118C1.47454 6.48506 1.85839 6.10169 2.34456 6.10169H6.53879C6.74081 6.10169 7.0358 6.13973 7.32587 6.04837C7.4709 6.00269 7.61922 5.91322 7.72191 5.7672C7.82461 5.62117 7.8755 5.4313 7.8755 5.20576C7.8755 4.75468 7.6643 4.4642 7.50133 4.23282C7.33836 4.00143 7.21193 3.82339 7.21193 3.44033C7.21193 2.34754 8.09334 1.46662 9.18623 1.46665Z" fill="#001423" stroke="#001423" stroke-width="0.1"/>
</svg>
