<svg width="23" height="22" viewBox="0 0 23 22" fill="none" xmlns="http://www.w3.org/2000/svg">
<g clip-path="url(#clip0_1179:2925)">
<path d="M9.46605 0.475586C8.12166 0.475553 7.02637 1.54876 7.02637 2.86654C7.02637 3.35616 7.23185 3.67255 7.39988 3.90642C7.56791 4.14028 7.68913 4.28568 7.68913 4.59625C7.68913 4.75153 7.65558 4.83601 7.62034 4.88512C7.58511 4.93424 7.54112 4.96134 7.46548 4.98469C7.31419 5.03141 7.05925 5.01639 6.82002 5.01639H2.62802C1.89178 5.01639 1.29203 5.60429 1.29203 6.32594V10.4355C1.29203 10.6334 1.254 10.9223 1.34533 11.2066C1.39099 11.3486 1.47995 11.4939 1.62592 11.5946C1.77187 11.6952 1.96166 11.7446 2.1871 11.7446C2.63797 11.7446 2.92831 11.5381 3.1596 11.3784C3.39088 11.2188 3.56879 11.0967 3.95172 11.0967C5.044 11.0967 5.92451 11.9598 5.92451 13.0304C5.92451 14.1011 5.04399 14.9629 3.95172 14.9629C3.56879 14.9629 3.39088 14.8408 3.1596 14.6811C2.92831 14.5215 2.63797 14.315 2.1871 14.315C1.96166 14.315 1.77187 14.3644 1.62592 14.465C1.47995 14.5656 1.39099 14.7109 1.34533 14.8531C1.254 15.1372 1.29203 15.4266 1.29203 15.6245V19.7336C1.29203 20.4553 1.89178 21.0431 2.62802 21.0431H6.82002C7.02194 21.0433 7.31749 21.0798 7.60668 20.9905C7.75164 20.9457 7.89986 20.8585 8.00251 20.7154C8.10515 20.5723 8.15602 20.3864 8.15602 20.1653C8.15602 19.7234 7.94493 19.437 7.78205 19.2103C7.61916 18.9837 7.4928 18.8109 7.4928 18.4357C7.4928 17.365 8.37374 16.5019 9.46605 16.5019C10.5583 16.5019 11.4389 17.365 11.4389 18.4357C11.4389 18.8109 11.3143 18.9837 11.1514 19.2103C10.9885 19.437 10.7779 19.7234 10.7779 20.1653C10.7779 20.3864 10.8265 20.5723 10.9291 20.7154C11.0318 20.8585 11.1823 20.9457 11.3272 20.9905C11.6172 21.08 11.912 21.0431 12.1139 21.0431H16.3041C17.0403 21.0431 17.6419 20.4553 17.6419 19.7336V15.6245C17.6418 15.6157 17.6412 15.607 17.6402 15.5982C17.6392 15.3715 17.6271 15.1324 17.6729 14.9896C17.6967 14.9155 17.7262 14.8724 17.7764 14.8379C17.8265 14.8033 17.9103 14.7722 18.0687 14.7722C18.3857 14.7722 18.5362 14.8892 18.7749 15.0539C19.0134 15.2186 19.3357 15.4201 19.8352 15.4201C21.1796 15.4201 22.2731 14.3482 22.2731 13.0304C22.2731 11.7127 21.1796 10.6395 19.8352 10.6395C19.3357 10.6395 19.0134 10.8409 18.7749 11.0056C18.5362 11.1703 18.3857 11.2873 18.0687 11.2873C17.9103 11.2873 17.8265 11.2563 17.7764 11.2218C17.7262 11.1872 17.6967 11.1441 17.6729 11.0699C17.6271 10.927 17.6392 10.6879 17.6402 10.4609C17.6412 10.4524 17.6419 10.4439 17.6419 10.4355V6.32595C17.6419 5.6043 17.0403 5.0164 16.3041 5.0164H12.1139C11.8746 5.0164 11.6179 5.03141 11.4667 4.9847C11.391 4.96134 11.3465 4.93423 11.3112 4.88512C11.276 4.83601 11.2444 4.75153 11.2444 4.59625C11.2444 4.28567 11.3637 4.14028 11.5317 3.90642C11.6997 3.67255 11.9052 3.35615 11.9052 2.86654C11.9052 1.54879 10.8104 0.475606 9.46605 0.475586L9.46605 0.475586Z" stroke="#001423" stroke-width="0.8"/>
</g>
<defs>
<clipPath id="clip0_1179:2925">
<rect width="22" height="22" fill="white" transform="translate(0.742188)"/>
</clipPath>
</defs>
</svg>
