<?xml version="1.0" encoding="UTF-8" standalone="no"?>
<svg
   width="30"
   height="30"
   viewBox="0 0 30 30"
   fill="none"
   version="1.1"
   id="svg8"
   sodipodi:docname="Find on this page icon 16px.svg"
   inkscape:version="1.1.1 (3bf5ae0d25, 2021-09-20)"
   xmlns:inkscape="http://www.inkscape.org/namespaces/inkscape"
   xmlns:sodipodi="http://sodipodi.sourceforge.net/DTD/sodipodi-0.dtd"
   xmlns="http://www.w3.org/2000/svg"
   xmlns:svg="http://www.w3.org/2000/svg">
  <defs
     id="defs12" />
  <sodipodi:namedview
     id="namedview10"
     pagecolor="#ffffff"
     bordercolor="#666666"
     borderopacity="1.0"
     inkscape:pageshadow="2"
     inkscape:pageopacity="0.0"
     inkscape:pagecheckerboard="0"
     showgrid="true"
     inkscape:zoom="22.627417"
     inkscape:cx="27.466679"
     inkscape:cy="15.40167"
     inkscape:window-width="1920"
     inkscape:window-height="1017"
     inkscape:window-x="-8"
     inkscape:window-y="-8"
     inkscape:window-maximized="1"
     inkscape:current-layer="svg8"
     width="30px"
     showguides="true"
     inkscape:guide-bbox="true"
     inkscape:snap-global="false"
     inkscape:snap-others="false"
     inkscape:object-nodes="false"
     inkscape:snap-nodes="false">
    <inkscape:grid
       type="xygrid"
       id="grid829" />
    <sodipodi:guide
       position="17,4"
       orientation="0,-1"
       id="guide1000" />
    <sodipodi:guide
       position="16,26"
       orientation="0,-1"
       id="guide1002" />
    <sodipodi:guide
       position="26,21"
       orientation="1,0"
       id="guide1004" />
  </sodipodi:namedview>
  <path
     d="m 20.944813,21.999898 c -0.19381,0.198213 -0.683568,0.500208 -0.957291,0.500135 L 9.4573041,22.499896 C 8.7671546,22.484656 8.4948477,22.369661 8.5000114,21.7499 V 9.2499588 C 8.5063296,8.4283353 9.2331721,7.5402881 9.9359505,7.4999672 h 6.7010455 c 0.303463,0.2624312 4.786465,4.9999758 4.786465,4.9999758"
     id="path2"
     style="display:none;stroke:#001423;stroke-width:0.999995;stroke-miterlimit:4;stroke-dasharray:none;stroke-opacity:1"
     sodipodi:nodetypes="cccccccc" />
  <path
     style="stroke:#001423;stroke-width:0.999812;stroke-miterlimit:4;stroke-dasharray:none;stroke-opacity:1"
     d="m 19.348546,17.22736 -0.02394,-0.01627 -0.01821,0.02207 c -0.47306,0.572908 -1.149603,0.988403 -1.947343,1.129667 -1.773097,0.314107 -3.477947,-0.844748 -3.804539,-2.586615 -0.326602,-1.741867 0.848062,-3.410772 2.621152,-3.724851 1.773026,-0.314074 3.477929,0.84475 3.804495,2.58662 0.146936,0.78368 -0.01,1.552561 -0.38847,2.189754 l -0.01442,0.02426 0.02365,0.01609 c 0.617688,0.414418 1.301855,0.821276 1.915443,1.241674 0.887485,0.573498 1.635055,0.947282 1.457288,1.257766 -0.212492,0.34152 -0.530254,4.65e-4 -1.60516,-0.767172 -0.34204,-0.225297 -0.34204,-0.225297 0,0 z"
     id="path6"
     sodipodi:nodetypes="ccccccccccccccc" />
  <path
     id="path2110"
     style="fill:none;stroke:#000000;stroke-width:0.999995;stroke-linecap:square;stroke-linejoin:round;stroke-miterlimit:4;stroke-dasharray:none;stroke-opacity:1"
     d="m 19.5,21 c -9.32e-4,1.038251 -0.893683,1.500994 -2.001684,1.499999 l -8.0000079,-0.0072 C 8.3903199,22.491809 7.4990687,21.65516 7.5000007,20.616909 v 0 L 7.5100907,9.3723075 C 7.5110226,8.3340566 8.403775,7.4990074 9.5117751,7.5000009 L 16,7.5 l 3.455806,3.198875"
     sodipodi:nodetypes="cccscsccc" />
</svg>
