<?xml version="1.0" encoding="UTF-8" standalone="no"?>
<svg
   width="30"
   height="30"
   viewBox="0 0 30 30"
   fill="none"
   version="1.1"
   id="svg8"
   sodipodi:docname="Find on this page icon 16px.svg"
   inkscape:version="1.1.1 (3bf5ae0d25, 2021-09-20)"
   xmlns:inkscape="http://www.inkscape.org/namespaces/inkscape"
   xmlns:sodipodi="http://sodipodi.sourceforge.net/DTD/sodipodi-0.dtd"
   xmlns="http://www.w3.org/2000/svg"
   xmlns:svg="http://www.w3.org/2000/svg">
  <defs
     id="defs12" />
  <sodipodi:namedview
     id="namedview10"
     pagecolor="#ffffff"
     bordercolor="#666666"
     borderopacity="1.0"
     inkscape:pageshadow="2"
     inkscape:pageopacity="0.0"
     inkscape:pagecheckerboard="0"
     showgrid="true"
     inkscape:zoom="22.627417"
     inkscape:cx="17.788155"
     inkscape:cy="15.62264"
     inkscape:window-width="1920"
     inkscape:window-height="1001"
     inkscape:window-x="-9"
     inkscape:window-y="-9"
     inkscape:window-maximized="1"
     inkscape:current-layer="svg8"
     width="30px"
     showguides="true"
     inkscape:guide-bbox="true"
     inkscape:snap-global="false"
     inkscape:snap-others="false"
     inkscape:object-nodes="false"
     inkscape:snap-nodes="false">
    <inkscape:grid
       type="xygrid"
       id="grid829" />
    <sodipodi:guide
       position="17,4"
       orientation="0,-1"
       id="guide1000" />
    <sodipodi:guide
       position="16,26"
       orientation="0,-1"
       id="guide1002" />
    <sodipodi:guide
       position="26,21"
       orientation="1,0"
       id="guide1004" />
    <sodipodi:guide
       position="4,24"
       orientation="1,0"
       id="guide1006" />
  </sodipodi:namedview>
  <path
     d="M 21,12 17,8 v 0 0 4 z"
     id="path3468"
     style="display:inline;stroke:#001423;stroke-width:1;stroke-linejoin:round;stroke-miterlimit:4;stroke-dasharray:none;stroke-opacity:1"
     sodipodi:nodetypes="cccccc" />
  <path
     d="m 21.153053,21.999898 c -0.197053,0.198213 -0.695007,0.500208 -0.97331,0.500135 L 9.4733237,22.499896 C 8.771626,22.484656 8.4947625,22.369661 8.5000127,21.7499 V 9.2499588 C 8.5064366,8.4283353 9.2454412,7.5402881 9.9599793,7.4999672 h 6.8131747 c 0.308539,0.2624312 4.866556,4.9999758 4.866556,4.9999758"
     id="path2"
     style="stroke:#001423;stroke-width:0.999934;stroke-miterlimit:4;stroke-dasharray:none;stroke-opacity:1"
     sodipodi:nodetypes="cccccccc" />
  <path
     style="stroke:#001423;stroke-width:0.999812;stroke-miterlimit:4;stroke-dasharray:none;stroke-opacity:1"
     d="m 19.918722,19.369021 -0.02599,-0.01877 -0.02098,0.02383 c -0.545244,0.618654 -1.310688,1.056561 -2.200877,1.187112 -1.97858,0.290313 -3.829148,-1.047018 -4.129703,-2.984957 -0.300561,-1.937937 1.062091,-3.746672 3.040664,-4.036955 1.978503,-0.290281 3.829128,1.047018 4.129653,2.984961 0.135222,0.871894 -0.06618,1.717601 -0.50878,2.410444 l -0.01688,0.02639 0.02567,0.01857 2.192376,1.584831 0.01833,-0.02414 -0.01833,0.02414 c 0.109749,0.0793 0.13333,0.23109 0.05249,0.338405 -0.08072,0.107164 -0.235464,0.129844 -0.345063,0.05061 l -0.01655,0.02169 0.01655,-0.02169 z"
     id="path6" />
</svg>
