<svg width="22" height="22" viewBox="0 0 22 22" fill="none" xmlns="http://www.w3.org/2000/svg">
<path d="M17.1947 6.42491L17.1947 6.42496C17.4677 6.70157 17.6215 7.07716 17.6219 7.46923L17.6242 19.7249C17.6242 20.1171 17.4708 20.4929 17.198 20.7697C16.9254 21.0464 16.5558 21.2016 16.1708 21.2015L1.57727 21.1995C1.19228 21.1995 0.822693 21.0442 0.54991 20.7674C0.277073 20.4905 0.123468 20.1147 0.123395 19.7225L0.12006 1.73823C0.119987 1.34602 0.273452 0.970227 0.546187 0.693422C0.818867 0.416673 1.18839 0.261529 1.57338 0.261581L10.5223 0.262808C10.9072 0.263218 11.2765 0.418688 11.549 0.69558L11.549 0.695629L17.1947 6.42491ZM15.9545 6.61093L16.2173 6.61097L16.0328 6.42374L11.5548 1.87946L11.3664 1.68828L11.3665 1.95664L11.3672 5.97135C11.3673 6.14029 11.4334 6.30264 11.5516 6.42261C11.6699 6.54263 11.8306 6.61037 11.9985 6.61039L15.9545 6.61093ZM10.5439 1.21071L10.5439 1.10071L10.4339 1.10069L1.57354 1.09948C1.40561 1.09945 1.2449 1.16715 1.12668 1.28714C1.00851 1.40707 0.942427 1.5694 0.942459 1.73834L0.945794 19.7226C0.945825 19.8915 1.01197 20.0539 1.13018 20.1738C1.24845 20.2939 1.40918 20.3616 1.57711 20.3616L16.1707 20.3636C16.3386 20.3636 16.4993 20.2959 16.6176 20.176C16.7357 20.056 16.8018 19.8937 16.8018 19.7248L16.7995 7.55894L16.7995 7.44894L16.6895 7.44893L11.9987 7.44828C11.6137 7.44823 11.2441 7.29299 10.9713 7.01616C10.6985 6.73928 10.5449 6.36344 10.5448 5.97124L10.5439 1.21071Z" fill="#001423" stroke="white" stroke-width="0.22"/>
<path d="M18.7169 13.1691C18.7173 15.8767 16.5217 18.0717 13.8127 18.0717C11.1038 18.0718 8.90742 15.8767 8.90698 13.1691C8.90654 10.4615 11.1022 8.26651 13.8111 8.2665C16.5201 8.26649 18.7164 10.4615 18.7169 13.1691Z" fill="white" stroke="white" stroke-width="0.16"/>
<path d="M17.5782 17.5924L17.5453 17.5593L17.5101 17.5897C16.5958 18.378 15.4074 18.8543 14.109 18.8538C11.2231 18.8529 8.87938 16.4968 8.87894 13.5951C8.87849 10.6934 11.2215 8.33886 14.1074 8.3398C16.9932 8.34073 19.337 10.6968 19.3374 13.5985C19.3376 14.904 18.8635 16.0987 18.0792 17.0177L18.0493 17.0527L18.0818 17.0854L20.8583 19.8774L20.8938 19.8421L20.8583 19.8774C20.9973 20.0171 20.9974 20.2444 20.8584 20.3841C20.7196 20.5236 20.4939 20.5235 20.3551 20.3839L20.3196 20.4192L20.3551 20.3839L17.5782 17.5924ZM18.6252 13.5983C18.6248 11.0925 16.6008 9.05707 14.1075 9.05626C11.6142 9.05546 9.59075 11.0896 9.59113 13.5954C9.59151 16.1011 11.6156 18.1366 14.1089 18.1374C16.6021 18.1382 18.6256 16.104 18.6252 13.5983Z" fill="#001423" stroke="white" stroke-width="0.1"/>
</svg>
