<?xml version="1.0" encoding="UTF-8" standalone="no"?>
<svg
   width="16"
   height="16"
   viewBox="0 0 16 16"
   fill="none"
   version="1.1"
   id="svg8"
   sodipodi:docname="Find on this page icon.svg"
   inkscape:version="1.1.1 (3bf5ae0d25, 2021-09-20)"
   xmlns:inkscape="http://www.inkscape.org/namespaces/inkscape"
   xmlns:sodipodi="http://sodipodi.sourceforge.net/DTD/sodipodi-0.dtd"
   xmlns="http://www.w3.org/2000/svg"
   xmlns:svg="http://www.w3.org/2000/svg">
  <defs
     id="defs12" />
  <sodipodi:namedview
     id="namedview10"
     pagecolor="#ffffff"
     bordercolor="#666666"
     borderopacity="1.0"
     inkscape:pageshadow="2"
     inkscape:pageopacity="0.0"
     inkscape:pagecheckerboard="0"
     showgrid="true"
     inkscape:zoom="32"
     inkscape:cx="8.6875"
     inkscape:cy="6.921875"
     inkscape:window-width="1920"
     inkscape:window-height="1001"
     inkscape:window-x="-9"
     inkscape:window-y="-9"
     inkscape:window-maximized="1"
     inkscape:current-layer="svg8">
    <inkscape:grid
       type="xygrid"
       id="grid829" />
  </sodipodi:namedview>
  <path
     d="M 8.7426538,0.86460485 V 0.78362675 L 8.661676,0.78361194 2.1389885,0.78272119 C 2.0153643,0.78269913 1.8970553,0.83253748 1.8100258,0.92086997 1.7230331,1.0091582 1.6743852,1.1286599 1.6744087,1.2530276 l 0.00245,13.2393834 c 2.27e-5,0.124339 0.048717,0.243892 0.1357385,0.332158 0.087067,0.08834 0.20539,0.138252 0.3290142,0.138252 l 10.7432906,0.0015 c 0.123603,0 0.241904,-0.04984 0.328993,-0.138104 0.08694,-0.08834 0.135602,-0.20782 0.135602,-0.332158 l -0.0017,-8.9560811 v -0.080978 l -0.08098,-7.3e-6 L 9.8136138,5.456514 C 9.5302037,5.4564491 9.258117,5.3421669 9.0572908,5.1383742 8.8564655,4.9345449 8.7433901,4.6578645 8.7433166,4.3691406 Z"
     id="path3470"
     style="display:none;stroke:#001423;stroke-width:0.8;stroke-miterlimit:4;stroke-dasharray:none;stroke-opacity:1" />
  <path
     d="m 12.399558,4.9994293 0.165227,2.68e-5 -0.116001,-0.12555 -2.8154075,-3.0472346 -0.1184514,-0.1281988 6.32e-5,0.1799528 4.397e-4,2.6921239 c 6.33e-5,0.1132853 0.041619,0.2221517 0.1159358,0.3025991 0.074376,0.08048 0.1754147,0.1259052 0.2809745,0.1259186 z"
     id="path3468"
     style="display:inline;stroke:#001423;stroke-width:0.881059;stroke-miterlimit:4;stroke-dasharray:none;stroke-opacity:1" />
  <path
     d="m 13.36782,14.273621 c 0,0.27257 -0.105265,0.53374 -0.292465,0.726111 -0.187061,0.192299 -0.44069,0.300159 -0.704881,0.300088 L 2.3561739,15.29841 c -0.2641864,0 -0.5178032,-0.10793 -0.7049915,-0.300297 C 1.4639254,14.805714 1.358519,14.544544 1.358469,14.271972 L 1.3561796,1.7734091 C 1.3561307,1.500834 1.4614405,1.239669 1.6485957,1.0472974 1.8357135,0.85496498 2.0892865,0.7471444 2.3534729,0.74718052 l 6.140898,8.5276e-4 c 0.2641251,2.8491e-4 0.517545,0.10833206 0.7045388,0.30076402 v 3.41e-5 l 3.8741743,3.9816849 v 3.46e-5 c 0.18734,0.1922362 0.292876,0.4532604 0.293153,0.7257378"
     id="path2"
     style="stroke:#001423;stroke-width:0.912361;stroke-miterlimit:4;stroke-dasharray:none;stroke-opacity:1"
     sodipodi:nodetypes="cccccccsccccccc" />
  <path
     style="stroke:#001423;stroke-width:0.728;stroke-miterlimit:4;stroke-dasharray:none;stroke-opacity:1"
     d="m 12.211152,11.850596 -0.02475,-0.01836 -0.01998,0.02331 c -0.51936,0.604892 -1.248465,1.033057 -2.096395,1.160704 C 8.1853804,13.300101 6.4226606,11.992521 6.1363748,10.097695 5.8500825,8.2028698 7.1480469,6.4343747 9.0326909,6.1505474 10.91727,5.8667233 12.680039,7.1742745 12.966299,9.0691044 13.095102,9.921603 12.903259,10.748495 12.481672,11.425924 l -0.01608,0.02581 0.02444,0.01815 2.088296,1.549575 0.01747,-0.02361 -0.01747,0.02361 c 0.104541,0.07753 0.127004,0.225949 0.05001,0.330875 -0.07689,0.10478 -0.224288,0.126955 -0.328685,0.04948 l -0.01576,0.02121 0.01577,-0.02121 z"
     id="path6" />
</svg>
