<?xml version="1.0" encoding="UTF-8" standalone="no"?>
<svg
   width="30"
   height="30"
   viewBox="0 0 30 30"
   fill="none"
   version="1.1"
   id="svg8"
   sodipodi:docname="Find on this page icon 16px.svg"
   inkscape:version="1.1.1 (3bf5ae0d25, 2021-09-20)"
   xmlns:inkscape="http://www.inkscape.org/namespaces/inkscape"
   xmlns:sodipodi="http://sodipodi.sourceforge.net/DTD/sodipodi-0.dtd"
   xmlns="http://www.w3.org/2000/svg"
   xmlns:svg="http://www.w3.org/2000/svg">
  <defs
     id="defs12" />
  <sodipodi:namedview
     id="namedview10"
     pagecolor="#ffffff"
     bordercolor="#666666"
     borderopacity="1.0"
     inkscape:pageshadow="2"
     inkscape:pageopacity="0.0"
     inkscape:pagecheckerboard="0"
     showgrid="true"
     inkscape:zoom="22.627417"
     inkscape:cx="27.466679"
     inkscape:cy="15.40167"
     inkscape:window-width="1920"
     inkscape:window-height="1017"
     inkscape:window-x="-8"
     inkscape:window-y="-8"
     inkscape:window-maximized="1"
     inkscape:current-layer="svg8"
     width="30px"
     showguides="true"
     inkscape:guide-bbox="true"
     inkscape:snap-global="false"
     inkscape:snap-others="false"
     inkscape:object-nodes="false"
     inkscape:snap-nodes="false">
    <inkscape:grid
       type="xygrid"
       id="grid829" />
    <sodipodi:guide
       position="17,4"
       orientation="0,-1"
       id="guide1000" />
    <sodipodi:guide
       position="16,26"
       orientation="0,-1"
       id="guide1002" />
    <sodipodi:guide
       position="26,21"
       orientation="1,0"
       id="guide1004" />
  </sodipodi:namedview>
  <path
     d="m 20.944813,21.999898 c -0.19381,0.198213 -0.683568,0.500208 -0.957291,0.500135 L 9.4573041,22.499896 C 8.7671546,22.484656 8.4948477,22.369661 8.5000114,21.7499 V 9.2499588 C 8.5063296,8.4283353 9.2331721,7.5402881 9.9359505,7.4999672 h 6.7010455 c 0.303463,0.2624312 4.786465,4.9999758 4.786465,4.9999758"
     id="path2"
     style="display:none;stroke:#001423;stroke-width:0.999995;stroke-miterlimit:4;stroke-dasharray:none;stroke-opacity:1"
     sodipodi:nodetypes="cccccccc" />
  <path
     style="stroke:#001423;stroke-width:0.999812;stroke-miterlimit:4;stroke-dasharray:none;stroke-opacity:1"
     d="m 19.964177,17.924338 -0.02646,-0.01844 -0.02013,0.02501 c -0.522855,0.649296 -1.270612,1.12019 -2.152325,1.280289 -1.959737,0.355988 -3.844044,-0.957381 -4.205013,-2.931495 -0.360981,-1.974115 0.937331,-3.86554 2.89706,-4.221496 1.959659,-0.35595 3.844024,0.957383 4.204966,2.931501 0.162402,0.88817 -0.01105,1.759568 -0.429362,2.48172 l -0.01594,0.02749 0.02614,0.01824 c 0.682707,0.469673 1.438891,0.930779 2.117067,1.40723 0.980904,0.649964 1.807165,1.073585 1.610686,1.425467 -0.23486,0.387056 -0.58607,5.27e-4 -1.774123,-0.869461 -0.378044,-0.255336 -0.378044,-0.255336 0,0 z"
     id="path6"
     sodipodi:nodetypes="ccccccccccccccc" />
  <path
     id="path2110"
     style="fill:none;stroke:#000000;stroke-width:0.999995;stroke-linecap:square;stroke-linejoin:round;stroke-miterlimit:4;stroke-dasharray:none;stroke-opacity:1"
     d="m 19.5,21 c -9.32e-4,1.038251 -0.893683,1.500994 -2.001684,1.499999 l -8.0000079,-0.0072 C 8.3903199,22.491809 7.4990687,21.65516 7.5000007,20.616909 v 0 L 7.5100907,9.3723075 C 7.5110226,8.3340566 8.403775,7.4990074 9.5117751,7.5000009 L 16,7.5 l 3.455806,3.198875"
     sodipodi:nodetypes="cccscsccc" />
</svg>
