<?xml version="1.0" encoding="UTF-8" standalone="no"?>
<!-- Created with Inkscape (http://www.inkscape.org/) -->

<svg
   width="16"
   height="16"
   viewBox="0 0 4.2333332 4.2333332"
   version="1.1"
   id="svg1855"
   inkscape:version="1.1.1 (3bf5ae0d25, 2021-09-20)"
   sodipodi:docname="Get started16px for the browser.svg"
   xmlns:inkscape="http://www.inkscape.org/namespaces/inkscape"
   xmlns:sodipodi="http://sodipodi.sourceforge.net/DTD/sodipodi-0.dtd"
   xmlns="http://www.w3.org/2000/svg"
   xmlns:svg="http://www.w3.org/2000/svg">
  <sodipodi:namedview
     id="namedview1857"
     pagecolor="#ffffff"
     bordercolor="#666666"
     borderopacity="1.0"
     inkscape:pageshadow="2"
     inkscape:pageopacity="0.0"
     inkscape:pagecheckerboard="0"
     inkscape:document-units="px"
     showgrid="false"
     units="px"
     inkscape:zoom="7.89174"
     inkscape:cx="6.8425974"
     inkscape:cy="14.76227"
     inkscape:window-width="1920"
     inkscape:window-height="1001"
     inkscape:window-x="-9"
     inkscape:window-y="-9"
     inkscape:window-maximized="1"
     inkscape:current-layer="g2247" />
  <defs
     id="defs1852">
    <clipPath
       id="clip0_1179:2925">
      <rect
         width="22"
         height="22"
         fill="white"
         transform="translate(0.742188)"
         id="rect14794" />
    </clipPath>
    <clipPath
       id="clip0_1179:2925-8">
      <rect
         width="22"
         height="22"
         fill="white"
         transform="translate(0.742188)"
         id="rect14794-5" />
    </clipPath>
  </defs>
  <g
     inkscape:label="Слой 1"
     inkscape:groupmode="layer"
     id="layer1">
    <g
       id="g2247"
       transform="matrix(0.03996005,0,0,0.03996005,5.8336198,-0.07935916)">
      <g
         id="g1599"
         transform="matrix(6.621196,0,0,6.621196,394.34203,-438.62202)">
        <g
           id="g2248"
           transform="matrix(0.47636318,0,0,0.47636318,-95.010812,66.481642)">
          <g
             id="g2231"
             transform="matrix(0.64887401,0,0,0.64887401,18.833122,-10.959387)">
            <path
               d="m 50.005868,20.856807 c -1.0166,-0.4316 -2.1909,0.0439 -2.6221,1.0605 -0.4312,1.0166 0.0435,2.1909 1.0605,2.6221 7.7642,3.2925 12.7808,10.8755 12.7808,19.3189 0,11.5796 -9.4204,21 -21,21 -11.5796,0 -21,-9.4204 -21,-21 0,-8.4434 5.0166,-16.0264 12.7808,-19.3188 1.0171,-0.4312 1.4917,-1.6055 1.0605,-2.6221 -0.4312,-1.0166 -1.605,-1.4922 -2.6221,-1.0605 -9.2456,3.9208 -15.2192,12.9492 -15.2192,23.0014 0,13.7852 11.2148,25 25,25 13.7852,0 25,-11.2148 25,-25 0,-10.0522 -5.9736,-19.0806 -15.2192,-23.0015 z"
               id="path2227"
               style="fill:#000000;fill-opacity:1;stroke:none;stroke-opacity:1" />
            <g
               id="path2229"
               style="stroke:none">
              <path
                 style="color:#000000;fill:#000000;stroke:none;stroke-width:0.352637;-inkscape-stroke:none"
                 d="m 40.225068,40.124349 c 1.1045,0 2,-0.8955 2,-2 v -19 c 0,-1.1045 -0.8955,-2 -2,-2 -1.1045,0 -2,0.8955 -2,2 v 19 c 0,1.1045 0.8955,2 2,2 z"
                 id="path2670" />
              <path
                 style="color:#000000;fill:#000000;stroke:none;-inkscape-stroke:none"
                 d="m 40.224609,16.947266 c -1.199801,0 -2.175781,0.977932 -2.175781,2.177734 v 19 c 0,1.199802 0.97598,2.175781 2.175781,2.175781 1.199802,0 2.177735,-0.975979 2.177735,-2.175781 v -19 c 0,-1.199802 -0.977933,-2.177734 -2.177735,-2.177734 z m 0,0.353515 c 1.009196,0 1.824219,0.815023 1.824219,1.824219 v 19 c 0,1.009196 -0.815023,1.822266 -1.824219,1.822266 -1.009196,0 -1.822265,-0.81307 -1.822265,-1.822266 v -19 c 0,-1.009196 0.813069,-1.824219 1.822265,-1.824219 z"
                 id="path2672" />
            </g>
          </g>
        </g>
      </g>
    </g>
  </g>
</svg>
