<svg width="21" height="21" viewBox="0 0 21 21" fill="none" xmlns="http://www.w3.org/2000/svg">
<path d="M10.4488 4.35402L10.4488 4.35402C9.82021 4.36288 9.21741 4.54949 8.7048 4.87599C8.02064 5.31181 7.48899 5.99817 7.26522 6.83372L7.26515 6.83396C7.2527 6.88015 7.24643 6.92795 7.24643 6.97605C7.24643 7.27788 7.4958 7.52724 7.79763 7.52724C8.04628 7.52724 8.26607 7.35855 8.3302 7.11847L8.33023 7.11837C8.482 6.55176 8.83271 6.09881 9.29278 5.80571C9.75251 5.51283 10.3158 5.38316 10.8937 5.48501L10.8937 5.48502C11.4714 5.58699 11.9561 5.89882 12.2883 6.3317C12.6208 6.76504 12.7936 7.31514 12.7425 7.89906M10.4488 4.35402L11.2751 9.65767L11.3303 9.79714C11.5876 9.69525 11.8226 9.54479 12.0232 9.361L12.0232 9.36097C12.4256 8.99214 12.6915 8.48303 12.7425 7.89906M10.4488 4.35402C10.6578 4.35102 10.8699 4.36869 11.0837 4.40639C11.9364 4.5568 12.6686 5.01978 13.1617 5.66254L13.1617 5.66256M10.4488 4.35402L13.1617 5.66256M12.7425 7.89906L12.593 7.88597L12.7425 7.89901C12.7425 7.89903 12.7425 7.89904 12.7425 7.89906ZM13.1617 5.66256C13.655 6.30536 13.9136 7.13467 13.8382 7.99716C13.7627 8.85932 13.3629 9.6243 12.7652 10.172L12.8666 10.2826L13.1617 5.66256ZM0.15 10.5C0.15 4.79213 4.79213 0.15 10.5 0.15C16.2079 0.15 20.85 4.79213 20.85 10.5C20.85 16.2079 16.2079 20.85 10.5 20.85C4.79213 20.85 0.15 16.2079 0.15 10.5ZM19.7554 10.5C19.7554 5.38272 15.6171 1.24999 10.5 1.24999C5.38283 1.24999 1.24999 5.38283 1.24999 10.5C1.24999 15.6171 5.38272 19.7554 10.5 19.7554C15.6172 19.7554 19.7554 15.6172 19.7554 10.5ZM9.95269 16.1027C9.95269 15.8014 10.2015 15.5526 10.5026 15.5526C10.8039 15.5526 11.0527 15.8015 11.0527 16.1027C11.0527 16.4038 10.8039 16.6526 10.5026 16.6526C10.2015 16.6526 9.95269 16.4038 9.95269 16.1027Z" fill="#001423" stroke="white" stroke-width="0.3"/>
</svg>
