<?xml version="1.0" encoding="UTF-8" standalone="no"?>
<svg
   width="16"
   height="16"
   viewBox="0 0 16 16"
   fill="none"
   version="1.1"
   id="svg6"
   sodipodi:docname="Bookmarks 16px for the browser.svg"
   inkscape:version="1.1.1 (3bf5ae0d25, 2021-09-20)"
   xmlns:inkscape="http://www.inkscape.org/namespaces/inkscape"
   xmlns:sodipodi="http://sodipodi.sourceforge.net/DTD/sodipodi-0.dtd"
   xmlns="http://www.w3.org/2000/svg"
   xmlns:svg="http://www.w3.org/2000/svg">
  <defs
     id="defs10" />
  <sodipodi:namedview
     id="namedview8"
     pagecolor="#ffffff"
     bordercolor="#666666"
     borderopacity="1.0"
     inkscape:pageshadow="2"
     inkscape:pageopacity="0.0"
     inkscape:pagecheckerboard="0"
     showgrid="true"
     inkscape:zoom="25.375"
     inkscape:cx="2.0492611"
     inkscape:cy="10.935961"
     inkscape:window-width="1920"
     inkscape:window-height="1001"
     inkscape:window-x="-9"
     inkscape:window-y="-9"
     inkscape:window-maximized="1"
     inkscape:current-layer="svg6">
    <inkscape:grid
       type="xygrid"
       id="grid827" />
  </sodipodi:namedview>
  <path
     d="m 7.0261292,9.5264498 c 0.00798,-0.4595092 0.061825,-0.8224883 0.1615411,-1.0889273 0.099706,-0.266439 0.3031204,-0.561842 0.6102332,-0.8861991 l 0.783741,-0.7819486 c 0.3350284,-0.3668343 0.5025528,-0.760705 0.5025528,-1.1816022 0,-0.4054463 -0.1096919,-0.7220929 -0.3290552,-0.94991 C 8.5357787,4.4061705 8.2166992,4.2903244 7.7979035,4.2903244 c -0.406829,0 -0.733883,0.1042605 -0.9811619,0.3127814 C 6.5694524,4.8116268 6.4458129,5.091579 6.4458129,5.4429725 H 5.339 C 5.3469744,4.8174196 5.5763135,4.3134956 6.0270172,3.9312105 6.4817029,3.5450702 7.0720052,3.352 7.7979035,3.352 c 0.7538241,0 1.340134,0.1969255 1.7589298,0.5907961 C 9.979611,4.3328017 10.191,4.8695449 10.191,5.5530258 c 0,0.6757505 -0.3230719,1.3418431 -0.9692054,1.9982976 L 8.5696777,8.1768763 C 8.2785138,8.4896478 8.1329421,8.9395089 8.1329421,9.5264498 Z m -0.047857,1.8361392 c 0,-0.173784 0.05384,-0.318604 0.1615308,-0.43446 0.1116829,-0.119711 0.2752048,-0.179518 0.4905861,-0.179518 0.2153812,0 0.3789031,0.05978 0.490586,0.179518 0.1116728,0.115856 0.1675142,0.260676 0.1675142,0.43446 0,0.173784 -0.055841,0.318505 -0.1675142,0.434361 -0.1116829,0.112 -0.2752048,0.16805 -0.490586,0.16805 -0.2153813,0 -0.3789032,-0.05605 -0.4905861,-0.16805 -0.10769,-0.115856 -0.1615302,-0.260577 -0.1615308,-0.434361 z"
     fill="#000000"
     id="path2"
     style="stroke-width:1.00466" />
  <path
     d="m 7.899568,15.46082 c 3.99797,0 7.23887,-3.3402 7.23887,-7.46057 0,-4.12037 -3.2409,-7.46058901 -7.23887,-7.46058901 -3.99794,0 -7.23890701,3.34021901 -7.23890701,7.46058901 0,4.12037 3.24096701,7.46057 7.23890701,7.46057 z"
     stroke="#000000"
     stroke-width="0.987322"
     stroke-miterlimit="3.5"
     stroke-linejoin="round"
     id="path4" />
</svg>
