<?xml version="1.0" encoding="UTF-8" standalone="no"?>
<!-- Created with Inkscape (http://www.inkscape.org/) -->

<svg
   width="30"
   height="30"
   version="1.1"
   viewBox="0 0 30 30"
   id="svg8"
   sodipodi:docname="Help 16px.svg"
   inkscape:version="1.1.1 (3bf5ae0d25, 2021-09-20)"
   xmlns:inkscape="http://www.inkscape.org/namespaces/inkscape"
   xmlns:sodipodi="http://sodipodi.sourceforge.net/DTD/sodipodi-0.dtd"
   xmlns="http://www.w3.org/2000/svg"
   xmlns:svg="http://www.w3.org/2000/svg">
  <defs
     id="defs12" />
  <sodipodi:namedview
     id="namedview10"
     pagecolor="#ffffff"
     bordercolor="#666666"
     borderopacity="1.0"
     inkscape:pageshadow="2"
     inkscape:pageopacity="0.0"
     inkscape:pagecheckerboard="0"
     showgrid="true"
     inkscape:zoom="45.254834"
     inkscape:cx="14.352058"
     inkscape:cy="15.280136"
     inkscape:window-width="1920"
     inkscape:window-height="1017"
     inkscape:window-x="-8"
     inkscape:window-y="-8"
     inkscape:window-maximized="1"
     inkscape:current-layer="svg8"
     inkscape:lockguides="false"
     inkscape:snap-global="false">
    <inkscape:grid
       type="xygrid"
       id="grid7613" />
  </sodipodi:namedview>
  <g
     aria-label="?"
     transform="scale(0.92277219,1.0836911)"
     id="text4"
     style="font-size:11.8192px;line-height:1.25;-inkscape-font-specification:'sans-serif, Normal';stroke-width:0">
    <path
       style="font-size:11.8193px;stroke-width:0"
       d="m 16.797212,18.455443 h -1.083691 v -1.384158 h 1.083691 z"
       id="path961" />
    <path
       style="stroke-width:5.59161;stroke-miterlimit:3.5;stroke-dasharray:none"
       d="m 14.20876,10.024555 c -0.240567,0.254306 -0.425616,0.542521 -0.555152,0.881598 -0.129535,0.339079 -0.105754,0.699257 -0.105754,1.089198 l 1.116924,0.0025 c 0,-0.284066 -0.0055,-0.521843 0.01039,-0.767846 0.04315,-0.263935 0.125757,-0.408636 0.273804,-0.578175 0.148037,-0.169537 0.333089,-0.305168 0.555148,-0.406894 0.222062,-0.101706 0.48113,-0.15258 0.777214,-0.15258 0.462626,0 0.814223,0.118677 1.091799,0.356031 0.259071,0.237351 0.407108,0.576428 0.444119,1.000274 0.01851,0.288216 -0.01852,0.525568 -0.111031,0.72902 -0.09254,0.203443 -0.22206,0.389934 -0.370099,0.559473 -0.14804,0.16954 -0.333092,0.322123 -0.499637,0.47471 -0.18505,0.152582 -0.351595,0.322121 -0.518141,0.491659 -0.166545,0.186497 -0.296082,0.372986 -0.425618,0.610339 -0.111028,0.2204 -0.18505,0.508615 -0.203553,0.830741 v 0.54252 h 1.096733 v -0.472169 c 0,-0.203446 0.01357,-0.358568 0.0691,-0.528105 0.05553,-0.152587 0.148042,-0.305171 0.25907,-0.4408 0.111033,-0.135631 0.222062,-0.271261 0.351597,-0.389938 0.129534,-0.118681 0.259069,-0.237356 0.407111,-0.356033 0.129534,-0.118678 0.259073,-0.254307 0.407111,-0.389937 0.129536,-0.135632 0.240564,-0.27126 0.351596,-0.423845 0.09254,-0.152589 0.185049,-0.322125 0.240566,-0.508615 0.05551,-0.186495 0.09254,-0.406896 0.09254,-0.644249 0,-0.372984 -0.07402,-0.695111 -0.203554,-0.98332 -0.12957,-0.28821 -0.31462,-0.525561 -0.555185,-0.7290107 C 17.965288,9.61766 17.687713,9.4650754 17.354621,9.3633527 17.058541,9.2785857 16.68844,9.2277218 16.299834,9.2277218 c -0.444122,0 -0.832728,0.067817 -1.184324,0.2034457 -0.370102,0.1525844 -0.666181,0.3390771 -0.906748,0.5933875 z"
       id="path1033"
       sodipodi:nodetypes="sscccscscccsccccccscsscccsscccscss" />
  </g>
  <ellipse
     cx="15"
     cy="15"
     rx="7.5"
     ry="7.4998002"
     fill="none"
     stroke="#000000"
     stroke-linejoin="round"
     stroke-miterlimit="3.5"
     stroke-width="1.0004"
     id="ellipse6"
     style="stroke-width:1;stroke-miterlimit:3.5;stroke-dasharray:none" />
</svg>
