<?xml version="1.0" encoding="UTF-8" standalone="no"?>
<!-- Created with Inkscape (http://www.inkscape.org/) -->

<svg
   width="16"
   height="16"
   viewBox="0 0 4.2333332 4.2333332"
   version="1.1"
   id="svg1855"
   inkscape:version="1.1.1 (3bf5ae0d25, 2021-09-20)"
   sodipodi:docname="History 16px for the browser.svg"
   xmlns:inkscape="http://www.inkscape.org/namespaces/inkscape"
   xmlns:sodipodi="http://sodipodi.sourceforge.net/DTD/sodipodi-0.dtd"
   xmlns="http://www.w3.org/2000/svg"
   xmlns:svg="http://www.w3.org/2000/svg">
  <sodipodi:namedview
     id="namedview1857"
     pagecolor="#ffffff"
     bordercolor="#666666"
     borderopacity="1.0"
     inkscape:pageshadow="2"
     inkscape:pageopacity="0.0"
     inkscape:pagecheckerboard="0"
     inkscape:document-units="px"
     showgrid="true"
     units="px"
     inkscape:zoom="15.78348"
     inkscape:cx="6.7158827"
     inkscape:cy="5.3536989"
     inkscape:window-width="1920"
     inkscape:window-height="1001"
     inkscape:window-x="-9"
     inkscape:window-y="-9"
     inkscape:window-maximized="1"
     inkscape:current-layer="g2247">
    <inkscape:grid
       type="xygrid"
       id="grid828" />
  </sodipodi:namedview>
  <defs
     id="defs1852">
    <clipPath
       id="clip0_1179:2925">
      <rect
         width="22"
         height="22"
         fill="white"
         transform="translate(0.742188)"
         id="rect14794" />
    </clipPath>
    <clipPath
       id="clip0_1179:2925-8">
      <rect
         width="22"
         height="22"
         fill="white"
         transform="translate(0.742188)"
         id="rect14794-5" />
    </clipPath>
  </defs>
  <g
     inkscape:label="Слой 1"
     inkscape:groupmode="layer"
     id="layer1">
    <g
       id="g2247"
       transform="matrix(0.03996005,0,0,0.03996005,5.8336198,-0.07935916)">
      <path
         d="M -91.583651,4.1841996 A 51.205659,51.611417 0 0 0 -140.34814,40.161501 l -5.22102,-0.812317 6.3423,16.375794 10.89755,-13.715168 -4.99908,-0.765224 a 44.139186,44.488948 0 1 1 41.744739,58.981114 43.753741,44.100449 0 0 1 -31.723209,-13.562126 3.5040369,3.5318032 0 0 0 -5.03412,4.909207 51.13558,51.540781 0 1 0 36.757329,-87.3885814 z"
         id="path4283"
         style="fill:#000000;fill-opacity:1;stroke:none;stroke-width:1.17509;stroke-miterlimit:4;stroke-dasharray:none" />
      <path
         d="m -92.568828,22.456865 a 3.3720679,3.7780854 0 0 0 -3.372067,3.778087 v 33.058243 a 3.3720679,3.7780854 0 0 0 3.372067,3.778087 h 18.681257 a 3.3720685,3.778086 0 0 0 0,-7.556172 H -89.207999 V 26.222355 a 3.3720679,3.7780854 0 0 0 -3.360829,-3.76549 z"
         id="path4280"
         style="fill:#000000;fill-opacity:1;stroke:none;stroke-width:1.19226;stroke-miterlimit:4;stroke-dasharray:none" />
    </g>
  </g>
</svg>
