<svg width="22" height="20" viewBox="0 0 22 20" fill="none" xmlns="http://www.w3.org/2000/svg">
<path d="M1.90551 7.09312L1.75951 7.07132L1.01899 6.96075L2.0618 9.54464L3.85359 7.38057L3.16246 7.27905L2.95149 7.24806L3.02304 7.04718C3.56175 5.53483 4.52037 4.19597 5.79298 3.17701C7.06555 2.15809 8.60306 1.49826 10.2367 1.26925C11.8704 1.04025 13.5379 1.2508 15.0564 1.87805C16.5749 2.50532 17.8863 3.5253 18.8462 4.82683C19.8061 6.12842 20.3774 7.66117 20.4965 9.257C20.6157 10.8529 20.2782 12.4494 19.5214 13.8713C18.7646 15.2932 17.618 16.4852 16.2081 17.3172C14.7984 18.1491 13.1796 18.5893 11.5291 18.5899C11.5289 18.5899 11.5288 18.5899 11.5286 18.5899L11.5285 18.4149C10.3451 18.419 9.17307 18.1906 8.08356 17.7436C6.99405 17.2966 6.00971 16.6403 5.19021 15.8145L1.90551 7.09312ZM1.90551 7.09312L1.9516 6.95287C2.59716 4.98837 3.87229 3.27229 5.59379 2.05345C7.31535 0.834579 9.39378 0.176441 11.5286 0.175C13.1877 0.175523 14.8207 0.573454 16.2816 1.33295C17.7425 2.09244 18.9855 3.18969 19.9002 4.52624C20.8149 5.86275 21.3729 7.39708 21.5249 8.99221C21.6768 10.5873 21.4181 12.1942 20.7715 13.6694C20.1249 15.1447 19.1103 16.4428 17.8179 17.4474C16.5255 18.452 14.9955 19.1318 13.3644 19.4255C11.7333 19.7193 10.0524 19.6177 8.47195 19.1301C6.89244 18.6427 5.46277 17.7851 4.31017 16.6341C4.22028 16.5374 4.17339 16.4121 4.17763 16.2844C4.1819 16.1558 4.23773 16.0326 4.33524 15.9414C4.43294 15.85 4.56473 15.798 4.70296 15.7981C4.84021 15.7982 4.97102 15.8497 5.06832 15.9401L1.90551 7.09312Z" fill="#001423" stroke="#FAFCFC" stroke-width="0.35"/>
<path d="M11.7835 9.73986V9.88986H11.9335H14.9108C15.0423 9.88986 15.1701 9.94475 15.2655 10.0451C15.3612 10.1458 15.4162 10.2839 15.4162 10.4293C15.4162 10.5748 15.3612 10.7129 15.2655 10.8135C15.1701 10.9139 15.0423 10.9688 14.9108 10.9688H11.2803C11.1488 10.9688 11.0211 10.9139 10.9257 10.8135C10.83 10.7129 10.775 10.5748 10.775 10.4293V4.3965C10.775 4.25103 10.83 4.11296 10.9257 4.01231C11.021 3.91198 11.1487 3.8571 11.2801 3.85703C11.4109 3.85756 11.5379 3.91242 11.6328 4.01231C11.728 4.11247 11.783 4.24971 11.7835 4.39446V9.73986Z" fill="#001423" stroke="#FAFCFC" stroke-width="0.3"/>
</svg>
