<?xml version="1.0" encoding="UTF-8" standalone="no"?>
<!-- Created with Inkscape (http://www.inkscape.org/) -->

<svg
   width="30"
   height="30"
   viewBox="0 0 30 30"
   version="1.1"
   id="svg1855"
   sodipodi:docname="History 16px.svg"
   inkscape:version="1.1.1 (3bf5ae0d25, 2021-09-20)"
   xmlns:inkscape="http://www.inkscape.org/namespaces/inkscape"
   xmlns:sodipodi="http://sodipodi.sourceforge.net/DTD/sodipodi-0.dtd"
   xmlns="http://www.w3.org/2000/svg"
   xmlns:svg="http://www.w3.org/2000/svg">
  <sodipodi:namedview
     id="namedview16"
     pagecolor="#ffffff"
     bordercolor="#666666"
     borderopacity="1.0"
     inkscape:pageshadow="2"
     inkscape:pageopacity="0.0"
     inkscape:pagecheckerboard="0"
     showgrid="false"
     inkscape:zoom="13.866667"
     inkscape:cx="8.6538461"
     inkscape:cy="12.223558"
     inkscape:window-width="1920"
     inkscape:window-height="1017"
     inkscape:window-x="-8"
     inkscape:window-y="-8"
     inkscape:window-maximized="1"
     inkscape:current-layer="g1518" />
  <defs
     id="defs1852">
    <clipPath
       id="clip0_1179:2925">
      <rect
         width="22"
         height="22"
         fill="#ffffff"
         id="rect14794"
         x="0"
         y="0" />
    </clipPath>
    <clipPath
       id="clip0_1179:2925-8">
      <rect
         width="22"
         height="22"
         fill="#ffffff"
         id="rect14794-5"
         x="0"
         y="0" />
    </clipPath>
    <linearGradient
       id="0">
      <stop
         style="stop-color:#000000;stop-opacity:0;"
         offset="0"
         id="stop16685" />
    </linearGradient>
    <linearGradient
       id="0-1">
      <stop
         style="stop-color:#000000;stop-opacity:0;"
         offset="0"
         id="stop16685-7" />
    </linearGradient>
  </defs>
  <g
     id="g1518">
    <path
       style="color:#000000;fill:#000000;stroke-linejoin:round;stroke-miterlimit:3.5;-inkscape-stroke:none"
       d="m 15.218334,6.5019531 c 0.953554,0.0254 1.915427,0.2237069 2.841797,0.6074219 3.705479,1.5348599 5.704082,5.58682 4.666015,9.460937 -1.038066,3.874118 -4.795015,6.384841 -8.771484,5.861329 C 9.9781932,21.908128 6.9995842,18.510782 6.9995842,14.5 h 1 c 0,3.516703 2.5993198,6.480431 6.0859378,6.939453 3.486617,0.459022 6.765591,-1.732032 7.675781,-5.128906 C 22.671493,12.913672 20.926328,9.3789873 17.677318,8.0332031 14.428308,6.687419 10.695436,7.9544457 8.9370842,11 L 8.0718492,10.5 C 9.5758932,7.8949207 12.357673,6.4257541 15.218334,6.5019531 Z"
       id="path16987" />
    <path
       style="color:#000000;fill:#000000;-inkscape-stroke:none"
       d="m 8,7 v 5 h 4 V 11 H 9 V 7 Z"
       id="path2477" />
    <path
       style="color:#000000;fill:#000000;-inkscape-stroke:none"
       d="m 14,11 v 5 h 4 v -1 h -3 v -4 z"
       id="path3900" />
  </g>
</svg>
