<?xml version="1.0" encoding="UTF-8" standalone="no"?>
<!-- Created with Inkscape (http://www.inkscape.org/) -->

<svg
   width="30"
   height="30"
   version="1.1"
   viewBox="0 0 30 30"
   id="svg4"
   xmlns="http://www.w3.org/2000/svg"
   xmlns:svg="http://www.w3.org/2000/svg">
  <defs
     id="defs8" />
  <path
     style="color:#000000;fill:#0f0708;-inkscape-stroke:none"
     d="m 14.998047,7 c -0.223812,0 -0.439541,0.082302 -0.607422,0.2402344 l -0.0078,0.00586 -7.1386724,7.1992193 c -0.120334,0.1214 -0.1994132,0.273321 -0.2304687,0.439453 -0.029699,0.158906 -0.013101,0.334224 0.058594,0.49414 0.070587,0.157187 0.1844126,0.282899 0.3242188,0.371094 0.1402377,0.08848 0.3017693,0.134445 0.4648437,0.134766 h 1.3203125 v 6.267578 c 0,0.226031 0.0937,0.448643 0.2597657,0.607422 C 9.6076518,22.918517 9.8222775,23 10.044922,23 h 3.09375 c 0.222564,0 0.438543,-0.08452 0.601562,-0.240234 h 0.002 c 0.162873,-0.155701 0.261718,-0.37475 0.261718,-0.607422 v -3.015625 h 2.09961 v 3.015625 c 0,0.23257 0.09875,0.451686 0.261718,0.607422 C 16.528247,22.915546 16.744174,23 16.966797,23 h 3.085937 c 0.222546,0 0.440652,-0.08471 0.603516,-0.240234 0.162606,-0.155583 0.261719,-0.37457 0.261719,-0.607422 v -6.267578 h 1.21875 0.002 c 0.163142,-3.12e-4 0.324861,-0.04651 0.464844,-0.134766 0.139486,-0.08807 0.253484,-0.213403 0.324218,-0.371094 0.07183,-0.160086 0.08621,-0.335519 0.05664,-0.49414 -0.03103,-0.16694 -0.110315,-0.318243 -0.230469,-0.439453 l -7.140625,-7.1992193 -0.0059,-0.00586 C 15.439502,7.0822399 15.221843,7 14.998047,7 Z M 15,8.0449219 21.783203,14.884766 H 19.917969 V 22 h -2.814453 v -3.863281 h -4.09961 V 22 H 10.181641 V 14.884766 H 8.2167969 Z"
     id="path2" />
</svg>
