<?xml version="1.0" encoding="UTF-8" standalone="no"?>
<!-- Created with Inkscape (http://www.inkscape.org/) -->

<svg
   width="30"
   height="30"
   version="1.1"
   viewBox="0 0 30 30"
   id="svg4"
   sodipodi:docname="Home 16px.svg"
   inkscape:version="1.1.1 (3bf5ae0d25, 2021-09-20)"
   xmlns:inkscape="http://www.inkscape.org/namespaces/inkscape"
   xmlns:sodipodi="http://sodipodi.sourceforge.net/DTD/sodipodi-0.dtd"
   xmlns="http://www.w3.org/2000/svg"
   xmlns:svg="http://www.w3.org/2000/svg">
  <defs
     id="defs8" />
  <sodipodi:namedview
     id="namedview6"
     pagecolor="#ffffff"
     bordercolor="#666666"
     borderopacity="1.0"
     inkscape:pageshadow="2"
     inkscape:pageopacity="0.0"
     inkscape:pagecheckerboard="0"
     showgrid="false"
     inkscape:zoom="27.066667"
     inkscape:cx="14.759852"
     inkscape:cy="15.018473"
     inkscape:window-width="1920"
     inkscape:window-height="1017"
     inkscape:window-x="-8"
     inkscape:window-y="-8"
     inkscape:window-maximized="1"
     inkscape:current-layer="svg4" />
  <path
     d="m 14.998708,7.5000439 c -0.09932,0 -0.195467,0.037094 -0.266218,0.1036521 l -7.1325147,7.19295 c -0.048986,0.04942 -0.081764,0.112542 -0.094287,0.179534 -0.01252,0.06699 -0.00587,0.135472 0.022187,0.198054 0.028071,0.06251 0.075543,0.116142 0.1349576,0.153623 0.059407,0.03748 0.128472,0.05724 0.1996632,0.05738 H 9.68165 v 6.766841 c 0,0.09236 0.037038,0.180834 0.1053778,0.246175 0.068351,0.06527 0.1621789,0.101802 0.2588232,0.101802 h 3.092982 c 0.09666,0 0.18863,-0.03651 0.256984,-0.101802 0.06835,-0.06534 0.107227,-0.153823 0.107227,-0.246175 v -3.514873 h 3.100374 v 3.514873 c 0,0.09236 0.03885,0.180834 0.107227,0.246175 0.0683,0.06527 0.16027,0.101802 0.256984,0.101802 h 3.085587 c 0.09672,0 0.18861,-0.03651 0.256983,-0.101802 0.0683,-0.06535 0.107227,-0.153823 0.107227,-0.246175 v -6.766841 h 1.719322 c 0.07125,-1.36e-4 0.140245,-0.01991 0.199674,-0.05738 0.05936,-0.03748 0.106916,-0.09111 0.134957,-0.153623 0.02808,-0.06258 0.0347,-0.131053 0.02221,-0.198054 -0.01245,-0.06699 -0.04532,-0.130123 -0.0943,-0.179534 L 15.264875,7.603696 C 15.19413,7.5371326 15.09797,7.5000439 14.998658,7.5000439 Z"
     fill="none"
     stroke="#0f0708"
     stroke-width="0.99999"
     id="path2" />
</svg>
