<svg width="22" height="23" viewBox="0 0 22 23" fill="none" xmlns="http://www.w3.org/2000/svg">
<path d="M0.472003 11.4366L0.472011 11.4366L10.3642 0.999738C10.4623 0.903169 10.5945 0.849023 10.7322 0.849023C10.8699 0.849023 11.0021 0.903171 11.1002 0.999745L20.9948 11.4366C21.0627 11.5083 21.1082 11.5982 21.1255 11.6954C21.1429 11.7926 21.1314 11.8927 21.0925 11.9835C21.0536 12.0742 20.9889 12.1515 20.9066 12.2059C20.8242 12.2603 20.7277 12.2894 20.6289 12.2896H18.3459H18.2459V12.3896V22.1086C18.2459 22.2426 18.1926 22.3711 18.0979 22.4659C18.0031 22.5606 17.8746 22.6139 17.7405 22.6139H13.4622C13.3281 22.6139 13.1996 22.5606 13.1049 22.4659C13.0101 22.3711 12.9568 22.2426 12.9568 22.1086V17.1086V17.0086H12.8568H8.75764H8.65764V17.1086V22.1086C8.65764 22.2426 8.60441 22.3711 8.50964 22.4659C8.41487 22.5606 8.28635 22.6139 8.15233 22.6139H3.86426C3.73025 22.6139 3.60172 22.5606 3.50695 22.4659C3.41219 22.3711 3.35895 22.2426 3.35895 22.1086V12.3896V12.2896H3.25895H0.837852C0.739131 12.2894 0.642621 12.2603 0.560243 12.2059C0.477865 12.1515 0.413227 12.0742 0.374313 11.9835C0.335399 11.8927 0.323913 11.7926 0.341274 11.6954C0.358635 11.5982 0.404082 11.5083 0.472003 11.4366ZM17.3808 11.427C17.4755 11.3323 17.6039 11.279 17.7378 11.279C17.7379 11.279 17.738 11.279 17.7381 11.279L19.2196 11.2838L19.4531 11.2846L19.2925 11.115L10.806 2.15635L10.7334 2.07973L10.6608 2.15633L2.17428 11.1102L2.0143 11.279H2.24686H3.87395C4.00797 11.279 4.1365 11.3322 4.23126 11.427C4.32603 11.5217 4.37927 11.6503 4.37927 11.7843V21.5032V21.6032H4.47927H7.54701H7.64701V21.5032V16.5033C7.64701 16.3693 7.70025 16.2408 7.79501 16.146C7.88978 16.0513 8.01831 15.998 8.15233 15.998H13.4622C13.5962 15.998 13.7247 16.0513 13.8195 16.146C13.9142 16.2408 13.9675 16.3693 13.9675 16.5033V21.5032V21.6032H14.0675H17.1328H17.2328V21.5032V11.7843C17.2328 11.6503 17.286 11.5217 17.3808 11.427Z" fill="#001423" stroke="white" stroke-width="0.2"/>
</svg>
