<?xml version="1.0" encoding="UTF-8" standalone="no"?>
<!-- Created with Inkscape (http://www.inkscape.org/) -->

<svg
   width="16"
   height="16"
   viewBox="0 0 4.2333332 4.2333335"
   version="1.1"
   id="svg14380"
   sodipodi:docname="Home 16px for the browser.svg"
   inkscape:version="1.1.1 (3bf5ae0d25, 2021-09-20)"
   xmlns:inkscape="http://www.inkscape.org/namespaces/inkscape"
   xmlns:sodipodi="http://sodipodi.sourceforge.net/DTD/sodipodi-0.dtd"
   xmlns="http://www.w3.org/2000/svg"
   xmlns:svg="http://www.w3.org/2000/svg">
  <sodipodi:namedview
     id="namedview14382"
     pagecolor="#ffffff"
     bordercolor="#666666"
     borderopacity="1.0"
     inkscape:pageshadow="2"
     inkscape:pageopacity="0.0"
     inkscape:pagecheckerboard="0"
     inkscape:document-units="px"
     showgrid="true"
     inkscape:zoom="45.254834"
     inkscape:cx="6.872194"
     inkscape:cy="5.7341941"
     inkscape:window-width="1920"
     inkscape:window-height="1001"
     inkscape:window-x="-9"
     inkscape:window-y="-9"
     inkscape:window-maximized="1"
     inkscape:current-layer="layer1"
     units="px"
     height="16px">
    <inkscape:grid
       type="xygrid"
       id="grid2216" />
  </sodipodi:namedview>
  <defs
     id="defs14377">
    <clipPath
       id="clip0_1179:2925">
      <rect
         width="22"
         height="22"
         fill="white"
         transform="translate(0.742188)"
         id="rect14794" />
    </clipPath>
    <clipPath
       id="clip0_1179:2925-8">
      <rect
         width="22"
         height="22"
         fill="white"
         transform="translate(0.742188)"
         id="rect14794-5" />
    </clipPath>
  </defs>
  <g
     inkscape:label="Слой 1"
     inkscape:groupmode="layer"
     id="layer1">
    <path
       style="color:#000000;fill:#0f0708;stroke-width:0;stroke-miterlimit:4;stroke-dasharray:none"
       d="m 2.1152093,0.02513542 c -0.057976,0 -0.114677,0.02159735 -0.1582064,0.06249887 l -0.00195,0.001953 -1.85550772,1.86910711 c -0.03119822,0.031436 -0.05248972,0.070222 -0.06054816,0.1132791 -0.0077055,0.041185 -0.0029671,0.087477 0.01562534,0.1289039 0.018316,0.040746 0.04778451,0.072884 0.08398612,0.095701 0.0363598,0.02292 0.076916,0.035073 0.11914311,0.035155 h 0.001953 0.34375715 v 1.628877 c 0,0.058586 0.0233601,0.1170909 0.0664078,0.1582002 0.0430966,0.041104 0.0985848,0.060547 0.15625325,0.060547 H 1.6308222 c 0.057668,0 0.1139983,-0.020242 0.1562533,-0.060547 C 1.829292,4.0785 1.8554384,4.020922 1.8554384,3.960611 V 3.1774223 h 0.5468865 v 0.7831889 c 0,0.060285 0.026116,0.1178796 0.068361,0.1582002 0.042264,0.040344 0.098589,0.060547 0.1562534,0.060547 h 0.8027513 c 0.057663,0 0.1140415,-0.020297 0.1562534,-0.060547 0.042158,-0.040287 0.068361,-0.097845 0.068361,-0.1582002 V 2.3317343 h 0.3164128 0.00195 c 0.042247,-8.07e-5 0.082859,-0.0123 0.1191433,-0.035155 0.036125,-0.02279 0.065635,-0.05485 0.083986,-0.095701 0.018608,-0.041437 0.023343,-0.087702 0.015626,-0.1289042 -0.00805,-0.043248 -0.0294,-0.081896 -0.06054,-0.1132791 L 2.2734159,0.08958738 v -0.001953 C 2.2298828,0.04672522 2.1731831,0.02513554 2.1152093,0.02513542 Z m 0,0.27147946 1.7656621,1.77731162 H 3.5429737 3.394533 V 2.2204083 3.9215495 H 2.662096 V 3.0660961 2.9176612 H 2.5136554 1.7441078 1.5976204 V 3.0660961 3.9215495 H 0.86127708 V 2.2204083 2.0739265 H 0.71283646 0.34954767 Z"
       id="path1984" />
  </g>
</svg>
