<?xml version="1.0" encoding="UTF-8" standalone="no"?>
<!-- Created with Inkscape (http://www.inkscape.org/) -->

<svg
   width="16"
   height="16"
   viewBox="0 0 4.2333332 4.2333335"
   version="1.1"
   id="svg14380"
   sodipodi:docname="Home 16px.svg"
   inkscape:version="1.1.1 (3bf5ae0d25, 2021-09-20)"
   xmlns:inkscape="http://www.inkscape.org/namespaces/inkscape"
   xmlns:sodipodi="http://sodipodi.sourceforge.net/DTD/sodipodi-0.dtd"
   xmlns="http://www.w3.org/2000/svg"
   xmlns:svg="http://www.w3.org/2000/svg">
  <sodipodi:namedview
     id="namedview14382"
     pagecolor="#ffffff"
     bordercolor="#666666"
     borderopacity="1.0"
     inkscape:pageshadow="2"
     inkscape:pageopacity="0.0"
     inkscape:pagecheckerboard="0"
     inkscape:document-units="px"
     showgrid="false"
     inkscape:zoom="22.627417"
     inkscape:cx="10.076272"
     inkscape:cy="6.1208931"
     inkscape:window-width="1920"
     inkscape:window-height="1001"
     inkscape:window-x="-9"
     inkscape:window-y="-9"
     inkscape:window-maximized="1"
     inkscape:current-layer="layer1"
     units="px"
     height="16px" />
  <defs
     id="defs14377">
    <clipPath
       id="clip0_1179:2925">
      <rect
         width="22"
         height="22"
         fill="white"
         transform="translate(0.742188)"
         id="rect14794" />
    </clipPath>
  </defs>
  <g
     inkscape:label="Слой 1"
     inkscape:groupmode="layer"
     id="layer1">
    <path
       id="path16060"
       style="fill:#000000;fill-opacity:1;fill-rule:nonzero;stroke:none;stroke-width:0;stroke-miterlimit:4;stroke-dasharray:none"
       d="m 2.1191033,0.0878808 c -0.027759,0 -0.054638,0.0103563 -0.074414,0.0289388 l -1.993677,2.0081461 c -0.0136922,0.013797 -0.0228547,0.031422 -0.0263551,0.050126 -0.0035,0.018704 -0.00164,0.037822 0.006202,0.055294 0.007845,0.017453 0.0211164,0.032424 0.0377238,0.042891 0.0166053,0.010466 0.0359095,0.015981 0.0558104,0.01602 h 0.48834224 0.0201533 v 0.01912 1.8701701 c 0,0.025786 0.0103531,0.050488 0.0294555,0.06873 0.0191056,0.018222 0.0453321,0.028422 0.0723471,0.028422 H 1.5992382 c 0.027017,0 0.052725,-0.0102 0.07183,-0.028422 0.019103,-0.018243 0.029972,-0.042945 0.029972,-0.06873 V 3.2163719 3.1972531 h 0.020153 0.8263062 0.020153 v 0.019119 0.9622153 c 0,0.025786 0.010861,0.050488 0.029972,0.06873 0.01909,0.018222 0.044797,0.028422 0.07183,0.028422 h 0.8624795 c 0.027033,0 0.052719,-0.0102 0.07183,-0.028422 0.01909,-0.018243 0.029972,-0.042945 0.029972,-0.06873 v -1.8701702 -0.01912 h 0.020153 0.4604369 c 0.019918,-3.8e-5 0.0392,-0.00555 0.055811,-0.01602 0.016592,-0.010468 0.029884,-0.025438 0.037724,-0.042891 0.00784,-0.017472 0.00971,-0.03659 0.0062,-0.055294 -0.00349,-0.018704 -0.012668,-0.036329 -0.026355,-0.050126 L 2.1935174,0.1168196 C 2.1737424,0.0982361 2.1468624,0.0878808 2.1191033,0.0878808 Z m -0.0093,0.25579834 0.01447,0.0144693 L 3.83528,2.0820741 3.867836,2.1151471 3.820293,2.1146312 3.5221201,2.1136012 h -5.312e-4 c -0.00337,0 -0.00649,2.007e-4 -0.00982,5.159e-4 -0.00333,3.149e-4 -0.00656,9.261e-4 -0.00982,0.00155 -0.00326,6.244e-4 -0.00665,0.00166 -0.00982,0.00259 -0.00317,9.207e-4 -0.00624,0.00189 -0.0093,0.0031 -0.00306,0.00121 -0.00586,0.00264 -0.00878,0.00413 -0.00292,0.00149 -0.00602,0.00289 -0.00878,0.00465 -0.00277,0.00176 -0.00516,0.00366 -0.00775,0.00568 -0.00259,0.00202 -0.00537,0.00444 -0.00775,0.00672 -0.00238,0.00228 -0.0046,0.00425 -0.00672,0.00672 -0.00212,0.00247 -0.00384,0.00511 -0.00568,0.00775 -0.00185,0.00264 -0.00361,0.00548 -0.00517,0.00827 -0.00156,0.00279 -0.00338,0.00586 -0.00465,0.00878 -0.00127,0.00292 -0.00214,0.00576 -0.0031,0.00879 -9.525e-4,0.00303 -0.00193,0.00619 -0.00259,0.0093 -6.614e-4,0.00312 -0.00122,0.00612 -0.00156,0.0093 -3.175e-4,0.00318 -5.292e-4,0.0066 -5.292e-4,0.00982 v 1.8701702 0.019121 H 3.3996001 2.7820668 2.7619135 V 4.0814356 3.1192203 c 0,-0.00322 -1.857e-4,-0.00664 -5.291e-4,-0.00982 -3.44e-4,-0.00318 -8.996e-4,-0.00619 -0.00156,-0.0093 -6.614e-4,-0.00311 -0.00161,-0.00627 -0.00259,-0.0093 -9.525e-4,-0.00303 -0.00183,-0.00586 -0.0031,-0.00878 -0.00127,-0.00292 -0.00309,-0.00599 -0.00465,-0.00878 -0.00156,-0.00279 -0.00332,-0.00563 -0.00517,-0.00827 -0.00185,-0.00265 -0.00356,-0.00476 -0.00568,-0.00723 -0.00212,-0.00246 -0.00433,-0.00495 -0.00672,-0.00723 -0.00238,-0.00228 -0.00516,-0.00469 -0.00775,-0.00672 -0.00259,-0.00204 -0.00498,-0.00392 -0.00775,-0.00569 -0.00277,-0.00177 -0.00586,-0.00316 -0.00878,-0.00465 -0.00293,-0.00148 -0.00573,-0.00292 -0.00878,-0.00414 -0.00306,-0.00122 -0.00613,-0.00217 -0.0093,-0.0031 -0.00317,-9.261e-4 -0.00656,-0.00196 -0.00982,-0.00259 -0.00326,-6.35e-4 -0.00649,-7.144e-4 -0.00982,-0.00103 -0.00333,-3.175e-4 -0.00696,-5.292e-4 -0.010335,-5.292e-4 H 1.5893432 c -0.00338,0 -0.00649,2.008e-4 -0.00982,5.292e-4 -0.00333,3.175e-4 -0.00707,4.233e-4 -0.010335,0.00103 -0.00326,6.35e-4 -0.00613,0.00167 -0.0093,0.00259 -0.00317,9.26e-4 -0.00624,0.00188 -0.0093,0.0031 -0.00306,0.00122 -0.00638,0.00265 -0.0093,0.00414 -0.00293,0.00148 -0.0055,0.00289 -0.00827,0.00465 -0.00277,0.00177 -0.00568,0.00366 -0.00827,0.00569 -0.00259,0.00204 -0.00485,0.00444 -0.00723,0.00672 -0.00238,0.00228 -0.0046,0.00476 -0.00672,0.00723 -0.00212,0.00246 -0.00436,0.00459 -0.0062,0.00723 -0.00185,0.00265 -0.00361,0.00547 -0.00517,0.00827 -0.00156,0.00279 -0.00287,0.00586 -0.00413,0.00878 -0.00127,0.00292 -0.00214,0.00576 -0.0031,0.00878 -9.525e-4,0.00303 -0.00193,0.00619 -0.00259,0.0093 -6.615e-4,0.00311 -0.00122,0.00612 -0.00156,0.0093 -3.175e-4,0.00318 -5.292e-4,0.0066 -5.292e-4,0.00982 v 0.9622153 0.019121 H 1.4673517 0.84878501 0.8286317 V 4.0814356 2.2112654 c 0,-0.00322 -1.86e-4,-0.00664 -5.2917e-4,-0.00982 -3.175e-4,-0.00318 -8.9958e-4,-0.00619 -0.001561,-0.0093 -6.6146e-4,-0.00312 -0.001111,-0.00627 -0.002064,-0.0093 -9.525e-4,-0.00303 -0.002355,-0.00586 -0.003617,-0.00879 -0.00127,-0.00292 -0.002567,-0.00599 -0.004135,-0.00878 -0.001561,-0.00279 -0.003321,-0.00563 -0.005167,-0.00827 -0.001852,-0.00264 -0.003561,-0.00528 -0.005683,-0.00775 -0.002117,-0.00247 -0.004331,-0.00444 -0.006718,-0.00672 -0.002381,-0.00228 -0.005162,-0.00469 -0.007752,-0.00672 -0.002593,-0.00203 -0.005501,-0.00392 -0.008268,-0.00568 -0.002768,-0.00176 -0.005342,-0.00316 -0.008268,-0.00465 -0.002926,-0.00149 -0.005726,-0.00292 -0.008784,-0.00413 -0.003061,-0.00121 -0.006646,-0.00218 -0.009819,-0.0031 -0.003172,-9.208e-4 -0.006038,-0.00196 -0.009303,-0.00259 -0.003262,-6.218e-4 -0.006488,-0.00124 -0.009819,-0.00155 -0.003331,-3.148e-4 -0.006959,-5.159e-4 -0.0103346,-5.159e-4 H 0.398795 0.352286 L 0.3843255,2.0815605 2.0953322,0.35815154 Z" />
  </g>
</svg>
