<?xml version="1.0" encoding="UTF-8" standalone="no"?>
<!-- Created with Inkscape (http://www.inkscape.org/) -->

<svg
   width="30"
   height="30"
   version="1.1"
   viewBox="0 0 30 30"
   id="svg4"
   sodipodi:docname="Home 16px.svg"
   inkscape:version="1.1.1 (3bf5ae0d25, 2021-09-20)"
   xmlns:inkscape="http://www.inkscape.org/namespaces/inkscape"
   xmlns:sodipodi="http://sodipodi.sourceforge.net/DTD/sodipodi-0.dtd"
   xmlns="http://www.w3.org/2000/svg"
   xmlns:svg="http://www.w3.org/2000/svg">
  <defs
     id="defs8" />
  <sodipodi:namedview
     id="namedview6"
     pagecolor="#ffffff"
     bordercolor="#666666"
     borderopacity="1.0"
     inkscape:pageshadow="2"
     inkscape:pageopacity="0.0"
     inkscape:pagecheckerboard="0"
     showgrid="false"
     inkscape:zoom="27.066667"
     inkscape:cx="15.018473"
     inkscape:cy="15.018473"
     inkscape:window-width="1920"
     inkscape:window-height="1001"
     inkscape:window-x="-9"
     inkscape:window-y="-9"
     inkscape:window-maximized="1"
     inkscape:current-layer="svg4" />
  <path
     d="m 14.999003,7.5000439 c -0.09932,0 -0.195474,0.037094 -0.266228,0.1036521 l -7.1327958,7.19295 c -0.048988,0.04942 -0.081767,0.112542 -0.094291,0.179534 -0.012521,0.06699 -0.00587,0.135472 0.022188,0.198054 0.028072,0.06251 0.075546,0.116142 0.1349629,0.153623 0.059409,0.03748 0.1284771,0.05724 0.1996711,0.05738 h 1.8192257 v 6.766841 c 0,0.09236 0.037039,0.180834 0.105382,0.246175 0.068354,0.06527 0.1621853,0.101802 0.2588331,0.101802 h 3.093104 c 0.09666,0 0.188638,-0.03651 0.256994,-0.101802 0.06835,-0.06534 0.107231,-0.153823 0.107231,-0.246175 v -3.514873 h 3.100497 v 3.514873 c 0,0.09236 0.03885,0.180834 0.107231,0.246175 0.0683,0.06527 0.160276,0.101802 0.256994,0.101802 h 3.085708 c 0.09672,0 0.188618,-0.03651 0.256994,-0.101802 0.0683,-0.06535 0.107231,-0.153823 0.107231,-0.246175 v -6.766841 h 1.71939 c 0.07125,-1.36e-4 0.14025,-0.01991 0.199681,-0.05738 0.05936,-0.03748 0.106921,-0.09111 0.134963,-0.153623 0.02808,-0.06258 0.0347,-0.131053 0.02221,-0.198054 -0.01245,-0.06699 -0.04532,-0.130123 -0.0943,-0.179534 L 15.265181,7.603696 C 15.194433,7.5371326 15.098269,7.5000439 14.998953,7.5000439 Z"
     fill="none"
     stroke="#0f0708"
     stroke-width="0.999988"
     id="path2" />
</svg>
