<?xml version="1.0" encoding="UTF-8" standalone="no"?>
<!-- Created with Inkscape (http://www.inkscape.org/) -->

<svg
   width="16"
   height="16"
   viewBox="0 0 4.2333332 4.2333335"
   version="1.1"
   id="svg14380"
   sodipodi:docname="Home 16px for the browser.svg"
   inkscape:version="1.1.1 (3bf5ae0d25, 2021-09-20)"
   xmlns:inkscape="http://www.inkscape.org/namespaces/inkscape"
   xmlns:sodipodi="http://sodipodi.sourceforge.net/DTD/sodipodi-0.dtd"
   xmlns="http://www.w3.org/2000/svg"
   xmlns:svg="http://www.w3.org/2000/svg">
  <sodipodi:namedview
     id="namedview14382"
     pagecolor="#ffffff"
     bordercolor="#666666"
     borderopacity="1.0"
     inkscape:pageshadow="2"
     inkscape:pageopacity="0.0"
     inkscape:pagecheckerboard="0"
     inkscape:document-units="px"
     showgrid="false"
     inkscape:zoom="8"
     inkscape:cx="7.25"
     inkscape:cy="10.6875"
     inkscape:window-width="1920"
     inkscape:window-height="1001"
     inkscape:window-x="-9"
     inkscape:window-y="-9"
     inkscape:window-maximized="1"
     inkscape:current-layer="layer1"
     units="px"
     height="16px" />
  <defs
     id="defs14377">
    <clipPath
       id="clip0_1179:2925">
      <rect
         width="22"
         height="22"
         fill="white"
         transform="translate(0.742188)"
         id="rect14794" />
    </clipPath>
    <clipPath
       id="clip0_1179:2925-8">
      <rect
         width="22"
         height="22"
         fill="white"
         transform="translate(0.742188)"
         id="rect14794-5" />
    </clipPath>
  </defs>
  <g
     inkscape:label="Слой 1"
     inkscape:groupmode="layer"
     id="layer1">
    <path
       style="color:#000000;fill:#0f0708;stroke-width:0;stroke-miterlimit:4;stroke-dasharray:none"
       d="m 2.1152344,0.078125 c -0.057975,0 -0.1146747,0.02159774 -0.1582032,0.0625 L 1.9550812,0.142578 0.09960937,2.0117188 C 0.06841182,2.0431555 0.04712077,2.0819414 0.0390625,2.125 c -0.0077053,0.041186 -0.002967,0.087479 0.015625,0.1289063 0.01831564,0.040746 0.04778353,0.072885 0.08398437,0.095703 0.0363588,0.02292 0.0769147,0.035074 0.11914063,0.035156 h 0.001953 0.34374999 v 1.6289063 c 0,0.058587 0.0233596,0.1170929 0.0664063,0.1582031 0.0430957,0.041105 0.0985827,0.060547 0.15625001,0.060547 h 0.8046876 c 0.057667,0 0.1139959,-0.020242 0.15625,-0.060547 0.042214,-0.040312 0.068359,-0.097891 0.068359,-0.1582031 V 3.2304688 h 0.5468751 v 0.7832031 c 0,0.060286 0.026116,0.1178816 0.068359,0.1582031 0.042263,0.040345 0.098587,0.060547 0.15625,0.060547 h 0.8027344 c 0.057662,0 0.1140391,-0.020297 0.15625,-0.060547 0.042157,-0.040287 0.068359,-0.097848 0.068359,-0.1582031 V 2.3847656 h 0.3164062 0.00195 c 0.042246,-8.07e-5 0.082857,-0.012301 0.1191406,-0.035156 0.036124,-0.02279 0.065634,-0.054852 0.083984,-0.095703 C 4.1943887,2.2124686 4.1991237,2.1662026 4.1914067,2.125 4.1833567,2.081751 4.1619977,2.043103 4.1308597,2.0117188 L 2.2734375,0.14257812 V 0.140625 C 2.229905,0.09971508 2.1732067,0.078125 2.1152344,0.078125 Z m 0,0.27148438 1.765625,1.77734372 H 3.5429688 3.3945313 V 2.2734375 3.9746094 H 2.6621094 V 3.1191406 2.9707031 H 2.5136719 1.7441406 1.5976562 V 3.1191406 3.9746094 H 0.86132813 V 2.2734375 2.1269531 H 0.71289062 0.34960938 Z"
       id="path1984" />
  </g>
</svg>
