<?xml version="1.0" encoding="UTF-8" standalone="no"?>
<svg
   width="30"
   height="30"
   version="1.1"
   viewBox="0 0 30 30"
   id="svg6"
   sodipodi:docname="Incognito icon 16px.svg"
   inkscape:version="1.1.1 (3bf5ae0d25, 2021-09-20)"
   xmlns:inkscape="http://www.inkscape.org/namespaces/inkscape"
   xmlns:sodipodi="http://sodipodi.sourceforge.net/DTD/sodipodi-0.dtd"
   xmlns="http://www.w3.org/2000/svg"
   xmlns:svg="http://www.w3.org/2000/svg">
  <defs
     id="defs10" />
  <sodipodi:namedview
     id="namedview8"
     pagecolor="#ffffff"
     bordercolor="#666666"
     borderopacity="1.0"
     inkscape:pageshadow="2"
     inkscape:pageopacity="0.0"
     inkscape:pagecheckerboard="0"
     showgrid="true"
     inkscape:snap-global="false"
     inkscape:object-nodes="false"
     inkscape:snap-nodes="false"
     inkscape:snap-others="false"
     inkscape:zoom="22.627417"
     inkscape:cx="16.904271"
     inkscape:cy="23.931145"
     inkscape:window-width="1920"
     inkscape:window-height="1017"
     inkscape:window-x="-8"
     inkscape:window-y="-8"
     inkscape:window-maximized="1"
     inkscape:current-layer="svg6"
     showguides="true"
     inkscape:guide-bbox="true">
    <inkscape:grid
       type="xygrid"
       id="grid827" />
    <sodipodi:guide
       position="16.572815,26.022524"
       orientation="0,-1"
       id="guide29770" />
    <sodipodi:guide
       position="18.031223,4.05802"
       orientation="0,-1"
       id="guide29772" />
    <sodipodi:guide
       position="25.94198,18.111767"
       orientation="1,0"
       id="guide29774" />
    <sodipodi:guide
       position="4.0216698,20.321476"
       orientation="1,0"
       id="guide29776" />
  </sodipodi:namedview>
  <path
     style="display:inline;fill:none;stroke:#001423;stroke-width:0.999263;stroke-miterlimit:4;stroke-dasharray:none;stroke-opacity:1"
     d="m 18.879642,15.999537 c 0.501071,-0.0017 0.992282,0.148163 1.414787,0.432003 0.422559,0.283823 0.75865,0.689737 0.96786,1.169497 0.209136,0.479654 0.282381,1.012566 0.210797,1.53498 -0.07159,0.522434 -0.284871,1.011832 -0.614099,1.409852 -0.32922,0.397967 -0.760313,0.687702 -1.241604,0.834837 -0.481258,0.147072 -0.992656,0.145513 -1.473104,-0.0043 -0.480493,-0.150137 -0.909991,-0.442521 -1.236961,-0.842521 -0.327011,-0.400004 -0.537595,-0.890793 -0.606272,-1.413521 l -0.0026,-0.0197 -0.01872,-0.0075 c -0.822259,-0.327896 -1.730597,-0.327896 -2.552855,0 l -0.01877,0.0076 -0.0025,0.0197 c -0.08848,0.685868 -0.41981,1.311034 -0.927262,1.750949 -0.507376,0.439932 -1.153578,0.662511 -1.80962,0.624011 -0.656201,-0.03865 -1.2748864,-0.335506 -1.7325841,-0.8322 C 8.7784004,20.166393 8.5154355,19.50619 8.5002812,18.81419 8.4851392,18.122207 8.7189341,17.449989 9.1545315,16.931606 9.590064,16.413233 10.195192,16.086839 10.848912,16.016707 c 0.653704,-0.07013 1.308835,0.121019 1.834877,0.535945 0.526097,0.414943 0.884419,1.023381 1.002776,1.704289 l 0.0068,0.03891 0.03826,-0.01235 c 0.82601,-0.267056 1.709332,-0.267056 2.535306,0 l 0.03825,0.01235 0.0068,-0.03891 c 0.109972,-0.63284 0.427342,-1.204792 0.896472,-1.617023 0.469128,-0.412083 1.060345,-0.638429 1.671166,-0.640327 z"
     id="path2" />
  <path
     style="display:inline;fill:none;stroke:#001423;stroke-width:0.9994;stroke-linejoin:round;stroke-miterlimit:4;stroke-dasharray:none;stroke-opacity:1"
     d="m 20.999701,12.497016 h 1 c 0.09761,0 0.446897,0.01927 0.5,0.49933 -0.02696,0.511642 -0.414871,0.499303 -0.5,0.499328 l -13.5039395,0.004 C 8.0871376,13.480325 7.512688,13.52939 7.4997006,12.996346 7.5241359,12.216351 8.4291499,12.589376 8.9997007,12.497016 9.3451619,11.352664 9.597736,10.016272 9.9483783,8.9416669 10.221185,8.0859145 10.755661,7.4997006 11.42555,7.4997006 h 6.893463 c 0.66984,0 1.191307,0.5647061 1.477169,1.4419663 0.367032,1.1263481 0.785892,2.3362941 1.203519,3.5553491 z"
     id="path4"
     sodipodi:nodetypes="cscsccccsssc" />
</svg>
