<svg width="21" height="18" viewBox="0 0 21 18" fill="none" xmlns="http://www.w3.org/2000/svg">
<path d="M12.3185 12.8008L12.4289 12.8373L12.4485 12.7227C12.6054 11.8013 13.058 10.9693 13.7263 10.3701C14.3944 9.77115 15.2359 9.44262 16.1046 9.43987L16.1043 9.33987L16.1047 9.43986C16.8174 9.43737 17.5164 9.65492 18.1179 10.0673C18.7196 10.4798 19.1987 11.07 19.4969 11.768C19.7951 12.4661 19.8996 13.2418 19.7975 14.0024C19.6954 14.7629 19.3912 15.475 18.9221 16.0539C18.453 16.6327 17.8391 17.0535 17.1543 17.2671C16.4696 17.4808 15.7421 17.4785 15.0586 17.2606C14.3749 17.0427 13.7633 16.6181 13.2973 16.0364C12.8313 15.4546 12.5309 14.7405 12.433 13.9794L12.4255 13.9215L12.3715 13.8995C11.1728 13.4117 9.84842 13.4117 8.64971 13.8995L8.59553 13.9216L8.58819 13.9796C8.46197 14.9782 7.98935 15.8876 7.26653 16.5272C6.54393 17.1666 5.62434 17.4896 4.69121 17.4337C3.75804 17.3778 2.87731 16.9469 2.22523 16.2246C1.57298 15.5022 1.19779 14.5416 1.17618 13.5341C1.15457 12.5265 1.48818 11.5483 2.10893 10.7943C2.72953 10.0405 3.59106 9.5666 4.52092 9.46479C5.4507 9.36299 6.383 9.64036 7.13203 10.2433C7.8813 10.8465 8.39234 11.7314 8.56123 12.7227L8.58076 12.8373L8.69114 12.8008C9.87298 12.411 11.1367 12.411 12.3185 12.8008ZM7.65028 13.3543L7.65934 13.3334L7.65847 13.3107C7.63613 12.7315 7.45541 12.1716 7.13807 11.7006C6.82069 11.2296 6.38037 10.8679 5.87111 10.6616C5.36176 10.4553 4.80669 10.414 4.27529 10.5431C3.74397 10.6721 3.26079 10.9655 2.8854 11.3855C2.51008 11.8055 2.25889 12.3337 2.16217 12.9041C2.06545 13.4745 2.12728 14.0629 2.34025 14.5963C2.55323 15.1298 2.90828 15.5854 3.36223 15.9058C3.81627 16.2263 4.34899 16.3971 4.89407 16.3961L4.89388 16.2961L4.89408 16.3961C5.57188 16.3948 6.22471 16.1282 6.73024 15.6485C7.2356 15.1689 7.55911 14.5093 7.64179 13.7942L7.64444 13.7712L7.63675 13.7494C7.61438 13.686 7.60399 13.6183 7.60633 13.5503C7.60867 13.4823 7.62367 13.4156 7.65028 13.3543ZM13.3614 13.7494L13.3537 13.7712L13.3564 13.7942C13.4391 14.5093 13.7626 15.1689 14.2679 15.6485C14.7735 16.1282 15.4263 16.3948 16.1041 16.3961L16.1043 16.2961L16.1042 16.3961C16.6486 16.3966 17.1806 16.2256 17.6339 15.9051C18.087 15.5848 18.4414 15.1295 18.6539 14.5966C18.8664 14.0637 18.928 13.476 18.8312 12.9063C18.7345 12.3367 18.4836 11.8092 18.1087 11.3897C17.7338 10.9702 17.2512 10.6771 16.7206 10.5481C16.1899 10.4191 15.6355 10.4601 15.1267 10.6659C14.6179 10.8717 14.178 11.2327 13.8607 11.7029C13.5434 12.1731 13.3625 12.7322 13.3397 13.3106L13.3388 13.3334L13.3479 13.3543C13.3745 13.4156 13.3895 13.4823 13.3919 13.5503C13.3942 13.6183 13.3838 13.686 13.3614 13.7494Z" fill="#001423" stroke="white" stroke-width="0.2"/>
<path d="M18.6491 5.99335L18.6686 6.06814H18.7459H20.4242C20.5478 6.06814 20.6679 6.12069 20.7576 6.21679C20.8474 6.31312 20.899 6.44516 20.899 6.58417C20.899 6.72318 20.8474 6.85522 20.7576 6.95155C20.6679 7.04765 20.5478 7.1002 20.4242 7.1002H0.573799C0.450206 7.1002 0.330146 7.04765 0.240488 6.95155C0.150611 6.85522 0.0990234 6.72318 0.0990234 6.58417C0.0990234 6.44516 0.150612 6.31312 0.240488 6.21679C0.330146 6.12069 0.450205 6.06814 0.573799 6.06814H2.25214H2.32943L2.34891 5.99335L3.40879 1.92509C3.4088 1.92508 3.4088 1.92507 3.4088 1.92506C3.68246 0.875903 4.59623 0.1 5.51687 0.1H15.4812C16.4018 0.1 17.3156 0.875903 17.5892 1.92506C17.5892 1.92507 17.5893 1.92508 17.5893 1.92509L18.6491 5.99335ZM3.3509 5.94296L3.31833 6.06814H3.44768H17.5504H17.6797L17.6471 5.94296L16.6747 2.205L16.5779 2.23004L16.6746 2.20486L16.6746 2.20489C16.5993 1.91363 16.4291 1.64762 16.2168 1.45389C16.0053 1.26095 15.7432 1.13207 15.4812 1.13207H5.51687C5.25807 1.13207 4.99606 1.26112 4.78403 1.45375C4.57099 1.64731 4.39884 1.91334 4.32338 2.205L3.3509 5.94296Z" fill="#001423" stroke="white" stroke-width="0.2"/>
</svg>
