<svg width="21" height="18" viewBox="0 0 21 18" fill="none" xmlns="http://www.w3.org/2000/svg">
<mask id="path-1-inside-1_869:2250" fill="white">
<path d="M16.1043 9.33987C15.2102 9.34271 14.3453 9.68087 13.6595 10.2957C12.9738 10.9105 12.5104 11.7632 12.3499 12.7059C11.1477 12.3093 9.862 12.3093 8.65981 12.7059C8.48701 11.6917 7.96388 10.7846 7.19474 10.1654C6.4256 9.54628 5.46697 9.26061 4.51004 9.36538C3.5531 9.47016 2.66817 9.95768 2.03173 10.7307C1.39529 11.5038 1.0541 12.5055 1.07621 13.5362C1.09831 14.5669 1.48209 15.5508 2.15101 16.2917C2.81992 17.0325 3.72482 17.476 4.68523 17.5335C5.64565 17.591 6.59102 17.2584 7.3328 16.6021C8.07458 15.9457 8.55826 15.0138 8.6874 13.9922C9.86195 13.5142 11.1592 13.5142 12.3338 13.9922C12.434 14.771 12.7414 15.5024 13.2193 16.0989C13.6971 16.6954 14.3251 17.1318 15.0282 17.3559C15.7313 17.58 16.4797 17.5823 17.1841 17.3626C17.8884 17.1429 18.5187 16.7104 18.9998 16.1168C19.4808 15.5233 19.7922 14.7938 19.8966 14.0157C20.0011 13.2375 19.8942 12.4435 19.5888 11.7287C19.2834 11.0139 18.7924 10.4085 18.1745 9.98485C17.5565 9.56122 16.8378 9.3373 16.1043 9.33987V9.33987ZM4.89388 16.2961C4.37 16.2971 3.85742 16.133 3.41989 15.8241C2.98237 15.5153 2.63921 15.0754 2.43312 14.5592C2.22703 14.043 2.16709 13.4733 2.26076 12.9208C2.35444 12.3684 2.59759 11.8577 2.95997 11.4522C3.32235 11.0467 3.78796 10.7643 4.29889 10.6403C4.80982 10.5162 5.34351 10.5558 5.83357 10.7543C6.32364 10.9528 6.74844 11.3013 7.05514 11.7565C7.36184 12.2117 7.5369 12.7535 7.55854 13.3145C7.52689 13.3875 7.50916 13.4665 7.50639 13.5469C7.50363 13.6273 7.51589 13.7075 7.54245 13.7827C7.46236 14.4755 7.14907 15.1132 6.66141 15.5759C6.17374 16.0387 5.54523 16.2948 4.89388 16.2961V16.2961ZM16.1043 16.2961C15.453 16.2948 14.8244 16.0387 14.3368 15.5759C13.8491 15.1132 13.5358 14.4755 13.4557 13.7827C13.4823 13.7075 13.4946 13.6273 13.4918 13.5469C13.489 13.4665 13.4713 13.3875 13.4396 13.3145C13.4617 12.7542 13.637 12.2133 13.9436 11.7588C14.2502 11.3044 14.6746 10.9566 15.1641 10.7586C15.6537 10.5606 16.1867 10.5212 16.697 10.6453C17.2072 10.7693 17.6722 11.0514 18.0342 11.4563C18.3961 11.8613 18.639 12.3714 18.7327 12.9231C18.8263 13.4748 18.7666 14.0439 18.561 14.5595C18.3554 15.0752 18.0129 15.5147 17.5761 15.8235C17.1393 16.1322 16.6275 16.2966 16.1043 16.2961V16.2961Z"/>
</mask>
<path d="M16.1043 9.33987C15.2102 9.34271 14.3453 9.68087 13.6595 10.2957C12.9738 10.9105 12.5104 11.7632 12.3499 12.7059C11.1477 12.3093 9.862 12.3093 8.65981 12.7059C8.48701 11.6917 7.96388 10.7846 7.19474 10.1654C6.4256 9.54628 5.46697 9.26061 4.51004 9.36538C3.5531 9.47016 2.66817 9.95768 2.03173 10.7307C1.39529 11.5038 1.0541 12.5055 1.07621 13.5362C1.09831 14.5669 1.48209 15.5508 2.15101 16.2917C2.81992 17.0325 3.72482 17.476 4.68523 17.5335C5.64565 17.591 6.59102 17.2584 7.3328 16.6021C8.07458 15.9457 8.55826 15.0138 8.6874 13.9922C9.86195 13.5142 11.1592 13.5142 12.3338 13.9922C12.434 14.771 12.7414 15.5024 13.2193 16.0989C13.6971 16.6954 14.3251 17.1318 15.0282 17.3559C15.7313 17.58 16.4797 17.5823 17.1841 17.3626C17.8884 17.1429 18.5187 16.7104 18.9998 16.1168C19.4808 15.5233 19.7922 14.7938 19.8966 14.0157C20.0011 13.2375 19.8942 12.4435 19.5888 11.7287C19.2834 11.0139 18.7924 10.4085 18.1745 9.98485C17.5565 9.56122 16.8378 9.3373 16.1043 9.33987V9.33987ZM4.89388 16.2961C4.37 16.2971 3.85742 16.133 3.41989 15.8241C2.98237 15.5153 2.63921 15.0754 2.43312 14.5592C2.22703 14.043 2.16709 13.4733 2.26076 12.9208C2.35444 12.3684 2.59759 11.8577 2.95997 11.4522C3.32235 11.0467 3.78796 10.7643 4.29889 10.6403C4.80982 10.5162 5.34351 10.5558 5.83357 10.7543C6.32364 10.9528 6.74844 11.3013 7.05514 11.7565C7.36184 12.2117 7.5369 12.7535 7.55854 13.3145C7.52689 13.3875 7.50916 13.4665 7.50639 13.5469C7.50363 13.6273 7.51589 13.7075 7.54245 13.7827C7.46236 14.4755 7.14907 15.1132 6.66141 15.5759C6.17374 16.0387 5.54523 16.2948 4.89388 16.2961V16.2961ZM16.1043 16.2961C15.453 16.2948 14.8244 16.0387 14.3368 15.5759C13.8491 15.1132 13.5358 14.4755 13.4557 13.7827C13.4823 13.7075 13.4946 13.6273 13.4918 13.5469C13.489 13.4665 13.4713 13.3875 13.4396 13.3145C13.4617 12.7542 13.637 12.2133 13.9436 11.7588C14.2502 11.3044 14.6746 10.9566 15.1641 10.7586C15.6537 10.5606 16.1867 10.5212 16.697 10.6453C17.2072 10.7693 17.6722 11.0514 18.0342 11.4563C18.3961 11.8613 18.639 12.3714 18.7327 12.9231C18.8263 13.4748 18.7666 14.0439 18.561 14.5595C18.3554 15.0752 18.0129 15.5147 17.5761 15.8235C17.1393 16.1322 16.6275 16.2966 16.1043 16.2961V16.2961Z" fill="#001423" stroke="white" stroke-width="0.58" mask="url(#path-1-inside-1_869:2250)"/>
<mask id="path-2-inside-2_869:2250" fill="white">
<path d="M20.4242 5.96814H18.7459L17.686 1.89985C17.4032 0.815629 16.456 0 15.4812 0H5.51687C4.54205 0 3.59482 0.815629 3.31203 1.89985L2.25214 5.96814H0.573799C0.421359 5.96814 0.275163 6.03304 0.167371 6.14857C0.05958 6.2641 -0.000976562 6.42079 -0.000976562 6.58417C-0.000976562 6.74755 0.05958 6.90424 0.167371 7.01977C0.275163 7.1353 0.421359 7.2002 0.573799 7.2002H20.4242C20.5767 7.2002 20.7229 7.1353 20.8307 7.01977C20.9385 6.90424 20.999 6.74755 20.999 6.58417C20.999 6.42079 20.9385 6.2641 20.8307 6.14857C20.7229 6.03304 20.5767 5.96814 20.4242 5.96814V5.96814ZM3.44768 5.96814L4.4202 2.23004C4.56044 1.68793 5.06395 1.23207 5.51687 1.23207H15.4812C15.941 1.23207 16.4376 1.68793 16.5779 2.23004L17.5504 5.96814H3.44768Z"/>
</mask>
<path d="M20.4242 5.96814H18.7459L17.686 1.89985C17.4032 0.815629 16.456 0 15.4812 0H5.51687C4.54205 0 3.59482 0.815629 3.31203 1.89985L2.25214 5.96814H0.573799C0.421359 5.96814 0.275163 6.03304 0.167371 6.14857C0.05958 6.2641 -0.000976562 6.42079 -0.000976562 6.58417C-0.000976562 6.74755 0.05958 6.90424 0.167371 7.01977C0.275163 7.1353 0.421359 7.2002 0.573799 7.2002H20.4242C20.5767 7.2002 20.7229 7.1353 20.8307 7.01977C20.9385 6.90424 20.999 6.74755 20.999 6.58417C20.999 6.42079 20.9385 6.2641 20.8307 6.14857C20.7229 6.03304 20.5767 5.96814 20.4242 5.96814V5.96814ZM3.44768 5.96814L4.4202 2.23004C4.56044 1.68793 5.06395 1.23207 5.51687 1.23207H15.4812C15.941 1.23207 16.4376 1.68793 16.5779 2.23004L17.5504 5.96814H3.44768Z" fill="#001423" stroke="white" stroke-width="0.58" mask="url(#path-2-inside-2_869:2250)"/>
</svg>
