<?xml version="1.0" encoding="UTF-8" standalone="no"?>
<!-- Created with Inkscape (http://www.inkscape.org/) -->

<svg
   width="16"
   height="16"
   viewBox="0 0 4.2333332 4.2333335"
   version="1.1"
   id="svg14380"
   sodipodi:docname="Home 16px original.svg"
   inkscape:version="1.1.1 (3bf5ae0d25, 2021-09-20)"
   xmlns:inkscape="http://www.inkscape.org/namespaces/inkscape"
   xmlns:sodipodi="http://sodipodi.sourceforge.net/DTD/sodipodi-0.dtd"
   xmlns="http://www.w3.org/2000/svg"
   xmlns:svg="http://www.w3.org/2000/svg">
  <sodipodi:namedview
     id="namedview14382"
     pagecolor="#ffffff"
     bordercolor="#666666"
     borderopacity="1.0"
     inkscape:pageshadow="2"
     inkscape:pageopacity="0.0"
     inkscape:pagecheckerboard="0"
     inkscape:document-units="px"
     showgrid="false"
     inkscape:zoom="32"
     inkscape:cx="7.25"
     inkscape:cy="8.046875"
     inkscape:window-width="1920"
     inkscape:window-height="1001"
     inkscape:window-x="-9"
     inkscape:window-y="-9"
     inkscape:window-maximized="1"
     inkscape:current-layer="layer1"
     units="px"
     height="16px" />
  <defs
     id="defs14377">
    <clipPath
       id="clip0_1179:2925">
      <rect
         width="22"
         height="22"
         fill="white"
         transform="translate(0.742188)"
         id="rect14794" />
    </clipPath>
    <clipPath
       id="clip0_1179:2925-8">
      <rect
         width="22"
         height="22"
         fill="white"
         transform="translate(0.742188)"
         id="rect14794-5" />
    </clipPath>
  </defs>
  <g
     inkscape:label="Слой 1"
     inkscape:groupmode="layer"
     id="layer1">
    <g
       style="fill:none;stroke:none;stroke-width:0.315984"
       id="g1511"
       transform="matrix(0.1934233,0,0,0.1934233,0.02245309,0.3957541)">
      <path
         style="color:#000000;fill:#0f0708;stroke:none;-inkscape-stroke:none"
         d="m 16.367187,9.5253906 c -1.031791,0.00328 -2.028957,0.3958528 -2.810546,1.0996094 -0.643455,0.579483 -1.055334,1.361667 -1.300782,2.205078 -0.970353,-0.229397 -1.961469,-0.228605 -2.9316402,0.002 C 9.0560006,11.912255 8.5868603,11.069462 7.8535156,10.476563 6.9756091,9.7666886 5.8677238,9.4332655 4.7636719,9.5546875 3.6595569,9.67611 2.6442941,10.241681 1.921875,11.123047 c -0.7225324,0.881484 -1.10489102,2.011376 -1.08007812,3.173828 0.0248249,1.16246 0.45452852,2.275185 1.21484372,3.121094 0.7602049,0.845657 1.8017587,1.361062 2.9101563,1.427734 1.1083507,0.06667 2.1993173,-0.320688 3.0449219,-1.072266 0.7400275,-0.657641 1.1955549,-1.568029 1.4082031,-2.552734 0.9192251,-0.319602 1.8938571,-0.322025 2.8105471,0.0098 0.159185,0.707646 0.376886,1.407841 0.824219,1.96875 0.542304,0.679994 1.260561,1.184131 2.070312,1.443359 0.809569,0.25909 1.677218,0.261888 2.488281,0.0078 0.811111,-0.254209 1.532059,-0.753052 2.078125,-1.429688 0.546105,-0.676797 0.894322,-1.502583 1.011719,-2.380859 0.117406,-0.878226 -0.0013,-1.772367 -0.345703,-2.582031 C 20.01295,11.448112 19.457104,10.756381 18.75,10.269531 18.043486,9.7830538 17.215308,9.5228455 16.369141,9.5253906 c -6.33e-4,1.9e-6 -0.0013,-2.2e-6 -0.002,0 z m 0.002,1.2285154 c 6.13e-4,-2e-6 0.0013,2e-6 0.002,0 0.592987,-0.0021 1.174469,0.178126 1.68164,0.527344 0.507107,0.349149 0.917167,0.853733 1.173828,1.457031 0.256543,0.603134 0.348048,1.279081 0.259766,1.939453 -0.08829,0.660523 -0.352054,1.275883 -0.751953,1.771485 -0.399934,0.495562 -0.916529,0.850105 -1.488281,1.029297 -0.571802,0.179124 -1.175188,0.17685 -1.746094,-0.0059 -0.570922,-0.182771 -1.087051,-0.540858 -1.484375,-1.039062 -0.397264,-0.498128 -0.657488,-1.1164 -0.742187,-1.777344 l -0.05078,-0.382812 -0.05469,-0.02344 0.117187,-0.683594 c 0.135645,-0.800137 0.527361,-1.517265 1.09375,-2.027343 0.565949,-0.50959 1.267663,-0.7824 1.990235,-0.785157 z m -11.4707035,0.02149 c 0.774313,-0.08516 1.548094,0.143965 2.1816406,0.65625 0.6336063,0.512262 1.0766552,1.274049 1.2226563,2.134765 l 0.1171875,0.689453 -0.046875,0.01953 -0.046875,0.382812 C 8.2170112,15.525692 7.807646,16.311305 7.1953125,16.855469 6.5830065,17.39969 5.8159065,17.66587 5.0390625,17.619141 4.2622456,17.572413 3.5256623,17.214997 2.9707031,16.597656 2.4156949,15.980167 2.0890143,15.147223 2.0703125,14.271484 c -0.018693,-0.875745 0.2716678,-1.725579 0.8007813,-2.371093 0.5290676,-0.645473 1.2529942,-1.039843 2.0273437,-1.125 z m 4.6464844,4.037109 -0.041016,0.326172 -0.068359,0.02734 c 0.024948,-0.122428 0.093652,-0.228567 0.109375,-0.353516 z m 2.5097661,0.002 c 0.01757,0.136736 0.127553,0.237199 0.15625,0.371094 l -0.113282,-0.04687 z"
         id="path1499" />
      <path
         style="color:#000000;fill:#0f0708;stroke:none;-inkscape-stroke:none"
         d="m 5.9023437,-1.0097656 c -1.2540124,0 -2.3508483,0.98082219 -2.6874999,2.2714843 L 3.1972656,1.3300781 2.2519531,4.9589844 H 0.95898438 c -0.29323773,0 -0.57232161,0.1265261 -0.76953126,0.3378906 -0.19756799,0.2117528 -0.30273437,0.4869614 -0.30273437,0.7734375 0,0.2864761 0.10516638,0.5636378 0.30273437,0.7753906 0.19720965,0.2113646 0.47629353,0.3378907 0.76953126,0.3378906 H 20.808594 c 0.293227,10e-8 0.572354,-0.12651 0.769531,-0.3378906 0.197812,-0.2118728 0.302734,-0.4890896 0.302734,-0.7753906 0,-0.286301 -0.104922,-0.5615647 -0.302734,-0.7734375 C 21.380948,5.0854944 21.101821,4.9589844 20.808594,4.9589844 h -1.292969 -0.002 L 18.650391,1.640625 18.552734,1.2617187 c -0.336618,-1.29066686 -1.433505,-2.2714843 -2.6875,-2.2714843 z m 0,1.09374997 h 9.9628903 c 0.641404,10e-9 1.407173,0.61043999 1.626953,1.45312503 l 0.09961,0.3789062 0.960937,3.6894531 v 0.00195 l 0.117188,0.4453125 h 0.460937 1.650391 c 0.0023,0.00482 0.0059,0.0071 0.0059,0.017578 0,0.010822 -0.0036,0.014817 -0.0059,0.019531 H 0.98632813 c -0.002316,-0.00479 -0.005859,-0.00883 -0.005859,-0.019531 0,-0.010365 0.00355,-0.01268 0.005859,-0.017578 H 2.6367188 3.0976563 L 3.2148438,5.6054687 4.2753906,1.5371094 v -0.00195 C 4.4957836,0.69333045 5.2613291,0.08398438 5.9023437,0.08398437 Z"
         id="path1501" />
    </g>
  </g>
</svg>
