<?xml version="1.0" encoding="UTF-8" standalone="no"?>
<svg
   width="30"
   height="30"
   version="1.1"
   viewBox="0 0 30 30"
   id="svg6"
   sodipodi:docname="Incognito icon 16px.svg"
   inkscape:version="1.1.1 (3bf5ae0d25, 2021-09-20)"
   xmlns:inkscape="http://www.inkscape.org/namespaces/inkscape"
   xmlns:sodipodi="http://sodipodi.sourceforge.net/DTD/sodipodi-0.dtd"
   xmlns="http://www.w3.org/2000/svg"
   xmlns:svg="http://www.w3.org/2000/svg">
  <defs
     id="defs10" />
  <sodipodi:namedview
     id="namedview8"
     pagecolor="#ffffff"
     bordercolor="#666666"
     borderopacity="1.0"
     inkscape:pageshadow="2"
     inkscape:pageopacity="0.0"
     inkscape:pagecheckerboard="0"
     showgrid="true"
     inkscape:snap-global="false"
     inkscape:object-nodes="false"
     inkscape:snap-nodes="false"
     inkscape:snap-others="false"
     inkscape:zoom="22.627417"
     inkscape:cx="17.213631"
     inkscape:cy="13.324543"
     inkscape:window-width="1920"
     inkscape:window-height="1001"
     inkscape:window-x="-9"
     inkscape:window-y="-9"
     inkscape:window-maximized="1"
     inkscape:current-layer="svg6"
     showguides="true"
     inkscape:guide-bbox="true">
    <inkscape:grid
       type="xygrid"
       id="grid827" />
    <sodipodi:guide
       position="16.572815,26.022524"
       orientation="0,-1"
       id="guide29770" />
    <sodipodi:guide
       position="18.031223,4.05802"
       orientation="0,-1"
       id="guide29772" />
    <sodipodi:guide
       position="25.94198,18.111767"
       orientation="1,0"
       id="guide29774" />
    <sodipodi:guide
       position="4.0216698,20.321476"
       orientation="1,0"
       id="guide29776" />
  </sodipodi:namedview>
  <path
     style="display:inline;fill:none;stroke:#001423;stroke-width:0.999263;stroke-miterlimit:4;stroke-dasharray:none;stroke-opacity:1"
     d="m 18.880096,15.999645 c 0.501091,-0.0017 0.992322,0.148179 1.414843,0.432048 0.422576,0.283853 0.758681,0.68981 0.967899,1.169621 0.209144,0.479703 0.282392,1.012671 0.210805,1.535141 -0.07159,0.522488 -0.284882,1.011937 -0.614123,1.41 -0.329233,0.398008 -0.760343,0.687774 -1.241654,0.834925 -0.481277,0.147087 -0.992695,0.145528 -1.473162,-0.0043 -0.480513,-0.150153 -0.910028,-0.442567 -1.237011,-0.84261 -0.327024,-0.400045 -0.537616,-0.890886 -0.606296,-1.413669 l -0.0026,-0.0197 -0.01872,-0.0075 c -0.822292,-0.32793 -1.730666,-0.32793 -2.552957,0 l -0.01877,0.0076 -0.0025,0.0197 c -0.08848,0.68594 -0.419827,1.311171 -0.927299,1.751133 -0.507397,0.439978 -1.153624,0.66258 -1.809693,0.624076 C 10.31263,21.457461 9.6939201,21.160568 9.2362042,20.663822 8.7784514,20.166938 8.515476,19.506666 8.5003211,18.814594 8.4851785,18.122538 8.7189827,17.450249 9.1545975,16.931812 9.5901474,16.413385 10.1953,16.086957 10.849046,16.016817 c 0.65373,-0.07013 1.308887,0.121032 1.83495,0.536001 0.526118,0.414987 0.884454,1.023488 1.002816,1.704468 l 0.0068,0.03891 0.03826,-0.01235 c 0.826043,-0.267084 1.7094,-0.267084 2.535407,0 l 0.03825,0.01235 0.0068,-0.03891 c 0.109976,-0.632906 0.427359,-1.204918 0.896507,-1.617192 0.469147,-0.412127 1.060388,-0.638497 1.671233,-0.640395 z"
     id="path2" />
  <path
     style="display:inline;fill:none;stroke:#001423;stroke-width:0.999401;stroke-linejoin:round;stroke-miterlimit:4;stroke-dasharray:none;stroke-opacity:1"
     d="m 21.00024,12.497541 h 1.000039 c 0.09761,0 0.446915,0.01927 0.50002,0.499382 -0.02696,0.511696 -0.414887,0.499356 -0.50002,0.499381 l -13.5044778,0.004 C 8.087161,13.480953 7.5126885,13.530023 7.4997006,12.996923 7.5241369,12.216847 8.429187,12.58991 8.9997605,12.497541 9.3452355,11.353069 9.5978197,10.016536 9.948476,8.9418184 10.221294,8.0859761 10.755791,7.4997006 11.425707,7.4997006 h 6.893738 c 0.669866,0 1.191354,0.5647654 1.477228,1.4421178 0.367046,1.1264666 0.785923,2.3365396 1.203567,3.5557226 z"
     id="path4"
     sodipodi:nodetypes="cscsccccsssc" />
</svg>
