<svg width="21" height="18" viewBox="0 0 21 18" fill="none" xmlns="http://www.w3.org/2000/svg">
<path d="M16.1045 9.38987L16.1045 9.38987C16.8276 9.38734 17.5364 9.60807 18.1462 10.0261C18.756 10.4441 19.241 11.0419 19.5429 11.7484C19.8447 12.4548 19.9504 13.2397 19.8471 14.009C19.7438 14.7784 19.436 15.4992 18.9609 16.0854C18.4858 16.6715 17.8637 17.0982 17.1692 17.3149C16.4747 17.5315 15.7367 17.5292 15.0434 17.3083C14.35 17.0873 13.7302 16.6567 13.2583 16.0676C12.7864 15.4785 12.4825 14.7557 12.3834 13.9858L12.3796 13.9568L12.3526 13.9458C11.166 13.4629 9.85519 13.4629 8.66855 13.9458L8.64146 13.9569L8.63779 13.9859C8.51012 14.996 8.03196 15.9167 7.29966 16.5646C6.56747 17.2125 5.635 17.5403 4.68822 17.4836C3.74143 17.4269 2.84862 16.9897 2.18812 16.2582C1.52754 15.5265 1.14805 14.5542 1.12619 13.5351C1.10434 12.516 1.44173 11.526 2.07033 10.7625C2.69885 9.99908 3.57208 9.51838 4.51548 9.41509C5.45883 9.3118 6.4043 9.59332 7.16338 10.2044C7.92259 10.8155 8.43968 11.7116 8.61052 12.7143L8.62028 12.7716L8.67548 12.7534C9.86749 12.3601 11.1422 12.3601 12.3342 12.7534L12.3894 12.7716L12.3992 12.7143C12.5579 11.7823 13.0159 10.9399 13.6929 10.3329C14.3699 9.72601 15.2231 9.39266 16.1045 9.38987ZM4.89397 16.3461H4.89398C5.55855 16.3448 6.19922 16.0835 6.69583 15.6122C7.19234 15.141 7.51074 14.4924 7.59212 13.7884L7.59344 13.777L7.5896 13.7661C7.56513 13.6967 7.55381 13.6228 7.55636 13.5486C7.55891 13.4744 7.57528 13.4016 7.60441 13.3344L7.60894 13.324L7.6085 13.3126C7.58651 12.7425 7.40863 12.1917 7.09661 11.7286C6.78457 11.2654 6.352 10.9103 5.85234 10.708C5.35264 10.5056 4.80826 10.4651 4.28709 10.5917C3.76597 10.7182 3.29157 11.0061 2.92269 11.4188C2.55383 11.8316 2.30666 12.351 2.21147 12.9125C2.11627 13.4739 2.17716 14.0529 2.38668 14.5778C2.59622 15.1026 2.94532 15.5504 3.39106 15.865C3.83684 16.1796 4.35949 16.3471 4.89397 16.3461ZM16.1042 16.3461L16.1043 16.3461C16.6381 16.3466 17.16 16.1789 17.605 15.8643C18.05 15.5498 18.3984 15.1023 18.6075 14.5781C18.8165 14.0538 18.8771 13.4754 18.782 12.9147C18.6868 12.354 18.4398 11.8352 18.0714 11.423C17.703 11.0108 17.2292 10.7232 16.7088 10.5967C16.1883 10.4701 15.6446 10.5104 15.1454 10.7123C14.6463 10.9141 14.2141 11.2685 13.9021 11.7309C13.5902 12.1932 13.4121 12.7432 13.3897 13.3125L13.3892 13.324L13.3938 13.3344C13.4229 13.4016 13.4393 13.4744 13.4418 13.5486C13.4444 13.6228 13.4331 13.6967 13.4086 13.7661L13.4047 13.777L13.4061 13.7884C13.4874 14.4924 13.8058 15.141 14.3024 15.6122C14.799 16.0835 15.4396 16.3448 16.1042 16.3461Z" fill="#001423" stroke="white" stroke-width="0.1"/>
<path d="M18.6975 5.98074L18.7073 6.01814H18.7459H20.4242C20.5623 6.01814 20.6954 6.07687 20.7941 6.18268C20.893 6.28861 20.949 6.43297 20.949 6.58417C20.949 6.73537 20.893 6.87973 20.7941 6.98566C20.6954 7.09147 20.5623 7.1502 20.4242 7.1502H0.573799C0.435782 7.1502 0.302654 7.09147 0.20393 6.98566C0.105096 6.87973 0.0490234 6.73537 0.0490234 6.58417C0.0490234 6.43297 0.105096 6.28861 0.20393 6.18268C0.302654 6.07687 0.435782 6.01814 0.573799 6.01814H2.25214H2.29079L2.30053 5.98074L3.36041 1.91247C3.36041 1.91246 3.36041 1.91246 3.36041 1.91245C3.63864 0.845766 4.56914 0.05 5.51687 0.05H15.4812C16.4289 0.05 17.3594 0.845773 17.6376 1.91245L18.6975 5.98074ZM3.39929 5.95555L3.383 6.01814H3.44768H17.5504H17.615L17.5988 5.95555L16.6263 2.21752C16.6263 2.2175 16.6262 2.21747 16.6262 2.21745C16.5535 1.9363 16.3888 1.67856 16.1831 1.49083C15.9778 1.30349 15.7272 1.18207 15.4812 1.18207H5.51687C5.27424 1.18207 5.02368 1.30358 4.81766 1.49076C4.61112 1.6784 4.44458 1.93617 4.37179 2.21752L3.39929 5.95555Z" fill="#001423" stroke="white" stroke-width="0.1"/>
</svg>
