<?xml version="1.0" encoding="UTF-8" standalone="no"?>
<!-- Created with Inkscape (http://www.inkscape.org/) -->

<svg
   width="16"
   height="16"
   viewBox="0 0 4.2333332 4.2333335"
   version="1.1"
   id="svg14380"
   inkscape:version="1.1.1 (3bf5ae0d25, 2021-09-20)"
   sodipodi:docname="Language 16px for the browser.svg"
   xmlns:inkscape="http://www.inkscape.org/namespaces/inkscape"
   xmlns:sodipodi="http://sodipodi.sourceforge.net/DTD/sodipodi-0.dtd"
   xmlns="http://www.w3.org/2000/svg"
   xmlns:svg="http://www.w3.org/2000/svg">
  <sodipodi:namedview
     id="namedview14382"
     pagecolor="#ffffff"
     bordercolor="#666666"
     borderopacity="1.0"
     inkscape:pageshadow="2"
     inkscape:pageopacity="0.0"
     inkscape:pagecheckerboard="0"
     inkscape:document-units="px"
     showgrid="true"
     inkscape:zoom="15.714698"
     inkscape:cx="0.89088572"
     inkscape:cy="17.594993"
     inkscape:window-width="1920"
     inkscape:window-height="1001"
     inkscape:window-x="-9"
     inkscape:window-y="-9"
     inkscape:window-maximized="1"
     inkscape:current-layer="g2947"
     units="px"
     height="16px">
    <inkscape:grid
       type="xygrid"
       id="grid1129" />
  </sodipodi:namedview>
  <defs
     id="defs14377">
    <clipPath
       id="clip0_1179:2925">
      <rect
         width="22"
         height="22"
         fill="white"
         transform="translate(0.742188)"
         id="rect14794" />
    </clipPath>
    <clipPath
       id="clip0_1179:2925-8">
      <rect
         width="22"
         height="22"
         fill="white"
         transform="translate(0.742188)"
         id="rect14794-5" />
    </clipPath>
  </defs>
  <g
     inkscape:label="Слой 1"
     inkscape:groupmode="layer"
     id="layer1">
    <g
       style="fill:none"
       id="g1821"
       transform="matrix(0.19242424,0,0,0.19242424,-3.3663956,-0.80428116)">
      <g
         style="fill:none"
         id="g2947"
         transform="translate(17.678976,4.1874115)">
        <g
           id="path2938"
           style="fill:#000000;fill-opacity:1"
           transform="scale(0.99997904,1)">
          <path
             style="color:#000000;fill:#000000;fill-opacity:1;stroke-width:0.302333;-inkscape-stroke:none"
             d="m 10.815679,0.33741249 c -5.8845203,0 -10.6549054,4.77031731 -10.6549054,10.65490551 0,5.88451 4.7703851,10.654905 10.6549054,10.654905 5.88451,0 10.654905,-4.770395 10.654905,-10.654905 0,-5.8845882 -4.770395,-10.65490551 -10.654905,-10.65490551 z m 0,20.24432051 c -0.8433842,0 -1.931008,-1.571599 -2.5955739,-4.261962 h 5.1911089 c -0.664576,2.690363 -1.752151,4.261962 -2.595535,4.261962 z M 7.9916446,15.25428 C 7.7883587,14.151497 7.6576424,12.901386 7.6299396,11.525063 h 6.3714594 c -0.0277,1.376323 -0.158371,2.626434 -0.361686,3.729217 z M 1.2532501,11.525063 h 5.311199 c 0.026201,1.32024 0.145023,2.578294 0.3462941,3.729217 H 2.2381023 C 1.6718038,14.119339 1.3270595,12.859154 1.2532501,11.525063 Z M 10.815679,1.402903 c 0.843384,0 1.930959,1.5715695 2.595535,4.2619621 H 8.2201051 C 8.884671,2.9744725 9.9722948,1.402903 10.815679,1.402903 Z m 2.824034,5.3274526 c 0.203315,1.1027536 0.333983,2.3529324 0.361686,3.7292174 H 7.6299396 C 7.6576424,9.083288 7.7883587,7.8331092 7.9916446,6.7303556 Z M 6.5644491,10.459573 H 1.2532501 C 1.3270595,9.1255008 1.6718038,7.8652967 2.2381023,6.7303556 H 6.9107432 C 6.7094721,7.8812985 6.5906505,9.1392844 6.5644491,10.459573 Z m 8.5024399,1.06549 h 5.31118 c -0.07381,1.334091 -0.418544,2.594276 -0.984804,3.729217 h -4.67266 c 0.201281,-1.150923 0.320131,-2.408977 0.346284,-3.729217 z m 0,-1.06549 C 15.040736,9.1392844 14.921886,7.8812985 14.720605,6.7303556 h 4.67266 c 0.56626,1.1349411 0.910995,2.3951452 0.984804,3.7292174 z M 18.783611,5.6648651 H 14.502857 C 14.109691,3.9681102 13.538104,2.5620405 12.84786,1.624341 c 2.462349,0.5338495 4.575604,2.0128181 5.935751,4.0405241 z M 8.7834784,1.624341 C 8.0932924,2.5620405 7.5216567,3.9681102 7.1285392,5.6648651 H 2.8477179 C 4.2079328,3.6371591 6.3211589,2.1581905 8.7834784,1.624341 Z m -5.9357605,14.69543 h 4.2808213 c 0.3931175,1.696648 0.964821,3.102805 1.655007,4.040533 -2.4623195,-0.53381 -4.5756134,-2.012711 -5.9358283,-4.040533 z m 10.0000451,4.040533 c 0.690244,-0.937728 1.261928,-2.343885 1.655094,-4.040533 h 4.280754 c -1.360147,2.027822 -3.473499,3.506723 -5.935848,4.040533 z"
             id="path1798" />
          <path
             style="color:#000000;fill:#000000;fill-opacity:1;-inkscape-stroke:none"
             d="m 10.816406,0.18554687 c -5.96621,10e-9 -10.80664038,4.84036223 -10.80664037,10.80664113 -1e-8,5.966201 4.84042897,10.80664 10.80664037,10.80664 5.966202,0 10.804688,-4.840439 10.804688,-10.80664 0,-5.9662791 -4.838488,-10.80664112 -10.804688,-10.80664113 z m 0,0.30273438 c 5.802808,0 10.503906,4.70102015 10.503906,10.50390675 0,5.802806 -4.701099,10.503906 -10.503906,10.503906 -5.802817,0 -10.503906,-4.7011 -10.503906,-10.503906 0,-5.8028867 4.7010877,-10.50390675 10.503906,-10.50390675 z m 0,0.76367185 c -0.515586,0 -1.0213605,0.4426069 -1.4941404,1.1914063 C 8.8494858,3.1921588 8.4094621,4.2717253 8.0742188,5.6289062 l -0.046875,0.1875 h 5.5761722 l -0.04492,-0.1875 c -0.335248,-1.35718 -0.777232,-2.4367476 -1.25,-3.1855468 -0.472771,-0.7487993 -0.976603,-1.1914063 -1.49219,-1.1914063 z m -1.6738279,0.140625 -0.390625,0.083984 C 6.2506384,2.0188665 4.1042771,3.5204618 2.7226563,5.5800781 L 2.5644531,5.8164062 H 7.2480469 L 7.2753906,5.6992187 C 7.6653796,4.015967 8.2332555,2.626533 8.9042969,1.7148437 Z m 3.3457029,0 0.238282,0.3222656 c 0.671093,0.911684 1.238867,2.3011182 1.628906,3.984375 l 0.02734,0.1171875 h 4.683593 L 18.908203,5.5800781 C 17.526649,3.520458 15.382203,2.0188663 12.880859,1.4765625 Z m -1.671875,0.1621094 c 0.327797,0 0.78832,0.3411991 1.236328,1.0507813 0.420831,0.6665362 0.815707,1.6880633 1.136719,2.9082031 H 8.4414063 C 8.7624153,4.293533 9.1572848,3.2720049 9.578125,2.6054688 10.026144,1.8958867 10.488609,1.5546875 10.816406,1.5546875 Z m 2.302735,0.3476562 c 2.171189,0.5531518 4.027275,1.8456709 5.304687,3.6113282 H 14.601563 C 14.243153,4.0204294 13.72304,2.823285 13.119141,1.9023437 Z m -4.6074222,0.00195 C 7.9082377,2.8251266 7.3875036,4.0211162 7.0292969,5.5136719 H 3.2070313 C 4.4840017,3.7486473 6.341592,2.4578301 8.5117188,1.9042969 Z M 2.1445313,6.5800781 2.1035156,6.6621094 C 1.5282012,7.8151197 1.176516,9.0964205 1.1015625,10.451172 l -0.00781,0.160156 h 5.6191406 l 0.00195,-0.148437 C 6.740903,9.1497632 6.8607567,7.8983341 7.0605469,6.7558594 l 0.029297,-0.1757813 z m 5.7207031,0 L 7.84375,6.703125 C 7.6388661,7.8145474 7.5063739,9.0730234 7.4785156,10.457031 l -0.00195,0.154297 H 14.15625 l -0.0039,-0.154297 C 14.124485,9.0730269 13.993977,7.8145543 13.789063,6.703125 l -0.02344,-0.1230469 h -0.125 z m 6.6757816,0 0.03125,0.1757813 c 0.1998,1.1424762 0.317739,2.3939095 0.34375,3.7070316 l 0.002,0.148437 h 0.148437 5.470703 l -0.0078,-0.160156 c -0.07495,-1.3547508 -0.424725,-2.6360536 -1,-3.7890626 l -0.04297,-0.082031 z M 2.3515625,6.8808594 H 6.7460937 C 6.5680089,7.9490831 6.4585167,9.1003796 6.4277344,10.308594 H 1.4472656 C 1.5367442,9.0886197 1.8406525,7.9286815 2.3515625,6.8808594 Z m 5.7773438,0 h 5.3730467 c 0.182173,1.0212447 0.298702,2.171406 0.332031,3.4277346 H 7.796875 C 7.8302078,9.0522684 7.9467544,7.9021102 8.1289063,6.8808594 Z m 6.7558597,0 h 4.394531 c 0.510876,1.0478234 0.814819,2.2077596 0.904297,3.4277346 H 15.205078 C 15.174335,9.1003688 15.062862,7.9490866 14.884766,6.8808594 Z M 1.09375,11.373047 1.10156,11.533203 c 0.074953,1.35477 0.426639,2.636053 1.0019531,3.789063 l 0.041016,0.08398 h 4.9453146 l -0.029297,-0.17773 C 6.8607569,14.086062 6.7409026,12.834563 6.7148437,11.521484 l -0.00195,-0.148437 z m 6.3828125,0 0.00195,0.154297 C 7.5063739,12.91139 7.6388664,14.1698 7.84375,15.28125 l 0.021484,0.125 h 0.1269531 5.7734379 l 0.02344,-0.125 c 0.204914,-1.111457 0.335425,-2.369864 0.363281,-3.753906 l 0.0039,-0.154297 z m 7.4414065,0 -0.002,0.148437 c -0.02601,1.313073 -0.14395,2.564577 -0.34375,3.707032 l -0.03125,0.177734 h 4.945312 l 0.04297,-0.08398 c 0.575274,-1.153009 0.925046,-2.434294 1,-3.789063 l 0.0078,-0.160156 z M 1.4453125,11.675781 h 4.9824219 c 0.030763,1.207557 0.1404414,2.359979 0.3183593,3.427735 H 2.3515625 C 1.8403308,14.055023 1.5345482,12.896634 1.4453125,11.675781 Z m 6.3515625,0 h 6.037109 c -0.03333,1.256355 -0.149857,2.406467 -0.332031,3.427735 H 8.1289063 C 7.9467541,14.082242 7.8302078,12.932134 7.796875,11.675781 Z m 7.408203,0 h 4.980469 c -0.08924,1.220854 -0.395052,2.37924 -0.90625,3.427735 h -4.394531 c 0.177929,-1.06776 0.289588,-2.220167 0.320312,-3.427735 z m -12.6406249,4.492188 0.1582032,0.236328 c 1.3816227,2.059737 3.5279836,3.561252 6.0292968,4.103515 l 0.390625,0.08398 L 8.90625,20.271484 C 8.2352067,19.359765 7.6653789,17.968299 7.2753906,16.285156 l -0.027344,-0.117187 z m 5.4628907,0 0.046875,0.1875 c 0.3352433,1.357166 0.7752672,2.436744 1.2480468,3.185547 0.4727796,0.748802 0.9785524,1.191406 1.4941404,1.191406 0.515589,0 1.019419,-0.442604 1.492188,-1.191406 0.472768,-0.748803 0.914752,-1.828382 1.25,-3.185547 l 0.04492,-0.1875 z m 6.3554692,0 -0.02734,0.117187 c -0.390037,1.683146 -0.957809,3.074612 -1.628906,3.986328 l -0.238282,0.320313 0.390625,-0.08398 c 2.501342,-0.542263 4.64774,-2.043773 6.029297,-4.103515 L 19.06641,16.167974 Z M 3.2050781,16.470703 h 3.8242188 c 0.3582106,1.492473 0.8789326,2.688515 1.4824219,3.609375 -2.1710137,-0.553721 -4.029632,-1.843174 -5.3066407,-3.609375 z m 5.2363282,0 h 4.7480467 c -0.321012,1.220128 -0.715888,2.241663 -1.136719,2.908203 -0.448008,0.709586 -0.908533,1.050781 -1.236328,1.050781 -0.327795,0 -0.790262,-0.341195 -1.238281,-1.050781 C 9.1572846,18.712366 8.7624153,17.69083 8.4414063,16.470703 Z m 6.1601567,0 h 3.824218 c -1.277452,1.766833 -3.134561,3.057989 -5.30664,3.611328 0.603911,-0.92097 1.124006,-2.118167 1.482422,-3.611328 z"
             id="path1800" />
        </g>
      </g>
    </g>
    <g
       style="fill:none"
       id="g3198"
       transform="matrix(0.26458333,0,0,0.26458333,-6.4583586,2.5781526)" />
  </g>
</svg>
