<?xml version="1.0" encoding="UTF-8" standalone="no"?>
<!-- Created with Inkscape (http://www.inkscape.org/) -->

<svg
   width="30"
   height="30"
   version="1.1"
   viewBox="0 0 30 30"
   id="svg14"
   sodipodi:docname="Language 16px.svg"
   inkscape:version="1.1.1 (3bf5ae0d25, 2021-09-20)"
   xmlns:inkscape="http://www.inkscape.org/namespaces/inkscape"
   xmlns:sodipodi="http://sodipodi.sourceforge.net/DTD/sodipodi-0.dtd"
   xmlns="http://www.w3.org/2000/svg"
   xmlns:svg="http://www.w3.org/2000/svg">
  <defs
     id="defs18" />
  <sodipodi:namedview
     id="namedview16"
     pagecolor="#ffffff"
     bordercolor="#666666"
     borderopacity="1.0"
     inkscape:pageshadow="2"
     inkscape:pageopacity="0.0"
     inkscape:pagecheckerboard="0"
     showgrid="false"
     inkscape:zoom="27.066667"
     inkscape:cx="15.018473"
     inkscape:cy="15.018473"
     inkscape:window-width="1920"
     inkscape:window-height="1001"
     inkscape:window-x="-9"
     inkscape:window-y="-9"
     inkscape:window-maximized="1"
     inkscape:current-layer="g6" />
  <g
     id="g841">
    <g
       transform="matrix(3.8476,0,0,3.8472,6.8563,6.857)"
       id="g12">
      <g
         transform="matrix(0.19242,0,0,0.19242,-3.3664,-0.80428)"
         id="g10">
        <g
           transform="translate(17.679,4.1874)"
           id="g8">
          <g
             transform="scale(0.99998,1)"
             id="g6">
            <path
               d="m 10.816,0.33741 c -5.8845,0 -10.655,4.7703 -10.655,10.655 0,5.8845 4.7704,10.655 10.655,10.655 5.8845,0 10.655,-4.7704 10.655,-10.655 0,-5.8846 -4.7704,-10.655 -10.655,-10.655 z m 0,20.244 c -0.84338,0 -1.931,-1.5716 -2.5956,-4.262 h 5.1911 c -0.66458,2.6904 -1.7522,4.262 -2.5955,4.262 z m -2.824,-5.3275 c -0.20329,-1.1028 -0.334,-2.3529 -0.3617,-3.7292 h 6.3715 c -0.0277,1.3763 -0.15837,2.6264 -0.36169,3.7292 z m -6.7384,-3.7292 h 5.3112 c 0.026201,1.3202 0.14502,2.5783 0.34629,3.7292 h -4.6726 c -0.5663,-1.1349 -0.91104,-2.3951 -0.98485,-3.7292 z m 9.5624,-10.122 c 0.84338,0 1.931,1.5716 2.5955,4.262 H 8.2204 c 0.66457,-2.6904 1.7522,-4.262 2.5956,-4.262 z m 2.824,5.3275 c 0.20332,1.1028 0.33398,2.3529 0.36169,3.7292 h -6.3715 c 0.027703,-1.3763 0.15842,-2.6265 0.3617,-3.7292 z m -7.0753,3.7292 H 1.2535 c 0.073809,-1.3341 0.41855,-2.5943 0.98485,-3.7292 h 4.6726 c -0.20127,1.1509 -0.32009,2.4089 -0.34629,3.7292 z m 8.5024,1.0655 h 5.3112 c -0.07381,1.3341 -0.41854,2.5943 -0.9848,3.7292 h -4.6727 c 0.20128,-1.1509 0.32013,-2.409 0.34628,-3.7292 z m 0,-1.0655 c -0.02615,-1.3203 -0.145,-2.5783 -0.34628,-3.7292 h 4.6727 c 0.56626,1.1349 0.911,2.3951 0.9848,3.7292 z m 3.7167,-4.7947 H 14.503 c -0.39317,-1.6968 -0.96475,-3.1028 -1.655,-4.0405 2.4623,0.53385 4.5756,2.0128 5.9358,4.0405 z m -10,-4.0405 C 8.09361,2.56191 7.522,3.96801 7.1289,5.66471 H 2.8481 c 1.3602,-2.0277 3.4734,-3.5067 5.9358,-4.0405 z m -5.9358,14.695 h 4.2808 c 0.39312,1.6966 0.96482,3.1028 1.655,4.0405 C 6.3215,19.8259 4.2082,18.34701 2.848,16.31921 Z m 10,4.0405 c 0.69024,-0.93773 1.2619,-2.3439 1.6551,-4.0405 h 4.2808 c -1.3601,2.0278 -3.4735,3.5067 -5.9358,4.0405 z"
               color="#000000"
               id="path1238"
               style="display:inline;stroke-width:1.35079;stroke-miterlimit:4;stroke-dasharray:none" />
            <path
               d="m 10.816,0.18555 c -5.9662,10e-9 -10.807,4.8404 -10.807,10.807 -10e-9,5.9662 4.8404,10.807 10.807,10.807 5.9662,0 10.805,-4.8404 10.805,-10.807 0,-5.9663 -4.8385,-10.807 -10.805,-10.807 z m 0,0.30273 c 5.8028,0 10.504,4.701 10.504,10.504 0,5.8028 -4.7011,10.504 -10.504,10.504 -5.8028,0 -10.504,-4.7011 -10.504,-10.504 0,-5.8029 4.7011,-10.504 10.504,-10.504 z m 0,0.76367 c -0.51559,0 -1.0214,0.44261 -1.4941,1.1914 -0.47278,0.7488 -0.9128,1.8284 -1.248,3.1855 l -0.046875,0.1875 h 5.5762 l -0.04492,-0.1875 c -0.33525,-1.3572 -0.77723,-2.4367 -1.25,-3.1855 -0.47277,-0.7488 -0.9766,-1.1914 -1.4922,-1.1914 z M 9.1422,1.39257 8.75158,1.476554 c -2.5013,0.5423 -4.6477,2.0439 -6.0293,4.1035 l -0.1582,0.23633 h 4.6836 l 0.027344,-0.11719 c 0.38999,-1.6833 0.95786,-3.0727 1.6289,-3.9844 z m 3.3457,0 0.23828,0.32227 c 0.67109,0.91168 1.2389,2.3011 1.6289,3.9844 l 0.02734,0.11719 h 4.6836 L 18.90782,5.5801 c -1.3816,-2.0596 -3.526,-3.5612 -6.0273,-4.1035 z M 10.816,1.55468 c 0.3278,0 0.78832,0.3412 1.2363,1.0508 0.42083,0.66654 0.81571,1.6881 1.1367,2.9082 H 8.441 c 0.32101,-1.2201 0.71588,-2.2417 1.1367,-2.9082 0.44802,-0.70958 0.91048,-1.0508 1.2383,-1.0508 z m 2.3027,0.34766 c 2.1712,0.55315 4.0273,1.8457 5.3047,3.6113 H 14.6011 C 14.24269,4.02044 13.72258,2.82324 13.1187,1.90234 Z M 8.5113,1.90429 C 7.90782,2.82512 7.3871,4.02109 7.0289,5.51369 H 3.2066 c 1.277,-1.765 3.1346,-3.0558 5.3047,-3.6094 z M 2.1441,6.58009 2.103084,6.662121 c -0.57531,1.153 -0.927,2.4343 -1.002,3.7891 l -0.00781,0.16016 h 5.6191 l 0.00195,-0.14844 c 0.02606,-1.3131 0.14591,-2.5646 0.3457,-3.707 l 0.029297,-0.17578 z m 5.7207,0 -0.021484,0.12305 c -0.20488,1.1114 -0.33738,2.3699 -0.36523,3.7539 l -0.00195,0.1543 h 6.6797 l -0.0039,-0.1543 c -0.02786,-1.384 -0.15837,-2.6425 -0.36329,-3.7539 l -0.02344,-0.12305 h -0.125 z m 6.6758,0 0.03125,0.17578 c 0.1998,1.1425 0.31774,2.3939 0.34375,3.707 l 0.002,0.14844 h 5.6191 l -0.0078,-0.16016 c -0.07495,-1.3548 -0.42472,-2.6361 -1,-3.7891 L 19.48593,6.580019 Z M 2.3516,6.88087 h 4.3945 c -0.17808,1.0682 -0.28758,2.2195 -0.31836,3.4277 h -4.9805 c 0.089479,-1.22 0.39339,-2.3799 0.9043,-3.4277 z m 5.7773,0 h 5.373 c 0.18217,1.0212 0.2987,2.1714 0.33203,3.4277 h -6.0371 c 0.033333,-1.2563 0.14988,-2.4065 0.33203,-3.4277 z m 6.7559,0 h 4.3945 c 0.51088,1.0478 0.81482,2.2078 0.9043,3.4277 h -4.9785 c -0.03074,-1.2082 -0.14222,-2.3595 -0.32031,-3.4277 z m -13.791,4.4922 0.00781,0.16016 c 0.074953,1.3548 0.42664,2.6361 1.002,3.7891 l 0.041016,0.08398 h 4.9453 L 7.060629,15.22858 c -0.19979,-1.1425 -0.31964,-2.394 -0.3457,-3.707 l -0.00195,-0.14844 z m 6.3828,0 0.00195,0.1543 c 0.027861,1.384 0.16035,2.6425 0.36524,3.7539 l 0.021484,0.125 h 5.9004 l 0.02344,-0.125 c 0.20491,-1.1115 0.33542,-2.3699 0.36328,-3.7539 l 0.0039,-0.1543 z m 7.4414,0 -0.002,0.14844 c -0.02601,1.3131 -0.14395,2.5646 -0.34375,3.707 L 14.541,15.40624 h 4.9453 l 0.04297,-0.08398 c 0.57527,-1.153 0.92505,-2.4343 1,-3.7891 L 20.53707,11.373 Z M 1.445,11.6758 h 4.9824 c 0.030763,1.2076 0.14044,2.36 0.31836,3.4277 H 2.35126 C 1.84003,14.055 1.53425,12.8966 1.44501,11.6758 Z m 6.3516,0 h 6.0371 c -0.03333,1.2564 -0.14986,2.4065 -0.33203,3.4277 h -5.373 C 7.94652,14.0822 7.82997,12.9321 7.79664,11.6758 Z m 7.4082,0 h 4.9805 c -0.08924,1.2209 -0.39505,2.3792 -0.90625,3.4277 h -4.3945 c 0.17793,-1.0678 0.28959,-2.2202 0.32031,-3.4277 z M 2.5638,16.168 2.722,16.40433 c 1.3816,2.0597 3.528,3.5613 6.0293,4.1035 L 9.14192,20.59181 8.90559,20.2715 C 8.23455,19.35978 7.66469,17.9683 7.27469,16.2852 L 7.247346,16.16801 Z m 5.4629,0 0.046875,0.1875 c 0.33524,1.3572 0.77527,2.4367 1.248,3.1855 0.47278,0.7488 0.97855,1.1914 1.4941,1.1914 0.51559,0 1.0194,-0.4426 1.4922,-1.1914 0.47277,-0.7488 0.91475,-1.8284 1.25,-3.1855 l 0.04492,-0.1875 z m 6.3555,0 -0.02734,0.11719 c -0.39004,1.6831 -0.95781,3.0746 -1.6289,3.9863 l -0.23828,0.32031 0.39062,-0.08398 c 2.5013,-0.54226 4.6477,-2.0438 6.0293,-4.1035 l 0.1582,-0.23633 z m -11.178,0.30273 h 3.8242 c 0.35821,1.4925 0.87893,2.6885 1.4824,3.6094 -2.171,-0.55372 -4.0296,-1.8432 -5.3066,-3.6094 z m 5.2363,0 h 4.748 c -0.32101,1.2201 -0.71589,2.2417 -1.1367,2.9082 -0.44801,0.70959 -0.90853,1.0508 -1.2363,1.0508 -0.32777,0 -0.79026,-0.3412 -1.2383,-1.0508 -0.42084,-0.66654 -0.81571,-1.6881 -1.1367,-2.9082 z m 6.1602,0 h 3.8242 c -1.2775,1.7668 -3.1346,3.058 -5.3066,3.6113 0.60391,-0.92097 1.124,-2.1182 1.4824,-3.6113 z"
               color="#000000"
               id="path4"
               style="display:none" />
          </g>
        </g>
      </g>
    </g>
  </g>
</svg>
