<svg width="23" height="23" viewBox="0 0 23 23" fill="none" xmlns="http://www.w3.org/2000/svg">
<path d="M7.48592 14.4869H7.32628L7.36456 14.6419C7.66567 15.8608 8.06411 16.8331 8.48759 17.5038C8.69923 17.839 8.91972 18.103 9.1411 18.2846C9.36172 18.4654 9.59241 18.5717 9.82133 18.5717C10.0503 18.5717 10.2809 18.4654 10.5016 18.2846C10.7229 18.103 10.9434 17.839 11.1551 17.5038C11.5786 16.8331 11.977 15.8608 12.2781 14.6419L12.3164 14.4869H12.1567H7.48592ZM7.15743 13.6758L7.17629 13.7782H7.28036H12.3623H12.4664L12.4852 13.6758C12.6695 12.6765 12.7877 11.5449 12.8127 10.3003L12.8153 10.1728H12.6878H6.9549H6.82736L6.82993 10.3003C6.85498 11.5449 6.97321 12.6765 7.15743 13.6758ZM1.21735 10.1728H1.08525L1.09254 10.3047C1.15991 11.5223 1.4746 12.6728 1.99164 13.709L2.02617 13.7782H2.10349H6.30779H6.45655L6.43092 13.6317C6.25102 12.6029 6.14465 11.4774 6.12118 10.2953L6.11875 10.1728H5.9962H1.21735ZM12.1567 5.14992H12.3164L12.2781 4.99495C11.977 3.77597 11.5786 2.80375 11.1551 2.13302C10.9434 1.79782 10.7229 1.53378 10.5016 1.35225C10.2809 1.17136 10.0503 1.06514 9.82133 1.06514C9.59241 1.06514 9.36172 1.17136 9.1411 1.35225C8.91972 1.53378 8.69923 1.79782 8.48759 2.13302C8.06411 2.80375 7.66567 3.77597 7.36456 4.99495L7.32628 5.14992H7.48592H12.1567ZM12.4852 5.96096L12.4664 5.85862H12.3623H7.28036H7.17629L7.15743 5.96096C6.97321 6.96026 6.85498 8.09189 6.82993 9.33654L6.82736 9.46405H6.9549H12.6878H12.8153L12.8127 9.33654C12.7877 8.09189 12.6695 6.96026 12.4852 5.96096ZM5.9962 9.46405H6.11875L6.12118 9.34153C6.14465 8.15937 6.25102 7.03388 6.43092 6.00515L6.45655 5.85862H6.30779H2.10349H2.02617L1.99164 5.92781C1.4746 6.96404 1.15991 8.11454 1.09254 9.33215L1.08525 9.46405H1.21735H5.9962ZM13.6465 10.1728H13.5239L13.5215 10.2953C13.498 11.4774 13.3916 12.6029 13.2117 13.6317L13.1861 13.7782H13.3349H17.5392H17.6165L17.651 13.709C18.1681 12.6728 18.4828 11.5223 18.5501 10.3047L18.5574 10.1728H18.4253H13.6465ZM13.5215 9.34153L13.5239 9.46405H13.6465H18.4253H18.5574L18.5501 9.33215C18.4828 8.11454 18.1681 6.96404 17.651 5.92781L17.6165 5.85862H17.5392H13.3349H13.1861L13.2117 6.00515C13.3916 7.03388 13.498 8.15937 13.5215 9.34153ZM16.9907 5.14992H17.225L17.0945 4.95529C15.853 3.10462 13.9242 1.75458 11.6763 1.26722L11.3531 1.19715L11.5492 1.46348C12.1562 2.28822 12.6654 3.53514 13.0171 5.05314L13.0396 5.14992H13.1389H16.9907ZM8.09349 1.46348L8.28952 1.19715L7.96634 1.26722C5.71846 1.75458 3.78965 3.10462 2.5482 4.95529L2.41763 5.14992H2.652H6.50376H6.60311L6.62553 5.05314C6.97723 3.53514 7.48645 2.28822 8.09349 1.46348ZM2.652 14.4869H2.41764L2.5482 14.6815C3.78965 16.5322 5.71852 17.8822 7.9664 18.3696L8.28957 18.4397L8.09355 18.1733C7.48651 17.3485 6.97723 16.1016 6.62553 14.5837L6.6031 14.4869H6.50376H2.652ZM11.5491 18.1733L11.3531 18.4397L11.6763 18.3696C13.9241 17.8822 15.853 16.5322 17.0945 14.6815L17.225 14.4869H16.9907H13.1389H13.0396L13.0171 14.5837C12.6654 16.1016 12.1562 17.3485 11.5491 18.1733ZM0.359375 9.8184C0.359375 4.59267 4.59566 0.356445 9.82133 0.356445C15.047 0.356445 19.2833 4.59267 19.2833 9.8184C19.2833 15.0441 15.047 19.2804 9.82133 19.2804C4.59566 19.2804 0.359375 15.0441 0.359375 9.8184Z" fill="#001423" stroke="white" stroke-width="0.25"/>
<path d="M16.7344 11.7314L18.2344 15.0876L20.2344 15.2314L21.7344 15.7314L19.2344 18.2314L19.7344 21.7314L16.7344 20.2314L13.7344 21.7314L14.2344 18.2314L11.7344 15.7314L13.2344 15.2314L15.2344 15.0876L16.7344 11.7314Z" fill="white"/>
<path d="M16.7344 20.4118L16.7897 20.4423L19.7715 22.0847C19.811 22.1064 19.8535 22.1169 19.8956 22.1169C19.9503 22.1169 20.0054 22.0991 20.0526 22.0632C20.1362 21.9994 20.1802 21.8894 20.1621 21.7783L19.5926 18.2993L19.5832 18.2421L19.6238 18.2007L22.0362 15.737L22.0362 15.737C22.111 15.6606 22.1392 15.5443 22.1061 15.4376L16.7344 20.4118ZM16.7344 20.4118L16.6792 20.4423M16.7344 20.4118L16.6792 20.4423M16.6792 20.4423L13.6974 22.0847C13.6973 22.0847 13.6973 22.0847 13.6973 22.0847C13.6073 22.1341 13.4989 22.1262 13.4163 22.0633C13.3327 21.9997 13.2886 21.8895 13.3068 21.7786L13.8761 18.2996L13.8855 18.2424M16.6792 20.4423L13.8855 18.2424M13.8855 18.2424L13.8449 18.2009M13.8855 18.2424L13.8449 18.2009M13.8449 18.2009L11.4325 15.737L11.4325 15.737M13.8449 18.2009L11.4325 15.737M11.4325 15.737C11.3577 15.6606 11.3296 15.5443 11.3627 15.4376L11.3627 15.4375M11.4325 15.737L11.3627 15.4375M11.3627 15.4375C11.3956 15.3312 11.4819 15.2574 11.5813 15.2423L14.9155 14.7347L14.9758 14.7255M11.3627 15.4375L14.9758 14.7255M14.9758 14.7255L15.0019 14.6703M14.9758 14.7255L15.0019 14.6703M15.0019 14.6703L16.4928 11.5051C16.5397 11.4056 16.6343 11.346 16.7344 11.346C16.8345 11.346 16.9292 11.4056 16.9761 11.5051L18.467 14.6703L18.493 14.7255M15.0019 14.6703L18.493 14.7255M18.493 14.7255L18.5534 14.7347M18.493 14.7255L18.5534 14.7347M18.5534 14.7347L21.8875 15.2423M18.5534 14.7347L21.8875 15.2423M12.2085 15.7304L12.4295 15.6967L15.1918 15.2762C15.278 15.263 15.3548 15.206 15.3954 15.1199L16.6308 12.4974L16.7344 12.2773L16.8381 12.4974L18.0734 15.1198C18.0734 15.1198 18.0734 15.1198 18.0734 15.1198C18.1139 15.2059 18.1909 15.2629 18.277 15.2761L21.0391 15.6966L21.2602 15.7302L21.1037 15.89L19.1051 17.9312L12.2085 15.7304ZM12.2085 15.7304L12.3649 15.8902L14.3636 17.9314L14.3636 17.9314C14.4282 17.9973 14.4589 18.0941 14.4432 18.1897L14.4431 18.1898L13.9714 21.0722L13.9333 21.3048L14.1397 21.1911L16.6104 19.8302M12.2085 15.7304L16.6104 19.8302M16.6104 19.8302C16.6882 19.7874 16.7805 19.7874 16.8583 19.8302L16.6104 19.8302ZM19.5353 21.3048L19.3289 21.1911L16.8584 19.8302L19.5353 21.3048ZM19.5353 21.3048L19.4973 21.0722M19.5353 21.3048L19.4973 21.0722M19.4973 21.0722L19.0255 18.1898L19.0255 18.1897M19.4973 21.0722L19.0255 18.1897M19.0255 18.1897C19.0098 18.094 19.0404 17.9974 19.105 17.9313L19.0255 18.1897ZM21.8875 15.2423C21.9868 15.2574 22.073 15.3311 22.1061 15.4376L21.8875 15.2423Z" fill="#001423" stroke="white" stroke-width="0.229167"/>
</svg>
