<?xml version="1.0" encoding="UTF-8" standalone="no"?>
<!-- Created with Inkscape (http://www.inkscape.org/) -->

<svg
   width="30"
   height="30"
   viewBox="0 0 30 30"
   version="1.1"
   id="svg5"
   inkscape:version="1.1.1 (3bf5ae0d25, 2021-09-20)"
   sodipodi:docname="Most visited sites 16px.svg"
   xmlns:inkscape="http://www.inkscape.org/namespaces/inkscape"
   xmlns:sodipodi="http://sodipodi.sourceforge.net/DTD/sodipodi-0.dtd"
   xmlns="http://www.w3.org/2000/svg"
   xmlns:svg="http://www.w3.org/2000/svg">
  <sodipodi:namedview
     id="namedview7"
     pagecolor="#ffffff"
     bordercolor="#666666"
     borderopacity="1.0"
     inkscape:pageshadow="2"
     inkscape:pageopacity="0.0"
     inkscape:pagecheckerboard="0"
     inkscape:document-units="px"
     showgrid="true"
     units="px"
     inkscape:zoom="5.6568543"
     inkscape:cx="54.712387"
     inkscape:cy="30.317203"
     inkscape:window-width="1920"
     inkscape:window-height="1017"
     inkscape:window-x="-8"
     inkscape:window-y="-8"
     inkscape:window-maximized="1"
     inkscape:current-layer="svg5"
     inkscape:snap-global="false"
     showguides="true"
     inkscape:guide-bbox="true">
    <inkscape:grid
       type="xygrid"
       id="grid824" />
    <sodipodi:guide
       position="21.699339,25.97833"
       orientation="0,-1"
       id="guide1085" />
    <sodipodi:guide
       position="23.997436,4.0138257"
       orientation="0,-1"
       id="guide1087" />
    <sodipodi:guide
       position="25.94198,16.87433"
       orientation="1,0"
       id="guide1089" />
    <sodipodi:guide
       position="4.0625,8.625"
       orientation="1,0"
       id="guide1091" />
  </sodipodi:namedview>
  <defs
     id="defs2" />
  <path
     style="fill:none;stroke:#000000;stroke-width:0.999981;stroke-linecap:butt;stroke-linejoin:miter;stroke-miterlimit:4;stroke-dasharray:none;stroke-opacity:1"
     d="M 8.5,10.5 H 20.481691 21.5"
     id="path1268"
     sodipodi:nodetypes="ccc" />
  <path
     d="M 22.039427,23.5 19.729599,22.211705 17.404172,23.482749 17.863313,20.774006 16,18.847489 18.593587,18.461686 19.767426,16 20.911215,18.470337 23.5,18.87542 21.613286,20.787937 Z"
     fill="none"
     stroke="#000000"
     stroke-linejoin="round"
     stroke-width="0.500302"
     style="display:none;stroke-width:0.819305;stroke-miterlimit:4;stroke-dasharray:none;paint-order:markers fill stroke"
     id="path2" />
  <path
     style="display:inline;fill:none;stroke:#000000;stroke-width:1;stroke-linecap:butt;stroke-linejoin:miter;stroke-miterlimit:4;stroke-dasharray:none;stroke-opacity:1"
     d="M 7.5000003,15.500001 H 17.000001"
     id="path1305"
     sodipodi:nodetypes="cc" />
  <path
     style="display:inline;fill:none;stroke:#000000;stroke-width:1;stroke-linecap:square;stroke-linejoin:round;stroke-miterlimit:4;stroke-dasharray:none"
     id="path2266"
     sodipodi:type="arc"
     sodipodi:cx="14.999999"
     sodipodi:cy="14"
     sodipodi:rx="7.4999995"
     sodipodi:ry="7.5"
     sodipodi:start="1.5707963"
     sodipodi:end="0"
     sodipodi:arc-type="arc"
     d="M 14.999999,21.5 A 7.4999995,7.5 0 0 1 8.0709031,16.870126 7.4999995,7.5 0 0 1 9.6966985,8.6966992 7.4999995,7.5 0 0 1 17.870125,7.0709035 7.4999995,7.5 0 0 1 22.499999,14"
     sodipodi:open="true" />
  <path
     style="fill:none;stroke:#000000;stroke-width:1;stroke-linecap:square;stroke-linejoin:round;stroke-miterlimit:4;stroke-dasharray:none"
     id="path2370"
     sodipodi:type="arc"
     sodipodi:cx="14.999999"
     sodipodi:cy="14"
     sodipodi:rx="3.5"
     sodipodi:ry="7.4999995"
     sodipodi:start="1.5707963"
     sodipodi:end="0"
     sodipodi:arc-type="arc"
     d="M 14.999999,21.5 A 3.5,7.4999995 0 0 1 11.766421,16.870126 3.5,7.4999995 0 0 1 12.525125,8.6966995 3.5,7.4999995 0 0 1 16.339391,7.0709039 3.5,7.4999995 0 0 1 18.499999,14"
     sodipodi:open="true" />
  <path
     d="M 22.942055,23.5 20.47824,22.125818 17.997784,23.4816 18.487534,20.592273 16.5,18.537321 19.266493,18.125798 20.518588,15.5 21.738629,18.135025 24.5,18.567115 22.487506,20.607132 Z"
     fill="none"
     stroke="#000000"
     stroke-linejoin="round"
     stroke-width="1.0006"
     style="stroke-width:1;stroke-miterlimit:4;stroke-dasharray:none;paint-order:markers fill stroke"
     id="path2-2" />
</svg>
