<?xml version="1.0" encoding="UTF-8" standalone="no"?>
<!-- Created with Inkscape (http://www.inkscape.org/) -->

<svg
   width="30"
   height="30"
   viewBox="0 0 30 30"
   version="1.1"
   id="svg5"
   inkscape:version="1.1.1 (3bf5ae0d25, 2021-09-20)"
   sodipodi:docname="Most visited siteds 16px.svg"
   xmlns:inkscape="http://www.inkscape.org/namespaces/inkscape"
   xmlns:sodipodi="http://sodipodi.sourceforge.net/DTD/sodipodi-0.dtd"
   xmlns="http://www.w3.org/2000/svg"
   xmlns:svg="http://www.w3.org/2000/svg">
  <sodipodi:namedview
     id="namedview7"
     pagecolor="#ffffff"
     bordercolor="#666666"
     borderopacity="1.0"
     inkscape:pageshadow="2"
     inkscape:pageopacity="0.0"
     inkscape:pagecheckerboard="0"
     inkscape:document-units="px"
     showgrid="true"
     units="px"
     inkscape:zoom="32"
     inkscape:cx="13.984375"
     inkscape:cy="15.984375"
     inkscape:window-width="1920"
     inkscape:window-height="1017"
     inkscape:window-x="-8"
     inkscape:window-y="-8"
     inkscape:window-maximized="1"
     inkscape:current-layer="svg5"
     inkscape:snap-global="false"
     showguides="true"
     inkscape:guide-bbox="true">
    <inkscape:grid
       type="xygrid"
       id="grid824" />
    <sodipodi:guide
       position="21.699339,25.97833"
       orientation="0,-1"
       id="guide1085" />
    <sodipodi:guide
       position="23.997436,4.0138257"
       orientation="0,-1"
       id="guide1087" />
    <sodipodi:guide
       position="25.94198,16.87433"
       orientation="1,0"
       id="guide1089" />
    <sodipodi:guide
       position="4.0625,8.625"
       orientation="1,0"
       id="guide1091" />
  </sodipodi:namedview>
  <defs
     id="defs2" />
  <path
     style="fill:none;stroke:#000000;stroke-width:0.999981;stroke-linecap:butt;stroke-linejoin:miter;stroke-miterlimit:4;stroke-dasharray:none;stroke-opacity:1"
     d="M 7.9999999,10.5 H 19.981691 21"
     id="path1268"
     sodipodi:nodetypes="ccc" />
  <path
     d="M 22.039427,23.5 19.729599,22.211705 17.404172,23.482749 17.863313,20.774006 16,18.847489 18.593587,18.461686 19.767426,16 20.911215,18.470337 23.5,18.87542 21.613286,20.787937 Z"
     fill="none"
     stroke="#000000"
     stroke-linejoin="round"
     stroke-width="0.500302"
     style="display:none;stroke-width:0.819305;stroke-miterlimit:4;stroke-dasharray:none;paint-order:markers fill stroke"
     id="path2" />
  <path
     style="display:inline;fill:none;stroke:#000000;stroke-width:1;stroke-linecap:butt;stroke-linejoin:miter;stroke-miterlimit:4;stroke-dasharray:none;stroke-opacity:1"
     d="M 7.9999998,15.500001 H 15.5"
     id="path1305"
     sodipodi:nodetypes="cc" />
  <path
     style="display:inline;fill:none;stroke:#000000;stroke-width:1;stroke-linecap:square;stroke-linejoin:round;stroke-miterlimit:4;stroke-dasharray:none"
     id="path2266"
     sodipodi:type="arc"
     sodipodi:cx="14.499999"
     sodipodi:cy="13.5"
     sodipodi:rx="6.9999995"
     sodipodi:ry="7"
     sodipodi:start="1.5707963"
     sodipodi:end="0"
     sodipodi:arc-type="arc"
     d="M 14.499999,20.5 A 6.9999995,7 0 0 1 8.0328428,16.178784 6.9999995,7 0 0 1 9.5502518,8.5502526 6.9999995,7 0 0 1 17.178783,7.0328433 6.9999995,7 0 0 1 21.499999,13.5"
     sodipodi:open="true" />
  <path
     style="fill:none;stroke:#000000;stroke-width:1;stroke-linecap:square;stroke-linejoin:round;stroke-miterlimit:4;stroke-dasharray:none"
     id="path2370"
     sodipodi:type="arc"
     sodipodi:cx="14.5"
     sodipodi:cy="13.5"
     sodipodi:rx="3"
     sodipodi:ry="6.9999995"
     sodipodi:start="1.5707963"
     sodipodi:end="0"
     sodipodi:arc-type="arc"
     d="M 14.5,20.5 A 3,6.9999995 0 0 1 11.728361,16.178784 3,6.9999995 0 0 1 12.37868,8.5502529 3,6.9999995 0 0 1 15.64805,7.0328437 3,6.9999995 0 0 1 17.5,13.5"
     sodipodi:open="true" />
  <g
     inkscape:label="Layer 1"
     id="layer1"
     transform="translate(64.610173,-4.1862917)">
    <path
       id="rect1936"
       style="display:inline;fill:none;stroke:#000000;stroke-width:1;stroke-miterlimit:3.5;stroke-dasharray:none"
       d="M 16.5,20.5 H 9.3750002 C 8.33625,20.5 7.5,19.608 7.5,18.5 v -8 c 0,-1.1079997 0.83625,-2 1.8750002,-2 v 0 H 20.625 c 1.03875,0 1.875,0.8920003 1.875,2 v 4" />
    <rect
       style="display:none;fill:none;stroke:#000000;stroke-width:0.264583;stroke-miterlimit:3.5;stroke-dasharray:none"
       id="rect848"
       width="3.96875"
       height="3.175"
       x="1.984375"
       y="2.2489583"
       ry="0.52916664"
       rx="0.49609375" />
    <rect
       style="display:inline;fill:none;fill-opacity:0.794872;stroke:#000000;stroke-width:1;stroke-miterlimit:3.5;stroke-dasharray:none"
       id="rect974"
       width="8"
       height="7.9999995"
       x="16.5"
       y="14.500001"
       rx="2"
       ry="2" />
    <path
       style="fill:none;stroke:#000000;stroke-width:1;stroke-linecap:round;stroke-linejoin:miter;stroke-miterlimit:4;stroke-dasharray:none;stroke-opacity:1"
       d="m 18.5,18.500002 h 4"
       id="path1807" />
    <path
       style="fill:none;stroke:#000000;stroke-width:1;stroke-linecap:round;stroke-linejoin:miter;stroke-miterlimit:4;stroke-dasharray:none;stroke-opacity:1"
       d="m 20.5,20.5 v -4"
       id="path1809" />
  </g>
  <path
     d="M 21.942055,22.5 19.47824,21.125818 16.997784,22.4816 17.487534,19.592273 15.5,17.537321 18.266493,17.125798 19.518588,14.5 20.738629,17.135025 23.5,17.567115 21.487506,19.607132 Z"
     fill="none"
     stroke="#000000"
     stroke-linejoin="round"
     stroke-width="1.0006"
     style="stroke-width:1;stroke-miterlimit:4;stroke-dasharray:none;paint-order:markers fill stroke"
     id="path2-2" />
</svg>
