<?xml version="1.0" encoding="UTF-8" standalone="no"?>
<!-- Created with Inkscape (http://www.inkscape.org/) -->

<svg
   width="30"
   height="30"
   viewBox="0 0 30 30"
   version="1.1"
   id="svg5"
   xmlns="http://www.w3.org/2000/svg"
   xmlns:svg="http://www.w3.org/2000/svg">
  <defs
     id="defs2" />
  <path
     style="color:#000000;fill:#000000;-inkscape-stroke:none"
     d="m 8.5,10 v 1 H 20.482422 21.5 v -1 h -1.017578 z"
     id="path1268" />
  <path
     d="M 22.039427,23.5 19.729599,22.211705 17.404172,23.482749 17.863313,20.774006 16,18.847489 18.593587,18.461686 19.767426,16 20.911215,18.470337 23.5,18.87542 21.613286,20.787937 Z"
     fill="none"
     stroke="#000000"
     stroke-linejoin="round"
     stroke-width="0.500302"
     style="display:none;stroke-width:0.819305;stroke-miterlimit:4;stroke-dasharray:none;paint-order:markers fill stroke"
     id="path2" />
  <path
     style="color:#000000;fill:#000000;-inkscape-stroke:none"
     d="m 7.5,15 v 1 H 17 v -1 z"
     id="path1305" />
  <path
     style="color:#000000;fill:#000000;stroke-linecap:square;stroke-linejoin:round;-inkscape-stroke:none"
     d="M 15.759766,6.0371094 C 13.423551,5.8147887 11.058975,6.6285252 9.34375,8.34375 7.0567839,10.630716 6.3716778,14.072481 7.609375,17.060547 8.8470722,20.048612 11.765741,22 15,22 h 0.5 V 21 H 15 C 12.167331,21 9.6172185,19.296732 8.5332031,16.679687 7.4491877,14.062643 8.047782,11.053781 10.050781,9.0507813 12.05378,7.0477819 15.062643,6.4491877 17.679687,7.5332031 20.296732,8.6172185 22,11.167331 22,14 v 0.5 h 1 V 14 C 23,10.765741 21.048612,7.8470722 18.060547,6.609375 17.313531,6.2999507 16.538504,6.1112163 15.759766,6.0371094 Z"
     id="path2266" />
  <path
     style="color:#000000;fill:#000000;stroke-linecap:square;stroke-linejoin:round;-inkscape-stroke:none"
     d="M 15.423828,6.0546875 C 14.985281,5.9663762 14.537393,6.00615 14.121094,6.1835937 13.288495,6.5384813 12.605301,7.3421556 12.072266,8.484375 c -1.066072,2.284439 -1.358693,5.57401 -0.796875,8.480469 0.280908,1.453229 0.751119,2.668954 1.371093,3.55664 C 13.266458,21.40917 14.077054,22 15,22 h 0.5 V 21 H 15 c -0.492671,0 -1.02768,-0.324171 -1.535156,-1.050781 -0.507476,-0.72661 -0.946207,-1.824503 -1.207031,-3.173828 -0.521649,-2.698651 -0.21521,-5.861661 0.720703,-7.8671879 0.467956,-1.0027633 1.037836,-1.5927096 1.535156,-1.8046875 0.497319,-0.2119778 0.945648,-0.145045 1.49414,0.3417969 C 17.104797,8.4189963 18,11.060241 18,14 v 0.5 h 1 V 14 C 19,10.872832 18.190609,8.0452943 16.671875,6.6972656 16.292192,6.3602585 15.862375,6.1429988 15.423828,6.0546875 Z"
     id="path2370" />
  <path
     style="color:#000000;fill:#000000;stroke-linejoin:round;-inkscape-stroke:none;paint-order:markers fill stroke"
     d="m 20.521484,15 a 0.50005,0.50005 0 0 0 -0.455078,0.285156 l -1.136719,2.384766 -2.503906,0.373047 a 0.50005,0.50005 0 0 0 -0.285156,0.841797 l 1.8125,1.873046 -0.449219,2.640625 a 0.50005,0.50005 0 0 0 0.734375,0.521485 l 2.238281,-1.222656 2.222657,1.240234 a 0.50005,0.50005 0 0 0 0.736328,-0.515625 l -0.414063,-2.642578 1.833985,-1.861328 A 0.50005,0.50005 0 0 0 24.578125,18.072266 L 22.080078,17.681641 20.972656,15.289063 A 0.50005,0.50005 0 0 0 20.521484,15 Z m -0.0098,1.677734 0.773437,1.667969 a 0.50005,0.50005 0 0 0 0.376953,0.283203 l 1.796875,0.28125 -1.328125,1.345703 a 0.50005,0.50005 0 0 0 -0.136718,0.429688 l 0.294921,1.876953 -1.566406,-0.873047 a 0.50005,0.50005 0 0 0 -0.484375,-0.002 l -1.576172,0.861328 0.31836,-1.873047 a 0.50005,0.50005 0 0 0 -0.132813,-0.43164 l -1.3125,-1.355469 1.804688,-0.267578 a 0.50005,0.50005 0 0 0 0.378906,-0.279297 z"
     id="path2-2" />
</svg>
