<svg width="169" height="16" viewBox="0 0 169 16" fill="none" xmlns="http://www.w3.org/2000/svg">
<path d="M7.62517 2.06367L7.62575 2.06307L9.09222 0.50462C9.09225 0.504593 9.09227 0.504565 9.0923 0.504538C9.3563 0.225915 9.72261 0.065 10.1028 0.065H13.915C14.3055 0.065 14.6816 0.231014 14.9453 0.519041C14.9453 0.519072 14.9453 0.519102 14.9453 0.519133L16.3709 2.08779L16.3713 2.08816C16.5057 2.23376 16.6914 2.31859 16.8892 2.31859H19.7202C20.4641 2.31859 21.0707 2.94659 21.0707 3.71511V14.5334C21.0707 15.3072 20.4639 15.935 19.7202 15.935H1.41552C0.671646 15.935 0.065 15.307 0.065 14.5385V3.71511C0.065 2.94163 0.671501 2.31859 1.41552 2.31859H7.03162C7.25421 2.31859 7.47022 2.22415 7.62517 2.06367ZM1.48052 3.00622V3.00111H1.41552C1.04269 3.00111 0.75263 3.32646 0.75263 3.71V14.5283C0.75263 14.9176 1.04847 15.2371 1.41552 15.2371H19.7202C20.0931 15.2371 20.3831 14.9118 20.3831 14.5283V3.71511C20.3831 3.32574 20.0873 3.00622 19.7202 3.00622H16.8892C16.4987 3.00622 16.1226 2.84021 15.859 2.55219C15.8589 2.55216 15.8589 2.55212 15.8589 2.55209L14.4333 0.983431L14.4329 0.98306C14.2985 0.837461 14.1128 0.75263 13.915 0.75263H10.1028C9.9113 0.75263 9.72576 0.83146 9.59092 0.971911L9.59048 0.972384L8.12409 2.53075C8.12405 2.53078 8.12401 2.53082 8.12398 2.53086C7.8394 2.8301 7.44235 3.00622 7.03162 3.00622H1.48052Z" fill="black" stroke="white" stroke-width="0.13"/>
<path d="M12.7258 14.2658C9.88985 14.2658 7.58355 11.9596 7.58355 9.11841C7.58355 6.28239 9.88981 3.97613 12.7258 3.97613C15.5619 3.97613 17.8681 6.28239 17.8681 9.11841C17.8681 11.9596 15.5618 14.2658 12.7258 14.2658ZM12.7258 4.66376C10.2677 4.66376 8.27118 6.66545 8.27118 9.11841C8.27118 11.5714 10.2728 13.5731 12.7258 13.5731C15.1789 13.5731 17.1805 11.5714 17.1805 9.11841C17.1805 6.66545 15.184 4.66376 12.7258 4.66376Z" fill="black" stroke="white" stroke-width="0.13"/>
<path d="M12.7269 12.0089C11.1378 12.0089 9.84332 10.7145 9.84332 9.12534C9.84332 7.5362 11.1378 6.24176 12.7269 6.24176C14.316 6.24176 15.6105 7.5362 15.6105 9.12534C15.6105 10.7145 14.316 12.0089 12.7269 12.0089ZM12.7269 6.9345C11.5157 6.9345 10.531 7.91921 10.531 9.13045C10.531 10.3417 11.5157 11.3264 12.7269 11.3264C13.9381 11.3264 14.9228 10.3417 14.9228 9.13045C14.9228 7.91921 13.9381 6.9345 12.7269 6.9345Z" fill="black" stroke="white" stroke-width="0.13"/>
<path d="M3.22916 7.86402C2.46802 7.86402 1.85309 7.24428 1.85309 6.48795C1.85309 5.73177 2.47298 5.11187 3.22916 5.11187C3.98534 5.11187 4.60523 5.73177 4.60523 6.48795C4.60523 7.24428 3.9903 7.86402 3.22916 7.86402ZM3.22916 5.79439C2.84542 5.79439 2.54072 6.1049 2.54072 6.48284C2.54072 6.86658 2.85123 7.17128 3.22916 7.17128C3.60744 7.17128 3.9176 6.86112 3.9176 6.48284C3.9176 6.10456 3.60744 5.79439 3.22916 5.79439Z" fill="black" stroke="white" stroke-width="0.13"/>
<path d="M13.3971 2.60517H10.4996C10.3107 2.60517 10.1558 2.4503 10.1558 2.26135C10.1558 2.0724 10.3107 1.91754 10.4996 1.91754H13.3971C13.5861 1.91754 13.7409 2.0724 13.7409 2.26135C13.7409 2.4503 13.5861 2.60517 13.3971 2.60517Z" fill="black" stroke="white" stroke-width="0.13"/>
<mask id="path-6-inside-1_772:202" fill="white">
<path fill-rule="evenodd" clip-rule="evenodd" d="M69.5806 0.59873V0.632372V3.11274V3.24383H69.7943H70.3813V3.25231L70.4385 3.25289C70.5989 3.25453 70.7276 3.38588 70.726 3.54626C70.7243 3.70664 70.593 3.83532 70.4326 3.83368L70.3813 3.83315V6.31123V6.4685L70.4489 6.4692C70.6035 6.47078 70.7274 6.59732 70.7259 6.75183C70.7243 6.90635 70.5977 7.03032 70.4432 7.02874L69.5826 7.01994V7.02976V9.51013V9.59304L70.4165 9.60157C70.5893 9.60334 70.728 9.74485 70.7262 9.91764C70.7244 10.0904 70.5829 10.2291 70.4101 10.2273L70.3813 10.227V12.7051V12.7482L70.4491 12.7489C70.6046 12.7505 70.7294 12.8779 70.7278 13.0334C70.7263 13.1889 70.5989 13.3137 70.4433 13.3121L68.485 13.2921H55.0093C54.4168 13.2921 53.9365 12.8118 53.9365 12.2193V10.7105C53.9365 10.4812 54.0084 10.2686 54.131 10.0942C53.5756 10.0535 53.1377 9.59007 53.1377 9.02431V7.51557C53.1377 6.94891 53.577 6.48487 54.1337 6.44545C54.0095 6.27037 53.9365 6.05642 53.9365 5.82541V4.31667C53.9365 4.0859 54.0093 3.87215 54.1333 3.69716C53.5759 3.65852 53.1357 3.19413 53.1357 2.62693V1.11819C53.1357 0.525676 53.6161 0.045351 54.2086 0.045351H66.8613C66.9067 0.0161363 66.9609 -0.000578322 67.0189 1.52936e-05L69.6439 0.0268691C69.802 0.0284863 69.9288 0.157944 69.9272 0.316021C69.9256 0.474099 69.7961 0.600935 69.638 0.599318L69.5806 0.59873ZM54.2086 0.632372H68.9936V3.11274H54.2086C53.9403 3.11274 53.7228 2.89524 53.7228 2.62693V1.11819C53.7228 0.84988 53.9403 0.632372 54.2086 0.632372ZM55.0093 3.83086H69.7943V6.31123H55.0093C54.741 6.31123 54.5235 6.09372 54.5235 5.82541V4.31667C54.5235 4.04836 54.741 3.83086 55.0093 3.83086ZM54.2106 7.02976H68.9956V9.51013H54.2106C53.9422 9.51013 53.7247 9.29262 53.7247 9.02431V7.51557C53.7247 7.24727 53.9422 7.02976 54.2106 7.02976ZM69.7943 10.2247H55.0093C54.741 10.2247 54.5235 10.4422 54.5235 10.7105V12.2193C54.5235 12.4876 54.741 12.7051 55.0093 12.7051H69.7943V10.2247Z"/>
</mask>
<path fill-rule="evenodd" clip-rule="evenodd" d="M69.5806 0.59873V0.632372V3.11274V3.24383H69.7943H70.3813V3.25231L70.4385 3.25289C70.5989 3.25453 70.7276 3.38588 70.726 3.54626C70.7243 3.70664 70.593 3.83532 70.4326 3.83368L70.3813 3.83315V6.31123V6.4685L70.4489 6.4692C70.6035 6.47078 70.7274 6.59732 70.7259 6.75183C70.7243 6.90635 70.5977 7.03032 70.4432 7.02874L69.5826 7.01994V7.02976V9.51013V9.59304L70.4165 9.60157C70.5893 9.60334 70.728 9.74485 70.7262 9.91764C70.7244 10.0904 70.5829 10.2291 70.4101 10.2273L70.3813 10.227V12.7051V12.7482L70.4491 12.7489C70.6046 12.7505 70.7294 12.8779 70.7278 13.0334C70.7263 13.1889 70.5989 13.3137 70.4433 13.3121L68.485 13.2921H55.0093C54.4168 13.2921 53.9365 12.8118 53.9365 12.2193V10.7105C53.9365 10.4812 54.0084 10.2686 54.131 10.0942C53.5756 10.0535 53.1377 9.59007 53.1377 9.02431V7.51557C53.1377 6.94891 53.577 6.48487 54.1337 6.44545C54.0095 6.27037 53.9365 6.05642 53.9365 5.82541V4.31667C53.9365 4.0859 54.0093 3.87215 54.1333 3.69716C53.5759 3.65852 53.1357 3.19413 53.1357 2.62693V1.11819C53.1357 0.525676 53.6161 0.045351 54.2086 0.045351H66.8613C66.9067 0.0161363 66.9609 -0.000578322 67.0189 1.52936e-05L69.6439 0.0268691C69.802 0.0284863 69.9288 0.157944 69.9272 0.316021C69.9256 0.474099 69.7961 0.600935 69.638 0.599318L69.5806 0.59873ZM54.2086 0.632372H68.9936V3.11274H54.2086C53.9403 3.11274 53.7228 2.89524 53.7228 2.62693V1.11819C53.7228 0.84988 53.9403 0.632372 54.2086 0.632372ZM55.0093 3.83086H69.7943V6.31123H55.0093C54.741 6.31123 54.5235 6.09372 54.5235 5.82541V4.31667C54.5235 4.04836 54.741 3.83086 55.0093 3.83086ZM54.2106 7.02976H68.9956V9.51013H54.2106C53.9422 9.51013 53.7247 9.29262 53.7247 9.02431V7.51557C53.7247 7.24727 53.9422 7.02976 54.2106 7.02976ZM69.7943 10.2247H55.0093C54.741 10.2247 54.5235 10.4422 54.5235 10.7105V12.2193C54.5235 12.4876 54.741 12.7051 55.0093 12.7051H69.7943V10.2247Z" fill="black"/>
<path d="M69.5806 0.59873L69.5813 0.5354L69.5173 0.534745V0.59873H69.5806ZM69.5806 3.24383H69.5173V3.30717H69.5806V3.24383ZM70.3813 3.24383H70.4446V3.1805H70.3813V3.24383ZM70.3813 3.25231H70.318V3.315L70.3807 3.31564L70.3813 3.25231ZM70.4385 3.25289L70.4379 3.31622L70.4379 3.31622L70.4385 3.25289ZM70.726 3.54626L70.6626 3.54561L70.726 3.54626ZM70.4326 3.83368L70.432 3.89701L70.432 3.89701L70.4326 3.83368ZM70.3813 3.83315L70.382 3.76982L70.318 3.76917V3.83315H70.3813ZM70.3813 6.4685H70.318V6.53119L70.3807 6.53183L70.3813 6.4685ZM70.4489 6.4692L70.4483 6.53253L70.4483 6.53253L70.4489 6.4692ZM70.7259 6.75183L70.7892 6.75248L70.7892 6.75248L70.7259 6.75183ZM70.4432 7.02874L70.4426 7.09207L70.4426 7.09207L70.4432 7.02874ZM69.5826 7.01994L69.5832 6.95661L69.5192 6.95595V7.01994H69.5826ZM69.5826 9.59304H69.5192V9.65573L69.5819 9.65637L69.5826 9.59304ZM70.4165 9.60157L70.4172 9.53824L70.4172 9.53824L70.4165 9.60157ZM70.7262 9.91764L70.6629 9.91699L70.6629 9.91699L70.7262 9.91764ZM70.4101 10.2273L70.4095 10.2906L70.4095 10.2906L70.4101 10.2273ZM70.3813 10.227L70.382 10.1637L70.318 10.163V10.227H70.3813ZM70.3813 12.7482H70.318V12.8109L70.3807 12.8115L70.3813 12.7482ZM70.4491 12.7489L70.4485 12.8122L70.4485 12.8122L70.4491 12.7489ZM70.4433 13.3121L70.4427 13.3755L70.4427 13.3755L70.4433 13.3121ZM68.485 13.2921L68.4857 13.2288H68.485V13.2921ZM54.131 10.0942L54.1828 10.1307L54.2471 10.0393L54.1356 10.0311L54.131 10.0942ZM54.1337 6.44545L54.1381 6.50863L54.2505 6.50067L54.1853 6.40881L54.1337 6.44545ZM54.1333 3.69716L54.185 3.73378L54.2501 3.64178L54.1377 3.63398L54.1333 3.69716ZM66.8613 0.045351V0.108684H66.8799L66.8956 0.0986123L66.8613 0.045351ZM67.0189 1.52936e-05L67.0196 -0.0633147L67.0196 -0.0633147L67.0189 1.52936e-05ZM69.6439 0.0268691L69.6432 0.0901992L69.6439 0.0268691ZM69.9272 0.316021L69.8639 0.315373L69.9272 0.316021ZM69.638 0.599318L69.6374 0.662648L69.6374 0.662648L69.638 0.599318ZM68.9936 0.632372H69.0569V0.569039H68.9936V0.632372ZM68.9936 3.11274V3.17608H69.0569V3.11274H68.9936ZM69.7943 3.83086H69.8576V3.76752H69.7943V3.83086ZM69.7943 6.31123V6.37456H69.8576V6.31123H69.7943ZM68.9956 7.02976H69.0589V6.96642H68.9956V7.02976ZM68.9956 9.51013V9.57346H69.0589V9.51013H68.9956ZM69.7943 10.2247H69.8576V10.1614H69.7943V10.2247ZM69.7943 12.7051V12.7684H69.8576V12.7051H69.7943ZM69.6439 0.632372V0.59873H69.5173V0.632372H69.6439ZM69.6439 3.11274V0.632372H69.5173V3.11274H69.6439ZM69.6439 3.24383V3.11274H69.5173V3.24383H69.6439ZM69.7943 3.1805H69.5806V3.30717H69.7943V3.1805ZM70.3813 3.1805H69.7943V3.30717H70.3813V3.1805ZM70.4446 3.25231V3.24383H70.318V3.25231H70.4446ZM70.4392 3.18956L70.382 3.18898L70.3807 3.31564L70.4379 3.31622L70.4392 3.18956ZM70.7893 3.5469C70.7913 3.35155 70.6345 3.19156 70.4392 3.18956L70.4379 3.31622C70.5633 3.31751 70.6639 3.42021 70.6626 3.54561L70.7893 3.5469ZM70.432 3.89701C70.6273 3.89901 70.7873 3.74226 70.7893 3.5469L70.6626 3.54561C70.6614 3.67101 70.5587 3.77163 70.4332 3.77035L70.432 3.89701ZM70.3807 3.89648L70.432 3.89701L70.4332 3.77035L70.382 3.76982L70.3807 3.89648ZM70.4446 6.31123V3.83315H70.318V6.31123H70.4446ZM70.4446 6.4685V6.31123H70.318V6.4685H70.4446ZM70.4496 6.40587L70.382 6.40517L70.3807 6.53183L70.4483 6.53253L70.4496 6.40587ZM70.7892 6.75248C70.7911 6.56299 70.6391 6.4078 70.4496 6.40587L70.4483 6.53253C70.5678 6.53375 70.6638 6.63165 70.6625 6.75118L70.7892 6.75248ZM70.4426 7.09207C70.6321 7.09401 70.7872 6.94197 70.7892 6.75248L70.6625 6.75118C70.6613 6.87072 70.5634 6.96664 70.4439 6.96541L70.4426 7.09207ZM69.5819 7.08327L70.4426 7.09207L70.4439 6.96541L69.5832 6.95661L69.5819 7.08327ZM69.6459 7.02976V7.01994H69.5192V7.02976H69.6459ZM69.6459 9.51013V7.02976H69.5192V9.51013H69.6459ZM69.6459 9.59304V9.51013H69.5192V9.59304H69.6459ZM70.4172 9.53824L69.5832 9.52971L69.5819 9.65637L70.4159 9.6649L70.4172 9.53824ZM70.7895 9.91829C70.7917 9.71052 70.6249 9.54037 70.4172 9.53824L70.4159 9.6649C70.5537 9.66631 70.6643 9.77918 70.6629 9.91699L70.7895 9.91829ZM70.4095 10.2906C70.6172 10.2928 70.7874 10.1261 70.7895 9.91829L70.6629 9.91699C70.6615 10.0548 70.5486 10.1654 70.4108 10.164L70.4095 10.2906ZM70.3807 10.2903L70.4095 10.2906L70.4108 10.164L70.382 10.1637L70.3807 10.2903ZM70.4446 12.7051V10.227H70.318V12.7051H70.4446ZM70.4446 12.7482V12.7051H70.318V12.7482H70.4446ZM70.4497 12.6856L70.382 12.6849L70.3807 12.8115L70.4485 12.8122L70.4497 12.6856ZM70.7912 13.034C70.7931 12.8435 70.6403 12.6875 70.4497 12.6856L70.4485 12.8122C70.569 12.8134 70.6658 12.9122 70.6645 13.0327L70.7912 13.034ZM70.4427 13.3755C70.6332 13.3774 70.7892 13.2246 70.7912 13.034L70.6645 13.0327C70.6633 13.1533 70.5645 13.25 70.444 13.2488L70.4427 13.3755ZM68.4844 13.3554L70.4427 13.3755L70.444 13.2488L68.4857 13.2288L68.4844 13.3554ZM55.0093 13.3554H68.485V13.2288H55.0093V13.3554ZM53.8731 12.2193C53.8731 12.8468 54.3818 13.3554 55.0093 13.3554V13.2288C54.4518 13.2288 53.9998 12.7768 53.9998 12.2193H53.8731ZM53.8731 10.7105V12.2193H53.9998V10.7105H53.8731ZM54.0792 10.0578C53.9494 10.2425 53.8731 10.4677 53.8731 10.7105H53.9998C53.9998 10.4946 54.0675 10.2947 54.1828 10.1307L54.0792 10.0578ZM53.0744 9.02431C53.0744 9.6235 53.5382 10.1143 54.1264 10.1574L54.1356 10.0311C53.6131 9.99279 53.201 9.55665 53.201 9.02431H53.0744ZM53.0744 7.51557V9.02431H53.201V7.51557H53.0744ZM54.1292 6.38228C53.5396 6.42402 53.0744 6.91543 53.0744 7.51557H53.201C53.201 6.98239 53.6144 6.54571 54.1381 6.50863L54.1292 6.38228ZM53.8731 5.82541C53.8731 6.06997 53.9505 6.29666 54.082 6.4821L54.1853 6.40881C54.0685 6.24408 53.9998 6.04286 53.9998 5.82541H53.8731ZM53.8731 4.31667V5.82541H53.9998V4.31667H53.8731ZM54.0816 3.66055C53.9503 3.84589 53.8731 4.07236 53.8731 4.31667H53.9998C53.9998 4.09944 54.0683 3.89841 54.185 3.73378L54.0816 3.66055ZM53.0724 2.62693C53.0724 3.22764 53.5386 3.71942 54.1289 3.76035L54.1377 3.63398C53.6133 3.59763 53.1991 3.16062 53.1991 2.62693H53.0724ZM53.0724 1.11819V2.62693H53.1991V1.11819H53.0724ZM54.2086 -0.0179824C53.5811 -0.0179824 53.0724 0.490698 53.0724 1.11819H53.1991C53.1991 0.560654 53.651 0.108684 54.2086 0.108684V-0.0179824ZM66.8613 -0.0179824H54.2086V0.108684H66.8613V-0.0179824ZM66.8956 0.0986123C66.9309 0.075887 66.973 0.0628821 67.0183 0.0633453L67.0196 -0.0633147C66.9488 -0.0640387 66.8825 -0.0436144 66.827 -0.00791038L66.8956 0.0986123ZM67.0183 0.0633453L69.6432 0.0901992L69.6445 -0.0364609L67.0196 -0.0633147L67.0183 0.0633453ZM69.6432 0.0901992C69.7663 0.0914585 69.8651 0.192273 69.8639 0.315373L69.9905 0.316669C69.9925 0.123616 69.8376 -0.0344859 69.6445 -0.0364609L69.6432 0.0901992ZM69.8639 0.315373C69.8626 0.438475 69.7618 0.537247 69.6387 0.535988L69.6374 0.662648C69.8304 0.664623 69.9885 0.509723 69.9905 0.316669L69.8639 0.315373ZM69.6387 0.535988L69.5813 0.5354L69.58 0.66206L69.6374 0.662648L69.6387 0.535988ZM68.9936 0.569039H54.2086V0.695706H68.9936V0.569039ZM69.0569 3.11274V0.632372H68.9302V3.11274H69.0569ZM54.2086 3.17608H68.9936V3.04941H54.2086V3.17608ZM53.6594 2.62693C53.6594 2.93021 53.9053 3.17608 54.2086 3.17608V3.04941C53.9752 3.04941 53.7861 2.86026 53.7861 2.62693H53.6594ZM53.6594 1.11819V2.62693H53.7861V1.11819H53.6594ZM54.2086 0.569039C53.9053 0.569039 53.6594 0.814901 53.6594 1.11819H53.7861C53.7861 0.884858 53.9752 0.695706 54.2086 0.695706V0.569039ZM69.7943 3.76752H55.0093V3.89419H69.7943V3.76752ZM69.8576 6.31123V3.83086H69.731V6.31123H69.8576ZM55.0093 6.37456H69.7943V6.24789H55.0093V6.37456ZM54.4601 5.82541C54.4601 6.1287 54.706 6.37456 55.0093 6.37456V6.24789C54.776 6.24789 54.5868 6.05874 54.5868 5.82541H54.4601ZM54.4601 4.31667V5.82541H54.5868V4.31667H54.4601ZM55.0093 3.76752C54.706 3.76752 54.4601 4.01338 54.4601 4.31667H54.5868C54.5868 4.08334 54.776 3.89419 55.0093 3.89419V3.76752ZM68.9956 6.96642H54.2106V7.09309H68.9956V6.96642ZM69.0589 9.51013V7.02976H68.9322V9.51013H69.0589ZM54.2106 9.57346H68.9956V9.4468H54.2106V9.57346ZM53.6614 9.02431C53.6614 9.3276 53.9073 9.57346 54.2106 9.57346V9.4468C53.9772 9.4468 53.7881 9.25764 53.7881 9.02431H53.6614ZM53.6614 7.51557V9.02431H53.7881V7.51557H53.6614ZM54.2106 6.96642C53.9073 6.96642 53.6614 7.21229 53.6614 7.51557H53.7881C53.7881 7.28224 53.9772 7.09309 54.2106 7.09309V6.96642ZM55.0093 10.288H69.7943V10.1614H55.0093V10.288ZM54.5868 10.7105C54.5868 10.4772 54.776 10.288 55.0093 10.288V10.1614C54.706 10.1614 54.4601 10.4072 54.4601 10.7105H54.5868ZM54.5868 12.2193V10.7105H54.4601V12.2193H54.5868ZM55.0093 12.6418C54.776 12.6418 54.5868 12.4526 54.5868 12.2193H54.4601C54.4601 12.5226 54.706 12.7684 55.0093 12.7684V12.6418ZM69.7943 12.6418H55.0093V12.7684H69.7943V12.6418ZM69.731 10.2247V12.7051H69.8576V10.2247H69.731Z" fill="white" mask="url(#path-6-inside-1_772:202)"/>
<rect x="63.5303" y="7.20801" width="8.79337" height="8.79337" rx="1.58333" fill="white"/>
<path d="M68.2884 11.5821V11.6217H68.3279H69.7554C69.8207 11.6217 69.8832 11.6476 69.9293 11.6937C69.9754 11.7399 70.0013 11.8024 70.0013 11.8676C70.0013 11.9329 69.9754 11.9954 69.9293 12.0415C69.8832 12.0876 69.8207 12.1135 69.7554 12.1135H68.3279H68.2884V12.1531V13.5806C68.2884 13.6458 68.2624 13.7084 68.2163 13.7545C68.1702 13.8006 68.1077 13.8265 68.0424 13.8265C67.9772 13.8265 67.9147 13.8006 67.8685 13.7545C67.8224 13.7084 67.7965 13.6458 67.7965 13.5806V12.1531V12.1135H67.7569H66.3294C66.2642 12.1135 66.2017 12.0876 66.1556 12.0415C66.1094 11.9954 66.0835 11.9329 66.0835 11.8676C66.0835 11.8024 66.1094 11.7399 66.1556 11.6937C66.2017 11.6476 66.2642 11.6217 66.3294 11.6217H67.7569H67.7965V11.5821V10.1546C67.7965 10.0894 67.8224 10.0269 67.8685 9.98075C67.9147 9.93463 67.9772 9.90872 68.0424 9.90872C68.1077 9.90872 68.1702 9.93463 68.2163 9.98075C68.2624 10.0269 68.2884 10.0894 68.2884 10.1546V11.5821Z" fill="black" stroke="white" stroke-width="0.0791667"/>
<rect x="63.7688" y="7.44453" width="8.20417" height="8.20417" rx="1.19504" stroke="black" stroke-width="0.475"/>
<path d="M110.395 6.02167H110.345V6.07167V9.92861V9.97861H110.395H114.252H114.302V9.92861V6.07167V6.02167H114.252H110.395ZM114.916 5.40742V10.5929H109.731V5.40742H114.916Z" fill="black" stroke="white" stroke-width="0.1"/>
<path d="M111.498 7.175H113.148V8.82491H111.498V7.175Z" fill="black" stroke="white" stroke-width="0.1"/>
<path d="M116.855 7.175H118.505V8.82491H116.855V7.175Z" fill="black" stroke="white" stroke-width="0.1"/>
<path d="M107.408 5.90742H109.058V7.55733H107.408V5.90742Z" fill="black" stroke="white" stroke-width="0.1"/>
<path d="M104.909 8.44258H106.559V10.0925H104.909V8.44258Z" fill="black" stroke="white" stroke-width="0.1"/>
<path d="M105.037 0.664248H104.987V0.714248V4.57118V4.62118H105.037H108.894H108.944V4.57118V0.714248V0.664248H108.894H105.037ZM109.559 0.05V5.23543H104.373V0.05H109.559Z" fill="black" stroke="white" stroke-width="0.1"/>
<path d="M106.141 1.81758H107.791V3.46748H106.141V1.81758Z" fill="black" stroke="white" stroke-width="0.1"/>
<path d="M105.037 11.3781H104.987V11.4281V15.2851V15.3351H105.037H108.894H108.944V15.2851V11.4281V11.3781H108.894H105.037ZM109.559 10.7639V15.9493H104.373V10.7639H109.559Z" fill="black" stroke="white" stroke-width="0.1"/>
<path d="M106.141 12.5314H107.791V14.1814H106.141V12.5314Z" fill="black" stroke="white" stroke-width="0.1"/>
<path d="M115.701 4.57118V4.62118H115.751H119.608V4.57118H119.658V0.714248V0.664248H119.608H115.751H115.701V0.714248V4.57118ZM115.087 5.23543V0.05H120.273V5.23543H115.087Z" fill="black" stroke="white" stroke-width="0.1"/>
<path d="M116.855 1.81758H118.505V3.46748H116.855V1.81758Z" fill="black" stroke="white" stroke-width="0.1"/>
<path d="M115.751 11.3781H115.701V11.4281V14.1815H115.087V10.7639H118.523V11.3781H115.751Z" fill="black" stroke="white" stroke-width="0.1"/>
<path d="M119.608 15.3354H119.658V15.2854V12.4963H120.272V15.9497H116.855V15.3354H119.608Z" fill="black" stroke="white" stroke-width="0.1"/>
<path d="M119.609 9.44232H119.659V9.39232V7.13887H120.273V10.0566H118.641V9.44232H119.609Z" fill="black" stroke="white" stroke-width="0.1"/>
<path d="M108.359 9.44224H108.409V9.39224V8.33516H109.023V10.0565H107.391V9.44224H108.359Z" fill="black" stroke="white" stroke-width="0.1"/>
<path d="M105.555 6.4494H105.505V6.4994V7.55649H104.891V5.83516H106.523V6.4494H105.555Z" fill="black" stroke="white" stroke-width="0.1"/>
<path d="M113.855 1.16054V1.11054H113.805H112.677V0.496289H114.47V2.12834H113.855V1.16054Z" fill="black" stroke="white" stroke-width="0.1"/>
<path d="M112.269 13.3533H112.319V13.3033V11.7463H112.933V12.7141V12.7641H112.983H114.112V13.3783H112.376H112.326V13.4283V14.9854H111.712V14.0176V13.9676H111.662H110.533V13.3533H112.269Z" fill="black" stroke="white" stroke-width="0.1"/>
<path d="M110.606 0.942578H112.256V2.59248H110.606V0.942578Z" fill="black" stroke="white" stroke-width="0.1"/>
<path d="M112.391 2.72871H114.041V4.37862H112.391V2.72871Z" fill="black" stroke="white" stroke-width="0.1"/>
<path d="M160.102 13.1793L160.13 13.2879H160.242H167.752C167.988 13.2879 168.178 13.4787 168.178 13.7143C168.178 13.9499 167.988 14.1407 167.752 14.1407H160.242H160.13L160.102 14.2492C159.862 15.171 159.031 15.855 158.038 15.855C157.044 15.855 156.213 15.171 155.973 14.2492L155.945 14.1407H155.833H152.895C152.659 14.1407 152.468 13.9499 152.468 13.7143C152.468 13.4787 152.659 13.2879 152.895 13.2879H155.833H155.945L155.973 13.1793C156.213 12.2576 157.044 11.5736 158.038 11.5736C159.031 11.5736 159.862 12.2576 160.102 13.1793ZM164.673 7.46504L164.701 7.57357H164.814H167.752C167.988 7.57357 168.178 7.76443 168.178 8C168.178 8.23557 167.988 8.42643 167.752 8.42643H164.814H164.701L164.673 8.53494C164.434 9.45672 163.602 10.1407 162.609 10.1407C161.616 10.1407 160.784 9.4567 160.545 8.53496L160.517 8.42643H160.404H152.895C152.659 8.42643 152.468 8.23557 152.468 8C152.468 7.76443 152.659 7.57357 152.895 7.57357H160.404H160.517L160.545 7.46506C160.784 6.54328 161.616 5.85929 162.609 5.85929C163.602 5.85929 164.434 6.5433 164.673 7.46504ZM155.973 2.82068L155.945 2.71214H155.833H152.895C152.659 2.71214 152.468 2.52128 152.468 2.28571C152.468 2.05015 152.659 1.85929 152.895 1.85929H155.833H155.945L155.973 1.75078C156.213 0.828994 157.044 0.145 158.038 0.145C159.031 0.145 159.862 0.828994 160.102 1.75078L160.13 1.85929H160.242H167.752C167.988 1.85929 168.178 2.05015 168.178 2.28571C168.178 2.52128 167.988 2.71214 167.752 2.71214H160.242H160.13L160.102 2.82065C159.862 3.74243 159.031 4.42643 158.038 4.42643C157.044 4.42643 156.213 3.74242 155.973 2.82068ZM156.75 13.7143C156.75 14.4247 157.327 15.0021 158.038 15.0021C158.748 15.0021 159.325 14.4247 159.325 13.7143C159.325 13.0039 158.748 12.4264 158.038 12.4264C157.327 12.4264 156.75 13.0039 156.75 13.7143ZM161.321 8C161.321 8.71038 161.899 9.28786 162.609 9.28786C163.319 9.28786 163.897 8.71038 163.897 8C163.897 7.28962 163.319 6.71214 162.609 6.71214C161.899 6.71214 161.321 7.28962 161.321 8ZM159.325 2.28571C159.325 1.57533 158.748 0.997857 158.038 0.997857C157.327 0.997857 156.75 1.57533 156.75 2.28571C156.75 2.9961 157.327 3.57357 158.038 3.57357C158.748 3.57357 159.325 2.9961 159.325 2.28571Z" fill="black" stroke="white" stroke-width="0.29"/>
</svg>
