<svg width="21" height="16" viewBox="0 0 21 16" fill="none" xmlns="http://www.w3.org/2000/svg">
<rect x="0.399023" y="0.4" width="18.1741" height="14.2212" rx="1.6" stroke="#001423" stroke-width="0.8"/>
<rect x="12.999" y="8" width="8" height="8" rx="2.57052" fill="white"/>
<rect x="13.289" y="8.29" width="7.42" height="7.42" rx="1.26047" stroke="#001423" stroke-width="0.58"/>
<path d="M17.3967 12.034V12.059H17.4217H18.7375C18.8006 12.059 18.8612 12.0841 18.9059 12.1288C18.9505 12.1734 18.9756 12.234 18.9756 12.2972C18.9756 12.3603 18.9505 12.4209 18.9059 12.4656C18.8612 12.5102 18.8006 12.5353 18.7375 12.5353H17.4217H17.3967V12.5603V13.8761C17.3967 13.9393 17.3716 13.9999 17.3269 14.0445C17.2823 14.0892 17.2217 14.1143 17.1585 14.1143C17.0953 14.1143 17.0348 14.0892 16.9901 14.0445C16.9454 13.9999 16.9204 13.9393 16.9204 13.8761V12.5603V12.5353H16.8954H15.5796C15.5164 12.5353 15.4558 12.5102 15.4112 12.4656C15.3665 12.4209 15.3414 12.3603 15.3414 12.2972C15.3414 12.234 15.3665 12.1734 15.4112 12.1288C15.4558 12.0841 15.5164 12.059 15.5796 12.059H16.8954H16.9204V12.034V10.7182C16.9204 10.6551 16.9454 10.5945 16.9901 10.5498C17.0348 10.5052 17.0953 10.4801 17.1585 10.4801C17.2217 10.4801 17.2823 10.5052 17.3269 10.5498C17.3716 10.5945 17.3967 10.6551 17.3967 10.7182V12.034Z" fill="#001423" stroke="white" stroke-width="0.05"/>
</svg>
