<svg width="21" height="16" viewBox="0 0 21 16" fill="none" xmlns="http://www.w3.org/2000/svg">
<rect x="0.499023" y="0.5" width="17.9741" height="14.0212" rx="1.5" stroke="#001423"/>
<rect x="12.999" y="8" width="8" height="8" rx="2.57052" fill="white"/>
<rect x="13.349" y="8.35" width="7.3" height="7.3" rx="1.20047" stroke="#001423" stroke-width="0.7"/>
<path d="M17.0653 11.5789V11.6189H17.1053H18.4211C18.4802 11.6189 18.537 11.6425 18.5788 11.6843C18.6207 11.7262 18.6442 11.7829 18.6442 11.8421C18.6442 11.9013 18.6207 11.9581 18.5788 11.9999C18.537 12.0418 18.4802 12.0653 18.4211 12.0653H17.1053H17.0653V12.1053V13.4211C17.0653 13.4802 17.0418 13.537 16.9999 13.5788C16.9581 13.6207 16.9013 13.6442 16.8421 13.6442C16.7829 13.6442 16.7262 13.6207 16.6843 13.5788C16.6425 13.537 16.6189 13.4802 16.6189 13.4211V12.1053V12.0653H16.5789H15.2632C15.204 12.0653 15.1472 12.0418 15.1054 11.9999C15.0635 11.9581 15.04 11.9013 15.04 11.8421C15.04 11.7829 15.0635 11.7262 15.1054 11.6843C15.1472 11.6425 15.204 11.6189 15.2632 11.6189H16.5789H16.6189V11.5789V10.2632C16.6189 10.204 16.6425 10.1472 16.6843 10.1054C16.7262 10.0635 16.7829 10.04 16.8421 10.04C16.9013 10.04 16.9581 10.0635 16.9999 10.1054C17.0418 10.1472 17.0653 10.204 17.0653 10.2632V11.5789Z" fill="#001423" stroke="white" stroke-width="0.08"/>
</svg>
