<?xml version="1.0" encoding="UTF-8" standalone="no"?>
<!-- Created with Inkscape (http://www.inkscape.org/) -->

<svg
   width="16"
   height="16"
   viewBox="0 0 4.2333332 4.2333332"
   version="1.1"
   id="svg1855"
   inkscape:version="1.1.1 (3bf5ae0d25, 2021-09-20)"
   sodipodi:docname="Get started16px for the browser.svg"
   xmlns:inkscape="http://www.inkscape.org/namespaces/inkscape"
   xmlns:sodipodi="http://sodipodi.sourceforge.net/DTD/sodipodi-0.dtd"
   xmlns="http://www.w3.org/2000/svg"
   xmlns:svg="http://www.w3.org/2000/svg">
  <sodipodi:namedview
     id="namedview1857"
     pagecolor="#ffffff"
     bordercolor="#666666"
     borderopacity="1.0"
     inkscape:pageshadow="2"
     inkscape:pageopacity="0.0"
     inkscape:pagecheckerboard="true"
     inkscape:document-units="px"
     showgrid="true"
     units="px"
     inkscape:zoom="11.313709"
     inkscape:cx="-1.5909903"
     inkscape:cy="23.732271"
     inkscape:window-width="1920"
     inkscape:window-height="1001"
     inkscape:window-x="-9"
     inkscape:window-y="-9"
     inkscape:window-maximized="1"
     inkscape:current-layer="g9139"
     inkscape:snap-to-guides="true"
     inkscape:snap-grids="true"
     inkscape:snap-page="true">
    <inkscape:grid
       type="xygrid"
       id="grid17525"
       empspacing="2"
       color="#f43f44"
       opacity="0.1254902"
       dotted="false"
       originx="2.1166666"
       originy="2.1166666" />
  </sodipodi:namedview>
  <defs
     id="defs1852">
    <clipPath
       id="clip0_1179:2925">
      <rect
         width="22"
         height="22"
         fill="white"
         transform="translate(0.742188)"
         id="rect14794" />
    </clipPath>
    <clipPath
       id="clip0_1179:2925-8">
      <rect
         width="22"
         height="22"
         fill="white"
         transform="translate(0.742188)"
         id="rect14794-5" />
    </clipPath>
    <clipPath
       id="clip0_1179:2925-86">
      <rect
         width="22"
         height="22"
         fill="white"
         transform="translate(0.742188)"
         id="rect14794-59" />
    </clipPath>
    <clipPath
       id="clip0_1179:2925-8-0">
      <rect
         width="22"
         height="22"
         fill="white"
         transform="translate(0.742188)"
         id="rect14794-5-7" />
    </clipPath>
  </defs>
  <g
     inkscape:label="Слой 1"
     inkscape:groupmode="layer"
     id="layer1">
    <g
       id="g2247"
       transform="matrix(0.03996005,0,0,0.03996005,5.8336198,-0.07935916)"
       inkscape:label="g2247">
      <path
         style="color:#000000;fill:#000000;-inkscape-stroke:none;stroke:none"
         d="m -133.76172,20.259766 c -6.07188,0 -11.14844,4.890411 -11.14844,10.943359 V 79.46875 c 0,5.704803 4.41466,10.914064 10.46875,10.943359 l 59.667973,0.289063 0.0332,-6.644531 -59.667963,-0.28711 c -2.61736,-0.01266 -3.85743,-1.561539 -3.85742,-4.300781 V 31.203125 c 0,-2.39111 1.90425,-4.298828 4.5039,-4.298828 h 73.046873 c 2.599614,0 4.486273,1.903991 4.503907,4.324219 l 0.294921,40.427734 6.642579,-0.04687 -0.292969,-40.429688 c -0.04389,-6.023603 -5.07649,-10.919921 -11.148438,-10.919921 z"
         id="rect3187" />
      <g
         style="fill:none;stroke:#000000;stroke-width:1.19587;stroke-miterlimit:4;stroke-dasharray:none;stroke-opacity:1"
         id="g9139"
         transform="matrix(6.6211963,0,0,6.6211963,-451.16614,-12.484757)">
        <g
           id="path9127"
           style="stroke:none">
          <path
             style="color:#000000;fill:#000000;stroke:none;stroke-width:0.0651428;-inkscape-stroke:none"
             d="m 59.296599,15.006695 v 0.03258 h 0.03257 1.071431 c 0.04812,0 0.09438,0.01922 0.128413,0.05325 0.03412,0.03412 0.05326,0.08028 0.05326,0.128494 0,0.04821 -0.01913,0.09445 -0.05326,0.128494 -0.03403,0.03412 -0.08029,0.05325 -0.128413,0.05325 h -1.071431 -0.03257 v 0.03257 1.07144 c 0,0.04813 -0.01913,0.09438 -0.05326,0.128413 -0.03403,0.03412 -0.08028,0.05325 -0.128493,0.05325 -0.04821,0 -0.09438,-0.01913 -0.128494,-0.05325 -0.03403,-0.03404 -0.05326,-0.08028 -0.05326,-0.128413 v -1.07144 -0.03257 h -0.03257 -1.071351 c -0.04821,0 -0.09446,-0.01914 -0.128494,-0.05325 -0.03412,-0.03404 -0.05326,-0.08028 -0.05326,-0.128494 0,-0.04821 0.01913,-0.09439 0.05326,-0.128494 0.03403,-0.03404 0.08029,-0.05325 0.128494,-0.05325 h 1.071351 0.03257 v -0.03258 -1.071359 c 0,-0.04821 0.01922,-0.09446 0.05326,-0.128494 0.03412,-0.03412 0.08029,-0.05325 0.128494,-0.05325 0.04821,0 0.09445,0.01914 0.128493,0.05325 0.03412,0.03404 0.05326,0.08028 0.05326,0.128494 z"
             id="path19987" />
          <path
             style="color:#000000;fill:#000000;stroke:none;-inkscape-stroke:none"
             d="m 59.115234,13.720703 c -0.05682,0 -0.112139,0.0223 -0.152343,0.0625 -0.04014,0.04013 -0.0625,0.09548 -0.0625,0.152344 v 1.070312 h -1.070313 c -0.05686,0 -0.112211,0.02431 -0.152344,0.06445 -0.04022,0.04019 -0.0625,0.09356 -0.0625,0.15039 0,0.05683 0.02225,0.112189 0.0625,0.152344 0.04015,0.04024 0.09551,0.0625 0.152344,0.0625 h 1.070313 v 1.070312 c 0,0.05681 0.02238,0.112213 0.0625,0.152344 0.0402,0.04021 0.09552,0.0625 0.152343,0.0625 0.05683,0 0.11024,-0.02224 0.150391,-0.0625 0.04027,-0.04015 0.06445,-0.09558 0.06445,-0.152344 v -1.070312 h 1.070313 c 0.05675,0 0.11219,-0.02224 0.152343,-0.0625 0.04026,-0.04016 0.0625,-0.09552 0.0625,-0.152344 0,-0.05683 -0.0223,-0.110191 -0.0625,-0.15039 -0.04013,-0.04013 -0.09555,-0.06445 -0.152343,-0.06445 h -1.070313 v -1.070312 c 0,-0.05683 -0.0242,-0.112189 -0.06445,-0.152344 -0.04016,-0.04024 -0.09356,-0.0625 -0.150391,-0.0625 z m 0,0.06641 c 0.03959,0 0.07754,0.01499 0.105469,0.04297 0.02799,0.02792 0.04297,0.06588 0.04297,0.105469 v 1.070312 0.06641 h 0.06641 1.070313 c 0.03945,0 0.07753,0.01504 0.105468,0.04297 0.02804,0.02804 0.04297,0.06588 0.04297,0.105469 0,0.03959 -0.01497,0.07754 -0.04297,0.105469 -0.02791,0.02798 -0.06598,0.04492 -0.105468,0.04492 h -1.070313 -0.06641 v 0.06445 1.070312 c 0,0.0395 -0.01498,0.07756 -0.04297,0.105469 -0.02791,0.02798 -0.06587,0.04492 -0.105469,0.04492 -0.03959,0 -0.07744,-0.01689 -0.105468,-0.04492 -0.02794,-0.02795 -0.04492,-0.06601 -0.04492,-0.105469 v -1.070312 -0.06445 h -0.06445 -1.070313 c -0.03959,0 -0.07755,-0.01694 -0.105469,-0.04492 -0.02799,-0.02792 -0.04492,-0.06588 -0.04492,-0.105469 0,-0.03959 0.01689,-0.07746 0.04492,-0.105469 0.02793,-0.02793 0.06592,-0.04297 0.105469,-0.04297 h 1.070313 0.06445 v -0.06641 -1.070312 c 0,-0.03955 0.01698,-0.07753 0.04492,-0.105469 0.02804,-0.02804 0.06588,-0.04297 0.105468,-0.04297 z"
             id="path19989" />
        </g>
        <path
           style="color:#000000;fill:#000000;stroke:none;stroke-linejoin:round;-inkscape-stroke:none;paint-order:stroke markers fill"
           d="m 57.691406,12.234375 c -0.853223,0 -1.552734,0.697558 -1.552734,1.550781 v 2.871094 c 0,0.853223 0.699511,1.552734 1.552734,1.552734 h 2.847656 c 0.853224,0 1.550782,-0.699511 1.550782,-1.552734 v -2.871094 c 0,-0.853223 -0.697558,-1.550781 -1.550782,-1.550781 z m 0,0.748047 h 2.847656 c 0.451715,0 0.802735,0.35102 0.802735,0.802734 v 2.871094 c 0,0.451714 -0.35102,0.804687 -0.802735,0.804687 h -2.847656 c -0.451714,0 -0.804687,-0.352973 -0.804687,-0.804687 v -2.871094 c 0,-0.451714 0.352973,-0.802734 0.804687,-0.802734 z"
           id="rect13661" />
      </g>
    </g>
  </g>
</svg>
