<svg width="21" height="16" viewBox="0 0 21 16" fill="none" xmlns="http://www.w3.org/2000/svg">
<rect x="0.299023" y="0.3" width="18.3741" height="14.4212" rx="1.7" stroke="#001423" stroke-width="0.6"/>
<rect x="12.999" y="8" width="8" height="8" rx="2.57052" fill="white"/>
<rect x="13.224" y="8.225" width="7.55" height="7.55" rx="1.32547" stroke="#001423" stroke-width="0.45"/>
<path d="M17.3817 12.034V12.074H17.4217H18.7375C18.7966 12.074 18.8534 12.0975 18.8953 12.1394C18.9371 12.1812 18.9606 12.238 18.9606 12.2972C18.9606 12.3564 18.9371 12.4131 18.8953 12.455C18.8534 12.4968 18.7966 12.5203 18.7375 12.5203H17.4217H17.3817V12.5603V13.8761C17.3817 13.9353 17.3582 13.9921 17.3163 14.0339C17.2745 14.0758 17.2177 14.0993 17.1585 14.0993C17.0993 14.0993 17.0426 14.0758 17.0007 14.0339C16.9589 13.9921 16.9354 13.9353 16.9354 13.8761V12.5603V12.5203H16.8954H15.5796C15.5204 12.5203 15.4636 12.4968 15.4218 12.455C15.3799 12.4131 15.3564 12.3564 15.3564 12.2972C15.3564 12.238 15.3799 12.1812 15.4218 12.1394C15.4636 12.0975 15.5204 12.074 15.5796 12.074H16.8954H16.9354V12.034V10.7182C16.9354 10.6591 16.9589 10.6023 17.0007 10.5604C17.0426 10.5186 17.0993 10.4951 17.1585 10.4951C17.2177 10.4951 17.2745 10.5186 17.3163 10.5604C17.3582 10.6023 17.3817 10.6591 17.3817 10.7182V12.034Z" fill="#001423" stroke="white" stroke-width="0.08"/>
</svg>
