<?xml version="1.0" encoding="UTF-8" standalone="no"?>
<svg
   width="16"
   height="16"
   viewBox="0 0 16 16"
   fill="none"
   version="1.1"
   id="svg8"
   sodipodi:docname="News icon 16px original.svg"
   inkscape:version="1.1.1 (3bf5ae0d25, 2021-09-20)"
   xmlns:inkscape="http://www.inkscape.org/namespaces/inkscape"
   xmlns:sodipodi="http://sodipodi.sourceforge.net/DTD/sodipodi-0.dtd"
   xmlns="http://www.w3.org/2000/svg"
   xmlns:svg="http://www.w3.org/2000/svg">
  <defs
     id="defs12">
    <clipPath
       id="clip0_1179:2925">
      <rect
         width="22"
         height="22"
         fill="#ffffff"
         transform="translate(0.742188)"
         id="rect14794"
         x="0"
         y="0" />
    </clipPath>
    <clipPath
       id="clip0_1179:2925-8">
      <rect
         width="22"
         height="22"
         fill="#ffffff"
         transform="translate(0.742188)"
         id="rect14794-5"
         x="0"
         y="0" />
    </clipPath>
    <clipPath
       id="clip0_1179:2925-84">
      <rect
         width="22"
         height="22"
         fill="#ffffff"
         transform="translate(0.742188)"
         id="rect14794-3"
         x="0"
         y="0" />
    </clipPath>
    <clipPath
       id="clip0_1179:2925-8-1">
      <rect
         width="22"
         height="22"
         fill="#ffffff"
         transform="translate(0.742188)"
         id="rect14794-5-2"
         x="0"
         y="0" />
    </clipPath>
    <clipPath
       id="clip0_1179:2925-3">
      <rect
         width="22"
         height="22"
         fill="#ffffff"
         transform="translate(0.742188)"
         id="rect14794-57"
         x="0"
         y="0" />
    </clipPath>
    <clipPath
       id="clip0_1179:2925-8-6">
      <rect
         width="22"
         height="22"
         fill="#ffffff"
         transform="translate(0.742188)"
         id="rect14794-5-1"
         x="0"
         y="0" />
    </clipPath>
    <clipPath
       id="clip0_1179:2925-86">
      <rect
         width="22"
         height="22"
         fill="#ffffff"
         transform="translate(0.742188)"
         id="rect14794-59"
         x="0"
         y="0" />
    </clipPath>
    <clipPath
       id="clip0_1179:2925-8-0">
      <rect
         width="22"
         height="22"
         fill="#ffffff"
         transform="translate(0.742188)"
         id="rect14794-5-7"
         x="0"
         y="0" />
    </clipPath>
  </defs>
  <sodipodi:namedview
     id="namedview10"
     pagecolor="#ffffff"
     bordercolor="#666666"
     borderopacity="1.0"
     inkscape:pageshadow="2"
     inkscape:pageopacity="0.0"
     inkscape:pagecheckerboard="0"
     showgrid="true"
     inkscape:snap-grids="false"
     inkscape:snap-to-guides="false"
     inkscape:snap-others="false"
     inkscape:object-nodes="false"
     inkscape:zoom="32"
     inkscape:cx="5.53125"
     inkscape:cy="5.859375"
     inkscape:window-width="1920"
     inkscape:window-height="1001"
     inkscape:window-x="-9"
     inkscape:window-y="-9"
     inkscape:window-maximized="1"
     inkscape:current-layer="svg8">
    <inkscape:grid
       type="xygrid"
       id="grid8859" />
  </sodipodi:namedview>
  <path
     style="color:#000000;fill:#001423;-inkscape-stroke:none"
     d="M 9.7421875,1.5957031 8.9238281,2.1933594 4.40625,5.4882812 4.1914062,5.6445312 v 0.2695313 4.4296875 0.269531 l 0.2148438,0.158203 4.484375,3.271485 c 0.022322,0.02982 0.030441,0.04565 0.078125,0.09375 0.039575,0.03992 0.085385,0.08362 0.1660156,0.126953 0.080631,0.04333 0.2448302,0.09769 0.4101563,0.01367 0.1660967,-0.08441 0.2197511,-0.250079 0.2324219,-0.341797 0.012671,-0.09172 0.00325,-0.156196 -0.00586,-0.212891 -0.010443,-0.06498 -0.018209,-0.07844 -0.029297,-0.115234 V 2.6191406 Z m -0.71875,1.4101563 V 13.251953 L 4.9082031,10.248047 V 6.0097656 Z"
     id="path2802" />
  <path
     style="color:#000000;fill:#001423;stroke-linejoin:round;-inkscape-stroke:none"
     d="M 2.2792969,5.2519531 C 1.986479,5.2523575 1.7069776,5.3563111 1.4941406,5.5488281 1.2824077,5.7403537 1.1547649,6.0118005 1.1542969,6.2949219 v 3.3007812 c 4.68e-4,0.2831211 0.1280582,0.5545429 0.3398437,0.7460939 0.2128332,0.192455 0.4924096,0.294445 0.7851563,0.294922 H 4.1152344 4.328125 A 0.40004001,0.40004001 0 0 0 4.7285156,10.238281 V 10.056641 5.8339844 5.6523437 A 0.40004001,0.40004001 0 0 0 4.328125,5.2519531 H 4.1152344 Z m 0,0.8007813 H 3.9277344 V 9.8378906 H 2.2792969 C 2.1779821,9.8377256 2.087418,9.7988371 2.03125,9.7480469 1.9755377,9.6976574 1.9555496,9.6450676 1.9550781,9.5957031 V 6.296875 6.2949219 C 1.9555489,6.2455567 1.9754854,6.1930207 2.03125,6.1425781 2.0874142,6.091776 2.1780534,6.0528742 2.2792969,6.0527344 Z"
     id="path2800" />
  <path
     style="color:#000000;fill:#001423;stroke-linejoin:round;-inkscape-stroke:none"
     d="m 2.4511719,10.099609 -0.039063,0.835938 1.6035156,0.07422 5.4589844,3.505859 0.453125,-0.703125 -5.4921875,-3.527344 -0.041016,-0.02734 A 0.41847685,0.41847685 0 0 0 4.2558594,10.201172 L 4.1835937,10.1875 a 0.41847685,0.41847685 0 0 0 -0.066406,-0.0098 z"
     id="path2796" />
  <path
     style="color:#000000;fill:#001423;stroke-linejoin:round;-inkscape-stroke:none"
     d="m 9.5957031,1.4238281 c -0.094348,0.00935 -0.1141932,0.033212 -0.1367187,0.046875 -0.022526,0.013663 -0.037606,0.024579 -0.050781,0.035156 -0.02635,0.021155 -0.045833,0.040053 -0.066406,0.060547 -0.041146,0.040988 -0.067734,0.059408 -0.1171875,0.140625 L 9.7070313,2 c -0.015857,0.00651 -0.010444,0.013581 -0.050781,0.017578 -0.1090094,0.01086 -0.1860627,-0.060031 -0.1992187,-0.078125 -0.013151,-0.018106 2.297e-4,-0.0029 0.00781,0.029297 0.00751,0.031928 0.011719,0.078616 0.011719,0.1269531 v 0.033203 11.7519527 c 0,0.04856 0.0015,0.03792 -0.011719,0.09375 a 0.29841784,0.29841784 0 0 0 0,0.002 c -0.00748,0.03185 -0.020727,0.04511 -0.00781,0.02734 0.013073,-0.01794 0.08896,-0.08856 0.1972656,-0.07813 0.110848,0.01019 0.1489285,0.07519 0.1542969,0.08399 l -0.5078125,0.3125 c 0.048359,0.07921 0.1382827,0.18125 0.296875,0.197265 0.1583411,0.01525 0.2836339,-0.08424 0.3417968,-0.164062 0.058086,-0.07992 0.08547,-0.157042 0.1054689,-0.242188 0.01449,-0.06123 0.0293,-0.141963 0.0293,-0.232422 V 2.1289063 2.0957031 c 0,-0.090677 -0.0092,-0.1784222 -0.0293,-0.2636719 C 10.024937,1.7471692 9.9978004,1.6682207 9.9394531,1.5878906 9.8812231,1.5078047 9.7547005,1.4079882 9.5957031,1.4238281 Z"
     id="path2792" />
  <path
     style="color:#000000;fill:#001423;stroke-linejoin:round;-inkscape-stroke:none"
     d="M 9.8203125,1.4648437 9.3476563,1.609375 A 0.41511252,0.41511252 0 0 0 9.2402344,1.6601562 L 4.2851562,4.9433594 H 2.6113281 C 2.1692697,4.9438313 1.7408045,5.1146336 1.421875,5.4257812 1.1023443,5.7375124 0.92036813,6.1663109 0.91992188,6.6152344 V 9.2792969 C 0.92034449,9.7283124 1.1022372,10.156999 1.421875,10.46875 c 0.3189552,0.311151 0.7474111,0.482 1.1894531,0.482422 V 10.121094 C 2.3832984,10.120876 2.1640539,10.033135 2.0019531,9.875 1.8397684,9.7168171 1.7502106,9.5030311 1.75,9.2792969 V 6.6152344 C 1.7502223,6.3915575 1.8397941,6.1777321 2.0019531,6.0195312 2.1640467,5.8613927 2.3832872,5.773681 2.6113281,5.7734375 H 4.3574219 4.40625 a 0.41511252,0.41511252 0 0 0 0.2226562,-0.064453 l 0.041016,-0.025391 a 0.41511252,0.41511252 0 0 0 0.00781,-0.00586 L 9.6484375,2.3867188 10.0625,2.2597656 Z"
     id="path2" />
  <g
     inkscape:label="Слой 1"
     id="layer1"
     transform="matrix(2.994428,0,0,2.9049639,8.5593533,11.848588)">
    <g
       id="g16029"
       transform="matrix(0.26458333,0,0,0.26458333,-3.8103718,-11.915347)"
       style="fill:#000000;fill-opacity:1;stroke:none">
      <g
         id="g15995"
         transform="matrix(0.19168328,0,0,0.19103966,14.775027,27.553143)"
         style="fill:#000000;fill-opacity:1;stroke:none">
        <path
           d="m 14.010506,80.366607 c -1.242909,-1.218525 -1.247782,-3.213596 -0.01089,-4.456504 2.234483,-2.245346 3.460776,-5.213449 3.453095,-8.358222 -0.0084,-3.144062 -1.249125,-6.087908 -3.49447,-8.289205 -1.24362,-1.219222 -1.248493,-3.214294 -0.0116,-4.457202 1.236896,-1.242908 3.246857,-1.262671 4.489765,-0.04415 3.446989,3.379368 5.352351,7.89967 5.364854,12.727426 0.01179,4.828467 -1.871393,9.386021 -5.302415,12.833721 -1.236188,1.242197 -3.246149,1.26196 -4.488345,0.04413 z"
           id="path15993"
           style="fill:#000000;fill-opacity:1;stroke:none" />
      </g>
      <path
         d="m 19.851536,44.765905 c -0.236549,-0.224784 -0.240246,-0.600605 -0.0083,-0.839496 0.950387,-0.978677 1.466577,-2.257422 1.453364,-3.600668 -0.01321,-1.343244 -0.554244,-2.590149 -1.523318,-3.511021 -0.236548,-0.224781 -0.240244,-0.600604 -0.0083,-0.839495 0.231985,-0.238891 0.611748,-0.250329 0.848295,-0.02555 1.197903,1.138319 1.866575,2.679527 1.883043,4.340066 0.01633,1.660412 -0.621633,3.24097 -1.796439,4.450743 -0.232122,0.238763 -0.611883,0.250201 -0.848431,0.02542 z"
         id="path15997"
         style="fill:#000000;fill-opacity:1;stroke:none;stroke-width:0.188682" />
      <g
         id="g16003"
         transform="matrix(0.12648622,0,0,0.12634239,14.756318,48.275763)"
         style="fill:#000000;fill-opacity:1;stroke:none" />
    </g>
  </g>
</svg>
