<svg width="22" height="20" viewBox="0 0 22 20" fill="none" xmlns="http://www.w3.org/2000/svg">
<path d="M12.571 0.322679L12.5707 0.322909L4.83995 5.68799L4.78209 5.72815H4.71167H2.25619C1.78472 5.7287 1.32927 5.92957 0.990831 6.29237C0.651923 6.65567 0.458868 7.15136 0.458398 7.67134L0.458398 11.7913C0.458843 12.3114 0.651947 12.8072 0.990948 13.1705C1.32941 13.5333 1.78485 13.7341 2.2563 13.7346C2.25637 13.7346 2.25645 13.7346 2.25652 13.7346M12.571 0.322679L2.25652 13.7346M12.571 0.322679C12.6487 0.268596 12.737 0.23894 12.8267 0.235176C12.9163 0.231413 13.0061 0.253571 13.0869 0.300645C13.1679 0.347901 13.2375 0.418876 13.2868 0.507786C13.3362 0.59678 13.3628 0.699547 13.3628 0.805129C13.3628 0.805156 13.3628 0.805183 13.3628 0.80521V18.6575C13.3628 18.763 13.3361 18.8657 13.2868 18.9546C13.2375 19.0434 13.1679 19.1142 13.087 19.1614C13.0062 19.2084 12.9164 19.2306 12.8268 19.2269C12.7371 19.2233 12.6487 19.1937 12.571 19.1398M12.571 0.322679L12.571 19.1398M2.25652 13.7346L4.71204 13.7346H4.78246L4.84032 13.7748L12.571 19.1398M2.25652 13.7346L12.571 19.1398M4.19003 12.5943H4.41503V12.3693V7.09348V6.86848H4.19003L2.2563 6.86848L2.25594 6.86848C2.04826 6.86882 1.85261 6.95753 1.71084 7.10947C1.56956 7.26089 1.49252 7.46304 1.49223 7.67094V7.67125L1.49223 11.7915L1.49223 11.7918C1.49252 11.9997 1.56956 12.2019 1.71084 12.3533C1.85261 12.5052 2.04826 12.5939 2.25594 12.5943H2.2563H4.19003ZM11.9757 17.3802L12.329 17.6255V17.1954V2.26736V1.83728L11.9757 2.08253L5.54555 6.54605L5.44885 6.61318V6.73089V12.7319V12.8496L5.54555 12.9167L11.9757 17.3802Z" fill="#001423" stroke="white" stroke-width="0.45"/>
<path d="M15.4379 6.79436L15.4379 6.79433L15.4347 6.79196C15.3215 6.70861 15.2401 6.57734 15.2136 6.42434C15.1871 6.27121 15.2189 6.11424 15.2994 5.98877C15.3795 5.86374 15.4996 5.7824 15.6301 5.75648C15.7597 5.73071 15.8951 5.76046 16.0074 5.84283C16.1828 5.97485 16.3469 6.12361 16.4978 6.28739L16.4986 6.28854L16.5093 6.30001C16.9224 6.74207 17.2508 7.2679 17.4752 7.84781C17.6995 8.42772 17.8152 9.04984 17.8152 9.67845C17.8152 10.3071 17.6995 10.9292 17.4752 11.5091C17.2508 12.089 16.9224 12.6148 16.5093 13.0569L16.5093 13.0569L16.5077 13.0587C16.3537 13.2271 16.1856 13.3797 16.0058 13.5146C15.8933 13.5965 15.7579 13.6257 15.6283 13.5995C15.498 13.573 15.3781 13.4912 15.2983 13.3659C15.2183 13.2401 15.187 13.083 15.214 12.93C15.241 12.7771 15.3228 12.6462 15.4362 12.5633L15.4362 12.5633L15.4397 12.5607C15.5657 12.4647 15.683 12.3567 15.7901 12.238C16.105 11.9008 16.354 11.5013 16.5238 11.0626C16.6938 10.6234 16.7811 10.1529 16.7811 9.67817C16.7811 9.20341 16.6938 8.73298 16.5238 8.29369C16.354 7.85493 16.1048 7.45534 15.7899 7.11811C15.682 6.99929 15.5642 6.89092 15.4379 6.79436Z" fill="#001423" stroke="white" stroke-width="0.45"/>
<path d="M18.4392 3.73856L18.4393 3.73855C18.3868 3.69042 18.3268 3.65476 18.2631 3.63279C18.1994 3.61083 18.1328 3.60276 18.0668 3.60876C18.0008 3.61476 17.9359 3.63479 17.8758 3.66834C17.8158 3.70191 17.7614 3.74855 17.7166 3.80633C17.6717 3.86414 17.6373 3.93175 17.6162 4.00548C17.5951 4.07922 17.5877 4.15704 17.5948 4.23424C17.6019 4.31143 17.6232 4.38581 17.6569 4.45302C17.6907 4.52021 17.7361 4.5785 17.7897 4.62502L17.792 4.62707L17.792 4.62709C17.9253 4.74605 18.0484 4.87186 18.1676 4.99864L18.1684 4.99945L18.1684 4.99946C19.3277 6.24478 19.9762 7.92898 19.9762 9.68189C19.9762 11.4348 19.3277 13.119 18.1684 14.3643L18.1678 14.3649C18.0472 14.4935 17.9244 14.6191 17.7916 14.7371L17.7897 14.7388L17.7897 14.7388C17.7361 14.7853 17.6907 14.8436 17.6569 14.9108C17.6232 14.978 17.6019 15.0524 17.5948 15.1296C17.5877 15.2067 17.5951 15.2846 17.6162 15.3583L17.3999 15.4203L17.6162 15.3583C17.6373 15.432 17.6717 15.4997 17.7166 15.5575M18.4392 3.73856L17.7166 15.5575M18.4392 3.73856L18.4416 3.74062M18.4392 3.73856L18.4416 3.74062M17.7166 15.5575C17.7614 15.6152 17.8158 15.6619 17.8758 15.6954L17.7661 15.8919M17.7166 15.5575L17.7661 15.8919M17.7661 15.8919L17.8758 15.6955C17.9359 15.729 18.0008 15.749 18.0668 15.755C18.1328 15.761 18.1994 15.753 18.2631 15.731C18.3268 15.709 18.3868 15.6734 18.4393 15.6252L18.4413 15.6234L18.4413 15.6234C18.5953 15.4857 18.741 15.3404 18.8879 15.1822L18.8881 15.182C20.2451 13.7244 21.0096 11.7461 21.0093 9.6807C21.0091 7.61549 20.2442 5.63761 18.8871 4.18039C18.7387 4.02264 18.594 3.87651 18.4416 3.74062M17.7661 15.8919L18.4416 3.74062" fill="#001423" stroke="white" stroke-width="0.45"/>
</svg>
