<?xml version="1.0" encoding="UTF-8" standalone="no"?>
<!-- Created with Inkscape (http://www.inkscape.org/) -->

<svg
   width="16"
   height="16"
   viewBox="0 0 4.2333332 4.2333335"
   version="1.1"
   id="svg14380"
   inkscape:version="1.1.1 (3bf5ae0d25, 2021-09-20)"
   sodipodi:docname="Palettee 16px.svg"
   xmlns:inkscape="http://www.inkscape.org/namespaces/inkscape"
   xmlns:sodipodi="http://sodipodi.sourceforge.net/DTD/sodipodi-0.dtd"
   xmlns="http://www.w3.org/2000/svg"
   xmlns:svg="http://www.w3.org/2000/svg">
  <sodipodi:namedview
     id="namedview14382"
     pagecolor="#ffffff"
     bordercolor="#666666"
     borderopacity="1.0"
     inkscape:pageshadow="2"
     inkscape:pageopacity="0.0"
     inkscape:pagecheckerboard="0"
     inkscape:document-units="px"
     showgrid="true"
     inkscape:zoom="15.714698"
     inkscape:cx="-0.82725102"
     inkscape:cy="15.11324"
     inkscape:window-width="1920"
     inkscape:window-height="1001"
     inkscape:window-x="-9"
     inkscape:window-y="-9"
     inkscape:window-maximized="1"
     inkscape:current-layer="g3807"
     units="px"
     height="16px"
     showguides="true"
     inkscape:guide-bbox="true">
    <sodipodi:guide
       position="4.7984535,-1.2217509"
       orientation="0,-1"
       id="guide826" />
    <inkscape:grid
       type="xygrid"
       id="grid828" />
  </sodipodi:namedview>
  <defs
     id="defs14377" />
  <g
     inkscape:label="Слой 1"
     inkscape:groupmode="layer"
     id="layer1">
    <g
       style="fill:none"
       id="g1821"
       transform="matrix(0.19242424,0,0,0.19242424,-3.3663956,-0.80428116)">
      <g
         id="g12609"
         transform="matrix(0.12915535,0,0,0.12581854,59.818461,16.339168)"
         style="fill:none;stroke-width:3.92231;stroke-miterlimit:4;stroke-dasharray:none" />
      <g
         style="fill:#808080;stroke:#141c1c;stroke-width:0.754602;stroke-miterlimit:4;stroke-dasharray:none;stroke-opacity:1"
         id="g3807"
         transform="matrix(0.88910713,0,0,0.8886046,16.865272,3.634797)">
        <path
           d="m 24.337208,8.7024264 1.98e-4,7.9e-4 c 0.0015,0.00426 0.002,0.00819 0.0022,0.011356 z m 0,0 C 22.633924,3.979398 18.075601,0.80634137 12.996459,0.80634137 c -6.6360476,0 -12.03506586,5.33116333 -12.03506586,11.88428663 0,6.545717 5.38769126,11.871562 12.01373486,11.883017 l 0.0019,0.0012 0.01076,-5.92e-4 0.0039,-1.98e-4 0.0024,1.98e-4 v 9.9e-5 h 0.0025 c 1.678104,-0.0024 3.385042,-0.511432 4.673271,-1.445914 1.28882,-0.934878 2.159718,-2.296753 2.159718,-4.002284 0,-1.204072 -0.888872,-2.192669 -2.035389,-2.352942 l -0.0043,-0.0033 -5.92e-4,-3.95e-4 c -0.0051,-0.004 -0.01846,-0.01462 -0.03742,-0.01462 -0.968664,0 -1.752364,-0.740534 -1.752364,-1.645489 0,-0.90614 0.783996,-1.645983 1.752364,-1.645983 0.661544,0 1.259195,0.34711 1.561871,0.90446 l -0.0025,0.0014 0.0078,0.0064 c 0.120676,0.255273 0.31512,0.548858 0.531092,0.816376 0.217848,0.269789 0.4592,0.515184 0.671123,0.668644 v 0 c 0.391158,0.28223 0.81392,0.405076 1.224038,0.405076 0.703514,0 1.366835,-0.361725 1.774979,-0.895079 l 0.0034,-0.0014 0.0058,-0.0083 0.0013,-0.002 0.0016,-0.0016 0.0068,-0.0072 0.0011,-0.0056 c 1.214659,-1.53795 1.5281,-4.131056 0.806316,-6.616098 z m -3.508088,6.5204766 -9.8e-5,-9.9e-5 C 20.64781,15.092453 20.438257,14.871942 20.253097,14.637802 20.068034,14.403763 19.909635,14.159057 19.829645,13.981799 l -9.9e-5,-1.98e-4 c -0.0022,-0.0049 -0.0052,-0.0086 -0.0079,-0.01166 -5.92e-4,-0.0034 -0.0017,-0.0075 -0.0039,-0.01165 h 9.8e-5 l -6.9e-4,-0.0012 c -0.414366,-0.760581 -1.204585,-1.233697 -2.065412,-1.233697 -1.299682,0 -2.356238,1.070363 -2.356238,2.385036 0,1.204073 0.888972,2.191683 2.035489,2.35166 l 0.0043,0.0033 c 0.0044,0.0034 0.01816,0.015 0.03792,0.015 0.968664,0 1.752364,0.740535 1.752364,1.646773 0,1.470008 -0.788441,2.645739 -1.9632,3.455597 -1.175158,0.810154 -2.735152,1.252362 -4.27046,1.253548 -6.3017097,-0.0017 -11.426644,-5.001054 -11.426644,-11.143669 0,-6.144906 5.1273241,-11.1452572 11.431187,-11.1452572 4.838878,0 9.168587,2.9891269 10.782106,7.4395134 0.637547,2.1985068 0.360349,4.5510528 -0.681196,5.8579258 l -1.97e-4,-3.95e-4 -0.0018,0.0024 -0.0013,-9.88e-4 -0.0019,0.0053 -0.0036,0.0048 c -0.195924,0.261395 -0.542942,0.513407 -0.950592,0.619762 -0.406366,0.106058 -0.872084,0.06726 -1.308966,-0.250631 z m -1.016954,-1.260459 c -0.0012,-6.92e-4 -8.88e-4,-6.92e-4 0,0 z m -9.503063,2.483788 c -1.4645106,0 -2.6551904,1.201801 -2.6551904,2.679611 0,1.476033 1.1906897,2.678129 2.6551904,2.678129 1.463909,0 2.65457,-1.201701 2.65457,-2.678129 0,-1.477415 -1.190661,-2.679611 -2.65457,-2.679611 z m 0,4.618785 c -1.1328795,0 -2.0515751,-0.871576 -2.0515751,-1.939174 0,-1.067697 0.9187252,-1.940559 2.0515751,-1.940559 1.132793,0 2.050994,0.872862 2.050994,1.940559 -2.96e-4,1.067598 -0.918201,1.939174 -2.050994,1.939174 z M 8.2706916,13.232081 c 0,-1.476724 -1.19067,-2.679512 -2.6551414,-2.679512 -1.4644716,0 -2.6551417,1.202393 -2.6551417,2.679512 0,1.477119 1.19068,2.678821 2.6551417,2.678821 1.4644616,0 2.6551414,-1.201702 2.6551414,-2.678821 z m -2.6551414,1.939866 c -1.1328307,0 -2.0515262,-0.871577 -2.0515262,-1.939866 0,-1.06829 0.9187152,-1.940559 2.0515262,-1.940559 1.1328109,0 2.0515261,0.872269 2.0515261,1.940559 0,1.068289 -0.9186956,1.939866 -2.0515261,1.939866 z M 9.5414205,9.2858677 c 1.4644825,0 2.6551425,-1.2017813 2.6551425,-2.6788707 0,-1.4770893 -1.19066,-2.6788705 -2.6551425,-2.6788705 -1.4644618,0 -2.6551416,1.2017812 -2.6551416,2.6788705 0,1.4770894 1.1906798,2.6788707 2.6551416,2.6788707 z m 0,-4.6187176 c 1.1328705,0 2.0515655,0.8721994 2.0515655,1.9398469 0,1.0676475 -0.918695,1.9398471 -2.0515655,1.9398471 -1.1328208,0 -2.0515262,-0.8721996 -2.0515262,-1.9398471 0,-1.0676376 0.9189621,-1.9398469 2.0515262,-1.9398469 z M 17.014504,4.330389 c -1.464993,0 -2.655654,1.2017714 -2.655654,2.6788707 0,1.4770993 1.190661,2.6788705 2.655654,2.6788705 1.463909,0 2.654569,-1.201781 2.654569,-2.6788705 0,-1.4770894 -1.19066,-2.6788707 -2.654569,-2.6788707 z m 0,4.6187177 c -1.132889,0 -2.052079,-0.8722093 -2.052079,-1.939847 0,-1.0676377 0.91919,-1.9398469 2.052079,-1.9398469 1.132792,0 2.050994,0.8721894 2.050994,1.9398469 0,1.0676575 -0.918202,1.939847 -2.050994,1.939847 z"
           fill="#000000"
           stroke="#000000"
           stroke-width="0.0685714"
           id="path3798"
           style="fill:#808080;stroke:#141c1c;stroke-width:0.745184;stroke-miterlimit:4;stroke-dasharray:none;stroke-opacity:1" />
      </g>
    </g>
    <g
       style="fill:none"
       id="g3198"
       transform="matrix(0.26458333,0,0,0.26458333,-6.4583586,2.5781526)" />
  </g>
</svg>
