<?xml version="1.0" encoding="UTF-8" standalone="no"?>
<!-- Created with Inkscape (http://www.inkscape.org/) -->

<svg
   width="30"
   height="30"
   viewBox="0 0 30 30"
   version="1.1"
   id="svg14380"
   sodipodi:docname="Print page 16px.svg"
   inkscape:version="1.1.1 (3bf5ae0d25, 2021-09-20)"
   xmlns:inkscape="http://www.inkscape.org/namespaces/inkscape"
   xmlns:sodipodi="http://sodipodi.sourceforge.net/DTD/sodipodi-0.dtd"
   xmlns="http://www.w3.org/2000/svg"
   xmlns:svg="http://www.w3.org/2000/svg">
  <sodipodi:namedview
     id="namedview14382"
     pagecolor="#ffffff"
     bordercolor="#666666"
     borderopacity="1.0"
     inkscape:pageshadow="2"
     inkscape:pageopacity="0.0"
     inkscape:pagecheckerboard="0"
     inkscape:document-units="px"
     showgrid="true"
     inkscape:zoom="5.6568543"
     inkscape:cx="-31.731417"
     inkscape:cy="47.464543"
     inkscape:window-width="1920"
     inkscape:window-height="1017"
     inkscape:window-x="-8"
     inkscape:window-y="-8"
     inkscape:window-maximized="1"
     inkscape:current-layer="svg14380"
     units="px"
     height="16px"
     inkscape:snap-grids="true"
     inkscape:snap-to-guides="false"
     inkscape:snap-global="false"
     inkscape:snap-others="false"
     inkscape:object-nodes="false"
     scale-x="1"
     showguides="true"
     inkscape:guide-bbox="true"
     inkscape:object-paths="true"
     inkscape:snap-intersection-paths="true"
     inkscape:snap-nodes="false"
     inkscape:snap-page="false"
     inkscape:lockguides="false">
    <inkscape:grid
       type="xygrid"
       id="grid828" />
    <inkscape:grid
       type="xygrid"
       id="grid4559" />
    <sodipodi:guide
       position="8.3416503,26.000427"
       orientation="0,-1"
       id="guide1135"
       inkscape:locked="false" />
    <sodipodi:guide
       position="16.46875,3.96875"
       orientation="0,-1"
       id="guide1137"
       inkscape:locked="false" />
    <sodipodi:guide
       position="26.03125,9.90625"
       orientation="1,0"
       id="guide1139"
       inkscape:locked="false" />
    <sodipodi:guide
       position="4,12.8125"
       orientation="1,0"
       id="guide1141"
       inkscape:locked="false" />
  </sodipodi:namedview>
  <defs
     id="defs14377">
    <clipPath
       id="clip0_1179:2925">
      <rect
         width="22"
         height="22"
         fill="#ffffff"
         transform="translate(0.742188)"
         id="rect14794"
         x="0"
         y="0" />
    </clipPath>
    <clipPath
       id="clip0_1179:2925-8">
      <rect
         width="22"
         height="22"
         fill="#ffffff"
         transform="translate(0.742188)"
         id="rect14794-5"
         x="0"
         y="0" />
    </clipPath>
  </defs>
  <path
     style="display:inline;fill:none;stroke:#000000;stroke-width:1;stroke-miterlimit:4;stroke-dasharray:none;stroke-opacity:1"
     d="m 10.5,21.258737 c -7.8e-5,0.06386 0.0225,0.125087 0.06261,0.170308 0.04018,0.04521 0.09475,0.07072 0.151683,0.07096 h 8.571373 c 0.05696,-2.41e-4 0.111493,-0.02579 0.15166,-0.07096 0.04017,-0.0452 0.06273,-0.106454 0.06268,-0.170308 V 15.5 h -8.999982 z"
     id="path1000" />
  <path
     style="display:inline;fill:none;stroke:#000000;stroke-width:1;stroke-miterlimit:4;stroke-dasharray:none;stroke-opacity:1"
     d="m 10.499584,7.7191244 c -5.4e-5,-0.058074 0.02249,-0.1137952 0.06267,-0.1549535 0.04018,-0.041155 0.0947,-0.064384 0.15166,-0.064589 h 8.571369 c 0.05694,2.062e-4 0.111503,0.023433 0.151683,0.064589 0.04019,0.041159 0.06268,0.096879 0.06261,0.1549535 v 2.7804576 h -8.99998 z"
     id="path1002" />
  <path
     style="display:inline;fill:none;stroke:#000000;stroke-width:0.999855;stroke-miterlimit:4;stroke-dasharray:none;stroke-opacity:1"
     d="M 9.7826369,18.5 H 8.5449579 C 8.2672952,18.49903 8.0013403,18.38388 7.805432,18.179879 7.6095235,17.975881 7.4996559,17.699624 7.4999355,17.411723 l -7.9e-6,-5.823417 C 7.4996481,11.300406 7.6095159,11.024141 7.8054243,10.820121 8.0013325,10.616096 8.2672874,10.500975 8.5449502,10.5 H 21.455043 c 0.27764,9.68e-4 0.543633,0.116096 0.739517,0.320121 0.195885,0.20402 0.305746,0.480285 0.305513,0.768185 v 5.823417 c 2.33e-4,0.287901 -0.109628,0.564158 -0.305513,0.768156 C 21.998676,18.38388 21.732683,18.499025 21.455043,18.5 h -1.237656"
     id="path1004"
     sodipodi:nodetypes="ccscccccsccscc" />
  <path
     style="display:inline;fill:none;stroke:#000000;stroke-width:1;stroke-miterlimit:4;stroke-dasharray:none;stroke-opacity:1"
     d="m 19.997729,12.500005 c 0.09898,-4.51e-4 0.195896,0.02849 0.278377,0.08316 0.08256,0.05466 0.146974,0.132597 0.185157,0.223923 0.03819,0.09133 0.04842,0.191934 0.02945,0.289073 -0.01906,0.09714 -0.06655,0.186439 -0.136381,0.256596 -0.06982,0.07015 -0.158917,0.11799 -0.255974,0.137466 -0.09706,0.01948 -0.197676,0.0097 -0.289187,-0.02808 C 19.717651,13.424363 19.639435,13.360265 19.5844,13.277988 19.52937,13.195708 19.5,13.098944 19.5,12.999956 c -1.41e-4,-0.132252 0.0522,-0.259158 0.145481,-0.352878 0.09336,-0.09372 0.22,-0.146617 0.352256,-0.147074 z"
     id="path1008" />
</svg>
