<svg width="22" height="23" viewBox="0 0 22 23" fill="none" xmlns="http://www.w3.org/2000/svg">
<path d="M2.92809 17.4834H4.52223V21.3017C4.52187 21.6207 4.6396 21.9268 4.84956 22.1528C5.05953 22.3788 5.34459 22.5064 5.64219 22.5074H16.8422C17.1398 22.5064 17.4248 22.3788 17.6348 22.1528C17.8448 21.9268 17.9625 21.6207 17.9621 21.3017V17.4834H19.5563C20.1371 17.4814 20.6934 17.2324 21.1032 16.7913C21.513 16.3501 21.7428 15.7528 21.7422 15.1303V7.37716C21.7428 6.75465 21.513 6.15729 21.1032 5.71614C20.6934 5.27499 20.1371 5.02608 19.5563 5.024H17.9622V1.20571C17.9625 0.886747 17.8448 0.580661 17.6348 0.354618C17.4248 0.128576 17.1398 0.00104101 16.8422 0H5.64219C5.34459 0.00104365 5.05953 0.128579 4.84957 0.354622C4.6396 0.580664 4.52188 0.886749 4.52223 1.20571V5.024H2.9281C2.34729 5.02607 1.79095 5.27499 1.38116 5.71614C0.971359 6.15729 0.741566 6.75465 0.742189 7.37716V15.1303C0.741566 15.7528 0.971358 16.3501 1.38115 16.7913C1.79095 17.2324 2.34728 17.4813 2.92809 17.4834ZM17.1222 21.3017C17.1223 21.3815 17.0928 21.458 17.0404 21.5145C16.9879 21.571 16.9166 21.6029 16.8422 21.6032H5.64219C5.56778 21.6029 5.49651 21.571 5.44402 21.5145C5.39152 21.458 5.36207 21.3815 5.36214 21.3017V14.1062H17.1222L17.1222 21.3017ZM5.36214 1.20571C5.36207 1.12596 5.39152 1.04944 5.44402 0.992919C5.49651 0.936402 5.56778 0.904504 5.64219 0.904221H16.8422C16.9166 0.904504 16.9879 0.936402 17.0404 0.992919C17.0929 1.04944 17.1223 1.12596 17.1222 1.20571V5.024H5.36214V1.20571ZM1.5821 7.37716C1.58174 6.99386 1.72325 6.62605 1.97558 6.35442C2.22791 6.08279 2.57046 5.92952 2.92809 5.92822H19.5563C19.9139 5.92952 20.2565 6.08279 20.5088 6.35442C20.7611 6.62605 20.9026 6.99386 20.9023 7.37716V15.1303C20.9026 15.5136 20.7611 15.8814 20.5088 16.153C20.2565 16.4246 19.9139 16.5779 19.5563 16.5792H17.9622V13.202H4.52223V16.5792H2.9281C2.57047 16.5779 2.22792 16.4246 1.97559 16.153C1.72326 15.8814 1.58175 15.5136 1.58211 15.1303L1.5821 7.37716ZM18.3355 10.3494C18.6417 10.3508 18.9415 10.2549 19.1968 10.0736C19.4521 9.89232 19.6514 9.63391 19.7696 9.33111C19.8877 9.0283 19.9193 8.69473 19.8604 8.37264C19.8015 8.05055 19.6548 7.75444 19.4387 7.52183C19.2227 7.28922 18.9471 7.13058 18.6468 7.066C18.3466 7.00141 18.0352 7.0338 17.7521 7.15906C17.4691 7.28431 17.2271 7.49679 17.0568 7.76959C16.8865 8.04238 16.7956 8.36321 16.7956 8.69142C16.7951 9.12999 16.957 9.55086 17.2457 9.86168C17.5344 10.1725 17.9263 10.3479 18.3355 10.3494ZM18.3355 7.93782C18.4747 7.93714 18.611 7.98077 18.727 8.06318C18.8431 8.14558 18.9337 8.26305 18.9874 8.40071C19.0411 8.53837 19.0555 8.69002 19.0288 8.83644C19.002 8.98286 18.9352 9.11747 18.837 9.22322C18.7388 9.32896 18.6135 9.40107 18.477 9.43043C18.3405 9.45978 18.199 9.44504 18.0703 9.38809C17.9416 9.33114 17.8316 9.23453 17.7542 9.11051C17.6768 8.98649 17.6355 8.84063 17.6355 8.69142C17.6353 8.49207 17.7089 8.30078 17.8401 8.15951C17.9714 8.01824 18.1495 7.93851 18.3355 7.93782Z" fill="#092B4A"/>
</svg>
