<svg width="22" height="24" viewBox="0 0 22 24" fill="none" xmlns="http://www.w3.org/2000/svg">
<path d="M2.92809 18.4834H4.52223V22.3017C4.52187 22.6207 4.6396 22.9268 4.84956 23.1528C5.05953 23.3788 5.34459 23.5064 5.64219 23.5074H16.8422C17.1398 23.5064 17.4248 23.3788 17.6348 23.1528C17.8448 22.9268 17.9625 22.6207 17.9621 22.3017V18.4834H19.5563C20.1371 18.4814 20.6934 18.2324 21.1032 17.7913C21.513 17.3501 21.7428 16.7528 21.7422 16.1303V8.37716C21.7428 7.75465 21.513 7.15729 21.1032 6.71614C20.6934 6.27499 20.1371 6.02608 19.5563 6.024H17.9622V2.20571C17.9625 1.88675 17.8448 1.58066 17.6348 1.35462C17.4248 1.12858 17.1398 1.00104 16.8422 1H5.64219C5.34459 1.00104 5.05953 1.12858 4.84957 1.35462C4.6396 1.58066 4.52188 1.88675 4.52223 2.20571V6.024H2.9281C2.34729 6.02607 1.79095 6.27499 1.38116 6.71614C0.971359 7.15729 0.741566 7.75465 0.742189 8.37716V16.1303C0.741566 16.7528 0.971358 17.3501 1.38115 17.7913C1.79095 18.2324 2.34728 18.4813 2.92809 18.4834ZM17.1222 22.3017C17.1223 22.3815 17.0928 22.458 17.0404 22.5145C16.9879 22.571 16.9166 22.6029 16.8422 22.6032H5.64219C5.56778 22.6029 5.49651 22.571 5.44402 22.5145C5.39152 22.458 5.36207 22.3815 5.36214 22.3017V15.1062H17.1222L17.1222 22.3017ZM5.36214 2.20571C5.36207 2.12596 5.39152 2.04944 5.44402 1.99292C5.49651 1.9364 5.56778 1.9045 5.64219 1.90422H16.8422C16.9166 1.9045 16.9879 1.9364 17.0404 1.99292C17.0929 2.04944 17.1223 2.12596 17.1222 2.20571V6.024H5.36214V2.20571ZM1.5821 8.37716C1.58174 7.99386 1.72325 7.62605 1.97558 7.35442C2.22791 7.08279 2.57046 6.92952 2.92809 6.92822H19.5563C19.9139 6.92952 20.2565 7.08279 20.5088 7.35442C20.7611 7.62605 20.9026 7.99386 20.9023 8.37716V16.1303C20.9026 16.5136 20.7611 16.8814 20.5088 17.153C20.2565 17.4246 19.9139 17.5779 19.5563 17.5792H17.9622V14.202H4.52223V17.5792H2.9281C2.57047 17.5779 2.22792 17.4246 1.97559 17.153C1.72326 16.8814 1.58175 16.5136 1.58211 16.1303L1.5821 8.37716ZM18.3355 11.3494C18.6417 11.3508 18.9415 11.2549 19.1968 11.0736C19.4521 10.8923 19.6514 10.6339 19.7696 10.3311C19.8877 10.0283 19.9193 9.69473 19.8604 9.37264C19.8015 9.05055 19.6548 8.75444 19.4387 8.52183C19.2227 8.28922 18.9471 8.13058 18.6468 8.066C18.3466 8.00141 18.0352 8.0338 17.7521 8.15906C17.4691 8.28431 17.2271 8.49679 17.0568 8.76959C16.8865 9.04238 16.7956 9.36321 16.7956 9.69142C16.7951 10.13 16.957 10.5509 17.2457 10.8617C17.5344 11.1725 17.9263 11.3479 18.3355 11.3494ZM18.3355 8.93782C18.4747 8.93714 18.611 8.98077 18.727 9.06318C18.8431 9.14558 18.9337 9.26305 18.9874 9.40071C19.0411 9.53837 19.0555 9.69002 19.0288 9.83644C19.002 9.98286 18.9352 10.1175 18.837 10.2232C18.7388 10.329 18.6135 10.4011 18.477 10.4304C18.3405 10.4598 18.199 10.445 18.0703 10.3881C17.9416 10.3311 17.8316 10.2345 17.7542 10.1105C17.6768 9.98649 17.6355 9.84063 17.6355 9.69142C17.6353 9.49207 17.7089 9.30078 17.8401 9.15951C17.9714 9.01824 18.1495 8.93851 18.3355 8.93782Z" fill="#092B4A" stroke="white" stroke-width="0.3"/>
</svg>
