<svg width="17" height="16" viewBox="0 0 17 16" fill="none" xmlns="http://www.w3.org/2000/svg">
<path d="M6.39491 6.02167H6.34491V6.07167V9.92861V9.97861H6.39491H10.2518H10.3018V9.92861V6.07167V6.02167H10.2518H6.39491ZM10.9161 5.40742V10.5929H5.73066V5.40742H10.9161Z" fill="black" stroke="white" stroke-width="0.1"/>
<path d="M7.49824 7.175H9.14815V8.82491H7.49824V7.175Z" fill="black" stroke="white" stroke-width="0.1"/>
<path d="M12.8547 7.175H14.5046V8.82491H12.8547V7.175Z" fill="black" stroke="white" stroke-width="0.1"/>
<path d="M3.4084 5.90742H5.0583V7.55733H3.4084V5.90742Z" fill="black" stroke="white" stroke-width="0.1"/>
<path d="M0.909375 8.44258H2.55928V10.0925H0.909375V8.44258Z" fill="black" stroke="white" stroke-width="0.1"/>
<path d="M1.03749 0.664248H0.98749V0.714248V4.57118V4.62118H1.03749H4.89443H4.94443V4.57118V0.714248V0.664248H4.89443H1.03749ZM5.55867 0.05V5.23543H0.373242V0.05H5.55867Z" fill="black" stroke="white" stroke-width="0.1"/>
<path d="M2.14082 1.81758H3.79073V3.46748H2.14082V1.81758Z" fill="black" stroke="white" stroke-width="0.1"/>
<path d="M1.03749 11.3781H0.98749V11.4281V15.2851V15.3351H1.03749H4.89443H4.94443V15.2851V11.4281V11.3781H4.89443H1.03749ZM5.55867 10.7639V15.9493H0.373242V10.7639H5.55867Z" fill="black" stroke="white" stroke-width="0.1"/>
<path d="M2.14082 12.5314H3.79073V14.1814H2.14082V12.5314Z" fill="black" stroke="white" stroke-width="0.1"/>
<path d="M11.7014 4.57118V4.62118H11.7514H15.6083V4.57118H15.6583V0.714248V0.664248H15.6083H11.7514H11.7014V0.714248V4.57118ZM11.0871 5.23543V0.05H16.2725V5.23543H11.0871Z" fill="black" stroke="white" stroke-width="0.1"/>
<path d="M12.8547 1.81758H14.5046V3.46748H12.8547V1.81758Z" fill="black" stroke="white" stroke-width="0.1"/>
<path d="M11.7514 11.3781H11.7014V11.4281V14.1815H11.0871V10.7639H14.5226V11.3781H11.7514Z" fill="black" stroke="white" stroke-width="0.1"/>
<path d="M15.6081 15.3354H15.6581V15.2854V12.4963H16.2724V15.9497H12.8547V15.3354H15.6081Z" fill="black" stroke="white" stroke-width="0.1"/>
<path d="M15.6086 9.44232H15.6586V9.39232V7.13887H16.2729V10.0566H14.6408V9.44232H15.6086Z" fill="black" stroke="white" stroke-width="0.1"/>
<path d="M4.35862 9.44224H4.40862V9.39224V8.33516H5.02287V10.0565H3.39082V9.44224H4.35862Z" fill="black" stroke="white" stroke-width="0.1"/>
<path d="M1.55507 6.4494H1.50507V6.4994V7.55649H0.89082V5.83516H2.52287V6.4494H1.55507Z" fill="black" stroke="white" stroke-width="0.1"/>
<path d="M9.85546 1.16054V1.11054H9.80546H8.67695V0.496289H10.4697V2.12834H9.85546V1.16054Z" fill="black" stroke="white" stroke-width="0.1"/>
<path d="M8.26902 13.3533H8.31902V13.3033V11.7463H8.93326V12.7141V12.7641H8.98326H10.1118V13.3783H8.37615H8.32615V13.4283V14.9854H7.71191V14.0176V13.9676H7.66191H6.5334V13.3533H8.26902Z" fill="black" stroke="white" stroke-width="0.1"/>
<path d="M6.60566 0.942578H8.25557V2.59248H6.60566V0.942578Z" fill="black" stroke="white" stroke-width="0.1"/>
<path d="M8.39082 2.72871H10.0407V4.37862H8.39082V2.72871Z" fill="black" stroke="white" stroke-width="0.1"/>
</svg>
