<?xml version="1.0" encoding="UTF-8" standalone="no"?>
<svg
   width="30"
   height="30"
   viewBox="0 0 30 30"
   fill="none"
   version="1.1"
   id="svg4"
   sodipodi:docname="Reading list 16px 2.svg"
   inkscape:version="1.1.1 (3bf5ae0d25, 2021-09-20)"
   xmlns:inkscape="http://www.inkscape.org/namespaces/inkscape"
   xmlns:sodipodi="http://sodipodi.sourceforge.net/DTD/sodipodi-0.dtd"
   xmlns="http://www.w3.org/2000/svg"
   xmlns:svg="http://www.w3.org/2000/svg">
  <defs
     id="defs8" />
  <sodipodi:namedview
     id="namedview6"
     pagecolor="#ffffff"
     bordercolor="#666666"
     borderopacity="1.0"
     inkscape:pageshadow="2"
     inkscape:pageopacity="0.0"
     inkscape:pagecheckerboard="0"
     showgrid="true"
     inkscape:zoom="11.313708"
     inkscape:cx="3.9332816"
     inkscape:cy="19.666408"
     inkscape:window-width="1920"
     inkscape:window-height="1001"
     inkscape:window-x="-9"
     inkscape:window-y="-9"
     inkscape:window-maximized="1"
     inkscape:current-layer="svg4"
     width="30px">
    <inkscape:grid
       type="xygrid"
       id="grid825" />
  </sodipodi:namedview>
  <path
     style="stroke:#060909;stroke-width:0.999581;stroke-linejoin:round;stroke-miterlimit:4;stroke-dasharray:none;stroke-opacity:1"
     d="M 22.500209,17.999791 H 8.9451851 c -0.2459883,0 -0.4453943,0.21927 -0.4453943,0.489743 v 1.520934 c 0,0.270476 0.199406,0.489741 0.4453943,0.489741 H 22.500209 Z"
     id="path1083" />
  <path
     style="stroke:#060909;stroke-width:0.999573;stroke-linejoin:round;stroke-miterlimit:4;stroke-dasharray:none;stroke-opacity:1"
     d="M 7.9451856,14.999786 H 21.500214 v 2.500428 H 7.9451856 c -0.2459869,0 -0.4453992,-0.219272 -0.4453992,-0.489743 v -1.520944 c 0,-0.27047 0.1994123,-0.489741 0.4453992,-0.489741 z"
     id="path2452" />
  <path
     style="stroke:#060909;stroke-width:0.999573;stroke-linejoin:round;stroke-miterlimit:4;stroke-dasharray:none;stroke-opacity:1"
     d="M 7.9451856,14.999786 H 21.500214 v 2.500428 H 7.9451856 c -0.2459869,0 -0.4453992,-0.219272 -0.4453992,-0.489743 v -1.520944 c 0,-0.27047 0.1994123,-0.489741 0.4453992,-0.489741 z"
     id="path1081" />
  <path
     style="stroke:#060909;stroke-width:0.999572;stroke-linejoin:round;stroke-miterlimit:4;stroke-dasharray:none;stroke-opacity:1"
     d="M 8.9451806,11.999786 H 22.500214 v 2.50043 H 8.9451806 c -0.2459885,0 -0.4453946,-0.219259 -0.4453946,-0.489739 v -1.520941 c 0,-0.270481 0.1994061,-0.48975 0.4453946,-0.48975 z"
     id="path1079" />
  <path
     style="stroke:#060909;stroke-width:0.999574;stroke-linejoin:round;stroke-miterlimit:4;stroke-dasharray:none;stroke-opacity:1"
     d="M 7.9451905,8.9997861 H 21.500213 V 11.500214 H 7.9451905 c -0.2459916,0 -0.4454037,-0.219268 -0.4454037,-0.489747 V 9.4895266 c 0,-0.2704747 0.1994121,-0.4897405 0.4454037,-0.4897405 z"
     id="path1077" />
  <path
     style="display:none;stroke:#060909;stroke-width:0.5;stroke-miterlimit:4;stroke-dasharray:none;stroke-opacity:1"
     d="m 21.955931,8.5847291 v 0.033585 2.4224069 0.12493 h 0.194806 0.533853 v 0.01059 l 0.05231,5.67e-4 c 0.145878,0.0016 0.262924,0.129881 0.261379,0.286514 -0.0014,0.156632 -0.120957,0.282305 -0.266742,0.280703 l -0.04694,-5.18e-4 v 2.417834 0.15629 l 0.06177,6.74e-4 c 0.140511,0.0015 0.253283,0.125125 0.251828,0.276035 -0.0014,0.150899 -0.116503,0.271981 -0.25701,0.270439 l -0.783041,-0.0087 v 0.0073 2.422411 0.08358 l 0.758757,0.0093 c 0.157153,0.0015 0.283206,0.139933 0.281569,0.308681 -0.0015,0.168781 -0.130235,0.304141 -0.287386,0.302482 l -0.0265,-3.29e-4 v 2.417743 0.04192 l 0.06185,6.8e-4 c 0.141509,0.0013 0.255011,0.125988 0.253554,0.277951 -0.0014,0.151865 -0.117319,0.273752 -0.258741,0.272191 l -1.773264,-0.01951 H 8.7043846 c -0.5388624,0 -0.9756994,-0.469174 -0.9756994,-1.047833 v -1.473499 c 0,-0.224134 0.06554,-0.431866 0.1771605,-0.602191 C 7.4006203,17.817004 7.0021855,17.364338 7.0021855,16.8117 v -1.473787 c 0,-0.553514 0.3996909,-1.006778 0.9060484,-1.04513 -0.1130737,-0.17109 -0.1795487,-0.380148 -0.1795487,-0.605876 v -1.473481 c 0,-0.224069 0.065494,-0.43171 0.1770523,-0.602044 C 7.3995262,11.572864 6.9999981,11.119668 6.9999981,10.566261 V 9.0927797 c 0,-0.5786614 0.4368358,-1.0477623 0.9757021,-1.0477623 H 19.482391 c 0.04155,-0.028986 0.09122,-0.0456 0.144423,-0.045003 l 2.387324,0.026233 c 0.143694,0.00152 0.259102,0.1280121 0.257558,0.2823952 -0.0015,0.1543829 -0.119139,0.2782548 -0.262924,0.2766752 z"
     id="path2" />
</svg>
