<svg width="22" height="16" viewBox="0 0 22 16" fill="none" xmlns="http://www.w3.org/2000/svg">
<mask id="path-1-inside-1_869:2224" fill="white">
<path fill-rule="evenodd" clip-rule="evenodd" d="M17.1469 0.641289C17.1947 0.667563 17.2494 0.68275 17.3078 0.683347L19.7853 0.708692V3.8295H1.81502C1.54671 3.8295 1.32921 3.61199 1.32921 3.34368V1.1271C1.32921 0.858795 1.54671 0.641289 1.81502 0.641289H17.1469ZM20.3723 0.714698L20.4412 0.715402C20.6299 0.717333 20.7844 0.565929 20.7864 0.377233C20.7883 0.188537 20.6369 0.0340039 20.4482 0.0320735L17.3148 1.82559e-05C17.2454 -0.000691232 17.1807 0.0193121 17.1264 0.0542671H1.81502C1.22251 0.0542671 0.742188 0.534592 0.742188 1.1271V3.34368C0.742188 3.9362 1.22251 4.41652 1.81502 4.41652H1.83453C1.74798 4.57124 1.69865 4.7496 1.69865 4.93949V7.15607C1.69865 7.34973 1.74997 7.53141 1.83974 7.68825H1.81715C1.22464 7.68825 0.744318 8.16858 0.744318 8.76109V10.9777C0.744318 11.5702 1.22464 12.0505 1.81715 12.0505H1.83351C1.74718 12.2051 1.69799 12.3832 1.69799 12.5728V14.7894C1.69799 15.3819 2.17831 15.8623 2.77082 15.8623H19.0005L21.4031 15.8868C21.5888 15.8887 21.7409 15.7398 21.7428 15.5541C21.7447 15.3684 21.5957 15.2164 21.41 15.2145L21.3281 15.2136V12.2067L21.3632 12.2071C21.5695 12.2092 21.7384 12.0437 21.7405 11.8375C21.7426 11.6312 21.5771 11.4623 21.3708 11.4602L20.3745 11.45V8.37667L21.4027 8.38719C21.5871 8.38908 21.7382 8.24109 21.7401 8.05664C21.742 7.8722 21.594 7.72115 21.4095 7.71926L21.3288 7.71844V7.64188V4.57466L21.3906 4.5753C21.582 4.57725 21.7388 4.42365 21.7407 4.2322C21.7427 4.04076 21.5891 3.88398 21.3976 3.88202L21.3288 3.88131V3.86665H20.7418H20.3723V3.8295V0.714698ZM20.7411 12.2007V15.2076L18.2656 15.1823C18.1744 15.1814 18.0913 15.2169 18.0301 15.2752H2.77082C2.50251 15.2752 2.28501 15.0577 2.28501 14.7894V12.5728C2.28501 12.3045 2.50251 12.087 2.77082 12.087H18.0556C18.1197 12.1415 18.2026 12.1748 18.2934 12.1757L20.7411 12.2007ZM19.7874 11.444L18.301 11.4288C18.2434 11.4282 18.1887 11.4407 18.1397 11.4635H1.81715C1.54885 11.4635 1.33134 11.246 1.33134 10.9777V8.76109C1.33134 8.49278 1.54885 8.27527 1.81715 8.27527H18.0407C18.0982 8.32426 18.1725 8.35415 18.2539 8.35498L19.7874 8.37067V11.444ZM18.038 4.45367C18.0986 4.50862 18.1788 4.54244 18.2671 4.54334L20.7418 4.56866V7.64188H2.77149C2.50318 7.64188 2.28567 7.42438 2.28567 7.15607V4.93949C2.28567 4.67118 2.50318 4.45367 2.77149 4.45367H18.038Z"/>
</mask>
<path fill-rule="evenodd" clip-rule="evenodd" d="M17.1469 0.641289C17.1947 0.667563 17.2494 0.68275 17.3078 0.683347L19.7853 0.708692V3.8295H1.81502C1.54671 3.8295 1.32921 3.61199 1.32921 3.34368V1.1271C1.32921 0.858795 1.54671 0.641289 1.81502 0.641289H17.1469ZM20.3723 0.714698L20.4412 0.715402C20.6299 0.717333 20.7844 0.565929 20.7864 0.377233C20.7883 0.188537 20.6369 0.0340039 20.4482 0.0320735L17.3148 1.82559e-05C17.2454 -0.000691232 17.1807 0.0193121 17.1264 0.0542671H1.81502C1.22251 0.0542671 0.742188 0.534592 0.742188 1.1271V3.34368C0.742188 3.9362 1.22251 4.41652 1.81502 4.41652H1.83453C1.74798 4.57124 1.69865 4.7496 1.69865 4.93949V7.15607C1.69865 7.34973 1.74997 7.53141 1.83974 7.68825H1.81715C1.22464 7.68825 0.744318 8.16858 0.744318 8.76109V10.9777C0.744318 11.5702 1.22464 12.0505 1.81715 12.0505H1.83351C1.74718 12.2051 1.69799 12.3832 1.69799 12.5728V14.7894C1.69799 15.3819 2.17831 15.8623 2.77082 15.8623H19.0005L21.4031 15.8868C21.5888 15.8887 21.7409 15.7398 21.7428 15.5541C21.7447 15.3684 21.5957 15.2164 21.41 15.2145L21.3281 15.2136V12.2067L21.3632 12.2071C21.5695 12.2092 21.7384 12.0437 21.7405 11.8375C21.7426 11.6312 21.5771 11.4623 21.3708 11.4602L20.3745 11.45V8.37667L21.4027 8.38719C21.5871 8.38908 21.7382 8.24109 21.7401 8.05664C21.742 7.8722 21.594 7.72115 21.4095 7.71926L21.3288 7.71844V7.64188V4.57466L21.3906 4.5753C21.582 4.57725 21.7388 4.42365 21.7407 4.2322C21.7427 4.04076 21.5891 3.88398 21.3976 3.88202L21.3288 3.88131V3.86665H20.7418H20.3723V3.8295V0.714698ZM20.7411 12.2007V15.2076L18.2656 15.1823C18.1744 15.1814 18.0913 15.2169 18.0301 15.2752H2.77082C2.50251 15.2752 2.28501 15.0577 2.28501 14.7894V12.5728C2.28501 12.3045 2.50251 12.087 2.77082 12.087H18.0556C18.1197 12.1415 18.2026 12.1748 18.2934 12.1757L20.7411 12.2007ZM19.7874 11.444L18.301 11.4288C18.2434 11.4282 18.1887 11.4407 18.1397 11.4635H1.81715C1.54885 11.4635 1.33134 11.246 1.33134 10.9777V8.76109C1.33134 8.49278 1.54885 8.27527 1.81715 8.27527H18.0407C18.0982 8.32426 18.1725 8.35415 18.2539 8.35498L19.7874 8.37067V11.444ZM18.038 4.45367C18.0986 4.50862 18.1788 4.54244 18.2671 4.54334L20.7418 4.56866V7.64188H2.77149C2.50318 7.64188 2.28567 7.42438 2.28567 7.15607V4.93949C2.28567 4.67118 2.50318 4.45367 2.77149 4.45367H18.038Z" fill="black"/>
<path d="M17.3078 0.683347L17.3082 0.643349L17.3082 0.643349L17.3078 0.683347ZM17.1469 0.641289L17.1661 0.606238L17.1571 0.601289H17.1469V0.641289ZM19.7853 0.708692H19.8253V0.669099L19.7857 0.668694L19.7853 0.708692ZM19.7853 3.8295V3.8695H19.8253V3.8295H19.7853ZM20.4412 0.715402L20.4416 0.675404L20.4416 0.675404L20.4412 0.715402ZM20.3723 0.714698L20.3727 0.6747L20.3323 0.674286V0.714698H20.3723ZM20.7864 0.377233L20.8264 0.377642L20.7864 0.377233ZM20.4482 0.0320735L20.4478 0.0720714L20.4482 0.0320735ZM17.3148 1.82559e-05L17.3152 -0.0399797L17.3152 -0.0399797L17.3148 1.82559e-05ZM17.1264 0.0542671V0.0942671H17.1382L17.1481 0.0878904L17.1264 0.0542671ZM1.83453 4.41652L1.86944 4.43605L1.90273 4.37652H1.83453V4.41652ZM1.83974 7.68825V7.72825H1.90873L1.87446 7.66838L1.83974 7.68825ZM1.83351 12.0505L1.86843 12.07L1.90166 12.0105H1.83351V12.0505ZM19.0005 15.8623L19.0009 15.8223H19.0005V15.8623ZM21.4031 15.8868L21.4036 15.8468L21.4036 15.8468L21.4031 15.8868ZM21.7428 15.5541L21.7028 15.5537L21.7028 15.5537L21.7428 15.5541ZM21.41 15.2145L21.4096 15.2545L21.4096 15.2545L21.41 15.2145ZM21.3281 15.2136H21.2881V15.2532L21.3277 15.2536L21.3281 15.2136ZM21.3281 12.2067L21.3285 12.1667L21.2881 12.1663V12.2067H21.3281ZM21.3632 12.2071L21.3636 12.1671L21.3636 12.1671L21.3632 12.2071ZM21.7405 11.8375L21.7805 11.8379L21.7805 11.8379L21.7405 11.8375ZM21.3708 11.4602L21.3712 11.4202L21.3712 11.4202L21.3708 11.4602ZM20.3745 11.45H20.3345V11.4896L20.374 11.49L20.3745 11.45ZM20.3745 8.37667L20.3749 8.33667L20.3345 8.33626V8.37667H20.3745ZM21.4027 8.38719L21.4031 8.34719L21.4031 8.34719L21.4027 8.38719ZM21.7401 8.05664L21.7801 8.05705L21.7801 8.05705L21.7401 8.05664ZM21.4095 7.71926L21.4099 7.67926L21.4099 7.67926L21.4095 7.71926ZM21.3288 7.71844H21.2888V7.75803L21.3284 7.75843L21.3288 7.71844ZM21.3288 4.57466L21.3292 4.53467L21.2888 4.53425V4.57466H21.3288ZM21.3906 4.5753L21.391 4.5353L21.391 4.5353L21.3906 4.5753ZM21.3976 3.88202L21.3981 3.84202L21.3981 3.84202L21.3976 3.88202ZM21.3288 3.88131H21.2888V3.92091L21.3284 3.92131L21.3288 3.88131ZM21.3288 3.86665H21.3688V3.82665H21.3288V3.86665ZM20.3723 3.86665H20.3323V3.90665H20.3723V3.86665ZM20.7411 15.2076L20.7407 15.2476L20.7811 15.248V15.2076H20.7411ZM20.7411 12.2007H20.7811V12.1611L20.7415 12.1607L20.7411 12.2007ZM18.2656 15.1823L18.2652 15.2223L18.2652 15.2223L18.2656 15.1823ZM18.0301 15.2752V15.3152H18.0462L18.0577 15.3042L18.0301 15.2752ZM18.0556 12.087L18.0815 12.0565L18.0703 12.047H18.0556V12.087ZM18.2934 12.1757L18.2938 12.1357L18.2938 12.1357L18.2934 12.1757ZM18.301 11.4288L18.3014 11.3888L18.3014 11.3888L18.301 11.4288ZM19.7874 11.444L19.787 11.484L19.8274 11.4844V11.444H19.7874ZM18.1397 11.4635V11.5035H18.1486L18.1566 11.4997L18.1397 11.4635ZM18.0407 8.27527L18.0667 8.24484L18.0555 8.23527H18.0407V8.27527ZM18.2539 8.35498L18.2543 8.31498L18.2543 8.31498L18.2539 8.35498ZM19.7874 8.37067H19.8274V8.33107L19.7878 8.33067L19.7874 8.37067ZM18.2671 4.54334L18.2667 4.58334L18.2667 4.58334L18.2671 4.54334ZM18.038 4.45367L18.0648 4.42403L18.0534 4.41367H18.038V4.45367ZM20.7418 4.56866H20.7818V4.52907L20.7422 4.52866L20.7418 4.56866ZM20.7418 7.64188V7.68188H20.7818V7.64188H20.7418ZM17.3082 0.643349C17.2566 0.642821 17.2083 0.629411 17.1661 0.606238L17.1276 0.676339C17.181 0.705716 17.2423 0.722679 17.3074 0.723345L17.3082 0.643349ZM19.7857 0.668694L17.3082 0.643349L17.3074 0.723345L19.7849 0.74869L19.7857 0.668694ZM19.8253 3.8295V0.708692H19.7453V3.8295H19.8253ZM1.81502 3.8695H19.7853V3.7895H1.81502V3.8695ZM1.28921 3.34368C1.28921 3.63408 1.52462 3.8695 1.81502 3.8695V3.7895C1.56881 3.7895 1.36921 3.5899 1.36921 3.34368H1.28921ZM1.28921 1.1271V3.34368H1.36921V1.1271H1.28921ZM1.81502 0.601289C1.52462 0.601289 1.28921 0.836704 1.28921 1.1271H1.36921C1.36921 0.880887 1.56881 0.681289 1.81502 0.681289V0.601289ZM17.1469 0.601289H1.81502V0.681289H17.1469V0.601289ZM20.4416 0.675404L20.3727 0.6747L20.3719 0.754695L20.4408 0.7554L20.4416 0.675404ZM20.7464 0.376824C20.7447 0.54343 20.6082 0.677109 20.4416 0.675404L20.4408 0.7554C20.6516 0.757556 20.8242 0.588429 20.8264 0.377642L20.7464 0.376824ZM20.4478 0.0720714C20.6144 0.0737758 20.7481 0.210218 20.7464 0.376824L20.8264 0.377642C20.8285 0.166856 20.6594 -0.005768 20.4486 -0.00792437L20.4478 0.0720714ZM17.3144 0.0400162L20.4478 0.0720714L20.4486 -0.00792437L17.3152 -0.0399797L17.3144 0.0400162ZM17.1481 0.0878904C17.196 0.0570434 17.2531 0.0393891 17.3144 0.0400162L17.3152 -0.0399797C17.2378 -0.0407716 17.1654 -0.0184192 17.1048 0.0206438L17.1481 0.0878904ZM17.1264 0.0142671H1.81502V0.0942671H17.1264V0.0142671ZM1.81502 0.0142671C1.20042 0.0142671 0.702188 0.512501 0.702188 1.1271H0.782187C0.782187 0.556683 1.2446 0.0942671 1.81502 0.0942671V0.0142671ZM0.702188 1.1271V3.34368H0.782187V1.1271H0.702188ZM0.702188 3.34368C0.702188 3.95829 1.20042 4.45652 1.81502 4.45652V4.37652C1.2446 4.37652 0.782187 3.9141 0.782187 3.34368H0.702188ZM1.81502 4.45652H1.83453V4.37652H1.81502V4.45652ZM1.79962 4.39699C1.70982 4.55753 1.65865 4.74259 1.65865 4.93949H1.73865C1.73865 4.75661 1.78614 4.58496 1.86944 4.43605L1.79962 4.39699ZM1.65865 4.93949V7.15607H1.73865V4.93949H1.65865ZM1.65865 7.15607C1.65865 7.35689 1.71188 7.54539 1.80503 7.70812L1.87446 7.66838C1.78805 7.51743 1.73865 7.34258 1.73865 7.15607H1.65865ZM1.83974 7.64825H1.81715V7.72825H1.83974V7.64825ZM1.81715 7.64825C1.20255 7.64825 0.704318 8.14648 0.704318 8.76109H0.784318C0.784318 8.19067 1.24674 7.72825 1.81715 7.72825V7.64825ZM0.704318 8.76109V10.9777H0.784318V8.76109H0.704318ZM0.704318 10.9777C0.704318 11.5923 1.20255 12.0905 1.81715 12.0905V12.0105C1.24674 12.0105 0.784318 11.5481 0.784318 10.9777H0.704318ZM1.81715 12.0905H1.83351V12.0105H1.81715V12.0905ZM1.79858 12.031C1.70902 12.1914 1.65799 12.3762 1.65799 12.5728H1.73799C1.73799 12.3902 1.78535 12.2188 1.86843 12.07L1.79858 12.031ZM1.65799 12.5728V14.7894H1.73799V12.5728H1.65799ZM1.65799 14.7894C1.65799 15.404 2.15622 15.9023 2.77082 15.9023V15.8223C2.2004 15.8223 1.73799 15.3598 1.73799 14.7894H1.65799ZM2.77082 15.9023H19.0005V15.8223H2.77082V15.9023ZM19.0001 15.9023L21.4027 15.9268L21.4036 15.8468L19.0009 15.8223L19.0001 15.9023ZM21.4027 15.9268C21.6105 15.929 21.7806 15.7623 21.7828 15.5545L21.7028 15.5537C21.7011 15.7173 21.5671 15.8485 21.4036 15.8468L21.4027 15.9268ZM21.7828 15.5545C21.7849 15.3467 21.6182 15.1766 21.4104 15.1745L21.4096 15.2545C21.5732 15.2561 21.7044 15.3901 21.7028 15.5537L21.7828 15.5545ZM21.4104 15.1745L21.3285 15.1736L21.3277 15.2536L21.4096 15.2545L21.4104 15.1745ZM21.3681 15.2136V12.2067H21.2881V15.2136H21.3681ZM21.3277 12.2467L21.3628 12.2471L21.3636 12.1671L21.3285 12.1667L21.3277 12.2467ZM21.3628 12.2471C21.5911 12.2494 21.7781 12.0662 21.7805 11.8379L21.7005 11.837C21.6986 12.0212 21.5478 12.169 21.3636 12.1671L21.3628 12.2471ZM21.7805 11.8379C21.7828 11.6095 21.5996 11.4225 21.3712 11.4202L21.3704 11.5002C21.5546 11.502 21.7024 11.6529 21.7005 11.837L21.7805 11.8379ZM21.3712 11.4202L20.3749 11.41L20.374 11.49L21.3704 11.5002L21.3712 11.4202ZM20.4145 11.45V8.37667H20.3345V11.45H20.4145ZM20.374 8.41667L21.4023 8.42719L21.4031 8.34719L20.3749 8.33667L20.374 8.41667ZM21.4023 8.42719C21.6088 8.4293 21.778 8.26359 21.7801 8.05705L21.7001 8.05623C21.6984 8.21859 21.5655 8.34886 21.4031 8.34719L21.4023 8.42719ZM21.7801 8.05705C21.7822 7.85052 21.6165 7.68138 21.4099 7.67926L21.4091 7.75926C21.5715 7.76092 21.7017 7.89388 21.7001 8.05623L21.7801 8.05705ZM21.4099 7.67926L21.3292 7.67844L21.3284 7.75843L21.4091 7.75926L21.4099 7.67926ZM21.3688 7.71844V7.64188H21.2888V7.71844H21.3688ZM21.3688 7.64188V4.57466H21.2888V7.64188H21.3688ZM21.3284 4.61466L21.3901 4.61529L21.391 4.5353L21.3292 4.53467L21.3284 4.61466ZM21.3901 4.61529C21.6037 4.61748 21.7786 4.44615 21.7807 4.23261L21.7007 4.23179C21.699 4.40115 21.5603 4.53703 21.391 4.5353L21.3901 4.61529ZM21.7807 4.23261C21.7829 4.01908 21.6116 3.8442 21.3981 3.84202L21.3972 3.92202C21.5666 3.92375 21.7025 4.06244 21.7007 4.23179L21.7807 4.23261ZM21.3981 3.84202L21.3292 3.84132L21.3284 3.92131L21.3972 3.92202L21.3981 3.84202ZM21.3688 3.88131V3.86665H21.2888V3.88131H21.3688ZM21.3288 3.82665H20.7418V3.90665H21.3288V3.82665ZM20.7418 3.82665H20.3723V3.90665H20.7418V3.82665ZM20.4123 3.86665V3.8295H20.3323V3.86665H20.4123ZM20.4123 3.8295V0.714698H20.3323V3.8295H20.4123ZM20.7811 15.2076V12.2007H20.7011V15.2076H20.7811ZM18.2652 15.2223L20.7407 15.2476L20.7415 15.1676L18.266 15.1423L18.2652 15.2223ZM18.0577 15.3042C18.1117 15.2527 18.1848 15.2215 18.2652 15.2223L18.266 15.1423C18.164 15.1413 18.0709 15.181 18.0025 15.2463L18.0577 15.3042ZM2.77082 15.3152H18.0301V15.2352H2.77082V15.3152ZM2.24501 14.7894C2.24501 15.0798 2.48042 15.3152 2.77082 15.3152V15.2352C2.52461 15.2352 2.32501 15.0356 2.32501 14.7894H2.24501ZM2.24501 12.5728V14.7894H2.32501V12.5728H2.24501ZM2.77082 12.047C2.48042 12.047 2.24501 12.2824 2.24501 12.5728H2.32501C2.32501 12.3266 2.52461 12.127 2.77082 12.127V12.047ZM18.0556 12.047H2.77082V12.127H18.0556V12.047ZM18.2938 12.1357C18.2127 12.1349 18.1388 12.1052 18.0815 12.0565L18.0297 12.1175C18.1007 12.1778 18.1925 12.2147 18.293 12.2157L18.2938 12.1357ZM20.7415 12.1607L18.2938 12.1357L18.293 12.2157L20.7407 12.2407L20.7415 12.1607ZM18.3006 11.4688L19.787 11.484L19.7878 11.404L18.3014 11.3888L18.3006 11.4688ZM18.1566 11.4997C18.2003 11.4794 18.2491 11.4682 18.3006 11.4688L18.3014 11.3888C18.2377 11.3881 18.1771 11.4019 18.1228 11.4272L18.1566 11.4997ZM1.81715 11.5035H18.1397V11.4235H1.81715V11.5035ZM1.29134 10.9777C1.29134 11.2681 1.52675 11.5035 1.81715 11.5035V11.4235C1.57094 11.4235 1.37134 11.2239 1.37134 10.9777H1.29134ZM1.29134 8.76109V10.9777H1.37134V8.76109H1.29134ZM1.81715 8.23527C1.52675 8.23527 1.29134 8.47069 1.29134 8.76109H1.37134C1.37134 8.51487 1.57094 8.31527 1.81715 8.31527V8.23527ZM18.0407 8.23527H1.81715V8.31527H18.0407V8.23527ZM18.2543 8.31498C18.1826 8.31425 18.1173 8.28797 18.0667 8.24484L18.0148 8.30571C18.0791 8.36055 18.1624 8.39404 18.2535 8.39498L18.2543 8.31498ZM19.7878 8.33067L18.2543 8.31498L18.2535 8.39498L19.787 8.41067L19.7878 8.33067ZM19.8274 11.444V8.37067H19.7474V11.444H19.8274ZM18.2675 4.50335C18.1894 4.50255 18.1185 4.47266 18.0648 4.42403L18.0111 4.48331C18.0787 4.54458 18.1683 4.58233 18.2667 4.58334L18.2675 4.50335ZM20.7422 4.52866L18.2675 4.50335L18.2667 4.58334L20.7414 4.60866L20.7422 4.52866ZM20.7818 7.64188V4.56866H20.7018V7.64188H20.7818ZM2.77149 7.68188H20.7418V7.60188H2.77149V7.68188ZM2.24567 7.15607C2.24567 7.44647 2.48109 7.68188 2.77149 7.68188V7.60188C2.52527 7.60188 2.32567 7.40228 2.32567 7.15607H2.24567ZM2.24567 4.93949V7.15607H2.32567V4.93949H2.24567ZM2.77149 4.41367C2.48109 4.41367 2.24567 4.64909 2.24567 4.93949H2.32567C2.32567 4.69327 2.52527 4.49367 2.77149 4.49367V4.41367ZM18.038 4.41367H2.77149V4.49367H18.038V4.41367Z" fill="#E5E5E5" mask="url(#path-1-inside-1_869:2224)"/>
</svg>
