<svg width="30" height="30" viewBox="0 0 30 30" fill="none" xmlns="http://www.w3.org/2000/svg">
<path d="M26.7887 12.4362L26.7889 12.4364C26.8485 12.4851 26.8979 12.545 26.9343 12.6128C26.9706 12.6806 26.9933 12.7549 27.0009 12.8315C27.0086 12.9081 27.001 12.9855 26.9787 13.0591C26.9564 13.1328 26.9198 13.2014 26.871 13.261L26.8709 13.2611L24.535 16.1138L24.5333 16.1154L24.5317 16.1173C24.5286 16.1203 24.5247 16.1242 24.5202 16.1291L24.5176 16.1316C24.5142 16.1349 24.5092 16.14 24.5034 16.1464L24.5032 16.1466C24.4969 16.1537 24.4916 16.1602 24.4875 16.1655C24.482 16.1699 24.4747 16.1759 24.4667 16.1834C24.4664 16.1837 24.4661 16.1839 24.4658 16.1842L26.7887 12.4362ZM26.7887 12.4362C26.6789 12.3463 26.5402 12.2994 26.3984 12.304L26.3901 12.0542M26.7887 12.4362L26.3901 12.0542M26.3901 12.0542L26.3984 12.304C26.2565 12.3087 26.1211 12.3647 26.0174 12.4617L25.8467 12.279M26.3901 12.0542L24.6738 14.094M21.8706 12.4347L22.8875 13.4302C22.907 13.539 22.9244 13.6483 22.9397 13.7581L21.8706 12.4347ZM21.8706 12.4347C21.7167 12.2841 21.5106 12.1987 21.2953 12.1963C21.08 12.1939 20.872 12.2747 20.7147 12.4218L21.8706 12.4347ZM24.6738 14.094L25.0359 13.6519L25.9642 12.5186C25.9808 12.4984 25.9987 12.4792 26.0178 12.4612L25.8467 12.279M24.6738 14.094L24.5949 13.5281M24.6738 14.094L24.5949 13.5281M25.8467 12.279C25.8197 12.3044 25.7943 12.3315 25.7708 12.3602L25.8467 12.279ZM24.5949 13.5281C24.286 11.3123 23.2419 9.26479 21.6302 7.71373C20.0184 6.16267 17.9323 5.19791 15.7063 4.97417C13.4803 4.75042 11.2433 5.28065 9.35411 6.47985C7.46489 7.67905 6.03284 9.47775 5.28758 11.5875C4.54232 13.6973 4.52702 15.996 5.2441 18.115C5.96118 20.234 7.36911 22.0505 9.24215 23.2734C11.1152 24.4963 13.3449 25.0547 15.5737 24.859C17.8025 24.6634 19.9013 23.725 21.5336 22.1943L21.5337 22.1943M24.5949 13.5281L21.5337 22.1943M21.5337 22.1943C21.6471 22.088 21.7137 21.941 21.7188 21.7857C21.7238 21.6304 21.667 21.4795 21.5608 21.3661C21.4546 21.2528 21.3077 21.1863 21.1524 21.1813C20.9971 21.1763 20.8462 21.2331 20.7327 21.3394M21.5337 22.1943L23.5356 14.4145M23.5356 14.4145L23.4349 13.6894C23.163 11.7304 22.241 9.91977 20.8167 8.5479C19.3924 7.17603 17.5485 6.32245 15.5807 6.12407C13.6129 5.92569 11.6353 6.394 9.96512 7.45386C8.2949 8.51372 7.02886 10.1037 6.37008 11.9688C5.7113 13.8339 5.69796 15.866 6.33222 17.7392C6.96649 19.6123 8.21159 21.2179 9.86782 22.2985C11.524 23.379 13.4954 23.8718 15.4656 23.6979C17.4358 23.5239 19.2907 22.6934 20.7327 21.3394M23.5356 14.4145L23.0124 13.9024M23.5356 14.4145L23.0124 13.9024M20.7327 21.3394C20.7328 21.3393 20.7328 21.3393 20.7328 21.3393L20.5617 21.157L20.7327 21.3394C20.7327 21.3394 20.7327 21.3394 20.7327 21.3394ZM23.0124 13.9024L21.6957 12.6134L21.6957 12.6134M23.0124 13.9024L21.6957 12.6134M21.6957 12.6134C21.5879 12.5078 21.4434 12.4479 21.2925 12.4463M21.6957 12.6134L21.2925 12.4463M23.6999 16.2109L23.6952 16.206L23.6999 16.2109ZM23.6999 16.2109C23.7001 16.2111 23.7002 16.2112 23.7004 16.2113M23.6999 16.2109L23.7004 16.2113M23.7004 16.2113L23.7072 16.2156C23.7126 16.2191 23.7201 16.2241 23.7284 16.23L23.7288 16.2303C23.7475 16.2438 23.7607 16.2527 23.7724 16.2596L23.7728 16.2599C23.781 16.2647 23.7879 16.2692 23.7927 16.2724L23.7959 16.2746L23.8034 16.2774C23.8096 16.2799 23.8183 16.2833 23.828 16.2877L23.7004 16.2113ZM20.4499 13.041L20.6999 13.0384C20.6983 12.8834 20.7582 12.734 20.8665 12.623C20.8667 12.6227 20.867 12.6225 20.8672 12.6223L20.4499 13.041ZM20.4499 13.041L20.6999 13.0384C20.7015 13.1938 20.7647 13.3421 20.8757 13.4507M20.4499 13.041L20.8757 13.4507M21.2925 12.4463C21.1416 12.4446 20.9958 12.5012 20.8855 12.6044L21.2925 12.4463ZM20.8757 13.4507C20.8757 13.4507 20.8757 13.4507 20.8757 13.4508L23.6514 16.1682M20.8757 13.4507L23.6514 16.1682M23.6514 16.1682L23.6578 16.173C23.6634 16.1772 23.6712 16.1834 23.6798 16.1913C23.6795 16.191 23.6792 16.1907 23.6788 16.1904L23.6514 16.1682ZM24.2418 16.3162C24.243 16.3157 24.2445 16.3151 24.2466 16.3142L24.2602 16.3085C24.2657 16.3062 24.2729 16.3032 24.2808 16.3001L24.2821 16.2996L24.2418 16.3162ZM24.3105 16.2873C24.3188 16.2835 24.3262 16.2804 24.3318 16.2782L24.3394 16.2751L24.3449 16.2729L24.3105 16.2873Z" fill="black" stroke="white" stroke-width="0.5"/>
<path d="M14.3938 15.1158V15.2658H14.5438H17.5212C17.6527 15.2658 17.7804 15.3207 17.8759 15.4211C17.9715 15.5218 18.0265 15.6598 18.0265 15.8053C18.0265 15.9508 17.9715 16.0888 17.8759 16.1895C17.7804 16.2899 17.6527 16.3448 17.5212 16.3448H13.8907C13.7592 16.3448 13.6314 16.2899 13.536 16.1895C13.4403 16.0888 13.3854 15.9508 13.3854 15.8053V9.77247C13.3854 9.62701 13.4403 9.48894 13.536 9.38829C13.6314 9.28796 13.759 9.23308 13.8904 9.23301C14.0213 9.23354 14.1482 9.28839 14.2432 9.38828C14.3384 9.48845 14.3933 9.62569 14.3938 9.77044V15.1158Z" fill="#03383E" stroke="white" stroke-width="0.3"/>
</svg>
