<?xml version="1.0" encoding="UTF-8" standalone="no"?>
<!-- Created with Inkscape (http://www.inkscape.org/) -->

<svg
   width="16"
   height="16"
   viewBox="0 0 4.2333332 4.2333332"
   version="1.1"
   id="svg1855"
   inkscape:version="1.1.1 (3bf5ae0d25, 2021-09-20)"
   sodipodi:docname="Recent activity 16px for the browser.svg"
   xmlns:inkscape="http://www.inkscape.org/namespaces/inkscape"
   xmlns:sodipodi="http://sodipodi.sourceforge.net/DTD/sodipodi-0.dtd"
   xmlns="http://www.w3.org/2000/svg"
   xmlns:svg="http://www.w3.org/2000/svg">
  <sodipodi:namedview
     id="namedview1857"
     pagecolor="#ffffff"
     bordercolor="#666666"
     borderopacity="1.0"
     inkscape:pageshadow="2"
     inkscape:pageopacity="0.0"
     inkscape:pagecheckerboard="0"
     inkscape:document-units="px"
     showgrid="true"
     units="px"
     inkscape:zoom="15.78348"
     inkscape:cx="6.7158827"
     inkscape:cy="5.3536989"
     inkscape:window-width="1920"
     inkscape:window-height="1001"
     inkscape:window-x="-9"
     inkscape:window-y="-9"
     inkscape:window-maximized="1"
     inkscape:current-layer="g2247">
    <inkscape:grid
       type="xygrid"
       id="grid2592" />
  </sodipodi:namedview>
  <defs
     id="defs1852">
    <clipPath
       id="clip0_1179:2925">
      <rect
         width="22"
         height="22"
         fill="white"
         transform="translate(0.742188)"
         id="rect14794" />
    </clipPath>
    <clipPath
       id="clip0_1179:2925-8">
      <rect
         width="22"
         height="22"
         fill="white"
         transform="translate(0.742188)"
         id="rect14794-5" />
    </clipPath>
  </defs>
  <g
     inkscape:label="Слой 1"
     inkscape:groupmode="layer"
     id="layer1">
    <g
       id="g2247"
       transform="matrix(0.03996005,0,0,0.03996005,5.8336198,-0.07935916)">
      <path
         d="m -94.431794,3.4147511 a 50.561225,51.611417 0 0 1 48.150802,35.9773019 l 5.15531,-0.812317 -6.26248,16.375794 -10.76041,-13.715168 4.93617,-0.765224 a 43.583685,44.488948 0 1 0 -41.219392,58.981113 43.203091,44.100449 0 0 0 31.323982,-13.562125 3.4599379,3.5318032 0 0 1 4.97077,4.909207 50.492027,51.540781 0 1 1 -36.294752,-87.3885819 z"
         id="path2229"
         style="fill:#000000;fill-opacity:1;stroke:none;stroke-width:1.16767;stroke-miterlimit:4;stroke-dasharray:none" />
      <path
         d="m -98.064836,24.067651 a 3.4601264,3.5318032 0 0 0 -3.460134,3.531803 V 58.50273 a 3.4601264,3.5318032 0 0 0 3.460134,3.531804 h 19.1691 a 3.4601268,3.5318035 0 0 0 0,-7.063606 H -94.616243 V 27.58768 a 3.4601264,3.5318032 0 0 0 -3.448593,-3.520029 z"
         id="path2231"
         style="fill:#000000;fill-opacity:1;stroke:none;stroke-width:1.1677;stroke-miterlimit:4;stroke-dasharray:none" />
    </g>
  </g>
</svg>
