<?xml version="1.0" encoding="UTF-8" standalone="no"?>
<!-- Created with Inkscape (http://www.inkscape.org/) -->

<svg
   width="16"
   height="16"
   viewBox="0 0 4.2333332 4.2333335"
   version="1.1"
   id="svg14380"
   inkscape:version="1.1.1 (3bf5ae0d25, 2021-09-20)"
   sodipodi:docname="Save page as.svg"
   xmlns:inkscape="http://www.inkscape.org/namespaces/inkscape"
   xmlns:sodipodi="http://sodipodi.sourceforge.net/DTD/sodipodi-0.dtd"
   xmlns="http://www.w3.org/2000/svg"
   xmlns:svg="http://www.w3.org/2000/svg">
  <sodipodi:namedview
     id="namedview14382"
     pagecolor="#ffffff"
     bordercolor="#666666"
     borderopacity="1.0"
     inkscape:pageshadow="2"
     inkscape:pageopacity="0.79607843"
     inkscape:pagecheckerboard="true"
     inkscape:document-units="px"
     showgrid="true"
     inkscape:zoom="32"
     inkscape:cx="10.1875"
     inkscape:cy="10.296875"
     inkscape:window-width="1920"
     inkscape:window-height="1001"
     inkscape:window-x="-9"
     inkscape:window-y="-9"
     inkscape:window-maximized="1"
     inkscape:current-layer="g16196"
     units="px"
     height="16px"
     inkscape:snap-grids="false"
     inkscape:snap-to-guides="false"
     showguides="true"
     inkscape:guide-bbox="true">
    <inkscape:grid
       type="xygrid"
       id="grid832" />
    <sodipodi:guide
       position="4.8203775,-1.0004558"
       orientation="0,-1"
       id="guide3265" />
  </sodipodi:namedview>
  <defs
     id="defs14377">
    <linearGradient
       id="0"
       inkscape:swatch="solid">
      <stop
         style="stop-color:#000000;stop-opacity:0;"
         offset="0"
         id="stop16685" />
    </linearGradient>
    <inkscape:path-effect
       effect="fill_between_many"
       method="originald"
       linkedpaths="#path7983,0,1"
       id="path-effect8833" />
    <linearGradient
       id="0-1">
      <stop
         style="stop-color:#000000;stop-opacity:0;"
         offset="0"
         id="stop16685-7" />
    </linearGradient>
  </defs>
  <g
     inkscape:label="Слой 1"
     inkscape:groupmode="layer"
     id="layer1">
    <g
       style="fill:none"
       id="g14498"
       transform="matrix(0.20133871,0,0,0.2000168,-6.0883117,-1.3573578)">
      <g
         id="g14759"
         transform="translate(0.08213253,0.49605208)">
        <g
           id="g15521"
           transform="translate(0.98559041)">
          <g
             style="fill:none;fill-opacity:1;stroke:#000000;stroke-width:0.841816;stroke-miterlimit:3.5;stroke-dasharray:none;stroke-opacity:1"
             id="g15650"
             transform="matrix(0.95548131,0,0,0.92422342,29.197001,7.2498879)">
            <g
               style="fill:none;fill-opacity:1;stroke:#000000;stroke-width:1.01478;stroke-miterlimit:3.5;stroke-dasharray:none;stroke-opacity:1"
               id="g16196"
               transform="matrix(0.87766616,0,0,0.80653441,1.4710027,1.2523001)">
              <path
                 style="color:#000000;fill:#000000;stroke:none;stroke-width:1.0484;-inkscape-stroke:none"
                 d="m 7.6445837,17.669044 c -0.4780808,0 -0.8459824,0.400555 -0.8459824,0.850385 0,0.44985 0.3679032,0.852355 0.8459824,0.852355 H 14.41658 c 0.478073,0 0.845983,-0.402517 0.845983,-0.852355 0,-0.444139 -0.392915,-0.850385 -0.874939,-0.850385 z m 0,0.844481 h 6.7430403 c 0.01752,0 -0.01244,-0.03495 -0.01244,0.0059 0,0.04447 -0.0049,0.0059 0.04138,0.0059 H 7.6445837 c 0.046633,0 0.041366,0.03854 0.041366,-0.0059 0,-0.04427 0.00529,-0.0059 -0.041366,-0.0059 z"
                 id="path939" />
              <path
                 style="color:#000000;fill:#000000;stroke:none;stroke-width:1.0484;-inkscape-stroke:none"
                 d="m 13.386512,0.25976583 c -1.816909,5.1884e-4 -4.4948658,0.001968 -8.0047761,0.001968 H 0.86638278 c -0.78275014,1.2e-7 -1.30517074,0.62668377 -1.30517074,1.26573577 V 21.659161 c 0,0.697508 0.58327442,1.26377 1.30517074,1.26377 h 2.67653092 14.0155933 0.788061 0.0086 0.136516 2.242162 c 0.782685,0 1.305173,-0.624793 1.305173,-1.26377 V 5.218379 4.8679885 L 21.786348,4.6120855 17.769481,0.54125914 17.492313,0.2617343 h -0.403341 -0.870799 -0.754974 c -0.04056,-8.063e-5 -0.134095,6.883e-5 -0.177885,0 -0.467452,-7.3466e-4 -1.068169,-0.002205 -1.898802,-0.001968 z M 1.1497559,1.775499 h 3.5721552 v 4.5471997 c 0,0.9814455 0.8139375,1.8267539 1.8429588,1.8267539 h 8.4701681 c 1.029019,0 1.840887,-0.8452734 1.840887,-1.8267539 V 1.8463645 l 3.572155,3.6180749 v 0.00197 15.9447266 h -1.298962 v -6.600328 c 0,-2.315741 -1.895769,-4.255865 -4.240256,-4.255865 H 7.1254112 c -2.3444531,0 -4.2402541,1.940115 -4.2402541,4.255865 v 6.600333 H 1.1497559 Z M 15.285314,1.797152 v 4.5255464 c 0,0.2183441 -0.139871,0.3149575 -0.250276,0.3149575 H 6.5648699 c -0.1104274,0 -0.2523467,-0.096578 -0.2523467,-0.3149575 V 1.8955768 c 3.1436491,-0.034417 5.7523248,-0.060949 7.3532198,-0.078739 0.729493,-0.0081 1.202169,-0.014229 1.619571,-0.019686 z M 7.1254112,12.068706 h 7.7834508 c 1.41084,0 2.649645,1.207423 2.649645,2.7421 V 21.40326 L 4.4757695,21.289088 v -6.478282 c 0,-1.53467 1.2388582,-2.7421 2.6496417,-2.7421 z"
                 id="path933" />
              <path
                 style="color:#000000;fill:#000000;stroke:none;stroke-width:1.0484;-inkscape-stroke:none"
                 d="M 12.834241,0.43889793 V 0.96251487 6.8443472 7.367964 h 0.581224 2.142881 0.0039 0.376452 V 7.2163908 c 0.03905,-0.028641 0.0779,-0.040627 0.113761,-0.086612 0.07605,-0.098047 0.111695,-0.2184355 0.111695,-0.3228316 V 0.96251487 0.43889793 H 15.583012 13.415311 Z M 13.628513,1.194796 h 1.741605 v 5.4172699 h -1.741605 z m 1.911216,5.4172699 h 0.002 c 0,0 10e-7,0.132367 0,0.2440921 h -0.25647 l 0.0848,-0.080708 v 0.031496 c 0,-0.014847 0.01234,-0.030561 0.01656,-0.047244 z"
                 id="path16187" />
              <path
                 style="color:#000000;fill:#000000;stroke:none;stroke-width:1.0484;-inkscape-stroke:none"
                 d="m 7.6445837,14.165142 c -0.4780792,0 -0.8459824,0.402523 -0.8459824,0.852354 0,0.449849 0.3679016,0.850385 0.8459824,0.850385 H 14.41658 c 0.478074,0 0.845983,-0.400549 0.845983,-0.850385 -2e-6,-0.444139 -0.392915,-0.852354 -0.874939,-0.852354 z m 0,0.846448 h 6.7430403 c 0.01752,0 -0.01244,-0.03495 -0.01244,0.0059 0,0.04446 -0.0049,0.0059 0.04138,0.0059 H 7.6445837 c 0.046634,0 0.041366,0.03854 0.041366,-0.0059 0,-0.04427 0.00529,-0.0059 -0.041366,-0.0059 z"
                 id="path2001" />
            </g>
          </g>
        </g>
      </g>
    </g>
  </g>
</svg>
