<svg width="21" height="23" viewBox="0 0 21 23" fill="none" xmlns="http://www.w3.org/2000/svg">
<path d="M14.5144 1.12995V1.00495H14.3894H12.9077H12.7827V1.12995V6.16893V6.29393H12.9077H14.3609V6.17929C14.3609 6.29393 14.361 6.29393 14.3611 6.29393L14.3612 6.29392L14.3615 6.29392L14.362 6.29392L14.3632 6.29391L14.3657 6.29384L14.3717 6.2935C14.376 6.29317 14.3813 6.29257 14.3874 6.2915C14.3988 6.28945 14.4158 6.28513 14.4342 6.27529C14.4532 6.26509 14.4748 6.24832 14.4911 6.22206C14.5077 6.19543 14.5144 6.16619 14.5144 6.13839V1.12995ZM11.95 1.12995V1.00495H11.825H6.58209H6.45709V1.12995V6.13839H6.58209C6.45709 6.13839 6.45709 6.13845 6.45709 6.1385V6.13862L6.45709 6.13886L6.45709 6.13934L6.4571 6.14036L6.45716 6.14262L6.45742 6.14802C6.45768 6.15195 6.45816 6.15682 6.45902 6.16237C6.46065 6.17284 6.46414 6.18886 6.47237 6.20651C6.48074 6.22444 6.49564 6.24742 6.52144 6.26586C6.54847 6.28517 6.57973 6.29393 6.61058 6.29393H11.825H11.95V6.16893V1.12995ZM4.74746 21.3469V21.4719H4.87246H16.4695H16.5945V21.3469V14.3534C16.5945 12.9795 15.5492 11.8464 14.2469 11.8464H7.09498C5.79269 11.8464 4.74746 12.9795 4.74746 14.3534V21.3469ZM17.3987 21.3469V21.4719H17.5237H19.5753C19.8582 21.4719 20.0422 21.2174 20.0422 20.9805V5.06951V5.02025L20.0086 4.98424L16.3329 1.04468L16.2958 1.00495H16.2415H15.4437H15.3187V1.12995V6.13839C15.3187 6.71898 14.8822 7.17388 14.3609 7.17388H6.61058C6.08927 7.17388 5.65281 6.71898 5.65281 6.13839V1.12995V1.00495H5.52781H1.3962C1.11332 1.00495 0.929274 1.25948 0.929274 1.49642V20.9805C0.929274 21.2618 1.15477 21.4719 1.3962 21.4719H3.84668H3.97168V21.3469V14.3534C3.97168 12.4902 5.40541 10.9664 7.12347 10.9664H14.2469C15.965 10.9664 17.3987 12.4902 17.3987 14.3534V21.3469ZM13.962 14.6617V14.6623L13.9741 14.6611C14.0934 14.6495 14.1911 14.6895 14.2605 14.7611C14.3311 14.834 14.3784 14.9464 14.3784 15.0864C14.3784 15.331 14.1984 15.5111 13.9905 15.5111H7.4654C7.25752 15.5111 7.07751 15.331 7.07751 15.0864C7.07751 14.8417 7.25752 14.6617 7.4654 14.6617H13.962ZM16.72 0.237971L20.7091 4.51346C20.7988 4.60951 20.8483 4.7324 20.875 4.84001V20.9805C20.875 21.7443 20.2961 22.3519 19.6038 22.3519H17.0109H4.35957H1.3962C0.703922 22.3519 0.125 21.7443 0.125 20.9805V1.49642C0.125 0.732596 0.703922 0.125 1.3962 0.125H6.04071H14.9023H16.441C16.5516 0.125 16.66 0.173664 16.72 0.237971ZM14.3784 18.0181C14.3784 18.2628 14.1984 18.4429 13.9905 18.4429H7.4654C7.25752 18.4429 7.07751 18.2628 7.07751 18.0181C7.07751 17.7735 7.25752 17.5934 7.4654 17.5934H13.962C14.2027 17.5934 14.3784 17.778 14.3784 18.0181Z" fill="#092B4A" stroke="white" stroke-width="0.25"/>
</svg>
