<svg width="14" height="14" viewBox="0 0 14 14" fill="none" xmlns="http://www.w3.org/2000/svg">
<path d="M10.0944 10.5918L10.019 10.5164L9.93794 10.5859C8.89727 11.4786 7.54462 12.0183 6.06677 12.0183C2.78202 12.0183 0.115226 9.35152 0.115226 6.06677C0.115226 2.78202 2.78202 0.115226 6.06677 0.115226C9.35152 0.115226 12.0183 2.78202 12.0183 6.06677C12.0183 7.54462 11.4786 8.89727 10.5859 9.93794L10.5164 10.019L10.5918 10.0944L13.782 13.2851L13.782 13.2851C13.919 13.4221 13.919 13.645 13.782 13.782C13.645 13.919 13.4221 13.919 13.2851 13.782L13.2851 13.782L10.0944 10.5918ZM11.3154 6.06677C11.3154 3.16995 8.96359 0.818123 6.06677 0.818123C3.16995 0.818123 0.818123 3.16995 0.818123 6.06677C0.818123 8.96359 3.16995 11.3154 6.06677 11.3154C8.96359 11.3154 11.3154 8.96359 11.3154 6.06677Z" fill="black" stroke="white" stroke-width="0.230453"/>
</svg>
