<?xml version="1.0" encoding="UTF-8" standalone="no"?>
<!-- Created with Inkscape (http://www.inkscape.org/) -->

<svg
   width="16"
   height="16"
   viewBox="0 0 4.2333332 4.2333335"
   version="1.1"
   id="svg14380"
   inkscape:version="1.1.1 (3bf5ae0d25, 2021-09-20)"
   sodipodi:docname="Settings 16px.svg"
   xmlns:inkscape="http://www.inkscape.org/namespaces/inkscape"
   xmlns:sodipodi="http://sodipodi.sourceforge.net/DTD/sodipodi-0.dtd"
   xmlns="http://www.w3.org/2000/svg"
   xmlns:svg="http://www.w3.org/2000/svg">
  <sodipodi:namedview
     id="namedview14382"
     pagecolor="#ffffff"
     bordercolor="#666666"
     borderopacity="1.0"
     inkscape:pageshadow="2"
     inkscape:pageopacity="0.0"
     inkscape:pagecheckerboard="0"
     inkscape:document-units="px"
     showgrid="true"
     inkscape:zoom="11.313709"
     inkscape:cx="11.402097"
     inkscape:cy="14.805048"
     inkscape:window-width="1920"
     inkscape:window-height="1001"
     inkscape:window-x="-9"
     inkscape:window-y="-9"
     inkscape:window-maximized="1"
     inkscape:current-layer="layer1"
     units="px"
     height="16px">
    <inkscape:grid
       type="xygrid"
       id="grid829" />
  </sodipodi:namedview>
  <defs
     id="defs14377">
    <linearGradient
       id="0"
       inkscape:swatch="solid">
      <stop
         style="stop-color:#000000;stop-opacity:0;"
         offset="0"
         id="stop16685" />
    </linearGradient>
    <inkscape:path-effect
       effect="fill_between_many"
       method="originald"
       linkedpaths="#path7983,0,1"
       id="path-effect8833" />
    <linearGradient
       id="0-1">
      <stop
         style="stop-color:#000000;stop-opacity:0;"
         offset="0"
         id="stop16685-7" />
    </linearGradient>
  </defs>
  <g
     inkscape:label="Слой 1"
     inkscape:groupmode="layer"
     id="layer1">
    <g
       style="fill:none;stroke-width:0.972324;stroke-miterlimit:4;stroke-dasharray:none"
       id="g12134"
       transform="matrix(0.21208015,0,0,0.21242195,-0.12168556,-0.137444)">
      <path
         d="M 12.052166,19.824073 H 8.9483193 c -0.2437069,0 -0.4415066,-0.197778 -0.4415066,-0.441425 V 17.989667 C 7.8520474,17.816148 7.228181,17.557865 6.6462761,17.2179 l -0.9761863,0.98369 c -0.165583,0.1669 -0.4609555,0.1669 -0.6265179,0 l -2.192545,-2.208888 c -0.1708667,-0.172204 -0.1708667,-0.449917 0,-0.622099 L 3.8324974,14.38206 C 3.4965207,13.789979 3.2391003,13.16083 3.0642658,12.50518 H 1.6832086 c -0.2437075,0 -0.4415065,-0.197799 -0.4415065,-0.441507 V 8.9368615 c 0,-0.2437081 0.197799,-0.4415066 0.4415065,-0.4415066 H 3.0624977 C 3.2351324,7.8335166 3.4925322,7.2043671 3.8307293,6.6162743 L 2.8514586,5.6299312 c -0.1708667,-0.1722029 -0.1708667,-0.4499151 0,-0.6220976 L 5.0440242,2.7989441 c 0.1655624,-0.1668988 0.4609349,-0.1668988 0.6264972,0 L 6.6489291,3.7839508 C 7.2352541,3.4466377 7.8582357,3.1883538 8.5072444,3.0126353 V 1.6174541 c 0,-0.2437281 0.1977997,-0.4415271 0.4415267,-0.4415271 h 3.1038059 c 0.243831,0 0.441609,0.197799 0.441609,0.4415271 v 1.410621 c 0.65419,0.1735188 1.277131,0.431371 1.858337,0.770452 l 0.975735,-0.9973832 c 0.08285,-0.084333 0.195517,-0.1324417 0.313937,-0.132894 4.11e-4,0 8.22e-4,0 0.0012,0 0.117801,0 0.230468,0.046813 0.313115,0.1302418 l 2.192422,2.2089102 c 0.170846,0.1721824 0.170846,0.4498947 0,0.622077 L 17.16744,6.6180424 c 0.336142,0.5920607 0.593542,1.2212102 0.768294,1.8768607 h 1.38116 c 0.243626,0 0.441404,0.1977985 0.441404,0.4415268 v 3.1267911 c 0,0.243729 -0.197778,0.441507 -0.441404,0.441507 h -1.378899 c -0.172695,0.661838 -0.430507,1.290987 -0.768703,1.8791 l 0.979228,0.986324 c 0.170847,0.172202 0.170847,0.449915 0,0.622096 l -2.192421,2.20891 c -0.08305,0.08343 -0.195722,0.130242 -0.313115,0.130242 -0.117801,0 -0.230467,-0.04682 -0.313526,-0.130242 L 14.351495,17.21568 c -0.586757,0.337333 -1.209285,0.595617 -1.858748,0.771335 v 1.395182 c 0.001,0.244098 -0.196956,0.441876 -0.440581,0.441876 z"
         id="path7983"
         style="stroke:#000000;stroke-width:0.972324;stroke-miterlimit:4;stroke-dasharray:none;stroke-opacity:1" />
      <path
         d="m 10.3922,5.8617884 c -2.5543013,0 -4.6324859,2.0781128 -4.6324859,4.6327926 0,2.554679 2.0781846,4.632792 4.6324859,4.632792 2.041914,0 3.77988,-1.327926 4.395041,-3.165698 0.202322,-0.469798 0.165685,-1.021136 0.23806,-1.467094 0,-2.5546798 -2.078212,-4.6327926 -4.633101,-4.6327926 z"
         id="path14360"
         style="stroke:#000000;stroke-width:0.972324;stroke-miterlimit:4;stroke-dasharray:none;stroke-opacity:1" />
    </g>
  </g>
</svg>
