<?xml version="1.0" encoding="UTF-8" standalone="no"?>
<!-- Created with Inkscape (http://www.inkscape.org/) -->

<svg
   width="30"
   height="30"
   viewBox="0 0 30 30"
   version="1.1"
   id="svg14380"
   inkscape:version="1.1.1 (3bf5ae0d25, 2021-09-20)"
   sodipodi:docname="Settings 16px.svg"
   xmlns:inkscape="http://www.inkscape.org/namespaces/inkscape"
   xmlns:sodipodi="http://sodipodi.sourceforge.net/DTD/sodipodi-0.dtd"
   xmlns="http://www.w3.org/2000/svg"
   xmlns:svg="http://www.w3.org/2000/svg">
  <sodipodi:namedview
     id="namedview14382"
     pagecolor="#ffffff"
     bordercolor="#666666"
     borderopacity="1.0"
     inkscape:pageshadow="2"
     inkscape:pageopacity="0.0"
     inkscape:pagecheckerboard="0"
     inkscape:document-units="px"
     showgrid="true"
     inkscape:zoom="4"
     inkscape:cx="-76.125"
     inkscape:cy="34.625"
     inkscape:window-width="1920"
     inkscape:window-height="1001"
     inkscape:window-x="-9"
     inkscape:window-y="-9"
     inkscape:window-maximized="1"
     inkscape:current-layer="svg14380"
     units="px"
     height="16px"
     scale-x="1"
     inkscape:snap-global="false">
    <inkscape:grid
       type="xygrid"
       id="grid829" />
  </sodipodi:namedview>
  <defs
     id="defs14377">
    <linearGradient
       id="0"
       inkscape:swatch="solid">
      <stop
         style="stop-color:#000000;stop-opacity:0;"
         offset="0"
         id="stop16685" />
    </linearGradient>
    <inkscape:path-effect
       effect="fill_between_many"
       method="originald"
       linkedpaths="#path7983,0,1"
       id="path-effect8833"
       is_visible="true"
       lpeversion="0"
       join="true"
       close="true"
       autoreverse="true"
       applied="false" />
    <linearGradient
       id="0-1">
      <stop
         style="stop-color:#000000;stop-opacity:0;"
         offset="0"
         id="stop16685-7" />
    </linearGradient>
  </defs>
  <path
     d="m 16.257397,22.50009 h -2.514406 c -0.197426,0 -0.357661,-0.159089 -0.357661,-0.355072 V 21.024532 C 12.85491,20.884957 12.349519,20.6772 11.87812,20.403738 l -0.7908,0.79126 c -0.13414,0.13425 -0.373419,0.13425 -0.507539,0 L 8.8036138,19.418216 c -0.1384188,-0.138519 -0.1384188,-0.361906 0,-0.500406 L 9.5986975,18.122648 C 9.3265246,17.646391 9.1179904,17.140317 8.9763574,16.612925 H 7.857572 c -0.1974261,0 -0.357662,-0.159104 -0.357662,-0.355137 v -2.515145 c 0,-0.196032 0.1602351,-0.355138 0.357662,-0.355138 H 8.9749252 C 9.1147773,12.855138 9.3232931,12.349061 9.5972653,11.876012 L 8.803964,11.082619 c -0.1384189,-0.138518 -0.1384189,-0.361903 0,-0.500403 l 1.776182,-1.7767844 c 0.13412,-0.1342499 0.373401,-0.1342499 0.507524,0 l 0.792599,0.7923189 c 0.474977,-0.2713284 0.979653,-0.4790859 1.50541,-0.6204303 V 7.8550655 c 0,-0.1960487 0.160234,-0.3551555 0.357678,-0.3551555 h 2.514374 c 0.197525,0 0.357745,0.1591037 0.357745,0.3551555 v 1.1346741 c 0.529955,0.1395745 1.034595,0.346986 1.505426,0.6197359 l 0.790435,-0.8022748 c 0.06712,-0.067835 0.158388,-0.1065333 0.254322,-0.1068968 3.32e-4,0 6.65e-4,0 9.51e-4,0 0.09543,0 0.186699,0.037655 0.253654,0.1047647 l 1.776065,1.7768004 c 0.138403,0.138499 0.138403,0.361886 0,0.500387 l -0.79508,0.79518 c 0.272308,0.476241 0.480826,0.982313 0.622391,1.509707 h 1.11887 c 0.197359,0 0.35758,0.159102 0.35758,0.355153 v 2.515128 c 0,0.196051 -0.160221,0.355139 -0.35758,0.355139 h -1.117037 c -0.139897,0.532367 -0.348751,1.038442 -0.622722,1.511508 l 0.793266,0.793378 c 0.138403,0.138514 0.138403,0.361903 0,0.500402 l -1.776065,1.7768 c -0.06729,0.06712 -0.158554,0.104765 -0.253654,0.104765 -0.09543,0 -0.186699,-0.03766 -0.253987,-0.104765 l -0.79224,-0.792699 c -0.475329,0.271344 -0.979636,0.479103 -1.50576,0.620446 v 1.122257 c 8.09e-4,0.196347 -0.159554,0.355436 -0.356914,0.355435 z"
     id="path7983"
     style="fill:none;stroke:#000000;stroke-width:0.99982;stroke-miterlimit:4;stroke-dasharray:none;stroke-opacity:1" />
  <path
     d="m 14.999767,11.501141 c -1.929101,0 -3.498626,1.56947 -3.498626,3.498859 0,1.929388 1.569525,3.498859 3.498626,3.498859 1.542132,0 2.854707,-1.0029 3.3193,-2.390856 C 18.471852,15.753195 18.4442,15.336805 18.498859,15 c 0,-1.929389 -1.569547,-3.498859 -3.499092,-3.498859 z"
     id="path14360"
     style="fill:none;stroke:#000000;stroke-width:1.00228;stroke-miterlimit:4;stroke-dasharray:none;stroke-opacity:1" />
</svg>
