<svg width="21" height="21" viewBox="0 0 21 21" fill="none" xmlns="http://www.w3.org/2000/svg">
<path d="M10.5002 14.1308H10.5004C11.4644 14.1297 12.3887 13.7462 13.0704 13.0645C13.752 12.3828 14.1355 11.4586 14.1366 10.4945V10.4943C14.1366 9.7751 13.9234 9.07203 13.5238 8.47401C13.1242 7.876 12.5563 7.40991 11.8918 7.13467C11.2273 6.85943 10.4962 6.78742 9.79075 6.92773C9.08534 7.06805 8.43739 7.41439 7.92882 7.92296C7.42025 8.43152 7.07391 9.07948 6.9336 9.78489C6.79328 10.4903 6.8653 11.2215 7.14053 11.8859C7.41577 12.5504 7.88186 13.1184 8.47987 13.5179C9.07789 13.9175 9.78096 14.1308 10.5002 14.1308ZM7.96291 6.69702C8.71392 6.19521 9.59686 5.92736 10.5001 5.92734C11.7109 5.92873 12.8718 6.41035 13.728 7.26654C14.5842 8.12275 15.0658 9.28363 15.0672 10.4945C15.0671 11.3977 14.7993 12.2806 14.2975 13.0316C13.7957 13.7826 13.0824 14.368 12.2479 14.7137C11.4134 15.0593 10.4951 15.1498 9.60921 14.9736C8.7233 14.7973 7.90955 14.3624 7.27084 13.7237C6.63214 13.085 6.19718 12.2712 6.02096 11.3853C5.84474 10.4994 5.93518 9.58112 6.28085 8.74662C6.62651 7.91211 7.21187 7.19885 7.96291 6.69702Z" fill="#001423" stroke="#FCFDFD" stroke-width="0.3"/>
<mask id="path-2-inside-1_869:2208" fill="white">
<path d="M19.6239 8.21042L18.1518 8.14971C18.0033 7.66744 17.8091 7.20045 17.5718 6.75513L18.571 5.6694C18.8228 5.39707 18.9592 5.03771 18.9516 4.66687C18.9439 4.29603 18.7928 3.9426 18.5299 3.68089L17.3212 2.47129C17.0594 2.20845 16.706 2.05733 16.3352 2.04968C15.9643 2.04203 15.605 2.17845 15.3327 2.43027L14.2436 3.43191C13.7988 3.19695 13.3327 3.00468 12.8515 2.85767L12.7904 1.37859C12.7757 1.00781 12.6179 0.657143 12.3503 0.400125C12.0826 0.143107 11.7259 -0.00029224 11.3548 5.01105e-07H9.64602C9.27522 -0.00030911 8.91869 0.142864 8.65109 0.399534C8.38348 0.656203 8.22557 1.00646 8.21042 1.37695L8.1493 2.85603C7.66816 3.00304 7.20204 3.19531 6.75718 3.43027L5.66817 2.42986C5.39556 2.17862 5.03632 2.04257 4.66566 2.05022C4.29501 2.05786 3.94168 2.2086 3.67966 2.47088L2.47129 3.67966C2.20845 3.94137 2.05733 4.2948 2.04968 4.66564C2.04203 5.03648 2.17845 5.39584 2.43027 5.66817L3.42904 6.7539C3.19174 7.19922 2.99753 7.66621 2.84906 8.14848L1.37695 8.20919C1.00625 8.22434 0.655811 8.38243 0.399108 8.6503C0.142406 8.91816 -0.000625724 9.27501 2.05784e-06 9.64602V11.3548C-0.000307554 11.7256 0.142865 12.0821 0.399535 12.3497C0.656205 12.6173 1.00646 12.7752 1.37695 12.7904L2.8425 12.8511C2.99054 13.3364 3.18461 13.8064 3.42207 14.2547L2.42986 15.3326C2.17862 15.6053 2.04258 15.9645 2.05022 16.3352C2.05787 16.7058 2.20861 17.0591 2.47088 17.3212L3.67925 18.5295C3.94127 18.7918 4.2946 18.9425 4.66525 18.9502C5.03591 18.9578 5.39515 18.8218 5.66776 18.5705L6.74241 17.5812C7.19164 17.8206 7.66293 18.0161 8.14971 18.1649L8.21001 19.6235C8.22516 19.9939 8.38307 20.3442 8.65067 20.6009C8.91828 20.8575 9.27481 21.0007 9.64561 21.0004H11.3544C11.7252 21.0007 12.0817 20.8575 12.3493 20.6009C12.6169 20.3442 12.7748 19.9939 12.79 19.6235L12.8503 18.1649C13.3371 18.0161 13.8084 17.8206 14.2576 17.5812L15.3322 18.5705C15.6046 18.8224 15.9639 18.9588 16.3348 18.9511C16.7056 18.9435 17.059 18.7924 17.3208 18.5295L18.5291 17.3212C18.7914 17.0591 18.9421 16.7058 18.9498 16.3352C18.9574 15.9645 18.8214 15.6053 18.5701 15.3326L17.5779 14.2547C17.8154 13.8064 18.0095 13.3364 18.1575 12.8511L19.6231 12.7904C19.9935 12.7752 20.3438 12.6173 20.6005 12.3497C20.8571 12.0821 21.0003 11.7256 21 11.3548V9.64602C21.0003 9.27536 20.8573 8.91894 20.6008 8.65136C20.3443 8.38378 19.9942 8.22577 19.6239 8.21042V8.21042ZM19.7703 11.3548C19.7703 11.4079 19.7498 11.4589 19.713 11.4971C19.6762 11.5354 19.626 11.5579 19.573 11.5599L17.6579 11.6395C17.5244 11.6451 17.3964 11.694 17.2932 11.7788C17.19 11.8636 17.1171 11.9797 17.0857 12.1095C16.9226 12.7835 16.6564 13.4282 16.2966 14.0209C16.2272 14.135 16.1969 14.2684 16.21 14.4012C16.2232 14.5341 16.2792 14.659 16.3696 14.7572L17.6653 16.1649C17.7015 16.2039 17.7211 16.2554 17.7201 16.3086C17.719 16.3618 17.6973 16.4125 17.6596 16.45L16.4508 17.6587C16.4133 17.6965 16.3626 17.7182 16.3094 17.7192C16.2562 17.7203 16.2047 17.7007 16.1657 17.6645L14.7605 16.3712C14.6621 16.2804 14.5367 16.2242 14.4035 16.2111C14.2702 16.198 14.1364 16.2287 14.0221 16.2986C13.4289 16.6605 12.7831 16.9284 12.1079 17.0927C11.9779 17.1244 11.8617 17.1976 11.777 17.3012C11.6923 17.4048 11.6438 17.5332 11.6386 17.6669L11.5595 19.5738C11.5575 19.6269 11.535 19.677 11.4967 19.7138C11.4585 19.7506 11.4075 19.7712 11.3544 19.7711H9.64602C9.59295 19.7712 9.54194 19.7506 9.50369 19.7138C9.46545 19.677 9.44295 19.6269 9.44094 19.5738L9.36177 17.6669C9.35665 17.5332 9.30807 17.4048 9.22339 17.3012C9.13871 17.1976 9.02256 17.1244 8.89254 17.0927C8.21729 16.9284 7.57155 16.6605 6.97826 16.2986C6.86406 16.2287 6.73018 16.198 6.59693 16.2111C6.46369 16.2242 6.33836 16.2804 6.23995 16.3712L4.8347 17.6645C4.79572 17.7007 4.7442 17.7203 4.69101 17.7192C4.63782 17.7182 4.58712 17.6965 4.54963 17.6587L3.34127 16.4508C3.30352 16.4133 3.28182 16.3626 3.28075 16.3094C3.27968 16.2562 3.29932 16.2047 3.33552 16.1657L4.63126 14.758C4.72163 14.6598 4.77763 14.5349 4.7908 14.4021C4.80397 14.2693 4.7736 14.1358 4.70427 14.0217C4.34438 13.429 4.07819 12.7843 3.9151 12.1103C3.88359 11.9802 3.81046 11.8638 3.70682 11.779C3.60318 11.6941 3.47469 11.6454 3.34085 11.6403L1.42576 11.5607C1.37273 11.5587 1.32255 11.5362 1.28576 11.4979C1.24896 11.4597 1.22843 11.4087 1.22847 11.3556V9.64602C1.22843 9.59295 1.24896 9.54193 1.28576 9.50369C1.32255 9.46544 1.37273 9.44295 1.42576 9.44093L3.34578 9.36136C3.47903 9.35585 3.60689 9.30719 3.7101 9.2227C3.8133 9.13822 3.88625 9.02249 3.91797 8.89294C4.08233 8.22139 4.3492 7.57918 4.70919 6.98892C4.77912 6.87476 4.80991 6.74091 4.79688 6.60767C4.78385 6.47442 4.72772 6.34907 4.637 6.25061L3.33552 4.83511C3.29932 4.79613 3.27968 4.7446 3.28075 4.69141C3.28182 4.63822 3.30352 4.58753 3.34127 4.55004L4.55004 3.34126C4.58753 3.30352 4.63823 3.28182 4.69142 3.28075C4.74461 3.27968 4.79613 3.29932 4.83511 3.33552L6.2539 4.6411C6.35202 4.73144 6.47684 4.78746 6.60956 4.8007C6.74228 4.81394 6.87571 4.7837 6.98975 4.71452C7.57937 4.35635 8.22059 4.09101 8.89089 3.92781C9.02092 3.89615 9.13707 3.82295 9.22175 3.71933C9.30643 3.6157 9.35501 3.48729 9.36013 3.35357L9.44217 1.42576C9.44418 1.37273 9.46668 1.32254 9.50492 1.28575C9.54317 1.24896 9.59418 1.22843 9.64725 1.22847H11.356C11.4091 1.22843 11.4601 1.24896 11.4984 1.28575C11.5366 1.32254 11.5591 1.37273 11.5611 1.42576L11.6411 3.35357C11.6462 3.48729 11.6948 3.6157 11.7795 3.71933C11.8642 3.82295 11.9803 3.89615 12.1103 3.92781C12.7806 4.09101 13.4219 4.35635 14.0115 4.71452C14.1255 4.7837 14.259 4.81394 14.3917 4.8007C14.5244 4.78746 14.6492 4.73144 14.7473 4.6411L16.1661 3.33552C16.2051 3.29932 16.2566 3.27968 16.3098 3.28075C16.363 3.28182 16.4137 3.30352 16.4512 3.34126L17.66 4.55004C17.6977 4.58753 17.7194 4.63822 17.7205 4.69141C17.7216 4.7446 17.7019 4.79613 17.6657 4.83511L16.3618 6.25102C16.2711 6.34948 16.2149 6.47483 16.2019 6.60808C16.1889 6.74132 16.2197 6.87517 16.2896 6.98933C16.6496 7.57959 16.9164 8.2218 17.0808 8.89335C17.1125 9.0229 17.1855 9.13863 17.2887 9.22312C17.3919 9.3076 17.5197 9.35626 17.653 9.36177L19.573 9.44134C19.626 9.44336 19.6762 9.46585 19.713 9.5041C19.7498 9.54234 19.7703 9.59336 19.7703 9.64643V11.3548Z"/>
</mask>
<path d="M19.6239 8.21042L18.1518 8.14971C18.0033 7.66744 17.8091 7.20045 17.5718 6.75513L18.571 5.6694C18.8228 5.39707 18.9592 5.03771 18.9516 4.66687C18.9439 4.29603 18.7928 3.9426 18.5299 3.68089L17.3212 2.47129C17.0594 2.20845 16.706 2.05733 16.3352 2.04968C15.9643 2.04203 15.605 2.17845 15.3327 2.43027L14.2436 3.43191C13.7988 3.19695 13.3327 3.00468 12.8515 2.85767L12.7904 1.37859C12.7757 1.00781 12.6179 0.657143 12.3503 0.400125C12.0826 0.143107 11.7259 -0.00029224 11.3548 5.01105e-07H9.64602C9.27522 -0.00030911 8.91869 0.142864 8.65109 0.399534C8.38348 0.656203 8.22557 1.00646 8.21042 1.37695L8.1493 2.85603C7.66816 3.00304 7.20204 3.19531 6.75718 3.43027L5.66817 2.42986C5.39556 2.17862 5.03632 2.04257 4.66566 2.05022C4.29501 2.05786 3.94168 2.2086 3.67966 2.47088L2.47129 3.67966C2.20845 3.94137 2.05733 4.2948 2.04968 4.66564C2.04203 5.03648 2.17845 5.39584 2.43027 5.66817L3.42904 6.7539C3.19174 7.19922 2.99753 7.66621 2.84906 8.14848L1.37695 8.20919C1.00625 8.22434 0.655811 8.38243 0.399108 8.6503C0.142406 8.91816 -0.000625724 9.27501 2.05784e-06 9.64602V11.3548C-0.000307554 11.7256 0.142865 12.0821 0.399535 12.3497C0.656205 12.6173 1.00646 12.7752 1.37695 12.7904L2.8425 12.8511C2.99054 13.3364 3.18461 13.8064 3.42207 14.2547L2.42986 15.3326C2.17862 15.6053 2.04258 15.9645 2.05022 16.3352C2.05787 16.7058 2.20861 17.0591 2.47088 17.3212L3.67925 18.5295C3.94127 18.7918 4.2946 18.9425 4.66525 18.9502C5.03591 18.9578 5.39515 18.8218 5.66776 18.5705L6.74241 17.5812C7.19164 17.8206 7.66293 18.0161 8.14971 18.1649L8.21001 19.6235C8.22516 19.9939 8.38307 20.3442 8.65067 20.6009C8.91828 20.8575 9.27481 21.0007 9.64561 21.0004H11.3544C11.7252 21.0007 12.0817 20.8575 12.3493 20.6009C12.6169 20.3442 12.7748 19.9939 12.79 19.6235L12.8503 18.1649C13.3371 18.0161 13.8084 17.8206 14.2576 17.5812L15.3322 18.5705C15.6046 18.8224 15.9639 18.9588 16.3348 18.9511C16.7056 18.9435 17.059 18.7924 17.3208 18.5295L18.5291 17.3212C18.7914 17.0591 18.9421 16.7058 18.9498 16.3352C18.9574 15.9645 18.8214 15.6053 18.5701 15.3326L17.5779 14.2547C17.8154 13.8064 18.0095 13.3364 18.1575 12.8511L19.6231 12.7904C19.9935 12.7752 20.3438 12.6173 20.6005 12.3497C20.8571 12.0821 21.0003 11.7256 21 11.3548V9.64602C21.0003 9.27536 20.8573 8.91894 20.6008 8.65136C20.3443 8.38378 19.9942 8.22577 19.6239 8.21042V8.21042ZM19.7703 11.3548C19.7703 11.4079 19.7498 11.4589 19.713 11.4971C19.6762 11.5354 19.626 11.5579 19.573 11.5599L17.6579 11.6395C17.5244 11.6451 17.3964 11.694 17.2932 11.7788C17.19 11.8636 17.1171 11.9797 17.0857 12.1095C16.9226 12.7835 16.6564 13.4282 16.2966 14.0209C16.2272 14.135 16.1969 14.2684 16.21 14.4012C16.2232 14.5341 16.2792 14.659 16.3696 14.7572L17.6653 16.1649C17.7015 16.2039 17.7211 16.2554 17.7201 16.3086C17.719 16.3618 17.6973 16.4125 17.6596 16.45L16.4508 17.6587C16.4133 17.6965 16.3626 17.7182 16.3094 17.7192C16.2562 17.7203 16.2047 17.7007 16.1657 17.6645L14.7605 16.3712C14.6621 16.2804 14.5367 16.2242 14.4035 16.2111C14.2702 16.198 14.1364 16.2287 14.0221 16.2986C13.4289 16.6605 12.7831 16.9284 12.1079 17.0927C11.9779 17.1244 11.8617 17.1976 11.777 17.3012C11.6923 17.4048 11.6438 17.5332 11.6386 17.6669L11.5595 19.5738C11.5575 19.6269 11.535 19.677 11.4967 19.7138C11.4585 19.7506 11.4075 19.7712 11.3544 19.7711H9.64602C9.59295 19.7712 9.54194 19.7506 9.50369 19.7138C9.46545 19.677 9.44295 19.6269 9.44094 19.5738L9.36177 17.6669C9.35665 17.5332 9.30807 17.4048 9.22339 17.3012C9.13871 17.1976 9.02256 17.1244 8.89254 17.0927C8.21729 16.9284 7.57155 16.6605 6.97826 16.2986C6.86406 16.2287 6.73018 16.198 6.59693 16.2111C6.46369 16.2242 6.33836 16.2804 6.23995 16.3712L4.8347 17.6645C4.79572 17.7007 4.7442 17.7203 4.69101 17.7192C4.63782 17.7182 4.58712 17.6965 4.54963 17.6587L3.34127 16.4508C3.30352 16.4133 3.28182 16.3626 3.28075 16.3094C3.27968 16.2562 3.29932 16.2047 3.33552 16.1657L4.63126 14.758C4.72163 14.6598 4.77763 14.5349 4.7908 14.4021C4.80397 14.2693 4.7736 14.1358 4.70427 14.0217C4.34438 13.429 4.07819 12.7843 3.9151 12.1103C3.88359 11.9802 3.81046 11.8638 3.70682 11.779C3.60318 11.6941 3.47469 11.6454 3.34085 11.6403L1.42576 11.5607C1.37273 11.5587 1.32255 11.5362 1.28576 11.4979C1.24896 11.4597 1.22843 11.4087 1.22847 11.3556V9.64602C1.22843 9.59295 1.24896 9.54193 1.28576 9.50369C1.32255 9.46544 1.37273 9.44295 1.42576 9.44093L3.34578 9.36136C3.47903 9.35585 3.60689 9.30719 3.7101 9.2227C3.8133 9.13822 3.88625 9.02249 3.91797 8.89294C4.08233 8.22139 4.3492 7.57918 4.70919 6.98892C4.77912 6.87476 4.80991 6.74091 4.79688 6.60767C4.78385 6.47442 4.72772 6.34907 4.637 6.25061L3.33552 4.83511C3.29932 4.79613 3.27968 4.7446 3.28075 4.69141C3.28182 4.63822 3.30352 4.58753 3.34127 4.55004L4.55004 3.34126C4.58753 3.30352 4.63823 3.28182 4.69142 3.28075C4.74461 3.27968 4.79613 3.29932 4.83511 3.33552L6.2539 4.6411C6.35202 4.73144 6.47684 4.78746 6.60956 4.8007C6.74228 4.81394 6.87571 4.7837 6.98975 4.71452C7.57937 4.35635 8.22059 4.09101 8.89089 3.92781C9.02092 3.89615 9.13707 3.82295 9.22175 3.71933C9.30643 3.6157 9.35501 3.48729 9.36013 3.35357L9.44217 1.42576C9.44418 1.37273 9.46668 1.32254 9.50492 1.28575C9.54317 1.24896 9.59418 1.22843 9.64725 1.22847H11.356C11.4091 1.22843 11.4601 1.24896 11.4984 1.28575C11.5366 1.32254 11.5591 1.37273 11.5611 1.42576L11.6411 3.35357C11.6462 3.48729 11.6948 3.6157 11.7795 3.71933C11.8642 3.82295 11.9803 3.89615 12.1103 3.92781C12.7806 4.09101 13.4219 4.35635 14.0115 4.71452C14.1255 4.7837 14.259 4.81394 14.3917 4.8007C14.5244 4.78746 14.6492 4.73144 14.7473 4.6411L16.1661 3.33552C16.2051 3.29932 16.2566 3.27968 16.3098 3.28075C16.363 3.28182 16.4137 3.30352 16.4512 3.34126L17.66 4.55004C17.6977 4.58753 17.7194 4.63822 17.7205 4.69141C17.7216 4.7446 17.7019 4.79613 17.6657 4.83511L16.3618 6.25102C16.2711 6.34948 16.2149 6.47483 16.2019 6.60808C16.1889 6.74132 16.2197 6.87517 16.2896 6.98933C16.6496 7.57959 16.9164 8.2218 17.0808 8.89335C17.1125 9.0229 17.1855 9.13863 17.2887 9.22312C17.3919 9.3076 17.5197 9.35626 17.653 9.36177L19.573 9.44134C19.626 9.44336 19.6762 9.46585 19.713 9.5041C19.7498 9.54234 19.7703 9.59336 19.7703 9.64643V11.3548Z" fill="#001423" stroke="#FCFDFD" stroke-width="0.6" mask="url(#path-2-inside-1_869:2208)"/>
</svg>
