<svg width="23" height="25" viewBox="0 0 23 25" fill="none" xmlns="http://www.w3.org/2000/svg">
<path fill-rule="evenodd" clip-rule="evenodd" d="M17.8947 5.62074H2C1.23232 5.62074 0.61 6.24307 0.61 7.01074V22.9055C0.61 23.6732 1.23233 24.2955 2 24.2955H17.8947C18.6624 24.2955 19.2847 23.6732 19.2847 22.9055V7.01074C19.2847 6.24307 18.6624 5.62074 17.8947 5.62074ZM2 5.01074C0.895431 5.01074 0 5.90617 0 7.01074V22.9055C0 24.01 0.895432 24.9055 2 24.9055H17.8947C18.9993 24.9055 19.8947 24.01 19.8947 22.9055V7.01074C19.8947 5.90617 18.9993 5.01074 17.8947 5.01074H2Z" fill="#001423"/>
<path d="M10 6.55762C10 4.90076 11.3431 3.55762 13 3.55762H19.0526C20.1572 3.55762 21.0526 4.45305 21.0526 5.55762V7.39972C21.0526 10.1611 18.8141 12.3997 16.0526 12.3997H12C10.8954 12.3997 10 11.5043 10 10.3997V6.55762Z" fill="white"/>
<path d="M16.4768 2.12293L16.4768 2.12293C16.574 2.11248 16.6697 2.13867 16.7467 2.19334C16.7873 2.22219 16.8229 2.25905 16.8508 2.30278C16.8508 2.30278 16.8508 2.30278 16.8508 2.30278L20.3895 7.86268L20.3895 7.86269L20.3684 7.87612C20.4303 7.97325 20.443 8.09361 20.4032 8.20164C20.3634 8.30967 20.2752 8.39269 20.1651 8.42631L16.4768 2.12293ZM16.4768 2.12293C16.328 2.13902 16.2013 2.23799 16.1496 2.3784L16.1496 2.37841M16.4768 2.12293L16.1496 2.37841M16.1496 2.37841L15.4078 4.39792M16.1496 2.37841L15.4078 4.39792M15.4078 4.39792C12.9547 3.99937 11.3306 5.2882 11.2566 5.3483C10.1257 6.247 9.53226 7.2743 9.502 8.3993C9.47618 9.35523 9.86554 10.1943 10.2685 10.801C10.6715 11.4078 11.0896 11.7841 11.1245 11.815M15.4078 4.39792L11.5891 11.8276L11.603 11.8484C11.4663 11.9393 11.2891 11.9349 11.1577 11.8416C11.1462 11.8334 11.1351 11.8245 11.1245 11.815M11.1245 11.815C11.1245 11.815 11.1244 11.815 11.1244 11.815L11.1411 11.7963L11.1245 11.815ZM11.7343 11.4024L11.7579 11.3944C11.7579 11.3944 11.7579 11.3944 11.7579 11.3944M11.7343 11.4024L13.4871 10.2593C13.3845 10.1509 13.3522 9.99361 13.4037 9.85341L14.0029 8.22211C13.5805 8.15866 13.1335 8.12897 12.7333 8.17896C12.3232 8.23019 11.9654 8.36462 11.7319 8.62845C11.5188 8.86911 11.4121 9.22687 11.4156 9.69284C11.4191 10.1587 11.5329 10.73 11.7579 11.3944M11.7343 11.4024L11.7579 11.3944M11.7343 11.4024L11.7579 11.3944M16.525 2.57014L20.0189 8.05985L13.8138 9.9507L14.5572 7.92678L14.5672 7.89958L14.5388 7.89368C14.0591 7.79394 13.5382 7.72469 13.0473 7.73849C12.5565 7.75228 12.0935 7.84908 11.7315 8.08345C11.3685 8.31849 11.1093 8.69047 11.0248 9.24914C10.9432 9.78866 11.0244 10.5017 11.3302 11.4344C11.311 11.4156 11.2883 11.393 11.2626 11.3669C11.1761 11.2786 11.0564 11.1492 10.9238 10.9852C10.6585 10.657 10.342 10.1907 10.1361 9.63709C9.9303 9.0837 9.83521 8.44389 10.0113 7.76767C10.1873 7.09158 10.6352 6.37638 11.5199 5.67328L11.5201 5.67312L11.5044 5.65371L11.5201 5.67312L11.5202 5.67308L11.5204 5.67293L11.5212 5.67225L11.5247 5.66948L11.5389 5.65849C11.5515 5.64886 11.5705 5.63472 11.5955 5.61689C11.6455 5.58122 11.72 5.53075 11.8171 5.47183C12.0114 5.35399 12.2964 5.20243 12.6588 5.06791C13.3837 4.79891 14.4181 4.59815 15.6563 4.87142L15.6777 4.87613L15.6852 4.85563L16.525 2.57014ZM14.0117 8.19816C14.0201 8.19943 14.0285 8.20071 14.0369 8.20201L14.0281 8.22595L14.0117 8.19816Z" fill="black" stroke="black" stroke-width="0.05"/>
</svg>
