<?xml version="1.0" encoding="UTF-8" standalone="no"?>
<svg
   width="30"
   height="30"
   viewBox="0 0 30 30"
   fill="none"
   version="1.1"
   id="svg8"
   sodipodi:docname="Show news icon 16px.svg"
   inkscape:version="1.1.1 (3bf5ae0d25, 2021-09-20)"
   xmlns:inkscape="http://www.inkscape.org/namespaces/inkscape"
   xmlns:sodipodi="http://sodipodi.sourceforge.net/DTD/sodipodi-0.dtd"
   xmlns="http://www.w3.org/2000/svg"
   xmlns:svg="http://www.w3.org/2000/svg">
  <defs
     id="defs12">
    <clipPath
       id="clip0_1179:2925">
      <rect
         width="22"
         height="22"
         fill="#ffffff"
         transform="translate(0.742188)"
         id="rect14794"
         x="0"
         y="0" />
    </clipPath>
    <clipPath
       id="clip0_1179:2925-8">
      <rect
         width="22"
         height="22"
         fill="#ffffff"
         transform="translate(0.742188)"
         id="rect14794-5"
         x="0"
         y="0" />
    </clipPath>
    <clipPath
       id="clip0_1179:2925-84">
      <rect
         width="22"
         height="22"
         fill="#ffffff"
         transform="translate(0.742188)"
         id="rect14794-3"
         x="0"
         y="0" />
    </clipPath>
    <clipPath
       id="clip0_1179:2925-8-1">
      <rect
         width="22"
         height="22"
         fill="#ffffff"
         transform="translate(0.742188)"
         id="rect14794-5-2"
         x="0"
         y="0" />
    </clipPath>
    <clipPath
       id="clip0_1179:2925-3">
      <rect
         width="22"
         height="22"
         fill="#ffffff"
         transform="translate(0.742188)"
         id="rect14794-57"
         x="0"
         y="0" />
    </clipPath>
    <clipPath
       id="clip0_1179:2925-8-6">
      <rect
         width="22"
         height="22"
         fill="#ffffff"
         transform="translate(0.742188)"
         id="rect14794-5-1"
         x="0"
         y="0" />
    </clipPath>
    <clipPath
       id="clip0_1179:2925-86">
      <rect
         width="22"
         height="22"
         fill="#ffffff"
         transform="translate(0.742188)"
         id="rect14794-59"
         x="0"
         y="0" />
    </clipPath>
    <clipPath
       id="clip0_1179:2925-8-0">
      <rect
         width="22"
         height="22"
         fill="#ffffff"
         transform="translate(0.742188)"
         id="rect14794-5-7"
         x="0"
         y="0" />
    </clipPath>
  </defs>
  <sodipodi:namedview
     id="namedview10"
     pagecolor="#ffffff"
     bordercolor="#666666"
     borderopacity="1.0"
     inkscape:pageshadow="2"
     inkscape:pageopacity="0.0"
     inkscape:pagecheckerboard="0"
     showgrid="true"
     inkscape:snap-grids="true"
     inkscape:snap-to-guides="false"
     inkscape:snap-others="false"
     inkscape:object-nodes="false"
     inkscape:zoom="16.3125"
     inkscape:cx="5.0574714"
     inkscape:cy="12.842912"
     inkscape:window-width="1920"
     inkscape:window-height="1001"
     inkscape:window-x="-9"
     inkscape:window-y="-9"
     inkscape:window-maximized="1"
     inkscape:current-layer="svg8"
     width="30px"
     showguides="true"
     inkscape:guide-bbox="true"
     inkscape:snap-nodes="false"
     inkscape:snap-bbox="false"
     inkscape:snap-global="false">
    <inkscape:grid
       type="xygrid"
       id="grid8859" />
    <sodipodi:guide
       position="3.9774756,26.729631"
       orientation="1,0"
       id="guide848" />
    <sodipodi:guide
       position="14.009553,26.066719"
       orientation="0,-1"
       id="guide850" />
    <sodipodi:guide
       position="25.986174,26.50866"
       orientation="1,0"
       id="guide852" />
    <sodipodi:guide
       position="16.396038,4.0138258"
       orientation="0,-1"
       id="guide854" />
  </sodipodi:namedview>
  <path
     d="m 15.498702,20.500051 c -0.0048,-4.141985 0.0047,-8.011001 0,-12.0001009 -1.723974,1.1548805 -3.936324,2.6748519 -5.998753,4.0000339 v 5.00004 c 1.672027,0.83318 3.988394,2.02827 5.998753,3.000027 z"
     id="path2802"
     style="display:inline;fill:none;stroke:#001423;stroke-width:0.9999;stroke-linejoin:round;stroke-miterlimit:4;stroke-dasharray:none;stroke-opacity:1"
     sodipodi:nodetypes="ccccc" />
  <path
     d="m 9.501035,12.503636 c -1.6188333,-0.02318 -3.0305179,0.02987 -3.0011464,0.995409 -0.0032,1.165977 0.0032,1.820249 0,2.986228 0.02193,1.143169 1.8164002,1.02577 3.0011464,0.995409 z"
     id="path2800"
     inkscape:label="path2800"
     style="display:inline;fill:none;stroke:#001423;stroke-width:0.997927;stroke-linejoin:round;stroke-miterlimit:4;stroke-dasharray:none;stroke-opacity:1"
     sodipodi:nodetypes="ccccc" />
  <path
     d="m 20.291194,19.323277 c -0.266821,-0.246394 -0.270991,-0.658351 -0.0094,-0.920208 1.072015,-1.072771 1.821134,-2.474457 1.806227,-3.94685 -0.01492,-1.472386 -0.792039,-2.839171 -1.885135,-3.84858 -0.266822,-0.246392 -0.270989,-0.6583472 -0.0094,-0.9202059 0.261675,-0.2618585 0.826488,-0.2401419 1.093307,0.00624 1.351207,1.2477619 2.194343,3.0291059 2.212918,4.8492919 0.01839,1.82005 -0.926525,3.426355 -2.25168,4.75244 -0.261828,0.261718 -0.69019,0.274253 -0.95701,0.02787 z"
     id="path15997"
     style="fill:#000000;fill-opacity:1;stroke:none;stroke-width:0.00209803;stroke-miterlimit:4;stroke-dasharray:none"
     sodipodi:nodetypes="ccsscccccc" />
  <path
     d="m 17.749528,17.876287 c -0.228703,-0.172476 -0.232277,-0.460845 -0.008,-0.644145 0.918862,-0.75094 1.560959,-1.73212 1.548183,-2.762793 -0.01272,-1.030669 -0.678886,-1.987419 -1.615816,-2.694006 -0.228706,-0.172473 -0.232276,-0.460843 -0.008,-0.644144 0.22429,-0.183301 0.708412,-0.168099 0.937111,0.0044 1.158168,0.873434 1.880851,2.120374 1.896772,3.394503 0.01578,1.274035 -0.794157,2.398447 -1.929996,3.326707 -0.224422,0.183202 -0.591588,0.191978 -0.820287,0.01951 z"
     id="path33200"
     style="fill:#000000;fill-opacity:1;stroke:none;stroke-width:0.00162513;stroke-miterlimit:4;stroke-dasharray:none"
     sodipodi:nodetypes="ccsscccccc" />
</svg>
