<svg width="22" height="23" viewBox="0 0 22 23" fill="none" xmlns="http://www.w3.org/2000/svg">
<path d="M0.508288 11.471L0.508301 11.471L10.3998 1.03478C10.4886 0.947788 10.6079 0.899023 10.7322 0.899023C10.8565 0.899023 10.9758 0.947789 11.0645 1.03479L20.9585 11.471C21.0197 11.5356 21.0607 11.6166 21.0763 11.7042C21.0919 11.7918 21.0816 11.882 21.0465 11.9638C21.0115 12.0455 20.9532 12.1152 20.879 12.1642C20.8048 12.2132 20.7178 12.2394 20.6289 12.2396H18.3459H18.1959V12.3896V22.1086C18.1959 22.2293 18.1479 22.3451 18.0625 22.4305C17.9771 22.5159 17.8613 22.5639 17.7405 22.5639H13.4622C13.3414 22.5639 13.2256 22.5159 13.1402 22.4305C13.0548 22.3451 13.0068 22.2293 13.0068 22.1086V17.1086V16.9586H12.8568H8.75764H8.60764V17.1086V22.1086C8.60764 22.2293 8.55967 22.3451 8.47429 22.4305C8.3889 22.5159 8.27308 22.5639 8.15233 22.5639H3.86426C3.74351 22.5639 3.6277 22.5159 3.54231 22.4305C3.45692 22.3451 3.40895 22.2293 3.40895 22.1086V12.3896V12.2396H3.25895H0.837937C0.748984 12.2394 0.662024 12.2132 0.587797 12.1642C0.51357 12.1152 0.455328 12.0455 0.420265 11.9638C0.385201 11.882 0.374852 11.7918 0.390495 11.7042C0.406138 11.6166 0.447088 11.5356 0.508288 11.471ZM17.4162 11.4623C17.5015 11.377 17.6171 11.3291 17.7377 11.329C17.7378 11.329 17.738 11.329 17.7381 11.329L19.2194 11.3338L19.5697 11.335L19.3288 11.0806L10.8423 2.12196L10.7334 2.00704L10.6245 2.12193L2.13799 11.0758L1.89802 11.329H2.24686H3.87395C3.99471 11.329 4.11052 11.3769 4.19591 11.4623C4.2813 11.5477 4.32927 11.6635 4.32927 11.7843V21.5032V21.6532H4.47927H7.54701H7.69701V21.5032V16.5033C7.69701 16.3826 7.74498 16.2668 7.83037 16.1814C7.91576 16.096 8.03157 16.048 8.15233 16.048H13.4622C13.5829 16.048 13.6987 16.096 13.7841 16.1814C13.8695 16.2668 13.9175 16.3826 13.9175 16.5033V21.5032V21.6532H14.0675H17.1328H17.2828V21.5032V11.7843C17.2828 11.6635 17.3308 11.5477 17.4162 11.4623Z" fill="#001423" stroke="white" stroke-width="0.3"/>
</svg>
