<?xml version="1.0" encoding="UTF-8" standalone="no"?>
<!-- Created with Inkscape (http://www.inkscape.org/) -->

<svg
   width="30"
   height="30"
   version="1.1"
   viewBox="0 0 30 30"
   id="svg6"
   sodipodi:docname="Show bookrmarks bar 16 px.svg"
   inkscape:version="1.1.1 (3bf5ae0d25, 2021-09-20)"
   xmlns:inkscape="http://www.inkscape.org/namespaces/inkscape"
   xmlns:sodipodi="http://sodipodi.sourceforge.net/DTD/sodipodi-0.dtd"
   xmlns="http://www.w3.org/2000/svg"
   xmlns:svg="http://www.w3.org/2000/svg">
  <defs
     id="defs10" />
  <sodipodi:namedview
     id="namedview8"
     pagecolor="#ffffff"
     bordercolor="#666666"
     borderopacity="1.0"
     inkscape:pageshadow="2"
     inkscape:pageopacity="0.0"
     inkscape:pagecheckerboard="0"
     showgrid="true"
     inkscape:zoom="19.139023"
     inkscape:cx="7.4455211"
     inkscape:cy="21.187079"
     inkscape:window-width="1920"
     inkscape:window-height="1017"
     inkscape:window-x="-8"
     inkscape:window-y="-8"
     inkscape:window-maximized="1"
     inkscape:current-layer="svg6"
     inkscape:snap-global="false">
    <inkscape:grid
       type="xygrid"
       id="grid1224" />
  </sodipodi:namedview>
  <path
     style="color:#000000;fill:#000000;stroke-linejoin:round;-inkscape-stroke:none;paint-order:markers fill stroke"
     d="M 15.037109,7 A 0.50004949,0.50004949 0 0 0 14.583984,7.2851562 L 12.351563,11.96875 7.4257812,12.701172 A 0.50004949,0.50004949 0 0 0 7.140625,13.542969 l 3.550781,3.671875 -0.8749997,5.167968 a 0.50004949,0.50004949 0 0 0 0.7324217,0.521485 l 4.650391,-2.541016 -0.480469,-0.878906 -3.746094,2.048828 0.748047,-4.402344 A 0.50004949,0.50004949 0 0 0 11.585938,16.701172 L 8.5351563,13.546875 12.761719,12.917969 a 0.50004949,0.50004949 0 0 0 0.376953,-0.279297 l 1.890625,-3.9628907 1.839844,3.9746097 a 0.50004949,0.50004949 0 0 0 0.376953,0.285156 l 3.951172,0.617187 -1.484375,1.03711 0.574218,0.820312 2.5,-1.75 A 0.50004949,0.50004949 0 0 0 22.578125,12.757813 L 17.664062,11.988281 15.488281,7.2910156 A 0.50004949,0.50004949 0 0 0 15.037109,7 Z"
     id="path2" />
  <rect
     style="display:none;fill:none;stroke:#000000;stroke-width:0.264583;stroke-miterlimit:3.5;stroke-dasharray:none"
     id="rect848"
     width="3.96875"
     height="3.175"
     x="-28.276709"
     y="8.5469885"
     ry="0.52916664"
     rx="0.49609375" />
  <path
     style="color:#000000;fill:#000000;stroke-miterlimit:3.5;-inkscape-stroke:none"
     d="M 17.5,15 C 16.12365,15 15,16.12365 15,17.5 v 4 c 0,1.37635 1.12365,2.5 2.5,2.5 h 4 c 1.37635,0 2.5,-1.12365 2.5,-2.5 v -4 C 24,16.12365 22.87635,15 21.5,15 Z m 0,1 h 4 c 0.839648,0 1.5,0.660352 1.5,1.5 v 4 c 0,0.839648 -0.660352,1.5 -1.5,1.5 h -4 C 16.660352,23 16,22.339648 16,21.5 v -4 C 16,16.660352 16.660352,16 17.5,16 Z"
     id="rect943" />
  <path
     style="color:#000000;fill:#000000;-inkscape-stroke:none"
     d="m 21.119141,17.474609 -2.19336,2.570313 -1.05664,-1.150391 -0.738282,0.675781 1.822266,1.984375 2.927734,-3.429687 z"
     id="path982" />
</svg>
