<svg width="22" height="22" viewBox="0 0 22 22" fill="none" xmlns="http://www.w3.org/2000/svg">
<path d="M1.8572 8.6307L2.31771 8.56276L7.64658 7.77658C7.64662 7.77658 7.64665 7.77657 7.64669 7.77657C7.81177 7.7521 7.95569 7.64684 8.03076 7.4924L10.4141 2.58966L10.6232 2.15937L10.8324 2.58966L13.2155 7.49216C13.2155 7.49217 13.2155 7.49217 13.2155 7.49217C13.2906 7.64658 13.4347 7.75191 13.5997 7.77635L18.9283 8.56252L19.3888 8.63046L19.058 8.9579L15.2022 12.7738C15.0813 12.8937 15.0254 13.067 15.0542 13.2375L15.0542 13.2376L15.9644 18.6262L16.0432 19.0931L15.6255 18.8701L10.8595 16.326L1.8572 8.6307ZM1.8572 8.6307L2.18806 8.95814M1.8572 8.6307L2.18806 8.95814M2.18806 8.95814L6.04385 12.7742L6.04388 12.7742M2.18806 8.95814L6.04388 12.7742M6.04388 12.7742C6.16467 12.8937 6.22064 13.0672 6.19179 13.2375L6.19177 13.2376M6.04388 12.7742L6.19177 13.2376M6.19177 13.2376L5.28165 18.6262L5.2028 19.0931M6.19177 13.2376L5.2028 19.0931M5.2028 19.0931L5.62049 18.8701M5.2028 19.0931L5.62049 18.8701M5.62049 18.8701L10.3868 16.326M5.62049 18.8701L10.3868 16.326M10.3868 16.326L10.3869 16.326C10.5349 16.2471 10.7113 16.2471 10.8594 16.326L10.3868 16.326ZM10.7328 17.4352L10.6232 17.3767L10.5137 17.4352L4.76134 20.5057C4.76132 20.5057 4.7613 20.5057 4.76128 20.5057C4.58973 20.5969 4.38261 20.5819 4.22617 20.4666C4.06891 20.3506 3.9886 20.1524 4.02193 19.955L5.12029 13.4512L5.1404 13.3321L5.05457 13.2472L0.400657 8.64092L0.400622 8.64088C0.260812 8.50256 0.209701 8.29424 0.270559 8.10404L0.270577 8.10399C0.331308 7.91402 0.492046 7.77801 0.682573 7.74986L7.1148 6.801L7.23633 6.78307L7.29003 6.67259L10.1663 0.755355C10.2531 0.576827 10.4308 0.465969 10.6232 0.465969C10.8157 0.465969 10.9934 0.576827 11.0802 0.755356L13.9564 6.67259L14.0102 6.78307L14.1317 6.801L20.5637 7.74986C20.754 7.77798 20.9147 7.91387 20.9757 8.10404C21.0365 8.29424 20.9854 8.50256 20.8456 8.64088L20.8456 8.64091L16.1917 13.2467L16.1058 13.3317L16.126 13.4508L17.2245 19.9545C17.2579 20.1521 17.1776 20.3502 17.0202 20.4664C16.9311 20.532 16.8265 20.565 16.7216 20.565C16.641 20.565 16.56 20.5455 16.4851 20.5056L10.7328 17.4352Z" fill="#001423" stroke="white" stroke-width="0.465142"/>
<rect x="10.1182" y="13.2295" width="8.08414" height="8" rx="2.57052" fill="white"/>
<rect x="10.3382" y="13.4495" width="7.64414" height="7.56" rx="1.33047" stroke="#001423" stroke-width="0.44"/>
<path d="M13.6746 18.2213L12.5064 16.948L12.5064 16.948C12.4089 16.8419 12.2534 16.8476 12.1623 16.9595M13.6746 18.2213L12.1623 16.9595C12.1623 16.9595 12.1623 16.9595 12.1623 16.9595M13.6746 18.2213L16.3162 15.2718L16.3162 15.2718C16.4124 15.1646 16.5679 15.1678 16.6604 15.2785C16.75 15.3857 16.7476 15.5548 16.6545 15.6587C16.6545 15.6587 16.6545 15.6587 16.6545 15.6587L13.8459 18.7949C13.7998 18.8463 13.7389 18.8734 13.6767 18.8734C13.6155 18.8734 13.5555 18.8473 13.5096 18.7972L13.5096 18.7972L13.6746 18.2213ZM12.1623 16.9595C12.0739 17.0679 12.078 17.2369 12.1722 17.3396L12.1722 17.3396M12.1623 16.9595L12.1722 17.3396M12.1722 17.3396L13.5096 18.7972L12.1722 17.3396Z" fill="#001423" stroke="#001423" stroke-width="0.08"/>
</svg>
