<?xml version="1.0" encoding="UTF-8" standalone="no"?>
<!-- Created with Inkscape (http://www.inkscape.org/) -->

<svg
   width="30"
   height="30"
   version="1.1"
   viewBox="0 0 30 30"
   id="svg1031"
   sodipodi:docname="Show Bookmarks 16px.svg"
   inkscape:version="1.1.1 (3bf5ae0d25, 2021-09-20)"
   xmlns:inkscape="http://www.inkscape.org/namespaces/inkscape"
   xmlns:sodipodi="http://sodipodi.sourceforge.net/DTD/sodipodi-0.dtd"
   xmlns="http://www.w3.org/2000/svg"
   xmlns:svg="http://www.w3.org/2000/svg">
  <defs
     id="defs1035" />
  <sodipodi:namedview
     id="namedview1033"
     pagecolor="#ffffff"
     bordercolor="#666666"
     borderopacity="1.0"
     inkscape:pageshadow="2"
     inkscape:pageopacity="0.0"
     inkscape:pagecheckerboard="0"
     showgrid="false"
     inkscape:zoom="26.1"
     inkscape:cx="15"
     inkscape:cy="15"
     inkscape:window-width="1920"
     inkscape:window-height="1001"
     inkscape:window-x="-9"
     inkscape:window-y="-9"
     inkscape:window-maximized="1"
     inkscape:current-layer="svg1031"
     inkscape:snap-global="false" />
  <path
     d="m16.011 20.396-1.0515-0.44391-4.6509 2.5482 0.91828-5.43-3.7266-3.8619 5.1872-0.77338 2.3477-4.9348 2.2876 4.9521 5.1776 0.81204-3.1855 3.1197"
     fill="none"
     stroke="#000"
     stroke-linejoin="round"
     style="paint-order:markers fill stroke"
     id="path1025" />
  <rect
     x="16.900068"
     y="17.400068"
     width="5.1998634"
     height="5.199863"
     rx="1.0212878"
     fill="none"
     stroke="#111c1c"
     stroke-linejoin="round"
     stroke-width="0.807687"
     id="rect1027"
     style="stroke-width:0.800136;stroke-miterlimit:4;stroke-dasharray:none" />
  <path
     d="m 19.203215,20.75013 a 0.20952921,0.23855859 0 0 1 -0.147722,-0.06916 l -0.751169,-0.851673 a 0.20952921,0.23855859 0 0 1 0.295441,-0.337558 l 0.60345,0.683484 1.196401,-1.359838 a 0.20952921,0.23855859 0 0 1 0.29649,0.336376 l -1.345158,1.529176 a 0.20952921,0.23855859 0 0 1 -0.147725,0.06916 z"
     stroke="#000000"
     stroke-width=".041089"
     id="path1029"
     style="stroke-width:0.499757;stroke-linecap:round;stroke-miterlimit:4;stroke-dasharray:none" />
</svg>
