<?xml version="1.0" encoding="UTF-8" standalone="no"?>
<svg
   width="30"
   height="30"
   viewBox="0 0 30 30"
   fill="none"
   version="1.1"
   id="svg8"
   sodipodi:docname="Show news icon 16px.svg"
   inkscape:version="1.1.1 (3bf5ae0d25, 2021-09-20)"
   xmlns:inkscape="http://www.inkscape.org/namespaces/inkscape"
   xmlns:sodipodi="http://sodipodi.sourceforge.net/DTD/sodipodi-0.dtd"
   xmlns="http://www.w3.org/2000/svg"
   xmlns:svg="http://www.w3.org/2000/svg">
  <defs
     id="defs12">
    <clipPath
       id="clip0_1179:2925">
      <rect
         width="22"
         height="22"
         fill="#ffffff"
         transform="translate(0.742188)"
         id="rect14794"
         x="0"
         y="0" />
    </clipPath>
    <clipPath
       id="clip0_1179:2925-8">
      <rect
         width="22"
         height="22"
         fill="#ffffff"
         transform="translate(0.742188)"
         id="rect14794-5"
         x="0"
         y="0" />
    </clipPath>
    <clipPath
       id="clip0_1179:2925-84">
      <rect
         width="22"
         height="22"
         fill="#ffffff"
         transform="translate(0.742188)"
         id="rect14794-3"
         x="0"
         y="0" />
    </clipPath>
    <clipPath
       id="clip0_1179:2925-8-1">
      <rect
         width="22"
         height="22"
         fill="#ffffff"
         transform="translate(0.742188)"
         id="rect14794-5-2"
         x="0"
         y="0" />
    </clipPath>
    <clipPath
       id="clip0_1179:2925-3">
      <rect
         width="22"
         height="22"
         fill="#ffffff"
         transform="translate(0.742188)"
         id="rect14794-57"
         x="0"
         y="0" />
    </clipPath>
    <clipPath
       id="clip0_1179:2925-8-6">
      <rect
         width="22"
         height="22"
         fill="#ffffff"
         transform="translate(0.742188)"
         id="rect14794-5-1"
         x="0"
         y="0" />
    </clipPath>
    <clipPath
       id="clip0_1179:2925-86">
      <rect
         width="22"
         height="22"
         fill="#ffffff"
         transform="translate(0.742188)"
         id="rect14794-59"
         x="0"
         y="0" />
    </clipPath>
    <clipPath
       id="clip0_1179:2925-8-0">
      <rect
         width="22"
         height="22"
         fill="#ffffff"
         transform="translate(0.742188)"
         id="rect14794-5-7"
         x="0"
         y="0" />
    </clipPath>
  </defs>
  <sodipodi:namedview
     id="namedview10"
     pagecolor="#ffffff"
     bordercolor="#666666"
     borderopacity="1.0"
     inkscape:pageshadow="2"
     inkscape:pageopacity="0.0"
     inkscape:pagecheckerboard="0"
     showgrid="true"
     inkscape:snap-grids="true"
     inkscape:snap-to-guides="false"
     inkscape:snap-others="false"
     inkscape:object-nodes="false"
     inkscape:zoom="22.627417"
     inkscape:cx="1.524699"
     inkscape:cy="18.318485"
     inkscape:window-width="1920"
     inkscape:window-height="1017"
     inkscape:window-x="-8"
     inkscape:window-y="-8"
     inkscape:window-maximized="1"
     inkscape:current-layer="svg8"
     width="30px"
     showguides="true"
     inkscape:guide-bbox="true"
     inkscape:snap-nodes="false"
     inkscape:snap-bbox="false"
     inkscape:snap-global="false">
    <inkscape:grid
       type="xygrid"
       id="grid8859" />
    <sodipodi:guide
       position="3.9774756,26.729631"
       orientation="1,0"
       id="guide848" />
    <sodipodi:guide
       position="14.009553,26.066719"
       orientation="0,-1"
       id="guide850" />
    <sodipodi:guide
       position="25.986174,26.50866"
       orientation="1,0"
       id="guide852" />
    <sodipodi:guide
       position="16.396038,4.0138258"
       orientation="0,-1"
       id="guide854" />
    <sodipodi:guide
       position="-8.3085047,18.929359"
       orientation="1,0"
       id="guide1388" />
    <sodipodi:guide
       position="-3.6902135,17.316272"
       orientation="1,0"
       id="guide1390" />
  </sodipodi:namedview>
  <path
     d="m 10.322314,12.304599 c -1.5219014,-0.02782 -2.849058,0.03584 -2.8214451,1.19467 -0.00301,1.399383 0.00301,2.184627 0,3.584013 0.020617,1.37201 1.7076387,1.231111 2.8214451,1.194671 z"
     id="path2800"
     inkscape:label="path2800"
     style="display:inline;fill:none;stroke:#001423;stroke-width:1;stroke-linejoin:round;stroke-miterlimit:4;stroke-dasharray:none;stroke-opacity:1"
     sodipodi:nodetypes="ccccc" />
  <path
     d="m 20.791194,19.823278 c -0.266821,-0.246394 -0.270991,-0.658351 -0.0094,-0.920208 1.072015,-1.072771 1.821134,-2.474457 1.806227,-3.94685 -0.01492,-1.472386 -0.792039,-2.839171 -1.885135,-3.84858 -0.266822,-0.246392 -0.270989,-0.658347 -0.0094,-0.920206 0.261675,-0.2618584 0.826488,-0.2401418 1.093307,0.0062 1.351207,1.247762 2.194343,3.029106 2.212918,4.849292 0.01839,1.82005 -0.926525,3.426355 -2.25168,4.75244 -0.261828,0.261718 -0.69019,0.274253 -0.95701,0.02787 z"
     id="path15997"
     style="display:none;fill:#000000;fill-opacity:1;stroke:none;stroke-width:0;stroke-miterlimit:4;stroke-dasharray:none"
     sodipodi:nodetypes="ccsscccccc" />
  <path
     style="display:none;fill:#000000;fill-opacity:1;stroke:none;stroke-width:0.00162513;stroke-miterlimit:4;stroke-dasharray:none"
     d="m 18.249528,18.376275 c -0.228703,-0.172476 -0.232277,-0.460845 -0.008,-0.644145 0.918862,-0.75094 1.560959,-1.73212 1.548183,-2.762793 -0.01272,-1.030669 -0.678886,-1.987419 -1.615816,-2.694006 -0.228706,-0.172473 -0.232276,-0.460843 -0.008,-0.644144 0.22429,-0.183301 0.708412,-0.168099 0.937111,0.0044 1.158168,0.873434 1.880851,2.120374 1.896772,3.394503 0.01578,1.274035 -0.794157,2.398447 -1.929996,3.326707 -0.224422,0.183202 -0.591588,0.191978 -0.820287,0.01951 z"
     id="path33200" />
  <path
     d="m 16.906311,21.499999 c -0.005,-4.487111 0.0049,-8.67851 0,-12.9999993 -1.756984,1.2511101 -3.989173,2.4429043 -6.091091,3.8785063 l -0.02252,5.584232 c 1.704039,0.902605 4.064756,2.484534 6.113608,3.537261 z"
     id="path873"
     style="display:inline;fill:none;stroke:#001423;stroke-width:0.999994;stroke-linejoin:round;stroke-miterlimit:4;stroke-dasharray:none;stroke-opacity:1"
     sodipodi:nodetypes="ccccc" />
  <path
     d="m 18.489263,18.848069 c -0.19237,-0.202786 -0.192761,-0.531793 -7.78e-4,-0.734915 0.786128,-0.832139 1.218351,-1.938023 1.216956,-3.113927 -0.0014,-1.175906 -0.436241,-2.281034 -1.224342,-3.111795 -0.192375,-0.202788 -0.192766,-0.531789 -7.8e-4,-0.734913 0.191891,-0.203122 0.503349,-0.203394 0.695721,-6.03e-4 0.974199,1.026934 1.511637,2.392893 1.51347,3.846571 0.0017,1.453559 -0.532466,2.820456 -1.504226,3.849091 -0.192,0.203011 -0.503462,0.20328 -0.695834,5.04e-4 z"
     id="path861"
     style="fill:#000000;fill-opacity:1;stroke:none;stroke-width:0.999994;stroke-miterlimit:4;stroke-dasharray:none" />
  <path
     d="m 20.837098,19.805961 c -0.214839,-0.255714 -0.214078,-0.666968 0.0017,-0.918632 0.884015,-1.03101 1.489771,-2.408311 1.492502,-3.878179 0.0027,-1.469867 -0.597886,-2.856305 -1.478042,-3.903903 -0.214845,-0.255717 -0.214081,-0.666964 0.0017,-0.918634 0.215785,-0.2516635 0.564825,-0.2483817 0.779667,0.0074 1.087989,1.294971 1.86863,3.008638 1.865376,4.82572 -0.0034,1.816933 -0.79036,3.519307 -1.883121,4.793773 -0.215907,0.251522 -0.564945,0.248237 -0.779789,-0.0075 z"
     id="path2317"
     style="fill:#000000;fill-opacity:1;stroke:none;stroke-width:1;stroke-miterlimit:4;stroke-dasharray:none"
     sodipodi:nodetypes="cccscccccc" />
</svg>
