<?xml version="1.0" encoding="UTF-8" standalone="no"?>
<!-- Created with Inkscape (http://www.inkscape.org/) -->

<svg
   width="16"
   height="16"
   viewBox="0 0 4.2333332 4.2333335"
   version="1.1"
   id="svg14380"
   inkscape:version="1.1.1 (3bf5ae0d25, 2021-09-20)"
   sodipodi:docname="Snapshot 16px for the browser.svg"
   xmlns:inkscape="http://www.inkscape.org/namespaces/inkscape"
   xmlns:sodipodi="http://sodipodi.sourceforge.net/DTD/sodipodi-0.dtd"
   xmlns="http://www.w3.org/2000/svg"
   xmlns:svg="http://www.w3.org/2000/svg">
  <sodipodi:namedview
     id="namedview14382"
     pagecolor="#ffffff"
     bordercolor="#666666"
     borderopacity="1.0"
     inkscape:pageshadow="2"
     inkscape:pageopacity="0.0"
     inkscape:pagecheckerboard="0"
     inkscape:document-units="px"
     showgrid="false"
     inkscape:zoom="32"
     inkscape:cx="10.9375"
     inkscape:cy="7.890625"
     inkscape:window-width="1920"
     inkscape:window-height="1001"
     inkscape:window-x="-9"
     inkscape:window-y="-9"
     inkscape:window-maximized="1"
     inkscape:current-layer="g15165"
     units="px"
     height="16px" />
  <defs
     id="defs14377" />
  <g
     inkscape:label="Слой 1"
     inkscape:groupmode="layer"
     id="layer1">
    <g
       style="fill:#000000;stroke:#100000;stroke-opacity:1"
       id="g15165"
       transform="matrix(0.19618296,0,0,0.19618296,0.06143665,1.153002)">
      <path
         style="color:#000000;fill:#0c0000;stroke:none;-inkscape-stroke:none"
         d="m 10.115234,-1.03125 c -0.5143141,0 -1.0036837,0.21662047 -1.3554684,0.58789062 L 7.3320312,1.0742187 c -0.055947,0.056826 -0.1390114,0.089844 -0.2109375,0.089844 H 1.6484375 c -1.00959368,0 -1.82421875,0.8508958 -1.82421875,1.8710938 V 13.582031 c 0,1.017136 0.81244502,1.871094 1.82421875,1.871094 H 19.486328 c 1.01158,0 1.826172,-0.854469 1.826172,-1.875 V 3.0351563 c 0,-1.017128 -0.814383,-1.8710938 -1.826172,-1.8710938 h -2.757812 c -0.04701,0 -0.09169,-0.018108 -0.13086,-0.060547 l -0.01172,-0.013672 -1.242187,-1.36523433 v -0.001953 l -0.134765,-0.1464843 C 14.854885,-0.8105947 14.35508,-1.03125 13.830078,-1.03125 Z m 0,1.01953125 h 3.714844 c 0.236067,0 0.467113,0.10275818 0.626953,0.27734375 l 1.392578,1.5292969 c 0.222766,0.2413297 0.540418,0.3886719 0.878907,0.3886719 h 2.757812 c 0.43804,0 0.806641,0.3708783 0.806641,0.8515625 V 13.578125 c 0,0.487572 -0.368782,0.855469 -0.806641,0.855469 H 1.6484375 c -0.4380045,0 -0.80664063,-0.370926 -0.80664062,-0.851563 V 3.0351563 c 0,-0.4872812 0.36617352,-0.8515626 0.80664062,-0.8515625 h 5.4726562 c 0.3610869,0 0.6993017,-0.1475534 0.9453126,-0.4023438 L 8.0703163,1.77734 9.5019569,0.25585568 C 9.6645462,0.08533123 9.889517,-0.01171875 10.115234,-0.01171875 Z"
         id="path15144" />
      <path
         style="fill:none;stroke:#100000;stroke-width:0;stroke-miterlimit:4;stroke-dasharray:none;stroke-opacity:1"
         d="m 12.724888,5.088389 c -1.789077,0 -3.2421221,1.456822 -3.2421221,3.2420927 0,1.7852993 1.4567561,3.2420633 3.2421221,3.2420633 1.785292,0 3.242056,-1.456764 3.242056,-3.2420633 0,-1.7852707 -1.453052,-3.2420927 -3.242056,-3.2420927 z"
         id="path1036" />
      <path
         style="color:#000000;fill:#100000;stroke:none;-inkscape-stroke:none"
         d="m 12.724609,2.6894531 c -3.1068754,0 -5.6406246,2.5337854 -5.6406246,5.640625 0,3.1115309 2.5337912,5.6464839 5.6406246,5.6464849 3.106717,0 5.642578,-2.534953 5.642578,-5.6464849 0,-3.1068337 -2.535765,-5.640625 -5.642578,-5.640625 z m 0,0.9980469 c 2.565182,0 4.642578,2.0773576 4.642578,4.6425781 0,2.5708819 -2.077499,4.6484379 -4.642578,4.6484379 -2.56522,0 -4.6425777,-2.077554 -4.6425777,-4.6484379 0,-2.5652147 2.0773197,-4.6425781 4.6425777,-4.6425781 z"
         id="path15146" />
      <path
         style="color:#000000;fill:#100000;stroke:none;-inkscape-stroke:none"
         d="m 12.728516,5.6347656 c -1.487551,0 -2.707032,1.2175767 -2.707032,2.7050782 0,1.4874937 1.219484,2.7070312 2.707032,2.7070312 1.48747,0 2.705078,-1.2195375 2.705078,-2.7070312 0,-1.4875015 -1.217605,-2.7050782 -2.705078,-2.7050782 z m 0,1.0195313 c 0.934924,0 1.685547,0.7505707 1.685547,1.6855469 0,0.9349638 -0.75062,1.6875002 -1.685547,1.6875002 -0.93505,0 -1.6875,-0.7525364 -1.6875,-1.6875002 0,-0.9349762 0.752453,-1.6855469 1.6875,-1.6855469 z"
         id="path916" />
      <path
         style="color:#000000;fill:#100000;stroke:none;stroke-width:0;stroke-miterlimit:4;stroke-dasharray:none"
         d="m 3.2285156,4.7755503 c -0.5077826,0 -0.9179687,0.4164391 -0.9179687,0.9179688 0,0.5077826 0.4164458,0.9179687 0.9179687,0.9179687 0.5039713,0 0.9179688,-0.4139934 0.9179688,-0.9179687 0,-0.5039753 -0.4139935,-0.9179688 -0.9179688,-0.9179688 z m 0,0.4589844 c 0.252584,0 0.4589844,0.2064004 0.4589844,0.4589844 0,0.2525839 -0.2063964,0.4589843 -0.4589844,0.4589843 -0.2543363,0 -0.4589843,-0.1992878 -0.4589843,-0.4589843 0,-0.2543496 0.1992878,-0.4589844 0.4589843,-0.4589844 z"
         id="path15689" />
      <path
         style="fill:#000000;stroke:none;stroke-width:0.809194;stroke-miterlimit:4;stroke-dasharray:none;stroke-opacity:1"
         d="m 13.3961,1.8152872 h -2.8974 c -0.189,0 -0.3439,-0.15486 -0.3439,-0.34381 0,-0.18895 0.1549,-0.34382 0.3439,-0.34382 h 2.8974 c 0.189,0 0.3439,0.15487 0.3439,0.34382 0,0.18895 -0.1549,0.34381 -0.3439,0.34381 z"
         id="path15152" />
    </g>
  </g>
</svg>
