<svg width="22" height="16" viewBox="0 0 22 16" fill="none" xmlns="http://www.w3.org/2000/svg">
<path d="M7.62517 2.06367L7.62575 2.06307L9.09222 0.50462C9.09225 0.504593 9.09227 0.504565 9.0923 0.504538C9.3563 0.225915 9.72261 0.065 10.1028 0.065H13.915C14.3055 0.065 14.6816 0.231014 14.9453 0.519041C14.9453 0.519072 14.9453 0.519102 14.9453 0.519133L16.3709 2.08779L16.3713 2.08816C16.5057 2.23376 16.6914 2.31859 16.8892 2.31859H19.7202C20.4641 2.31859 21.0707 2.94659 21.0707 3.71511V14.5334C21.0707 15.3072 20.4639 15.935 19.7202 15.935H1.41552C0.671646 15.935 0.065 15.307 0.065 14.5385V3.71511C0.065 2.94163 0.671501 2.31859 1.41552 2.31859H7.03162C7.25421 2.31859 7.47022 2.22415 7.62517 2.06367ZM1.48052 3.00622V3.00111H1.41552C1.04269 3.00111 0.75263 3.32646 0.75263 3.71V14.5283C0.75263 14.9176 1.04847 15.2371 1.41552 15.2371H19.7202C20.0931 15.2371 20.3831 14.9118 20.3831 14.5283V3.71511C20.3831 3.32574 20.0873 3.00622 19.7202 3.00622H16.8892C16.4987 3.00622 16.1226 2.84021 15.859 2.55219C15.8589 2.55216 15.8589 2.55212 15.8589 2.55209L14.4333 0.983431L14.4329 0.98306C14.2985 0.837461 14.1128 0.75263 13.915 0.75263H10.1028C9.9113 0.75263 9.72576 0.83146 9.59092 0.971911L9.59048 0.972384L8.12409 2.53075C8.12405 2.53078 8.12401 2.53082 8.12398 2.53086C7.8394 2.8301 7.44235 3.00622 7.03162 3.00622H1.48052Z" fill="black" stroke="white" stroke-width="0.13"/>
<path d="M12.7258 14.2658C9.88985 14.2658 7.58355 11.9596 7.58355 9.11841C7.58355 6.28239 9.88981 3.97613 12.7258 3.97613C15.5619 3.97613 17.8681 6.28239 17.8681 9.11841C17.8681 11.9596 15.5618 14.2658 12.7258 14.2658ZM12.7258 4.66376C10.2677 4.66376 8.27118 6.66545 8.27118 9.11841C8.27118 11.5714 10.2728 13.5731 12.7258 13.5731C15.1789 13.5731 17.1805 11.5714 17.1805 9.11841C17.1805 6.66545 15.184 4.66376 12.7258 4.66376Z" fill="black" stroke="white" stroke-width="0.13"/>
<path d="M12.7269 12.0089C11.1378 12.0089 9.84332 10.7145 9.84332 9.12534C9.84332 7.5362 11.1378 6.24176 12.7269 6.24176C14.316 6.24176 15.6105 7.5362 15.6105 9.12534C15.6105 10.7145 14.316 12.0089 12.7269 12.0089ZM12.7269 6.9345C11.5157 6.9345 10.531 7.91921 10.531 9.13045C10.531 10.3417 11.5157 11.3264 12.7269 11.3264C13.9381 11.3264 14.9228 10.3417 14.9228 9.13045C14.9228 7.91921 13.9381 6.9345 12.7269 6.9345Z" fill="black" stroke="white" stroke-width="0.13"/>
<path d="M3.22916 7.86402C2.46802 7.86402 1.85309 7.24428 1.85309 6.48795C1.85309 5.73177 2.47298 5.11187 3.22916 5.11187C3.98534 5.11187 4.60523 5.73177 4.60523 6.48795C4.60523 7.24428 3.9903 7.86402 3.22916 7.86402ZM3.22916 5.79439C2.84542 5.79439 2.54072 6.1049 2.54072 6.48284C2.54072 6.86658 2.85123 7.17128 3.22916 7.17128C3.60744 7.17128 3.9176 6.86112 3.9176 6.48284C3.9176 6.10456 3.60744 5.79439 3.22916 5.79439Z" fill="black" stroke="white" stroke-width="0.13"/>
<path d="M13.3971 2.60517H10.4996C10.3107 2.60517 10.1558 2.4503 10.1558 2.26135C10.1558 2.0724 10.3107 1.91754 10.4996 1.91754H13.3971C13.5861 1.91754 13.7409 2.0724 13.7409 2.26135C13.7409 2.4503 13.5861 2.60517 13.3971 2.60517Z" fill="black" stroke="white" stroke-width="0.13"/>
</svg>
