<?xml version="1.0" encoding="UTF-8" standalone="no"?>
<!-- Created with Inkscape (http://www.inkscape.org/) -->

<svg
   width="16"
   height="16"
   viewBox="0 0 4.2333332 4.2333335"
   version="1.1"
   id="svg14380"
   inkscape:version="1.1.1 (3bf5ae0d25, 2021-09-20)"
   sodipodi:docname="Snapshot 16px for the browser.svg"
   xmlns:inkscape="http://www.inkscape.org/namespaces/inkscape"
   xmlns:sodipodi="http://sodipodi.sourceforge.net/DTD/sodipodi-0.dtd"
   xmlns="http://www.w3.org/2000/svg"
   xmlns:svg="http://www.w3.org/2000/svg">
  <sodipodi:namedview
     id="namedview14382"
     pagecolor="#ffffff"
     bordercolor="#666666"
     borderopacity="1.0"
     inkscape:pageshadow="2"
     inkscape:pageopacity="0.0"
     inkscape:pagecheckerboard="0"
     inkscape:document-units="px"
     showgrid="true"
     inkscape:zoom="22.223939"
     inkscape:cx="5.4445793"
     inkscape:cy="5.0621089"
     inkscape:window-width="1920"
     inkscape:window-height="1001"
     inkscape:window-x="-9"
     inkscape:window-y="-9"
     inkscape:window-maximized="1"
     inkscape:current-layer="g15165"
     units="px"
     height="16px">
    <inkscape:grid
       type="xygrid"
       id="grid1486" />
  </sodipodi:namedview>
  <defs
     id="defs14377" />
  <g
     inkscape:label="Слой 1"
     inkscape:groupmode="layer"
     id="layer1">
    <g
       style="fill:#000000;stroke:#100000;stroke-opacity:1"
       id="g15165"
       transform="matrix(0.19618296,0,0,0.19618296,0.06143665,1.153002)">
      <path
         style="color:#000000;fill:#0c0000;stroke:none;-inkscape-stroke:none"
         d="m 10.060547,-1.5332031 c -0.5554017,0 -1.077006,0.2496019 -1.4433595,0.66015622 L 7.234375,0.6875 C 7.2066613,0.7163671 7.1748142,0.7265625 7.1621094,0.7265625 H 1.859375 c -1.09113327,0 -1.9296875,0.9565037 -1.9296875,2.0546875 v 10.847656 c 0,1.095363 0.83551813,2.056641 1.9296875,2.056641 h 17.279297 c 1.093973,0 1.931641,-0.962018 1.93164,-2.060547 V 2.78125 c 0,-1.095349 -0.83746,-2.0546875 -1.93164,-2.0546875 h -2.671875 c 0.01242,0 0.01922,0.009515 0.0059,-0.005859 L 16.457031,0.703125 V 0.701172 l -1.169922,-1.3652345 v -0.001953 L 15.128906,-0.84960938 C 14.759973,-1.2774965 14.226165,-1.5332031 13.660156,-1.5332031 Z m 0,1.31249997 h 3.599609 c 0.171219,10e-9 0.345705,0.0770596 0.47461,0.22656251 l 1.347656,1.57421872 c 0.240372,0.2765011 0.598531,0.4570313 0.984375,0.4570313 h 2.671875 c 0.310233,0 0.619141,0.2988847 0.61914,0.7441406 V 13.625 c 0,0.452657 -0.309079,0.748047 -0.61914,0.748047 H 1.859375 c -0.31019,0 -0.6171875,-0.298939 -0.6171875,-0.744141 V 2.78125 c 0,-0.4523641 0.3036876,-0.7441406 0.6171875,-0.7441406 h 5.3027344 c 0.4071122,0 0.7806961,-0.1801258 1.0449219,-0.4707032 l 0.00391,-0.00195 1.3867188,-1.56640623 c 0.1317658,-0.14648435 0.3014513,-0.21875 0.4628909,-0.21875 z"
         id="path15144" />
      <path
         style="color:#000000;fill:#100000;stroke:none;-inkscape-stroke:none"
         d="m 12.724609,3.2011719 c -2.7510483,0 -4.9941403,2.2484584 -4.9941403,4.9941406 0,2.7464645 2.2475949,4.9941405 4.9941403,4.9941405 2.746458,0 4.994141,-2.247674 4.994141,-4.9941405 0,-2.7456836 -2.24318,-4.9941406 -4.994141,-4.9941406 z m 0,1.0800781 c 2.165235,0 3.916016,1.753811 3.916016,3.9140625 0,2.1595485 -1.756478,3.9160155 -3.916016,3.9160155 -2.159649,0 -3.9140621,-1.756466 -3.9140621,-3.9160155 0,-2.1602529 1.7487161,-3.9140625 3.9140621,-3.9140625 z"
         id="path1892" />
      <path
         style="color:#000000;fill:#100000;stroke:none;-inkscape-stroke:none"
         d="m 12.728516,4.7773437 c -1.882135,0 -3.4238285,1.5417516 -3.4238285,3.4238282 0,1.8820761 1.5417025,3.4218751 3.4238285,3.4218751 1.882043,0 3.423828,-1.539776 3.423828,-3.4218751 0,-1.8820991 -1.541775,-3.4238282 -3.423828,-3.4238282 z m 0,1.0800782 c 1.296144,0 2.34375,1.0475723 2.34375,2.34375 0,1.2961777 -1.047597,2.3437501 -2.34375,2.3437501 -1.296272,0 -2.34375,-1.0475499 -2.34375,-2.3437501 0,-1.2962002 1.047487,-2.34375 2.34375,-2.34375 z"
         id="path15148" />
      <g
         id="path15689">
        <path
           style="color:#000000;fill:#100000;stroke:none;stroke-width:0.269731;-inkscape-stroke:none"
           d="m 3.7328082,4.4530868 c -0.5077826,0 -0.9179687,0.4164391 -0.9179687,0.9179688 0,0.5077826 0.4164458,0.9179687 0.9179687,0.9179687 0.5039713,0 0.9179688,-0.4139934 0.9179688,-0.9179687 0,-0.5039753 -0.4139935,-0.9179688 -0.9179688,-0.9179688 z m 0,0.4589844 c 0.252584,0 0.4589844,0.2064004 0.4589844,0.4589844 0,0.2525839 -0.2063964,0.4589843 -0.4589844,0.4589843 -0.2543363,0 -0.4589843,-0.1992878 -0.4589843,-0.4589843 0,-0.2543496 0.1992878,-0.4589844 0.4589843,-0.4589844 z"
           id="path2006" />
        <path
           style="color:#000000;stroke:none;-inkscape-stroke:none"
           d="m 3.7324219,4.3183594 c -0.5815187,0 -1.0527344,0.4776703 -1.0527344,1.0527343 0,0.5815199 0.4776761,1.0527344 1.0527344,1.0527344 0.5778286,0 1.0527343,-0.4749015 1.0527343,-1.0527344 0,-0.577832 -0.4749022,-1.0527343 -1.0527343,-1.0527343 z m 0,0.2695312 c 0.4301175,0 0.7832031,0.3530857 0.7832031,0.7832031 0,0.4301168 -0.3530902,0.7832032 -0.7832031,0.7832032 -0.4279865,0 -0.7832031,-0.3491588 -0.7832031,-0.7832032 -1e-7,-0.4279943 0.3491575,-0.7832031 0.7832031,-0.7832031 z m 0,0.1894531 c -0.3305434,0 -0.59375,0.2689543 -0.59375,0.59375 0,0.330548 0.2689638,0.59375 0.59375,0.59375 0.3260572,0 0.59375,-0.2676971 0.59375,-0.59375 0,-0.3260543 -0.2676956,-0.59375 -0.59375,-0.59375 z m 0,0.2695313 c 0.1791131,0 0.3242187,0.1451056 0.3242187,0.3242187 0,0.1791144 -0.1451005,0.3242188 -0.3242187,0.3242188 -0.183886,0 -0.3242188,-0.1353743 -0.3242188,-0.3242188 0,-0.1839029 0.1353697,-0.3242187 0.3242188,-0.3242187 z"
           id="path2008" />
      </g>
      <g
         id="path15152">
        <path
           style="color:#000000;stroke:none;stroke-width:0.485206;-inkscape-stroke:none"
           d="m 13.363099,1.7752534 h -2.831872 c -0.184727,0 -0.336123,-0.2278665 -0.336123,-0.505894 0,-0.278028 0.151396,-0.50590923 0.336123,-0.50590923 h 2.831872 c 0.184726,0 0.336123,0.22788123 0.336123,0.50590923 0,0.2780275 -0.151397,0.505894 -0.336123,0.505894 z"
           id="path2012" />
        <path
           style="color:#000000;fill:#100000;stroke:none;-inkscape-stroke:none"
           d="m 10.53125,0.52148437 c -0.192123,0 -0.347251,0.1170811 -0.439453,0.25585938 C 9.999595,0.91612203 9.953125,1.0864822 9.953125,1.2695312 c 0,0.183049 0.046468,0.3534119 0.138672,0.4921875 0.0922,0.1387757 0.247337,0.2558594 0.439453,0.2558594 h 2.832031 c 0.192116,0 0.347249,-0.1170839 0.439453,-0.2558594 0.09221,-0.1387754 0.138672,-0.3091382 0.138672,-0.4921875 0,-0.1830493 -0.04647,-0.35340933 -0.138672,-0.49218745 -0.0922,-0.13877812 -0.24733,-0.25585937 -0.439453,-0.25585938 z m 0,0.48437503 h 2.832031 c -0.0074,0 0.0055,-0.00365 0.03516,0.041016 0.02968,0.044669 0.05859,0.1276779 0.05859,0.2226562 0,0.094978 -0.02892,0.1779918 -0.05859,0.2226563 -0.02968,0.044665 -0.04255,0.041016 -0.03516,0.041016 H 10.53125 c 0.0074,0 -0.0055,0.00365 -0.03516,-0.041016 -0.02968,-0.044664 -0.05859,-0.127678 -0.05859,-0.2226563 0,-0.094979 0.02892,-0.1779871 0.05859,-0.2226562 0.02968,-0.044669 0.04255,-0.041016 0.03516,-0.041016 z"
           id="path2014" />
      </g>
    </g>
  </g>
</svg>
