<svg width="160" height="16" viewBox="0 0 160 16" fill="none" xmlns="http://www.w3.org/2000/svg">
<rect x="0.966992" y="1.3" width="18.0667" height="13.4" rx="1.7" fill="white" stroke="black" stroke-width="0.6"/>
<path d="M12.1286 10.8367L12.1057 10.8137L12.0811 10.8349C11.4053 11.4146 10.5268 11.7651 9.56706 11.7651C7.43385 11.7651 5.70199 10.0333 5.70199 7.90006C5.70199 5.76686 7.43385 4.035 9.56706 4.035C11.7003 4.035 13.4321 5.76686 13.4321 7.90006C13.4321 8.8598 13.0816 9.7383 12.5018 10.4141L12.4807 10.4387L12.5037 10.4617L14.5545 12.5128C14.6578 12.6161 14.6578 12.7842 14.5545 12.8875C14.4512 12.9908 14.2831 12.9908 14.1798 12.8875L12.1286 10.8367ZM12.9021 7.90006C12.9021 6.0594 11.4077 4.56501 9.56706 4.56501C7.7264 4.56501 6.232 6.0594 6.232 7.90006C6.232 9.74073 7.7264 11.2351 9.56706 11.2351C11.4077 11.2351 12.9021 9.74073 12.9021 7.90006Z" fill="black" stroke="white" stroke-width="0.07"/>
<path d="M63.7685 7.65101C63.409 7.65101 63.0463 7.65101 62.6867 7.65101C61.8238 7.65101 60.964 7.65101 60.1011 7.65101C59.0537 7.65101 58.0063 7.65101 56.9589 7.65101C56.0522 7.65101 55.1455 7.65101 54.2388 7.65101C53.7979 7.65101 53.3571 7.64961 52.9162 7.65101C52.91 7.65101 52.9037 7.65101 52.8975 7.65101C52.4973 7.65101 52.0752 7.69014 51.7907 7.75303C51.5187 7.81382 51.3154 7.91305 51.3342 8.00039C51.353 8.09053 51.4843 8.18416 51.7907 8.24775C52.0971 8.31064 52.4723 8.34977 52.8975 8.34977C53.257 8.34977 53.6197 8.34977 53.9793 8.34977C54.8422 8.34977 55.702 8.34977 56.5649 8.34977C57.6123 8.34977 58.6597 8.34977 59.7071 8.34977C60.6138 8.34977 61.5205 8.34977 62.4272 8.34977C62.8681 8.34977 63.3089 8.35117 63.7498 8.34977C63.756 8.34977 63.7623 8.34977 63.7685 8.34977C64.1687 8.34977 64.5908 8.31064 64.8753 8.24775C65.1473 8.18696 65.3506 8.08774 65.3318 8.00039C65.313 7.91025 65.1817 7.81662 64.8753 7.75303C64.5689 7.69084 64.1937 7.65101 63.7685 7.65101Z" fill="black"/>
<path d="M100.368 2.91001H100.368V2.90909V2.27273C100.368 1.61087 100.914 1.065 101.575 1.065H110.06C110.722 1.065 111.268 1.61087 111.268 2.27273V10.7576C111.268 11.4194 110.722 11.9653 110.06 11.9653L109.424 11.9653L109.423 11.9653C109.375 11.966 109.328 11.9572 109.284 11.9394C109.24 11.9217 109.2 11.8953 109.166 11.8619C109.132 11.8285 109.105 11.7886 109.086 11.7447C109.068 11.7008 109.059 11.6537 109.059 11.6061C109.059 11.5585 109.068 11.5113 109.086 11.4674C109.105 11.4235 109.132 11.3836 109.166 11.3502C109.2 11.3168 109.24 11.2904 109.284 11.2727C109.328 11.2549 109.375 11.2461 109.423 11.2468H109.424H110.06C110.339 11.2468 110.55 11.0358 110.55 10.7576V2.27273C110.55 1.99446 110.339 1.78348 110.06 1.78348H101.575C101.297 1.78348 101.086 1.99446 101.086 2.27273V2.90909H101.086L101.086 2.91001C101.087 2.95761 101.078 3.00488 101.06 3.04905C101.043 3.09323 101.016 3.13344 100.983 3.16734C100.949 3.20124 100.91 3.22816 100.866 3.24654C100.822 3.26491 100.775 3.27438 100.727 3.27438C100.679 3.27438 100.632 3.26491 100.588 3.24654C100.544 3.22816 100.505 3.20124 100.471 3.16734C100.438 3.13344 100.411 3.09323 100.394 3.04905C100.376 3.00488 100.367 2.95761 100.368 2.91001ZM97.398 5.24242C97.398 4.58057 97.9439 4.0347 98.6057 4.0347H107.091C107.752 4.0347 108.298 4.58057 108.298 5.24242V13.7273C108.298 14.3891 107.752 14.935 107.091 14.935H98.6057C97.9439 14.935 97.398 14.3891 97.398 13.7273V5.24242ZM107.091 4.75318H98.6057C98.3275 4.75318 98.1165 4.96416 98.1165 5.24242V13.7273C98.1165 14.0055 98.3275 14.2165 98.6057 14.2165H107.091C107.369 14.2165 107.58 14.0055 107.58 13.7273V5.24242C107.58 4.96416 107.369 4.75318 107.091 4.75318Z" fill="black" stroke="white" stroke-width="0.13"/>
<path d="M153.05 7.59651L152.623 8.02162L153.05 8.44674L158.456 13.8305L158.464 13.8386L158.472 13.8463C158.638 13.9998 158.733 14.2109 158.733 14.4216C158.733 14.6884 158.635 14.9417 158.455 15.1217C158.256 15.3206 158.059 15.4 157.819 15.4C157.62 15.4 157.359 15.2967 157.184 15.1217L157.183 15.1208L151.778 9.73705L151.356 9.31701L150.933 9.73536L145.484 15.1191L145.484 15.1191L145.482 15.1217C145.283 15.3206 145.086 15.4 144.847 15.4C144.647 15.4 144.386 15.2967 144.211 15.1217L144.203 15.1132L144.194 15.1051C144.028 14.9515 143.933 14.7405 143.933 14.5297C143.933 14.263 144.031 14.0096 144.211 13.8297L144.212 13.8288L149.618 8.4018L150.041 7.97668L149.616 7.55327L144.21 2.16948L144.202 2.16144L144.194 2.15371C144.028 2.00017 143.933 1.78913 143.933 1.57838C143.933 1.31162 144.031 1.05827 144.211 0.878318L144.22 0.869836L144.228 0.861022C144.381 0.694682 144.593 0.6 144.803 0.6C145.044 0.6 145.299 0.695493 145.482 0.878319L145.483 0.879161L150.931 6.30619L151.355 6.72792L151.778 6.30619L157.183 0.922411L157.192 0.913521L157.201 0.904265C157.354 0.737926 157.566 0.643243 157.776 0.643243C158.034 0.643243 158.269 0.735754 158.455 0.921561L158.463 0.930043L158.472 0.938179C158.638 1.09172 158.733 1.30277 158.733 1.51351C158.733 1.78006 158.635 2.03323 158.455 2.21315C158.455 2.21329 158.455 2.21343 158.455 2.21357L153.05 7.59651Z" fill="black" stroke="white" stroke-width="1.2"/>
</svg>
