<?xml version="1.0" encoding="UTF-8" standalone="no"?>
<svg
   width="16"
   height="16"
   viewBox="0 0 16 16"
   fill="none"
   version="1.1"
   id="svg14"
   sodipodi:docname="Theme icon.svg"
   inkscape:version="1.1.1 (3bf5ae0d25, 2021-09-20)"
   xmlns:inkscape="http://www.inkscape.org/namespaces/inkscape"
   xmlns:sodipodi="http://sodipodi.sourceforge.net/DTD/sodipodi-0.dtd"
   xmlns="http://www.w3.org/2000/svg"
   xmlns:svg="http://www.w3.org/2000/svg">
  <defs
     id="defs18">
    <clipPath
       id="clip0_1179:2925">
      <rect
         width="22"
         height="22"
         fill="white"
         transform="translate(0.742188)"
         id="rect14794" />
    </clipPath>
    <clipPath
       id="clip0_1179:2925-8">
      <rect
         width="22"
         height="22"
         fill="white"
         transform="translate(0.742188)"
         id="rect14794-5" />
    </clipPath>
    <clipPath
       id="clip0_1179:2925-2">
      <rect
         width="22"
         height="22"
         fill="white"
         transform="translate(0.742188)"
         id="rect14794-50" />
    </clipPath>
    <clipPath
       id="clip0_1179:2925-8-0">
      <rect
         width="22"
         height="22"
         fill="white"
         transform="translate(0.742188)"
         id="rect14794-5-7" />
    </clipPath>
    <clipPath
       id="clip0_1179:2925-3">
      <rect
         width="22"
         height="22"
         fill="white"
         transform="translate(0.742188)"
         id="rect14794-53" />
    </clipPath>
    <clipPath
       id="clip0_1179:2925-8-3">
      <rect
         width="22"
         height="22"
         fill="white"
         transform="translate(0.742188)"
         id="rect14794-5-0" />
    </clipPath>
  </defs>
  <sodipodi:namedview
     id="namedview16"
     pagecolor="#ffffff"
     bordercolor="#666666"
     borderopacity="1.0"
     inkscape:pageshadow="2"
     inkscape:pageopacity="0.0"
     inkscape:pagecheckerboard="0"
     showgrid="true"
     inkscape:snap-grids="false"
     inkscape:snap-to-guides="false"
     inkscape:snap-others="false"
     inkscape:zoom="22.627417"
     inkscape:cx="6.5849319"
     inkscape:cy="9.2586794"
     inkscape:window-width="1920"
     inkscape:window-height="1001"
     inkscape:window-x="-9"
     inkscape:window-y="-9"
     inkscape:window-maximized="1"
     inkscape:current-layer="svg14">
    <inkscape:grid
       type="xygrid"
       id="grid835" />
  </sodipodi:namedview>
  <path
     style="color:#000000;fill:#001423;-inkscape-stroke:none"
     d="m 9.8867188,4.7441406 c -2.2468611,0 -4.109375,1.7938947 -4.1093751,4.0234375 0,1.9736089 1.4455658,3.6500739 3.4335938,3.9707029 0.2234049,0.03639 0.4568884,0.05274 0.6914063,0.05274 2.2468592,0 4.1093752,-1.793935 4.1093752,-4.0234379 0,-2.2131348 -1.843091,-4.00561 -4.0878909,-4.0234375 h -0.00195 -0.00195 -0.00195 -0.00195 -0.00195 -0.00195 -0.00195 -0.00195 -0.00195 -0.00195 -0.00195 -0.00195 -0.00195 -0.00195 -0.00195 -0.00195 -0.00195 -0.00195 z m 0,0.8007813 h 0.00195 0.00195 0.00195 0.00195 0.00195 0.00195 0.00195 0.00195 0.00195 0.00195 0.00195 0.00195 0.00195 0.00195 0.00195 0.00391 c 1.8229631,0.016558 3.2929691,1.4547088 3.2929691,3.2226562 0,1.7847569 -1.48714,3.2226559 -3.3105472,3.2226559 -0.1945696,0 -0.387923,-0.01453 -0.5625,-0.04297 h -0.00195 C 7.7183335,11.686063 6.578125,10.353819 6.578125,8.7675781 c 0,-1.7847967 1.4851894,-3.2226562 3.3085938,-3.2226562 z"
     id="path8949" />
  <path
     style="color:#000000;fill:#001423;stroke-linejoin:round;-inkscape-stroke:none"
     d="M 7.8320312,4.1503906 C 5.3590313,4.15145 3.3339844,6.1205385 3.3339844,8.5546875 c 0,2.4347935 2.0258614,4.4062495 4.5,4.4062505 a 0.40004001,0.40004001 0 0 0 0.3964844,-0.353516 l 0.089844,-0.771484 A 0.40004001,0.40004001 0 0 0 8.1367188,11.451172 C 7.2201601,10.872474 6.640625,9.8754056 6.640625,8.7460938 6.640625,7.3517319 7.548623,6.1711475 8.8144531,5.71875 A 0.40004001,0.40004001 0 0 0 9.0761719,5.3886719 l 0.060547,-0.515625 c 0.00161,-0.0059 0.00329,-0.01077 0.00391,-0.013672 0.00426,-0.01993 0.00586,-0.035156 0.00586,-0.035156 a 0.40004001,0.40004001 0 0 0 -0.050781,-0.234375 c 0.0092,0.015253 0.021522,0.033294 0.021484,0.033203 -1.109e-4,-2.664e-4 0.012575,0.035693 0.015625,0.046875 0.0122,0.04473 0.011264,0.050314 0.011719,0.054687 0.0082,0.079306 1.535e-4,0.06486 0,0.066406 -1.536e-4,0.00155 9.606e-4,-0.00456 0.00195,-0.011719 0.00198,-0.01432 0.00603,-0.037827 0.00977,-0.060547 0.00748,-0.045439 0.015625,-0.089844 0.015625,-0.089844 A 0.40004001,0.40004001 0 0 0 8.828125,4.1621094 C 8.4254237,4.1096316 7.8586862,4.1486705 7.8339844,4.1503906 Z m 0.9531251,0.2285156 c -1.47e-5,-1.3e-6 0.031344,0.011518 0.054687,0.019531 a 0.40004001,0.40004001 0 0 0 -0.1542969,-0.00391 c 0.049695,-0.00829 0.099633,-0.015623 0.099609,-0.015625 z M 8.6074219,4.4082031 A 0.40004001,0.40004001 0 0 0 8.4589844,4.5917969 l -0.03125,-0.042969 c 0.02138,-0.029006 0.043017,-0.058641 0.042969,-0.058594 -4.4e-5,4.26e-5 0.1152805,-0.078146 0.1152344,-0.078125 -5e-6,2.2e-6 0.017337,-0.00322 0.021484,-0.00391 z m 0.3125,0.017578 c 0.016904,0.0058 0.044934,0.015633 0.044922,0.015625 -5.01e-5,-3.21e-5 0.091849,0.082094 0.091797,0.082031 -2.89e-5,-3.51e-5 0.0108,0.016087 0.017578,0.027344 a 0.40004001,0.40004001 0 0 0 -0.1542969,-0.125 z M 7.8339844,4.9511719 a 0.40004001,0.40004001 0 0 0 0.021484,0 c 0,0 0.2607961,0.00384 0.4687501,0.00195 L 8.3007813,5.1464844 C 6.8841097,5.7775852 5.8398437,7.1135625 5.8398437,8.7460938 c 0,1.3001062 0.6714661,2.4278142 1.6679688,3.1660152 l -0.021484,0.179688 C 5.6081167,11.913364 4.1347656,10.426971 4.1347656,8.5546875 c 0,-1.9922728 1.6472694,-3.6035156 3.6992188,-3.6035156 z M 8.875,5.1484375 c 0.00173,-2.885e-4 0.00435,2.528e-4 0.00586,0 l -0.00391,0.00195 z"
     id="path883" />
  <path
     d="M 2.4935201,8.559699 H 0.61709144 c -0.20726132,0 -0.37528561,-0.2142483 -0.37528561,-0.4784999 0,-0.2642518 0.16802429,-0.4785001 0.37528561,-0.4785001 H 2.4935201 c 0.2072647,0 0.3752857,0.2142483 0.3752857,0.4785001 0,0.2642516 -0.168021,0.4784999 -0.3752857,0.4784999 z"
     fill="#001423"
     stroke="#ffffff"
     stroke-width="0.185049"
     id="path12354"
     style="display:inline;stroke:none;stroke-width:0;stroke-miterlimit:4;stroke-dasharray:none" />
  <path
     d="m 8.277,0.7800887 v 2.0904438 c 0,0.2309003 0.2142483,0.4180886 0.4784999,0.4180886 C 9.0197517,3.2886211 9.234,3.1014328 9.234,2.8705325 V 0.7800887 C 9.234,0.5491845 9.0197517,0.362 8.7554999,0.362 8.4912483,0.362 8.277,0.5491845 8.277,0.7800887 Z"
     fill="#001423"
     stroke="#ffffff"
     stroke-width="0.185049"
     id="path12356"
     style="display:inline;stroke:none;stroke-width:0;stroke-miterlimit:4;stroke-dasharray:none" />
  <path
     d="m 8.321,13.568141 v 1.590718 C 8.321,15.33456 8.5128608,15.477 8.7494999,15.477 8.9861392,15.477 9.178,15.33456 9.178,15.158859 V 13.568141 C 9.178,13.392436 8.9861392,13.25 8.7494999,13.25 8.5128608,13.25 8.321,13.392436 8.321,13.568141 Z"
     fill="#001423"
     stroke="#ffffff"
     stroke-width="0.185049"
     id="path12518"
     style="display:inline;stroke:none;stroke-width:0;stroke-miterlimit:4;stroke-dasharray:none" />
  <path
     d="m 3.6134802,12.285426 -1.1383907,1.111059 c -0.1257396,0.12272 -0.078032,0.375535 0.1065384,0.564646 0.1845702,0.189111 0.4361514,0.242947 0.5618913,0.120223 L 4.2819096,12.970299 C 4.4076521,12.847576 4.3599416,12.594764 4.1753711,12.405653 3.9908011,12.216542 3.7392227,12.162703 3.61348,12.28543 Z"
     fill="#001423"
     stroke="#ffffff"
     stroke-width="0.185049"
     id="path12600"
     style="display:inline;stroke:none;stroke-width:0;stroke-miterlimit:4;stroke-dasharray:none" />
  <path
     d="M 4.5925923,3.4496844 3.4929285,2.3002828 C 3.3714667,2.1733269 3.1181891,2.2185137 2.9272495,2.4011913 2.7363089,2.5838686 2.6799693,2.8349011 2.8014352,2.9618572 L 3.9010949,4.1112585 C 4.0225596,4.2382173 4.2758344,4.1930276 4.466774,4.0103498 4.6577146,3.8276727 4.714057,3.5766431 4.5925883,3.4496841 Z"
     fill="#001423"
     stroke="#ffffff"
     stroke-width="0.185049"
     id="path12682"
     style="display:inline;stroke:none;stroke-width:0;stroke-miterlimit:4;stroke-dasharray:none" />
</svg>
