<svg width="22" height="23" viewBox="0 0 22 23" fill="none" xmlns="http://www.w3.org/2000/svg">
<path d="M12.5752 5.94549L12.5749 5.94852H12.5659C12.4211 5.99568 12.2804 6.04174 12.1633 6.0875L12.1457 6.09436H12.1376L12.1334 6.09637L12.1324 6.09686C12.1268 6.0996 12.1165 6.10466 12.1053 6.10877C12.097 6.1118 12.086 6.11521 12.0729 6.11713C11.9355 6.16295 11.7968 6.23076 11.6796 6.29939L11.6731 6.30323L11.673 6.30297C11.6001 6.33854 11.5332 6.37419 11.4645 6.41074L11.4639 6.41107C11.3994 6.44542 11.3334 6.48057 11.2618 6.51584C11.2426 6.53139 11.2245 6.54018 11.2141 6.54525L11.2125 6.54602C11.2057 6.54933 11.2037 6.55042 11.2021 6.5514L11.2012 6.55201L11.1924 6.56056L11.1818 6.56675C11.0581 6.63928 10.9403 6.70841 10.823 6.79957C10.8005 6.82017 10.7781 6.83104 10.7661 6.83692L10.7645 6.83769C10.7577 6.84099 10.7556 6.84208 10.754 6.84306L10.7531 6.84368L10.7444 6.85223L10.7338 6.85842C10.6191 6.92563 10.5033 7.01563 10.4099 7.10595V7.11258L10.3758 7.13921L10.3755 7.1395H10.3755L10.3715 7.14261C10.3116 7.18939 10.2575 7.23634 10.2012 7.28515L10.2005 7.28582C10.1462 7.33292 10.0899 7.38177 10.0274 7.43082C10.0163 7.4417 10.0004 7.457 9.9832 7.46957C9.97258 7.47734 9.9568 7.48768 9.93679 7.49501L9.79486 7.63361L9.63307 7.7916L9.60818 7.8159L9.58329 7.84021C9.49318 7.9282 9.40308 8.03735 9.33418 8.1463C9.331 8.15682 9.32651 8.16667 9.32095 8.17572C9.31894 8.17898 9.31684 8.18205 9.31474 8.18488V8.19328L9.2921 8.22093C9.24468 8.27881 9.20293 8.337 9.15912 8.39811L9.15835 8.39919C9.11527 8.45929 9.07013 8.52225 9.01831 8.58551L9.01125 8.59412L9.01082 8.59368C9.01072 8.59378 9.01073 8.59377 9.01077 8.59372C9.01081 8.59368 9.01069 8.59381 9.0104 8.59427C9.0095 8.59568 9.00846 8.59755 9.00507 8.60417L9.0043 8.60568C8.99875 8.61657 8.98887 8.63593 8.97104 8.65609C8.90054 8.77085 8.83183 8.88325 8.76324 9.01578C8.76005 9.0284 8.755 9.0401 8.74847 9.05072C8.74647 9.05398 8.74437 9.05705 8.74227 9.05988V9.06082L8.72747 9.0849C8.68119 9.16023 8.64678 9.23193 8.6071 9.31461C8.58679 9.35694 8.56509 9.40215 8.53971 9.4522C8.53766 9.46141 8.53501 9.46929 8.53261 9.47552C8.52831 9.48673 8.52302 9.49703 8.52023 9.50247L8.51972 9.50347L8.51826 9.50637V9.51096L8.5129 9.52666C8.48628 9.60465 8.45326 9.67557 8.42271 9.74121L8.4218 9.74316C8.39202 9.80715 8.36456 9.86632 8.34228 9.92946C8.34024 9.94231 8.33682 9.95286 8.33418 9.96015C8.33163 9.96721 8.32733 9.97736 8.32522 9.98233C8.3247 9.98357 8.32431 9.98448 8.32412 9.98495C8.32014 9.99467 8.31914 9.99905 8.31914 10.0048V10.0214L8.31378 10.0371C8.26448 10.1815 8.21844 10.317 8.19469 10.4509V10.4666V10.4751L8.19326 10.4834C8.18013 10.5604 8.16061 10.6366 8.14227 10.7082L8.14178 10.7101C8.12368 10.7808 8.10674 10.8472 8.09512 10.9128C8.09494 10.9368 8.09255 10.9782 8.06441 11.0196C8.04115 11.1565 8.02046 11.2877 8.02046 11.4388V11.4389V11.4391V11.4392V11.4394V11.4395V11.4397V11.4398V11.44V11.4401V11.4403V11.4404V11.4406V11.4407V11.4409V11.441V11.4412V11.4413V11.4415V11.4416V11.4418V11.4419V11.4421V11.4422V11.4424V11.4425V11.4427V11.4428V11.443V11.4432V11.4433V11.4435V11.4436V11.4438V11.444V11.4441V11.4443V11.4444V11.4446V11.4448V11.4449V11.4451V11.4452V11.4454V11.4456V11.4457V11.4459V11.4461V11.4462V11.4464V11.4466V11.4467V11.4469V11.4471V11.4472V11.4474V11.4476V11.4478V11.4479V11.4481V11.4483V11.4484V11.4486V11.4488V11.449V11.4491V11.4493V11.4495V11.4497V11.4498V11.45V11.4502V11.4504V11.4505V11.4507V11.4509V11.4511V11.4513V11.4514V11.4516V11.4518V11.452V11.4522V11.4523V11.4525V11.4527V11.4529V11.4531V11.4532V11.4534V11.4536V11.4538V11.454V11.4542V11.4543V11.4545V11.4547V11.4549V11.4551V11.4553V11.4555V11.4557V11.4558V11.456V11.4562V11.4564V11.4566V11.4568V11.457V11.4572V11.4574V11.4575V11.4577V11.4579V11.4581V11.4583V11.4585V11.4587V11.4589V11.4591V11.4593V11.4595V11.4597V11.4599V11.46V11.4602V11.4604V11.4606V11.4608V11.461V11.4612V11.4614V11.4616V11.4618V11.462V11.4622V11.4624V11.4626V11.4628V11.463V11.4632V11.4634V11.4636V11.4638V11.464V11.4642V11.4644V11.4646V11.4648V11.465V11.4652V11.4654V11.4656V11.4658V11.466V11.4662V11.4664V11.4666V11.4668V11.467V11.4672V11.4674V11.4676V11.4678V11.468V11.4682V11.4685V11.4687V11.4689V11.4691V11.4693V11.4695V11.4697V11.4699V11.4701V11.4703V11.4705V11.4707V11.4709V11.4711V11.4713V11.4715V11.4718V11.472V11.4722V11.4724V11.4726V11.4728V11.473V11.4732V11.4734V11.4736V11.4738V11.474V11.4743V11.4745V11.4747V11.4749V11.4751V11.4753V11.4755V11.4757V11.4759V11.4761V11.4764V11.4766V11.4768V11.477V11.4772V11.4774V11.4776V11.4778V11.478V11.4783V11.4785V11.4787V11.4789V11.4791V11.4793V11.4795V11.4797V11.48V11.4802V11.4804V11.4806V11.4808V11.481V11.4812V11.4814V11.4817V11.4819V11.4821V11.4823V11.4825V11.4827V11.4829V11.4831V11.4834V11.4836V11.4838V11.484V11.4842V11.4844V11.4846V11.4849V11.4851V11.4853V11.4855V11.4857V11.4859V11.4861V11.4863V11.4866V11.4868V11.487V11.4872V11.4874V11.4876V11.4878V11.4881V11.4883V11.4885V11.4887V11.4889V11.4891V11.4893V11.4895V11.4898V11.49V11.4902V11.4904V11.4906V11.4908V11.491V11.4913V11.4915V11.4917V11.4919V11.4921V11.4923V11.4925V11.4927V11.493V11.4932V11.4934V11.4936V11.4938V11.494V11.4942V11.4945V11.4947V11.4949V11.4951V11.4953V11.4955V11.4957V11.4959V11.4961V11.4964V11.4966V11.4968V11.497V11.4972V11.4974V11.4976V11.4978V11.498V11.4983V11.4985V11.4987V11.4989V11.4991V11.4993V11.4995V11.4997V11.4999V11.5002V11.5004V11.5006V11.5008V11.501V11.5012V11.5014V11.5016V11.5018V11.502V11.5022V11.5025V11.5027V11.5029V11.5031V11.5033V11.5035V11.5037V11.5039V11.5041V11.5043V11.5045V11.5047V11.5049V11.5051V11.5053V11.5056V11.5058V11.506V11.5062V11.5064V11.5066V11.5068V11.507V11.5072V11.5074V11.5076V11.5078V11.508V11.5082V11.5084V11.5086V11.5088V11.509V11.5092V11.5094V11.5096V11.5098V11.51V11.5102V11.5104V11.5106V11.5108V11.511V11.5112V11.5114V11.5116V11.5118V11.512V11.5122V11.5124V11.5126V11.5128V11.513V11.5132V11.5134V11.5136V11.5138V11.514V11.5142V11.5144V11.5146V11.5148V11.515V11.5152V11.5154V11.5156V11.5157V11.5159V11.5161V11.5163V11.5165V11.5167V11.5169V11.5171V11.5173V11.5175V11.5177V11.5179V11.518V11.5182V11.5184V11.5186V11.5188V11.519V11.5192V11.5194V11.5196V11.5197V11.5199V11.5201V11.5203V11.5205V11.5207V11.5208V11.521V11.5212V11.5214V11.5216V11.5218V11.5219V11.5221V11.5223V11.5225V11.5227V11.5229V11.523V11.5232V11.5234V11.5236V11.5238V11.5239V11.5241V11.5243V11.5245V11.5246V11.5248V11.525V11.5252V11.5253V11.5255V11.5257V11.5259V11.526V11.5262V11.5264V11.5266V11.5267V11.5269V11.5271V11.5272V11.5274V11.5276V11.5277V11.5279V11.5281V11.5283V11.5284V11.5286V11.5288V11.5289V11.5291V11.5293V11.5294V11.5296V11.5297V11.5299V11.5301V11.5302V11.5304V11.5306V11.5307V11.5309V11.531V11.5312V11.5314V11.5315V11.5317V11.5318V11.532V11.5321V11.5323V11.5325V11.5326V11.5328V11.5329V11.5331V11.5332V11.5334V11.5335V11.5337V11.5338V11.534V11.5341V11.5343V11.5344V11.5346V11.5347V11.5349V11.535V11.5352V11.5353V11.5354V11.5356V11.5357V11.5359V11.536C8.02046 11.625 8.01397 11.7073 8.00782 11.7854L8.0077 11.7869C8.00144 11.8664 7.99557 11.9416 7.99557 12.0221C7.99557 12.1939 7.99576 12.3808 8.0194 12.5424L8.02046 12.5496V12.5569C8.02046 12.6025 8.02053 12.6377 8.03998 12.6947L8.04411 12.7068L8.04331 12.7069C8.05676 12.7726 8.06342 12.8376 8.0695 12.897L8.06972 12.8991C8.07602 12.9606 8.08181 13.0165 8.09309 13.0715L8.09513 13.0814V13.0916C8.09513 13.1035 8.09861 13.1227 8.10554 13.1566L8.10643 13.161C8.11137 13.1849 8.1183 13.2186 8.11974 13.2503L8.1902 13.5943C8.21768 13.6554 8.2195 13.7149 8.21958 13.7578C8.2428 13.8365 8.26606 13.9104 8.28962 13.9851L8.28978 13.9856C8.31458 14.0644 8.33973 14.1441 8.36489 14.2302L8.36892 14.2439V14.2462L8.37037 14.2491L8.37089 14.2501C8.37368 14.2556 8.37897 14.2659 8.38327 14.2771C8.38612 14.2845 8.38935 14.2943 8.39147 14.3058C8.40171 14.3311 8.41167 14.3565 8.4216 14.3817C8.46102 14.482 8.49988 14.5809 8.55324 14.6677L8.55732 14.6743L8.55705 14.6745L8.63172 14.8203C8.68184 14.9182 8.72788 15.0076 8.79625 15.0966L8.8018 15.1039L8.80595 15.112C8.83078 15.1605 8.84942 15.1958 8.88637 15.2318L8.89147 15.2368L8.89581 15.2425C8.95215 15.3158 8.99705 15.3921 9.04355 15.4711C9.06211 15.5026 9.08092 15.5346 9.10083 15.567L9.1049 15.5736L9.10463 15.5738C9.1139 15.5919 9.12308 15.6055 9.13555 15.6237L9.13624 15.6248C9.14716 15.6407 9.16052 15.6603 9.1741 15.6854C9.22317 15.7458 9.2719 15.8112 9.31909 15.8746L9.31984 15.8756C9.36991 15.9428 9.41828 16.0077 9.46633 16.0664L9.47311 16.0747L9.47799 16.0842C9.48124 16.0905 9.48766 16.0984 9.50188 16.1099C9.50756 16.1146 9.5129 16.1186 9.51955 16.1236C9.52163 16.1251 9.52383 16.1268 9.52621 16.1286C9.53468 16.135 9.54712 16.1444 9.5584 16.1555L9.5635 16.1604L9.56784 16.1661C9.60012 16.2081 9.63846 16.2458 9.68285 16.2891L9.68494 16.2912C9.72564 16.3309 9.7716 16.3758 9.81222 16.4276L9.95665 16.5686C10.0315 16.6418 10.1016 16.71 10.1948 16.7783L10.2063 16.7867L10.2055 16.7874C10.2247 16.8061 10.2441 16.8205 10.2694 16.839L10.271 16.8402C10.2937 16.8568 10.3214 16.877 10.3495 16.9037L10.3499 16.9041L10.3505 16.9045L10.3511 16.9049L10.3517 16.9053L10.3523 16.9058L10.3529 16.9062L10.3534 16.9066L10.354 16.9071L10.3546 16.9075L10.3552 16.9079L10.3558 16.9083L10.3564 16.9088L10.3569 16.9092L10.3575 16.9096L10.3581 16.91L10.3587 16.9105L10.3593 16.9109L10.3599 16.9113L10.3604 16.9118L10.361 16.9122L10.3616 16.9126L10.3622 16.913L10.3628 16.9135L10.3634 16.9139L10.3639 16.9143L10.3645 16.9147L10.3651 16.9152L10.3657 16.9156L10.3663 16.916L10.3669 16.9165L10.3674 16.9169L10.368 16.9173L10.3686 16.9177L10.3692 16.9182L10.3698 16.9186L10.3704 16.919L10.3709 16.9194L10.3715 16.9199L10.3721 16.9203L10.3727 16.9207L10.3733 16.9212L10.3739 16.9216L10.3744 16.922L10.375 16.9224L10.3756 16.9229L10.3762 16.9233L10.3768 16.9237L10.3774 16.9241L10.3779 16.9246L10.3785 16.925L10.3791 16.9254L10.3797 16.9259L10.3803 16.9263L10.3809 16.9267L10.3814 16.9271L10.382 16.9276L10.3826 16.928L10.3832 16.9284L10.3838 16.9288L10.3844 16.9293L10.3849 16.9297L10.3855 16.9301L10.3861 16.9306L10.3867 16.931L10.3873 16.9314L10.3879 16.9318L10.3884 16.9323L10.389 16.9327L10.3896 16.9331L10.3902 16.9335L10.3908 16.934L10.3914 16.9344L10.3919 16.9348L10.3925 16.9353L10.3931 16.9357L10.3937 16.9361L10.3943 16.9365L10.3949 16.937L10.3954 16.9374L10.396 16.9378L10.3966 16.9382L10.3972 16.9387L10.3978 16.9391L10.3984 16.9395L10.3989 16.94L10.3995 16.9404L10.4001 16.9408L10.4007 16.9412L10.4013 16.9417L10.4019 16.9421L10.4024 16.9425L10.403 16.9429L10.4036 16.9434L10.4042 16.9438L10.4048 16.9442L10.4054 16.9447L10.4059 16.9451L10.4065 16.9455L10.4071 16.9459L10.4077 16.9464L10.4083 16.9468L10.4089 16.9472L10.4094 16.9476L10.41 16.9481L10.4106 16.9485L10.4112 16.9489L10.4118 16.9494L10.4124 16.9498L10.4129 16.9502L10.4135 16.9506L10.4141 16.9511L10.4147 16.9515L10.4153 16.9519L10.4159 16.9523L10.4164 16.9528L10.417 16.9532L10.4176 16.9536L10.4182 16.9541L10.4188 16.9545L10.4194 16.9549L10.4199 16.9553L10.4205 16.9558L10.4211 16.9562L10.4217 16.9566L10.4223 16.957L10.4229 16.9575L10.4234 16.9579L10.424 16.9583L10.4246 16.9588L10.4252 16.9592L10.4258 16.9596L10.4264 16.96L10.4269 16.9605L10.4275 16.9609L10.4281 16.9613L10.4287 16.9617L10.4293 16.9622L10.4299 16.9626L10.4304 16.963L10.431 16.9635L10.4316 16.9639L10.4322 16.9643L10.4328 16.9647L10.4334 16.9652L10.4339 16.9656L10.4345 16.966L10.4351 16.9664L10.4357 16.9669L10.4363 16.9673L10.4369 16.9677L10.4374 16.9682L10.438 16.9686L10.4386 16.969L10.4392 16.9694L10.4398 16.9699L10.4404 16.9703L10.4409 16.9707L10.4415 16.9711L10.4421 16.9716L10.4427 16.972L10.4433 16.9724L10.4439 16.9728L10.4444 16.9733L10.445 16.9737L10.4456 16.9741L10.4462 16.9746L10.4468 16.975L10.4474 16.9754L10.4479 16.9758L10.4485 16.9763L10.4491 16.9767L10.4497 16.9771L10.4503 16.9775L10.4509 16.978L10.4514 16.9784L10.452 16.9788L10.4526 16.9793L10.4532 16.9797L10.4538 16.9801L10.4544 16.9805L10.4549 16.981L10.4555 16.9814L10.4561 16.9818L10.4567 16.9823L10.4573 16.9827L10.4579 16.9831L10.4584 16.9835L10.459 16.984L10.4596 16.9844L10.4602 16.9848L10.4608 16.9852L10.4614 16.9857L10.4619 16.9861L10.4625 16.9865L10.4631 16.9869L10.4637 16.9874L10.4643 16.9878L10.4649 16.9882L10.4654 16.9887L10.466 16.9891L10.4666 16.9895L10.4672 16.9899L10.4678 16.9904L10.4684 16.9908L10.4689 16.9912L10.4695 16.9916L10.4701 16.9921L10.4707 16.9925L10.4713 16.9929L10.4719 16.9934L10.4724 16.9938L10.473 16.9942L10.4736 16.9946L10.4742 16.9951L10.4748 16.9955L10.4754 16.9959L10.476 16.9963L10.4765 16.9968L10.4771 16.9972L10.4777 16.9976L10.4783 16.9981L10.4789 16.9985L10.4795 16.9989L10.48 16.9993L10.4806 16.9998L10.4812 17.0002L10.4818 17.0006L10.4824 17.001L10.483 17.0015L10.4835 17.0019L10.4841 17.0023L10.4847 17.0028L10.4853 17.0032L10.4859 17.0036L10.4865 17.004L10.487 17.0045L10.4876 17.0049L10.4882 17.0053L10.4888 17.0057L10.4894 17.0062L10.49 17.0066L10.4905 17.007L10.4911 17.0075L10.4917 17.0079L10.4923 17.0083L10.4929 17.0087L10.4935 17.0092L10.494 17.0096L10.4946 17.01L10.4952 17.0104L10.4958 17.0109L10.4964 17.0113L10.497 17.0117L10.4975 17.0122L10.4981 17.0126L10.4987 17.013L10.4993 17.0134L10.4999 17.0139L10.5005 17.0143L10.501 17.0147L10.5016 17.0151L10.5022 17.0156L10.5028 17.016L10.5034 17.0164L10.504 17.0169L10.5045 17.0173L10.5051 17.0177L10.5057 17.0181L10.5063 17.0186L10.5069 17.019L10.5075 17.0194L10.508 17.0198L10.5086 17.0203L10.5092 17.0207L10.5098 17.0211L10.5104 17.0216L10.511 17.022L10.5115 17.0224L10.5121 17.0228L10.5127 17.0233L10.5133 17.0237L10.5139 17.0241L10.5145 17.0245L10.515 17.025L10.5156 17.0254L10.5162 17.0258L10.5168 17.0263L10.5174 17.0267L10.518 17.0271L10.5185 17.0275L10.5191 17.028L10.5197 17.0284L10.5203 17.0288L10.5209 17.0292L10.5215 17.0297L10.522 17.0301L10.5226 17.0305L10.5232 17.031L10.5238 17.0314L10.5244 17.0318L10.525 17.0322L10.5255 17.0327L10.5261 17.0331L10.5267 17.0335L10.5273 17.0339L10.5279 17.0344L10.5285 17.0348L10.529 17.0352L10.5296 17.0357L10.5302 17.0361L10.5308 17.0365L10.5314 17.0369L10.532 17.0374L10.5325 17.0378L10.5331 17.0382L10.5337 17.0386L10.5343 17.0391L10.5349 17.0395L10.5355 17.0399L10.536 17.0404L10.5366 17.0408L10.5372 17.0412L10.5378 17.0416L10.5384 17.0421L10.539 17.0425L10.5395 17.0429L10.5401 17.0433L10.5407 17.0438L10.5413 17.0442L10.5419 17.0446L10.5425 17.0451L10.543 17.0455L10.5436 17.0459L10.5442 17.0463L10.5448 17.0468L10.5454 17.0472L10.546 17.0476L10.5465 17.048L10.5471 17.0485L10.5477 17.0489L10.5483 17.0493L10.5489 17.0498L10.5495 17.0502L10.55 17.0506L10.5506 17.051L10.5512 17.0515L10.5518 17.0519L10.5524 17.0523L10.553 17.0527L10.5535 17.0532L10.5541 17.0536L10.5547 17.054L10.5553 17.0545L10.5559 17.0549L10.5565 17.0553L10.557 17.0557L10.5576 17.0562L10.5582 17.0566L10.5588 17.057L10.5594 17.0574L10.56 17.0579L10.5605 17.0583L10.5611 17.0587L10.5617 17.0592L10.5623 17.0596L10.5629 17.06L10.5635 17.0604L10.564 17.0609L10.5646 17.0613L10.5652 17.0617L10.5658 17.0621L10.5664 17.0626L10.567 17.063L10.5675 17.0634L10.5681 17.0639L10.5687 17.0643L10.5693 17.0647L10.5699 17.0651L10.5705 17.0656L10.571 17.066L10.5716 17.0664L10.5722 17.0668L10.5728 17.0673L10.5734 17.0677L10.574 17.0681L10.5745 17.0686L10.5751 17.069L10.5757 17.0694L10.5763 17.0698L10.5769 17.0703L10.5775 17.0707L10.578 17.0711L10.5786 17.0715L10.5792 17.072L10.5798 17.0724L10.5804 17.0728L10.581 17.0733L10.5815 17.0737L10.5821 17.0741L10.5827 17.0745L10.5833 17.075L10.5839 17.0754L10.5845 17.0758L10.585 17.0762L10.5856 17.0767L10.5862 17.0771L10.5868 17.0775L10.5874 17.078L10.588 17.0784L10.5885 17.0788L10.5891 17.0792L10.5897 17.0797L10.5903 17.0801L10.5909 17.0805L10.5915 17.0809L10.592 17.0814L10.5926 17.0818L10.5932 17.0822L10.5938 17.0827L10.5944 17.0831L10.595 17.0835L10.5955 17.0839L10.5961 17.0844L10.5967 17.0848L10.5973 17.0852L10.5979 17.0856L10.5985 17.0861L10.599 17.0865L10.5996 17.0869L10.6002 17.0874L10.6008 17.0878L10.6014 17.0882L10.602 17.0886L10.6025 17.0891L10.6031 17.0895L10.6037 17.0899L10.6043 17.0903L10.6049 17.0908L10.6055 17.0912L10.606 17.0916L10.6066 17.0921L10.6072 17.0925L10.6078 17.0929L10.6084 17.0933L10.609 17.0938L10.6095 17.0942L10.6101 17.0946L10.6107 17.095L10.6113 17.0955L10.6119 17.0959L10.6125 17.0963L10.613 17.0968L10.6136 17.0972L10.6142 17.0976L10.6148 17.098L10.6154 17.0985L10.616 17.0989L10.6165 17.0993L10.6171 17.0997L10.6177 17.1002L10.6183 17.1006L10.6189 17.101L10.6195 17.1015L10.62 17.1019L10.6206 17.1023L10.6212 17.1027L10.6218 17.1032L10.6224 17.1036L10.623 17.104L10.6235 17.1044L10.6241 17.1049L10.6247 17.1053L10.6253 17.1057L10.6259 17.1062L10.6265 17.1066L10.627 17.107L10.6276 17.1074L10.6282 17.1079L10.6288 17.1083L10.6294 17.1087L10.63 17.1091L10.6305 17.1096L10.6311 17.11L10.6317 17.1104L10.6323 17.1109L10.6329 17.1113L10.6335 17.1117L10.634 17.1121L10.6346 17.1126L10.6352 17.113L10.6358 17.1134L10.636 17.1136C10.6949 17.1437 10.7289 17.1769 10.774 17.2209C10.8298 17.2641 10.8923 17.303 10.9615 17.3442C10.9773 17.3535 10.9935 17.3631 11.01 17.3728C11.0647 17.405 11.1229 17.4392 11.1806 17.4766L11.2498 17.5104L11.3245 17.5469L11.3356 17.5523L11.3352 17.5529C11.3703 17.5758 11.3996 17.593 11.4307 17.6112L11.4313 17.6115C11.4622 17.6296 11.495 17.6489 11.5343 17.6744L11.8166 17.8582H11.4798L12.5752 5.94549ZM12.5752 5.94549C12.5771 5.94486 12.5791 5.94424 12.581 5.94361L12.5767 5.9306L12.5951 5.75057C12.116 5.65209 11.6612 5.60269 11.1811 5.60269C7.71814 5.60269 4.9083 8.34315 4.9083 11.7305C4.9083 15.1178 7.71814 17.8582 11.1811 17.8582L12.5752 5.94549ZM14.5688 5.69365L14.5896 5.70478L14.6132 5.70543C18.096 5.80123 20.9127 8.60313 20.9127 12.0221C20.9127 15.4892 18.0224 18.3388 14.4417 18.3388C14.0981 18.3388 13.7795 18.3148 13.4609 18.267L13.4371 18.2634L13.4142 18.2711C12.7031 18.5106 11.9423 18.6305 11.1811 18.6305C7.2765 18.6305 4.1127 15.5376 4.1127 11.7305C4.1127 7.92334 7.2765 4.83047 11.1811 4.83047C12.3585 4.83047 13.5371 5.14197 14.5688 5.69365ZM14.4674 6.47769H14.4666H14.4666H14.4666H14.4665H14.4665H14.4665H14.4665H14.4665H14.4665H14.4665H14.4665H14.4665H14.4665H14.4664H14.4664H14.4664H14.4664H14.4664H14.4664H14.4664H14.4663H14.4663H14.4663H14.4663H14.4663H14.4663H14.4662H14.4662H14.4662H14.4662H14.4662H14.4661H14.4661H14.4661H14.4661H14.466H14.466H14.466H14.466H14.4659H14.4659H14.4659H14.4659H14.4658H14.4658H14.4658H14.4657H14.4657H14.4657H14.4657H14.4656H14.4656H14.4656H14.4655H14.4655H14.4655H14.4654H14.4654H14.4654H14.4653H14.4653H14.4652H14.4652H14.4652H14.4651H14.4651H14.4651H14.465H14.465H14.4649H14.4649H14.4648H14.4648H14.4648H14.4647H14.4647H14.4646H14.4646H14.4645H14.4645H14.4644H14.4644H14.4644H14.4643H14.4643H14.4642H14.4642H14.4641H14.4641H14.464H14.464H14.4639H14.4639H14.4638H14.4638H14.4637H14.4636H14.4636H14.4635H14.4635H14.4634H14.4634H14.4633H14.4633H14.4632H14.4631H14.4631H14.463H14.463H14.4629H14.4629H14.4628H14.4627H14.4627H14.4626H14.4625H14.4625H14.4624H14.4624H14.4623H14.4622H14.4622H14.4621H14.462H14.462H14.4619H14.4618H14.4618H14.4617H14.4616H14.4616H14.4615H14.4614H14.4614H14.4613H14.4612H14.4612H14.4611H14.461H14.4609H14.4609H14.4608H14.4607H14.4606H14.4606H14.4605H14.4604H14.4603H14.4603H14.4602H14.4601H14.46H14.46H14.4599H14.4598H14.4597H14.4597H14.4596H14.4595H14.4594H14.4593H14.4593H14.4592H14.4591H14.459H14.4589H14.4588H14.4588H14.4587H14.4586H14.4585H14.4584H14.4583H14.4583H14.4582H14.4581H14.458H14.4579H14.4578H14.4577H14.4577H14.4576H14.4575H14.4574H14.4573H14.4572H14.4571H14.457H14.4569H14.4568H14.4568H14.4567H14.4566H14.4565H14.4564H14.4563H14.4562H14.4561H14.456H14.4559H14.4558H14.4557H14.4556H14.4555H14.4554H14.4553H14.4553H14.4552H14.4551H14.455H14.4549H14.4548H14.4547H14.4546H14.4545H14.4544H14.4543H14.4542H14.4541H14.454H14.4539H14.4538H14.4537H14.4536H14.4535H14.4534H14.4533H14.4531H14.453H14.4529H14.4528H14.4527H14.4526H14.4525H14.4524H14.4523H14.4522H14.4521H14.452H14.4519H14.4518H14.4517H14.4516H14.4515H14.4513H14.4512H14.4511H14.451H14.4509H14.4508H14.4507H14.4506H14.4505H14.4504H14.4502H14.4501H14.45H14.4499H14.4498H14.4497H14.4496H14.4495H14.4493H14.4492H14.4491H14.449H14.4489H14.4488H14.4487H14.4485H14.4484H14.4483H14.4482H14.4481H14.448H14.4478H14.4477H14.4476H14.4475H14.4474H14.4473H14.4471H14.447H14.4469H14.4468H14.4467H14.4465H14.4464H14.4463H14.4462H14.4461H14.4459H14.4458H14.4457H14.4456H14.4455H14.4453H14.4452H14.4451H14.445H14.4448H14.4447H14.4446H14.4445H14.4444H14.4442H14.4441H14.444H14.4439H14.4437H14.4436H14.4435H14.4434H14.4432H14.4431H14.443H14.4429H14.4427H14.4426H14.4425H14.4423H14.4422H14.4421H14.442H14.4418H14.4417H14.4416H14.4415H14.4413H14.4412H14.4411H14.4409H14.4408H14.4407H14.4405H14.4404H14.4403H14.4402H14.44H14.4399H14.4398H14.4396H14.4395H14.4394H14.4392H14.4391H14.439H14.4388H14.4387H14.4386H14.4384H14.4383H14.4382H14.438H14.4379H14.4378H14.4376H14.4375H14.4374H14.4372H14.4371H14.437H14.4368H14.4367H14.4366H14.4364H14.4363H14.4362H14.436H14.4359H14.4358H14.4356H14.4355H14.4353H14.4352H14.4351H14.4349H14.4348H14.4347H14.4345H14.4344H14.4342H14.4341H14.434H14.4338H14.4337H14.4336H14.4334H14.4333H14.4331H14.433H14.4329H14.4327H14.4326H14.4325H14.4323H14.4322H14.432H14.4319H14.4318H14.4316H14.4315H14.4313H14.4312H14.4311H14.4309H14.4308H14.4306H14.4305H14.4303H14.4302H14.4301H14.4299H14.4298H14.4296H14.4295H14.4294H14.4292H14.4291H14.4289H14.4288H14.4287H14.4285H14.4284H14.4282H14.4281H14.4279H14.4278H14.4277H14.4275H14.4274H14.4272H14.4271H14.4269H14.4268H14.4267H14.4265H14.4264H14.4262H14.4261H14.4259H14.4258H14.4256H14.4255H14.4254H14.4252H14.4251H14.4249H14.4248H14.4246H14.4245H14.4244H14.4242H14.4241H14.4239H14.4238H14.4236H14.4235H14.4233H14.4232H14.4231H14.4229H14.4228H14.4226H14.4225H14.4223H14.4222H14.422H14.4219H14.4217H14.4216H14.4215H14.4213H14.4212H14.421H14.4209H14.4207H14.4206H14.4204H14.4203H14.4201H14.42H14.4199H14.4197H14.4196H14.4194H14.4193H14.4191H14.419H14.4188H14.4187H14.4185H14.4184H14.4183H14.4181H14.418H14.4178H14.4177H14.4175H14.4174H14.4172H14.4171H14.4169H14.4168C11.3026 6.47769 8.74139 8.9505 8.74139 12.0221C8.74139 14.746 10.7196 17.0472 13.4798 17.4924C13.7843 17.5419 14.1133 17.5666 14.4417 17.5666C17.5559 17.5666 20.1171 15.0938 20.1171 12.0221C20.1171 8.97497 17.5811 6.50241 14.4674 6.47769Z" fill="#001423" stroke="white" stroke-width="0.2"/>
<path d="M11.9137 1.23145V3.23145C11.9137 3.45236 11.7346 3.63145 11.5137 3.63145C11.2928 3.63145 11.1137 3.45236 11.1137 3.23145V1.23145C11.1137 1.01053 11.2928 0.831445 11.5137 0.831445C11.7346 0.831445 11.9137 1.01053 11.9137 1.23145Z" fill="#001423" stroke="white" stroke-width="0.2"/>
<path d="M11.9137 21.2305V22.2305C11.9137 22.4514 11.7346 22.6305 11.5137 22.6305C11.2928 22.6305 11.1137 22.4514 11.1137 22.2305V21.2305C11.1137 21.0096 11.2928 20.8305 11.5137 20.8305C11.7346 20.8305 11.9137 21.0096 11.9137 21.2305Z" fill="#001423" stroke="white" stroke-width="0.2"/>
<path d="M0.513672 11.8314H2.51367C2.73459 11.8314 2.91367 12.0105 2.91367 12.2314C2.91367 12.4524 2.73459 12.6314 2.51367 12.6314H0.513672C0.292758 12.6314 0.113672 12.4524 0.113672 12.2314C0.113672 12.0105 0.292758 11.8314 0.513672 11.8314Z" fill="#001423" stroke="white" stroke-width="0.2"/>
<path d="M3.35771 19.1929L4.51753 18.0331C4.67258 17.878 4.92397 17.878 5.07902 18.0331C5.23407 18.1881 5.23407 18.4395 5.07902 18.5946L3.91921 19.7544C3.76416 19.9094 3.51277 19.9094 3.35771 19.7544C3.20266 19.5993 3.20266 19.3479 3.35771 19.1929Z" fill="#001423" stroke="white" stroke-width="0.2"/>
<path d="M3.90945 4.07277L5.06926 5.23258C5.22431 5.38763 5.22431 5.63902 5.06926 5.79408C4.9142 5.94913 4.66281 5.94913 4.50776 5.79407L3.34795 4.63426C3.1929 4.47921 3.1929 4.22782 3.34795 4.07277C3.503 3.91771 3.75439 3.91771 3.90945 4.07277Z" fill="#001423" stroke="white" stroke-width="0.2"/>
</svg>
