<?xml version="1.0" encoding="UTF-8" standalone="no"?>
<!-- Created with Inkscape (http://www.inkscape.org/) -->

<svg
   width="30"
   height="30"
   version="1.1"
   viewBox="0 0 30 30"
   id="svg20"
   sodipodi:docname="Themes 16px .svg"
   inkscape:version="1.1.1 (3bf5ae0d25, 2021-09-20)"
   xmlns:inkscape="http://www.inkscape.org/namespaces/inkscape"
   xmlns:sodipodi="http://sodipodi.sourceforge.net/DTD/sodipodi-0.dtd"
   xmlns="http://www.w3.org/2000/svg"
   xmlns:svg="http://www.w3.org/2000/svg">
  <defs
     id="defs24" />
  <sodipodi:namedview
     id="namedview22"
     pagecolor="#ffffff"
     bordercolor="#666666"
     borderopacity="1.0"
     inkscape:pageshadow="2"
     inkscape:pageopacity="0.0"
     inkscape:pagecheckerboard="0"
     showgrid="true"
     inkscape:snap-global="false"
     inkscape:zoom="27.066667"
     inkscape:cx="14.020936"
     inkscape:cy="15.461822"
     inkscape:window-width="1920"
     inkscape:window-height="1001"
     inkscape:window-x="-9"
     inkscape:window-y="-9"
     inkscape:window-maximized="1"
     inkscape:current-layer="svg20"
     showguides="true"
     inkscape:guide-bbox="true">
    <inkscape:grid
       type="xygrid"
       id="grid915" />
    <sodipodi:guide
       position="4.1009852,13.004926"
       orientation="1,0"
       id="guide917" />
    <sodipodi:guide
       position="26.046798,14.408867"
       orientation="1,0"
       id="guide919" />
    <sodipodi:guide
       position="19.32266,3.9532023"
       orientation="0,-1"
       id="guide921" />
    <sodipodi:guide
       position="16.736453,25.935961"
       orientation="0,-1"
       id="guide923" />
  </sodipodi:namedview>
  <path
     d="M 9.571424,15.5 H 7.428575 C 7.191885,15.5 7,15.276119 7,15 7,14.723881 7.191879,14.5 7.428575,14.5 H 9.571424 C 9.808118,14.5 10,14.723881 10,15 c 0,0.276145 -0.191877,0.5 -0.428576,0.5 z"
     id="path2"
     style="stroke-width:0.274005" />
  <path
     d="m 18,6.4999929 v 2.5000147 c 0,0.2761411 0.22387,0.4999921 0.5,0.4999921 0.276119,0 0.5,-0.2238643 0.5,-0.4999921 V 6.4999929 C 19,6.2238508 18.77613,6 18.5,6 18.223881,6 18,6.2238584 18,6.4999929 Z"
     id="path4"
     style="stroke-width:0.274" />
  <path
     d="m 18,20.999988 v 2.500024 C 18,23.776151 18.22387,24 18.5,24 18.776119,24 19,23.776138 19,23.500012 V 20.999988 C 19,20.723849 18.77613,20.5 18.5,20.5 18.223881,20.5 18,20.723857 18,20.999988 Z"
     id="path6"
     style="stroke-width:1;stroke-miterlimit:4;stroke-dasharray:none" />
  <path
     d="m 12.702267,20.055934 -2.001387,1.091231 c -0.221063,0.120529 -0.266659,0.396663 -0.101857,0.616693 0.164801,0.220043 0.477632,0.300736 0.698708,0.180207 l 2.001388,-1.091231 c 0.221067,-0.120535 0.266658,-0.396664 0.101856,-0.616694 -0.164802,-0.220041 -0.477632,-0.300736 -0.698682,-0.180204 z"
     id="path8"
     style="stroke-width:0.274" />
  <path
     d="M 13.310647,9.1826116 11.329346,8.0615698 c -0.218845,-0.1238255 -0.539527,-0.054997 -0.716266,0.153702 -0.176715,0.208702 -0.142575,0.4783054 0.07627,0.6021156 l 1.981302,1.1210418 c 0.218846,0.1238278 0.539526,0.054997 0.716265,-0.1537039 0.176715,-0.208703 0.142583,-0.4783063 -0.07627,-0.6021166 z"
     id="path10"
     style="stroke-width:0.300157" />
  <path
     d="m 18.507862,10.999841 h -0.03521 c -2.17258,0 -3.972814,1.782779 -3.972814,3.997968 0,1.96448 1.134901,3.652668 3.060415,3.973739 0.212433,0.03577 0.654841,0.02007 0.883886,0.02007 2.172581,0 4.056017,-1.785282 4.056017,-4.000629 0,-2.197645 -1.846517,-3.962559 -4.018788,-3.980397 z"
     fill="none"
     stroke="#001423"
     stroke-width="0.999682"
     id="path16" />
  <path
     d="m 16.41057,10.518062 c -2.565317,0.0011 -4.727562,1.757715 -4.897815,4.2359 -0.219988,3.202356 2.375045,4.745879 4.940449,4.745879 V 18.5006 c -1.165711,-0.728594 -2.093324,-2.075315 -2.093324,-3.497428 0,-1.759817 1.533267,-3.428451 3.139943,-3.997021 V 10.50653 c 0.0014,-4.51e-4 -0.05223,0.261694 -0.05081,0.261267 0,0 -0.0019,0.01489 -0.0045,-0.0088 -0.0024,-0.02366 0.03543,-0.232332 0.03543,-0.232332 -0.359312,-0.04635 -1.026772,-0.0088 -1.026772,-0.0088 z"
     fill="none"
     stroke="#001423"
     stroke-linejoin="round"
     stroke-width="1.0006"
     id="path14"
     style="stroke-width:1.00036;stroke-miterlimit:4;stroke-dasharray:none" />
</svg>
