<svg width="32" height="17" viewBox="0 0 32 17" fill="none" xmlns="http://www.w3.org/2000/svg">
<ellipse cx="23.4759" cy="8.43283" rx="6.49345" ry="6.44845" fill="white"/>
<path d="M31.9543 7.62734C31.7361 5.52751 30.7389 3.58345 29.1568 2.17359C27.5746 0.763729 25.5208 -0.0110331 23.3951 0.000118734H8.5592C6.28916 0.000118734 4.11209 0.895639 2.50693 2.48968C0.90177 4.08371 0 6.24569 0 8.5C0 10.7543 0.90177 12.9163 2.50693 14.5103C4.11209 16.1044 6.28916 16.9999 8.5592 16.9999H23.3951C25.5208 17.011 27.5746 16.2363 29.1568 14.8264C30.7389 13.4166 31.7361 11.4725 31.9543 9.37265C32.0152 8.79246 32.0152 8.20754 31.9543 7.62734V7.62734ZM23.7261 14.4272C22.5382 14.4362 21.3745 14.0943 20.3827 13.445C19.3909 12.7957 18.6159 11.8683 18.1561 10.7806C17.6963 9.69289 17.5725 8.49399 17.8003 7.33623C18.0282 6.17847 18.5974 5.11409 19.4358 4.27835C20.2742 3.4426 21.3438 2.8732 22.5087 2.64249C23.6737 2.41178 24.8814 2.53017 25.9785 2.98263C27.0755 3.43508 28.0124 4.20118 28.67 5.18358C29.3277 6.16598 29.6764 7.32034 29.6719 8.5C29.6689 10.0771 29.0367 11.5887 27.9137 12.7039C26.7907 13.8191 25.2686 14.4469 23.6805 14.4499L23.7261 14.4272Z" fill="#0078D4"/>
</svg>
