<?xml version="1.0" encoding="UTF-8" standalone="no"?>
<!-- Created with Inkscape (http://www.inkscape.org/) -->

<svg
   width="30"
   height="30"
   viewBox="0 0 30 30"
   version="1.1"
   id="svg5"
   inkscape:version="1.1.1 (3bf5ae0d25, 2021-09-20)"
   sodipodi:docname="Wave logo black 16px.svg"
   xmlns:inkscape="http://www.inkscape.org/namespaces/inkscape"
   xmlns:sodipodi="http://sodipodi.sourceforge.net/DTD/sodipodi-0.dtd"
   xmlns="http://www.w3.org/2000/svg"
   xmlns:svg="http://www.w3.org/2000/svg">
  <sodipodi:namedview
     id="namedview7"
     pagecolor="#ffffff"
     bordercolor="#666666"
     borderopacity="1.0"
     inkscape:pageshadow="2"
     inkscape:pageopacity="0.0"
     inkscape:pagecheckerboard="0"
     inkscape:document-units="px"
     showgrid="true"
     showguides="true"
     inkscape:guide-bbox="true"
     inkscape:zoom="23.147924"
     inkscape:cx="11.512911"
     inkscape:cy="14.018536"
     inkscape:window-width="1920"
     inkscape:window-height="1001"
     inkscape:window-x="-9"
     inkscape:window-y="-9"
     inkscape:window-maximized="1"
     inkscape:current-layer="svg5"
     units="px"
     width="30px"
     scale-x="1"
     inkscape:snap-global="false">
    <inkscape:grid
       type="xygrid"
       id="grid839" />
  </sodipodi:namedview>
  <defs
     id="defs2">
    <linearGradient
       x1="0"
       y1="0"
       x2="1"
       y2="0"
       gradientUnits="userSpaceOnUse"
       gradientTransform="matrix(383.93088,0,0,383.93091,-17.072946,177.345)"
       spreadMethod="pad"
       id="linearGradient1852">
      <stop
         style="stop-opacity:1;stop-color:#00a6a6"
         offset="0"
         id="stop1846" />
      <stop
         style="stop-opacity:1;stop-color:#003b62"
         offset="0.63550974"
         id="stop1848" />
      <stop
         style="stop-opacity:1;stop-color:#003b62"
         offset="1"
         id="stop1850" />
    </linearGradient>
    <linearGradient
       x1="0"
       y1="0"
       x2="1"
       y2="0"
       gradientUnits="userSpaceOnUse"
       gradientTransform="matrix(350.02197,0,0,350.022,0,177.345)"
       spreadMethod="pad"
       id="linearGradient1874">
      <stop
         style="stop-opacity:1;stop-color:#00ffff"
         offset="0"
         id="stop1868" />
      <stop
         style="stop-opacity:1;stop-color:#0071bb"
         offset="0.63672773"
         id="stop1870" />
      <stop
         style="stop-opacity:1;stop-color:#0071bb"
         offset="1"
         id="stop1872" />
    </linearGradient>
  </defs>
  <path
     d="m 22.895269,10.22602 c -0.04331,0.14608 -0.111818,0.35809 -0.209462,0.620507 v 0 c -0.02429,0.06571 -0.05123,0.1343 -0.08035,0.20569 v 0 c -0.02795,0.07162 -0.05857,0.146032 -0.09163,0.222751 v 0 c -0.06682,0.153478 -0.140806,0.317519 -0.225702,0.488734 v 0 c -0.08622,0.17076 -0.18034,0.349604 -0.287247,0.532412 v 0 c -0.108296,0.182138 -0.225385,0.369552 -0.356786,0.557149 v 0 c -0.264364,0.37397 -0.577848,0.751642 -0.949533,1.099714 v 0 c -0.370676,0.348564 -0.798135,0.66739 -1.275308,0.933462 v 0 c -0.47685,0.267114 -1.003239,0.480745 -1.56118,0.63964 v 0 c -0.279306,0.07925 -0.566967,0.142556 -0.859268,0.195854 v 0 c -0.145795,0.0275 -0.294451,0.04706 -0.442366,0.06977 v 0 c -0.149286,0.01746 -0.298162,0.03739 -0.449237,0.04894 v 0 c -0.150026,0.01658 -0.302062,0.02395 -0.453187,0.03467 v 0 l -0.220339,0.0092 -0.110704,0.0052 -0.122284,0.0021 c -0.161856,0.0027 -0.323382,0.0053 -0.484508,0.008 v 0 c -0.167127,0.0031 -0.334263,0.0087 -0.500569,0.01584 v 0 c -0.166436,0.0089 -0.332052,0.01715 -0.497349,0.02949 v 0 c -0.164976,0.0115 -0.329402,0.02792 -0.492588,0.04288 v 0 c -0.326642,0.03425 -0.649304,0.07726 -0.965716,0.130284 v 0 c -0.633074,0.106094 -1.242467,0.254972 -1.808168,0.44613 v 0 C 9.8862863,16.755546 9.3644768,16.991835 8.9119398,17.2654 v 0 c -0.2264784,0.136375 -0.4341562,0.283763 -0.6236633,0.433585 v 0 C 8.0999094,17.85102 7.9332832,18.010187 7.7864677,18.167457 v 0 c -0.1446554,0.159978 -0.26739,0.320359 -0.3687038,0.475192 v 0 c -0.099104,0.156908 -0.1796967,0.305832 -0.2383589,0.446266 v 0 c -0.1187844,0.28029 -0.1624461,0.513556 -0.1745165,0.670912 v 0 c -0.007,0.07871 -0.005,0.139267 -0.003,0.179472 v 0 c 0.002,0.04037 0.005,0.0607 0.005,0.0607 v 0 c 0,0 0.006,-0.01982 0.020901,-0.05641 v 0 c 0.015201,-0.0366 0.039902,-0.08971 0.075203,-0.156005 v 0 c 0.071903,-0.13218 0.1906171,-0.316798 0.375404,-0.514905 v 0 c 0.1842869,-0.198248 0.4326862,-0.409672 0.747778,-0.601551 v 0 c 0.3133917,-0.193916 0.6915458,-0.370187 1.123222,-0.515948 v 0 c 0.4308061,-0.147658 0.9138445,-0.267514 1.4350045,-0.359846 v 0 c 0.521439,-0.09229 1.08011,-0.159256 1.664282,-0.203164 v 0 c 0.292111,-0.02154 0.590092,-0.03932 0.893073,-0.05114 v 0 c 0.151726,-0.0054 0.303992,-0.01207 0.457917,-0.01417 v 0 c 0.153546,-0.0052 0.308482,-0.0068 0.463868,-0.0089 v 0 c 0.155616,-4.06e-4 0.311741,-0.0036 0.468877,-0.0021 v 0 c 0.0785,2.25e-4 0.157126,4.5e-4 0.235929,5.23e-4 v 0 c 0.0849,-0.0011 0.170056,-0.0016 0.25509,-0.0027 v 0 l 0.122274,-0.0011 0.133835,-0.0047 c 0.0896,-0.0031 0.179967,-0.0071 0.26909,-0.01182 v 0 c 0.174737,-0.01318 0.349433,-0.02337 0.52459,-0.04356 v 0 c 0.174926,-0.01679 0.349863,-0.04382 0.52446,-0.06833 v 0 l 0.261389,-0.04528 c 0.0871,-0.01469 0.173687,-0.0354 0.26032,-0.05289 v 0 c 0.346423,-0.07392 0.688467,-0.168962 1.022639,-0.282998 v 0 c 0.667462,-0.231458 1.298973,-0.550148 1.851456,-0.94037 v 0 c 0.553401,-0.389313 1.024384,-0.848352 1.398041,-1.328557 v 0 c 0.374439,-0.480513 0.654713,-0.978818 0.856103,-1.454323 v 0 c 0.101731,-0.237329 0.186212,-0.468337 0.252853,-0.691224 v 0 c 0.06797,-0.222295 0.122,-0.434938 0.161899,-0.636298 v 0 c 0.04129,-0.200909 0.07136,-0.38972 0.09136,-0.564814 v 0 c 0.01031,-0.08746 0.01897,-0.171305 0.02577,-0.251453 v 0 c 0.0062,-0.08028 0.01079,-0.156772 0.01382,-0.229428 v 0 c 0.01382,-0.290083 0.0037,-0.517435 -0.0083,-0.671452 v 0 c -0.0055,-0.07708 -0.01355,-0.135973 -0.01828,-0.175415 v 0 c -0.0056,-0.0393 -0.0085,-0.05967 -0.0085,-0.05967 v 0 c 0,0 -0.01934,0.08002 -0.06315,0.226087"
     style="fill:#2b0000;stroke:none;stroke-width:0.0454945"
     id="path1854" />
</svg>
