<?xml version="1.0" encoding="UTF-8" standalone="no"?>
<!-- Created with Inkscape (http://www.inkscape.org/) -->

<svg
   width="16mm"
   height="16mm"
   viewBox="0 0 16 16"
   version="1.1"
   id="svg5"
   inkscape:version="1.1.1 (3bf5ae0d25, 2021-09-20)"
   sodipodi:docname="wave_Black.svg"
   xmlns:inkscape="http://www.inkscape.org/namespaces/inkscape"
   xmlns:sodipodi="http://sodipodi.sourceforge.net/DTD/sodipodi-0.dtd"
   xmlns="http://www.w3.org/2000/svg"
   xmlns:svg="http://www.w3.org/2000/svg">
  <sodipodi:namedview
     id="namedview7"
     pagecolor="#ffffff"
     bordercolor="#666666"
     borderopacity="1.0"
     inkscape:pageshadow="2"
     inkscape:pageopacity="0.0"
     inkscape:pagecheckerboard="0"
     inkscape:document-units="px"
     showgrid="true"
     inkscape:zoom="5.7869809"
     inkscape:cx="11.923316"
     inkscape:cy="64.368624"
     inkscape:window-width="1920"
     inkscape:window-height="1001"
     inkscape:window-x="-9"
     inkscape:window-y="-9"
     inkscape:window-maximized="1"
     inkscape:current-layer="g932"
     inkscape:snap-grids="false"
     inkscape:snap-to-guides="false">
    <inkscape:grid
       type="xygrid"
       id="grid846" />
  </sodipodi:namedview>
  <defs
     id="defs2">
    <linearGradient
       id="paint0_linear_549:3946"
       x1="-0.83444601"
       y1="93.9067"
       x2="208.437"
       y2="93.9067"
       gradientUnits="userSpaceOnUse"
       gradientTransform="matrix(4.5211592,0,0,5.6071602,-409.66595,-669.80215)">
      <stop
         stop-color="#00A6A6"
         id="stop870" />
      <stop
         offset="0.63551"
         stop-color="#003B62"
         id="stop872" />
      <stop
         offset="1"
         stop-color="#003B62"
         id="stop874" />
    </linearGradient>
    <linearGradient
       id="paint1_linear_549:3946"
       x1="8.4720802"
       y1="93.9067"
       x2="199.25999"
       y2="93.9067"
       gradientUnits="userSpaceOnUse"
       gradientTransform="matrix(4.5211592,0,0,5.6071602,-409.66595,-669.80215)">
      <stop
         stop-color="#00FFFF"
         id="stop877" />
      <stop
         offset="0.636728"
         stop-color="#0071BB"
         id="stop879" />
      <stop
         offset="1"
         stop-color="#0071BB"
         id="stop881" />
    </linearGradient>
    <linearGradient
       id="paint2_linear_549:3946"
       x1="28.915501"
       y1="61.402401"
       x2="194.062"
       y2="174.30099"
       gradientUnits="userSpaceOnUse">
      <stop
         stop-color="#747473"
         id="stop884" />
      <stop
         offset="0.637365"
         stop-color="#333333"
         id="stop886" />
      <stop
         offset="1"
         stop-color="#333333"
         id="stop888" />
    </linearGradient>
  </defs>
  <g
     inkscape:label="Слой 1"
     inkscape:groupmode="layer"
     id="layer1">
    <g
       style="fill:none"
       id="g932"
       transform="matrix(0.26458333,0,0,0.26458333,112.23753,164.13335)">
      <g
         opacity="0.350006"
         id="g838">
        <g
           opacity="0.350006"
           id="g836">
          <g
             opacity="0.350006"
             id="g834">
            <g
               opacity="0.350006"
               id="g832" />
          </g>
        </g>
      </g>
      <g
         opacity="0.5"
         id="g858">
        <g
           opacity="0.5"
           id="g856">
          <g
             opacity="0.5"
             id="g854">
            <g
               opacity="0.5"
               id="g852" />
          </g>
        </g>
      </g>
      <path
         d="m -366.82281,-614.0782 c -0.14805,0.72431 -0.38202,1.77556 -0.71573,3.07679 -0.0828,0.32581 -0.17475,0.66592 -0.2745,1.01995 -0.0955,0.35511 -0.20006,0.7241 -0.31303,1.10452 -0.22822,0.76104 -0.48087,1.57441 -0.7709,2.4234 -0.29463,0.84672 -0.61597,1.7335 -0.98131,2.64002 -0.36994,0.9031 -0.76977,1.83241 -1.21873,2.76261 -0.90313,1.85436 -1.97384,3.72708 -3.24375,5.45301 -1.26616,1.72839 -2.72633,3.30932 -4.35639,4.62865 -1.62893,1.3245 -3.42715,2.38381 -5.33314,3.17178 -0.954,0.39286 -1.93675,0.70692 -2.93531,0.9711 -0.49814,0.13635 -1.00575,0.23351 -1.51107,0.346 -0.50991,0.0865 -1.01867,0.18537 -1.53462,0.24289 -0.5125,0.0819 -1.03191,0.1184 -1.54813,0.17173 l -0.75253,0.0452 -0.37826,0.0251 -0.41765,0.01 c -0.55303,0.0132 -1.10491,0.0265 -1.65536,0.0397 -0.57079,0.0153 -1.14172,0.043 -1.70983,0.0784 -0.56858,0.044 -1.13433,0.0852 -1.69898,0.14658 -0.56358,0.0567 -1.12524,0.13848 -1.6827,0.21221 -1.11586,0.17001 -2.21805,0.3835 -3.29895,0.64641 -2.16258,0.52582 -4.24432,1.26427 -6.17678,2.21195 -1.93177,0.94811 -3.71429,2.11991 -5.26019,3.47623 -0.77368,0.67624 -1.48308,1.40702 -2.13046,2.15016 -0.64348,0.7538 -1.21267,1.54297 -1.7142,2.32275 -0.49415,0.79342 -0.91341,1.58855 -1.25951,2.3564 -0.33857,0.77807 -0.61387,1.51654 -0.81424,2.2128 -0.40578,1.38957 -0.55493,2.54645 -0.59614,3.32667 -0.0244,0.39031 -0.0181,0.69073 -0.0121,0.89015 0.007,0.19984 0.0186,0.30083 0.0186,0.30083 0,0 0.0202,-0.0985 0.0716,-0.27995 0.052,-0.18109 0.13615,-0.44487 0.25711,-0.7734 0.24565,-0.65537 0.65114,-1.57065 1.28239,-2.55326 0.62952,-0.98305 1.47804,-2.03129 2.55443,-2.98279 1.07055,-0.96132 2.36232,-1.8357 3.83697,-2.55838 1.47165,-0.73207 3.12175,-1.3265 4.90205,-1.78414 1.78126,-0.45765 3.6897,-0.78959 5.68526,-1.00733 0.99787,-0.10698 2.01581,-0.19517 3.05079,-0.25355 0.51827,-0.0268 1.03845,-0.0601 1.56425,-0.0703 0.52457,-0.0256 1.05379,-0.0341 1.58462,-0.0443 0.5316,-10e-4 1.0649,-0.0183 1.60181,-0.0109 0.26788,10e-4 0.53666,0.002 0.80569,0.004 0.29002,-0.004 0.5812,-0.009 0.87151,-0.0122 l 0.41765,-0.006 0.45731,-0.0226 c 0.30584,-0.0161 0.61484,-0.035 0.91922,-0.0584 0.59703,-0.0656 1.19374,-0.11585 1.79189,-0.21603 0.59758,-0.0831 1.19517,-0.21732 1.7916,-0.33877 l 0.89308,-0.22456 c 0.2975,-0.0732 0.59328,-0.17598 0.88932,-0.26248 1.18309,-0.36647 2.35183,-0.83773 3.49323,-1.4032 2.28026,-1.14752 4.43747,-2.72797 6.32479,-4.66294 1.89048,-1.93029 3.49927,-4.20655 4.77579,-6.58766 1.27909,-2.38266 2.23654,-4.85352 2.92439,-7.21138 0.3475,-1.17678 0.63609,-2.32227 0.86375,-3.42743 0.23225,-1.10227 0.41678,-2.15669 0.55304,-3.15514 0.14112,-0.99621 0.24373,-1.93243 0.31215,-2.80068 0.0353,-0.43366 0.065,-0.84941 0.0879,-1.24681 0.0213,-0.39811 0.0368,-0.7774 0.0471,-1.13763 0.0471,-1.43839 0.0124,-2.56576 -0.0282,-3.32949 -0.0189,-0.38216 -0.0463,-0.67419 -0.0626,-0.86977 -0.0193,-0.19554 -0.029,-0.29649 -0.029,-0.29649 0,0 -0.066,0.39675 -0.21557,1.1211"
         fill="url(#paint0_linear_549:3946)"
         id="path2158"
         style="fill:#000000;fill-opacity:1;stroke-width:0.349972" />
      <path
         d="m -366.89841,-614.10373 c -0.10006,0.35108 -0.22881,0.77894 -0.38144,1.27324 -0.15952,0.49275 -0.34435,1.05151 -0.5608,1.66281 -0.44063,1.21911 -1.00372,2.65255 -1.74013,4.15852 -0.73642,1.50507 -1.63121,3.08821 -2.7071,4.59775 -1.07416,1.51108 -2.32537,2.94615 -3.74445,4.19675 -1.41792,1.25359 -3.0043,2.32206 -4.72633,3.16947 -1.72089,0.85232 -3.57833,1.47597 -5.51363,1.92889 -0.48923,0.0918 -0.97242,0.22153 -1.46623,0.30633 -0.499,0.0651 -0.99741,0.14275 -1.4964,0.22286 -0.25266,0.0481 -0.49496,0.0637 -0.73758,0.081 -0.24316,0.017 -0.48604,0.0432 -0.72893,0.0667 l -0.72923,0.0748 c -0.11268,0.0176 -0.26933,0.0121 -0.40299,0.0183 l -0.41621,0.0127 c -1.11181,0.0467 -2.22391,0.0935 -3.33125,0.14033 -0.29218,0.0157 -0.58281,0.0234 -0.87517,0.0449 -0.29237,0.0329 -0.58442,0.0656 -0.87615,0.0978 -0.58393,0.0736 -1.16344,0.11208 -1.74379,0.22043 -2.3188,0.3567 -4.60671,0.99553 -6.78575,1.89106 -2.17952,0.89887 -4.25233,2.09045 -6.11127,3.56945 -1.85975,1.47307 -3.49778,3.23845 -4.81559,5.14189 -1.31952,1.90303 -2.32379,3.92067 -2.99516,5.84031 -0.67637,1.91879 -1.05238,3.69695 -1.24118,5.1662 -0.0459,0.369 -0.0809,0.71928 -0.11293,1.04524 -0.0214,0.33153 -0.0457,0.63705 -0.0537,0.9251 -0.0237,0.57227 -0.0211,1.05803 -0.004,1.45049 0.0288,0.78235 0.0979,1.18629 0.0979,1.18629 0,0 0.0962,-0.39158 0.32354,-1.06996 0.22953,-0.67667 0.58956,-1.63926 1.12697,-2.74416 0.54271,-1.10023 1.25761,-2.33937 2.17199,-3.55507 0.91623,-1.21357 2.03896,-2.38708 3.33936,-3.42637 1.30057,-1.04056 2.78476,-1.94349 4.41996,-2.67088 1.63476,-0.72992 3.41896,-1.28516 5.30456,-1.68485 0.23627,-0.0503 0.46859,-0.11414 0.70848,-0.15467 0.24049,-0.0396 0.48162,-0.0784 0.72398,-0.11852 0.48259,-0.0856 0.96593,-0.17771 1.46508,-0.22159 0.49635,-0.0567 0.98879,-0.13891 1.49326,-0.17727 0.50467,-0.0404 1.01167,-0.081 1.52087,-0.12229 0.50856,-0.0384 1.0278,-0.0426 1.54294,-0.0695 0.25835,-0.0109 0.51656,-0.0217 0.77553,-0.0324 l 0.78306,-0.004 0.78441,-0.002 0.87609,-0.01 c 0.55506,-0.0145 1.11038,-0.0299 1.66629,-0.0443 l 0.41621,-0.0153 c 0.14401,-0.008 0.26617,-0.004 0.43,-0.0251 l 0.93188,-0.098 0.93043,-0.10649 c 0.31072,-0.037 0.62145,-0.0746 0.91692,-0.14148 0.59904,-0.11718 1.19633,-0.23606 1.79046,-0.3673 0.59414,-0.15041 1.18827,-0.33407 1.77637,-0.5122 2.35383,-0.76102 4.64672,-1.89151 6.74961,-3.4059 2.10319,-1.50866 4.00459,-3.4118 5.57687,-5.5506 1.57718,-2.13563 2.81919,-4.49012 3.72922,-6.80076 0.91261,-2.31306 1.50445,-4.57313 1.86893,-6.59981 0.36677,-2.02889 0.5168,-3.82419 0.56077,-5.29254 0.007,-0.36921 0.0179,-0.71382 0.0181,-1.04008 -0.002,-0.32714 -0.006,-0.63125 -0.0149,-0.91521 -0.0152,-0.56615 -0.0465,-1.04543 -0.0791,-1.43166 -0.0644,-0.77314 -0.13711,-1.17479 -0.13711,-1.17479 0,0 -0.0931,0.39295 -0.29146,1.09557"
         fill="url(#paint1_linear_549:3946)"
         id="path2160"
         style="fill:#000000;fill-opacity:1;stroke-width:0.349972" />
    </g>
  </g>
</svg>
