<?xml version="1.0" encoding="UTF-8" standalone="no"?>
<!-- Created with Inkscape (http://www.inkscape.org/) -->

<svg
   width="24"
   height="24"
   viewBox="0 0 6.3499998 6.3499998"
   version="1.1"
   id="svg5"
   inkscape:version="1.1.1 (3bf5ae0d25, 2021-09-20)"
   sodipodi:docname="Wave logo_bez podlojka 24px.svg"
   xmlns:inkscape="http://www.inkscape.org/namespaces/inkscape"
   xmlns:sodipodi="http://sodipodi.sourceforge.net/DTD/sodipodi-0.dtd"
   xmlns="http://www.w3.org/2000/svg"
   xmlns:svg="http://www.w3.org/2000/svg">
  <sodipodi:namedview
     id="namedview7"
     pagecolor="#ffffff"
     bordercolor="#666666"
     borderopacity="1.0"
     inkscape:pageshadow="2"
     inkscape:pageopacity="0.0"
     inkscape:pagecheckerboard="0"
     inkscape:document-units="px"
     showgrid="false"
     showguides="true"
     inkscape:guide-bbox="true"
     inkscape:zoom="23.147924"
     inkscape:cx="25.250645"
     inkscape:cy="11.556112"
     inkscape:window-width="1920"
     inkscape:window-height="1001"
     inkscape:window-x="-9"
     inkscape:window-y="-9"
     inkscape:window-maximized="1"
     inkscape:current-layer="g10781"
     units="px" />
  <defs
     id="defs2">
    <linearGradient
       x1="0"
       y1="0"
       x2="1"
       y2="0"
       gradientUnits="userSpaceOnUse"
       gradientTransform="matrix(383.93088,0,0,383.93091,-17.072946,177.345)"
       spreadMethod="pad"
       id="linearGradient1852">
      <stop
         style="stop-opacity:1;stop-color:#00a6a6"
         offset="0"
         id="stop1846" />
      <stop
         style="stop-opacity:1;stop-color:#003b62"
         offset="0.63550974"
         id="stop1848" />
      <stop
         style="stop-opacity:1;stop-color:#003b62"
         offset="1"
         id="stop1850" />
    </linearGradient>
    <linearGradient
       x1="0"
       y1="0"
       x2="1"
       y2="0"
       gradientUnits="userSpaceOnUse"
       gradientTransform="matrix(350.02197,0,0,350.022,0,177.345)"
       spreadMethod="pad"
       id="linearGradient1874">
      <stop
         style="stop-opacity:1;stop-color:#00ffff"
         offset="0"
         id="stop1868" />
      <stop
         style="stop-opacity:1;stop-color:#0071bb"
         offset="0.63672773"
         id="stop1870" />
      <stop
         style="stop-opacity:1;stop-color:#0071bb"
         offset="1"
         id="stop1872" />
    </linearGradient>
  </defs>
  <g
     inkscape:label="Слой 1"
     inkscape:groupmode="layer"
     id="layer1">
    <g
       id="g10781"
       transform="matrix(0.9992707,0,0,1.002664,-0.05200432,0.00888894)">
      <g
         id="g1836"
         transform="matrix(0.0160242,0,0,-0.01543808,0.4374261,5.9114255)">
        <g
           id="g1842">
          <g
             id="g1844">
            <path
               d="m 347.169,283.131 c -0.944,-3.237 -2.438,-7.935 -4.567,-13.75 v 0 c -0.529,-1.456 -1.117,-2.976 -1.752,-4.558 v 0 c -0.61,-1.587 -1.277,-3.236 -1.998,-4.936 v 0 c -1.457,-3.401 -3.07,-7.036 -4.921,-10.83 v 0 c -1.88,-3.784 -3.932,-7.747 -6.263,-11.798 v 0 c -2.361,-4.036 -4.914,-8.189 -7.779,-12.346 v 0 c -5.764,-8.287 -12.599,-16.656 -20.703,-24.369 v 0 c -8.082,-7.724 -17.402,-14.789 -27.806,-20.685 v 0 c -10.397,-5.919 -21.874,-10.653 -34.039,-14.174 v 0 c -6.09,-1.756 -12.362,-3.159 -18.735,-4.34 v 0 c -3.179,-0.61 -6.42,-1.043 -9.645,-1.546 v 0 c -3.255,-0.387 -6.501,-0.829 -9.795,-1.085 v 0 c -3.271,-0.367 -6.586,-0.531 -9.881,-0.768 v 0 l -4.804,-0.203 -2.414,-0.111 -2.666,-0.047 c -3.529,-0.059 -7.051,-0.117 -10.564,-0.176 v 0 c -3.644,-0.068 -7.288,-0.192 -10.914,-0.351 v 0 c -3.629,-0.196 -7.24,-0.38 -10.844,-0.654 v 0 c -3.597,-0.255 -7.182,-0.619 -10.74,-0.95 v 0 c -7.122,-0.759 -14.157,-1.712 -21.056,-2.887 v 0 c -13.803,-2.351 -27.09,-5.65 -39.424,-9.886 v 0 c -12.33,-4.237 -23.707,-9.473 -33.574,-15.535 v 0 c -4.938,-3.022 -9.466,-6.288 -13.598,-9.608 v 0 c -4.107,-3.369 -7.74,-6.896 -10.941,-10.381 v 0 c -3.154,-3.545 -5.83,-7.099 -8.039,-10.53 v 0 C 7.546,93.15 5.789,89.85 4.51,86.738 v 0 C 1.92,80.527 0.968,75.358 0.705,71.871 v 0 C 0.549,70.127 0.589,68.785 0.631,67.894 v 0 C 0.68,67 0.75,66.549 0.75,66.549 v 0 c 0,0 0.129,0.439 0.457,1.25 v 0 c 0.332,0.811 0.869,1.988 1.641,3.457 v 0 c 1.568,2.929 4.156,7.02 8.185,11.41 v 0 c 4.018,4.393 9.434,9.078 16.304,13.33 v 0 c 6.833,4.297 15.078,8.203 24.49,11.433 v 0 c 9.393,3.272 19.925,5.928 31.288,7.974 v 0 c 11.369,2.045 23.55,3.529 36.287,4.502 v 0 c 6.369,0.477 12.866,0.871 19.472,1.133 v 0 c 3.308,0.119 6.628,0.268 9.984,0.314 v 0 c 3.348,0.114 6.726,0.151 10.114,0.197 v 0 c 3.393,0.009 6.797,0.083 10.223,0.052 v 0 c 1.711,-0.005 3.426,-0.01 5.144,-0.016 v 0 c 1.851,0.018 3.708,0.037 5.562,0.054 v 0 l 2.666,0.028 2.918,0.101 c 1.953,0.073 3.924,0.157 5.867,0.262 v 0 c 3.81,0.292 7.619,0.518 11.438,0.965 v 0 c 3.814,0.372 7.628,0.971 11.435,1.514 v 0 l 5.699,1.004 c 1.899,0.326 3.787,0.785 5.676,1.172 v 0 c 7.553,1.638 15.011,3.744 22.297,6.271 v 0 c 14.553,5.129 28.322,12.191 40.368,20.838 v 0 c 12.066,8.627 22.335,18.799 30.482,29.44 v 0 c 8.164,10.648 14.275,21.69 18.666,32.227 v 0 c 2.218,5.259 4.06,10.378 5.513,15.317 v 0 c 1.482,4.926 2.66,9.638 3.53,14.1 v 0 c 0.9,4.452 1.556,8.636 1.992,12.516 v 0 c 0.225,1.938 0.414,3.796 0.562,5.572 v 0 c 0.135,1.779 0.235,3.474 0.301,5.084 v 0 c 0.301,6.428 0.078,11.466 -0.181,14.879 v 0 c -0.12,1.708 -0.295,3.013 -0.399,3.887 v 0 c -0.123,0.874 -0.185,1.325 -0.185,1.325 v 0 c 0,0 -0.422,-1.773 -1.377,-5.01"
               style="fill:url(#linearGradient1852);stroke:none"
               id="path1854" />
          </g>
        </g>
      </g>
      <g
         id="g1856"
         transform="matrix(0.0160242,0,0,-0.01543808,0.43731551,5.9114255)">
        <g
           id="g1858">
          <g
             id="g1864">
            <g
               id="g1866">
              <path
                 d="m 346.686,283.245 c -0.639,-1.569 -1.461,-3.481 -2.435,-5.69 v 0 c -1.018,-2.202 -2.198,-4.699 -3.579,-7.431 v 0 c -2.812,-5.448 -6.406,-11.854 -11.107,-18.584 v 0 c -4.699,-6.726 -10.411,-13.801 -17.278,-20.547 v 0 c -6.855,-6.753 -14.842,-13.166 -23.9,-18.755 v 0 c -9.05,-5.602 -19.174,-10.377 -30.166,-14.164 v 0 c -10.984,-3.809 -22.838,-6.596 -35.191,-8.62 v 0 c -3.123,-0.41 -6.206,-0.99 -9.359,-1.369 v 0 c -3.184,-0.291 -6.366,-0.638 -9.551,-0.996 v 0 c -1.612,-0.215 -3.159,-0.285 -4.707,-0.362 v 0 c -1.552,-0.076 -3.102,-0.193 -4.653,-0.298 v 0 l -4.654,-0.334 c -0.719,-0.079 -1.719,-0.053 -2.572,-0.082 v 0 l -2.657,-0.057 c -7.097,-0.209 -14.194,-0.418 -21.262,-0.627 v 0 c -1.865,-0.07 -3.72,-0.105 -5.586,-0.201 v 0 c -1.866,-0.147 -3.73,-0.293 -5.592,-0.437 v 0 c -3.727,-0.329 -7.426,-0.501 -11.13,-0.985 v 0 c -14.8,-1.594 -29.403,-4.449 -43.311,-8.451 v 0 C 84.085,171.238 70.855,165.913 58.99,159.304 v 0 C 47.12,152.72 36.665,144.831 28.254,136.325 v 0 C 19.832,127.82 13.422,118.804 9.137,110.225 v 0 C 4.82,101.65 2.42,93.704 1.215,87.137 v 0 C 0.922,85.488 0.699,83.924 0.494,82.467 v 0 C 0.358,80.985 0.203,79.619 0.151,78.332 v 0 C 0,75.774 0.016,73.604 0.125,71.85 v 0 C 0.309,68.353 0.75,66.549 0.75,66.549 v 0 c 0,0 0.614,1.75 2.065,4.781 v 0 c 1.465,3.025 3.763,7.326 7.193,12.264 v 0 c 3.464,4.916 8.027,10.455 13.863,15.887 v 0 c 5.848,5.423 13.014,10.667 21.314,15.313 v 0 c 8.301,4.65 17.774,8.685 28.211,11.936 v 0 c 10.434,3.262 21.822,5.742 33.857,7.528 v 0 c 1.508,0.225 2.991,0.511 4.522,0.691 v 0 c 1.535,0.177 3.074,0.352 4.621,0.531 v 0 c 3.08,0.382 6.165,0.793 9.351,0.99 v 0 c 3.168,0.252 6.311,0.621 9.531,0.791 v 0 c 3.221,0.182 6.457,0.363 9.707,0.547 v 0 c 3.246,0.172 6.56,0.191 9.848,0.31 v 0 c 1.649,0.049 3.297,0.098 4.95,0.146 v 0 l 4.998,0.018 5.007,0.01 5.592,0.043 c 3.542,0.066 7.087,0.133 10.634,0.198 v 0 l 2.658,0.07 c 0.918,0.038 1.698,0.017 2.743,0.111 v 0 l 5.949,0.439 5.939,0.475 c 1.982,0.166 3.965,0.334 5.852,0.632 v 0 c 3.822,0.524 7.636,1.055 11.428,1.643 v 0 c 3.792,0.672 7.583,1.492 11.337,2.288 v 0 c 15.024,3.402 29.659,8.454 43.08,15.221 v 0 c 13.424,6.742 25.561,15.247 35.596,24.805 v 0 c 10.067,9.544 17.994,20.066 23.801,30.392 v 0 c 5.826,10.337 9.604,20.437 11.929,29.494 v 0 c 2.342,9.067 3.3,17.09 3.58,23.652 v 0 c 0.046,1.65 0.114,3.19 0.116,4.648 v 0 c -0.019,1.462 -0.037,2.821 -0.096,4.09 v 0 c -0.098,2.53 -0.298,4.672 -0.505,6.398 v 0 c -0.411,3.455 -0.875,5.25 -0.875,5.25 v 0 c 0,0 -0.594,-1.756 -1.86,-4.896"
                 style="fill:url(#linearGradient1874);stroke:none"
                 id="path1876" />
            </g>
          </g>
        </g>
      </g>
    </g>
  </g>
</svg>
